<svg width="768" height="746" viewBox="0 0 768 746" fill="none" xmlns="http://www.w3.org/2000/svg">
<circle cx="373" cy="373" r="363" fill="url(#paint0_linear_60_151)" fill-opacity="0.5" stroke="#FFA812" stroke-width="20"/>
<circle cx="648.5" cy="144.5" r="117" fill="#FFA812" fill-opacity="0.95" stroke="#FFA812" stroke-width="5"/>
<path d="M459.348 160.429H316.25L239.012 392.976C238.964 393.128 238.952 393.289 238.976 393.447C238.999 393.604 239.059 393.754 239.149 393.885C239.24 394.016 239.36 394.124 239.499 394.202C239.638 394.28 239.793 394.325 239.952 394.333H328.566C328.734 394.325 328.901 394.358 329.054 394.429C329.206 394.5 329.339 394.606 329.442 394.739C329.544 394.873 329.613 395.029 329.642 395.194C329.672 395.36 329.661 395.53 329.61 395.69L261.036 600.683C260.643 601.866 260.688 603.15 261.16 604.304C261.633 605.458 262.503 606.404 263.613 606.971C264.723 607.539 266 607.69 267.211 607.398C268.423 607.106 269.491 606.39 270.221 605.379L477.092 321.375C477.208 321.22 477.279 321.036 477.296 320.842C477.314 320.649 477.277 320.455 477.19 320.282C477.104 320.109 476.97 319.963 476.806 319.861C476.641 319.759 476.451 319.705 476.257 319.705H383.259C383.083 319.685 382.914 319.626 382.766 319.53C382.617 319.435 382.492 319.306 382.402 319.155C382.311 319.003 382.256 318.833 382.242 318.657C382.227 318.481 382.254 318.304 382.319 318.139L460.287 161.577C460.302 161.44 460.289 161.301 460.249 161.169C460.21 161.037 460.145 160.914 460.057 160.807C459.97 160.7 459.862 160.612 459.74 160.547C459.619 160.482 459.485 160.442 459.348 160.429Z" stroke="#FFA812" stroke-width="20"/>
<g filter="url(#filter0_d_60_151)">
<path d="M573.67 166.1C572.02 166.1 570.773 165.55 569.93 164.45C569.087 163.35 568.243 162.012 567.4 160.435C566.593 158.858 565.823 157.3 565.09 155.76C564.357 154.183 563.623 152.588 562.89 150.975C560.947 153.285 559.113 155.485 557.39 157.575C555.703 159.628 554.218 161.443 552.935 163.02C551.688 164.56 550.753 165.752 550.13 166.595C549.58 167.292 549.03 167.878 548.48 168.355C547.967 168.868 547.215 169.125 546.225 169.125C545.272 169.125 544.52 168.832 543.97 168.245C543.457 167.695 543.2 166.925 543.2 165.935C543.2 165.165 543.658 164.047 544.575 162.58C545.492 161.077 546.72 159.317 548.26 157.3C549.837 155.247 551.597 153.065 553.54 150.755C555.52 148.408 557.573 146.007 559.7 143.55C557.573 138.307 555.905 133.888 554.695 130.295C553.522 126.665 552.935 124.08 552.935 122.54C552.935 120.523 553.925 119.515 555.905 119.515C556.968 119.515 557.793 119.808 558.38 120.395C559.003 120.945 559.517 121.715 559.92 122.705C560.287 123.548 560.855 125.088 561.625 127.325C562.395 129.525 563.605 132.825 565.255 137.225C567.822 134.292 569.93 131.798 571.58 129.745C573.267 127.692 574.66 126.042 575.76 124.795C576.86 123.548 577.813 122.632 578.62 122.045C579.427 121.458 580.215 121.165 580.985 121.165C582.012 121.165 582.8 121.44 583.35 121.99C583.937 122.503 584.23 123.255 584.23 124.245C584.23 125.162 584.065 125.95 583.735 126.61C583.405 127.27 582.965 127.967 582.415 128.7C581.572 129.947 580.38 131.413 578.84 133.1C577.337 134.75 575.65 136.565 573.78 138.545C571.947 140.525 570.095 142.597 568.225 144.76C569.618 148.133 570.957 151.048 572.24 153.505C573.523 155.962 574.568 157.978 575.375 159.555C576.182 161.132 576.585 162.305 576.585 163.075C576.585 163.992 576.328 164.725 575.815 165.275C575.302 165.825 574.587 166.1 573.67 166.1ZM605.39 169.235C604.766 169.235 604.198 169.143 603.685 168.96C603.208 168.813 602.805 168.502 602.475 168.025C600.971 168.282 599.486 168.483 598.02 168.63C596.553 168.777 595.178 168.85 593.895 168.85C592.795 168.85 591.933 168.575 591.31 168.025C590.686 167.512 590.375 166.778 590.375 165.825C590.375 165.275 590.686 164.652 591.31 163.955C591.933 163.258 593.088 162.598 594.775 161.975C596.461 161.315 598.918 160.802 602.145 160.435C602.401 158.712 602.786 156.677 603.3 154.33C603.813 151.947 604.436 149.417 605.17 146.74C605.903 144.027 606.765 141.35 607.755 138.71C606.398 140.14 604.968 141.35 603.465 142.34C601.998 143.33 600.586 144.082 599.23 144.595C597.91 145.108 596.773 145.365 595.82 145.365C595.05 145.365 594.408 145.237 593.895 144.98C593.418 144.723 593.18 144.247 593.18 143.55C593.18 142.67 593.601 141.863 594.445 141.13C595.288 140.36 596.205 139.608 597.195 138.875C598.698 137.738 600.311 136.382 602.035 134.805C603.795 133.228 605.426 131.542 606.93 129.745C608.47 127.948 609.661 126.188 610.505 124.465C610.908 123.695 611.348 123.09 611.825 122.65C612.301 122.173 613.071 121.935 614.135 121.935C615.198 121.935 615.968 122.412 616.445 123.365C616.921 124.282 617.16 125.382 617.16 126.665C617.16 127.178 617.013 128.242 616.72 129.855C616.426 131.432 616.023 133.375 615.51 135.685C614.996 137.958 614.428 140.47 613.805 143.22C613.181 145.933 612.54 148.72 611.88 151.58C611.22 154.44 610.596 157.208 610.01 159.885C611.22 159.848 612.466 159.83 613.75 159.83C615.29 159.83 616.628 159.958 617.765 160.215C618.901 160.472 619.47 161.022 619.47 161.865C619.47 162.745 619.085 163.405 618.315 163.845C617.581 164.248 616.683 164.615 615.62 164.945C614.63 165.238 613.511 165.55 612.265 165.88C611.018 166.247 609.698 166.577 608.305 166.87C607.938 167.713 607.498 168.318 606.985 168.685C606.471 169.052 605.94 169.235 605.39 169.235ZM630.87 183.425C627.57 184.305 625.92 183.737 625.92 181.72C625.92 180.657 626.543 179.777 627.79 179.08C629.623 177.943 631.108 176.275 632.245 174.075C633.345 171.875 634.206 169.382 634.83 166.595C635.49 163.808 636.003 160.985 636.37 158.125C636.553 156.952 636.901 156.182 637.415 155.815C637.928 155.412 638.478 155.21 639.065 155.21C640.201 155.21 641.265 155.668 642.255 156.585C643.245 157.465 643.74 158.932 643.74 160.985C643.74 163.772 643.318 166.43 642.475 168.96C641.668 171.49 640.605 173.763 639.285 175.78C638.001 177.833 636.608 179.52 635.105 180.84C633.601 182.16 632.19 183.022 630.87 183.425ZM663.763 167.365C661.929 167.365 660.628 166.925 659.858 166.045C659.124 165.202 658.758 164.322 658.758 163.405C658.758 162.598 658.941 161.847 659.308 161.15C659.711 160.417 660.408 159.83 661.398 159.39C662.388 158.95 663.799 158.767 665.633 158.84C667.466 157.887 669.318 156.713 671.188 155.32C673.094 153.927 674.909 152.387 676.633 150.7C678.393 149.013 679.951 147.29 681.308 145.53C682.701 143.733 683.783 141.973 684.553 140.25C685.359 138.49 685.763 136.84 685.763 135.3C685.763 133.65 685.249 132.403 684.223 131.56C683.233 130.717 681.839 130.295 680.043 130.295C678.503 130.295 677.091 130.478 675.808 130.845C674.524 131.175 673.388 131.578 672.398 132.055C671.408 132.532 670.564 132.953 669.868 133.32C669.208 133.65 668.676 133.815 668.273 133.815C667.576 133.815 666.953 133.522 666.403 132.935C665.853 132.312 665.688 131.505 665.908 130.515C666.054 129.855 666.494 129.067 667.228 128.15C667.961 127.233 668.969 126.317 670.253 125.4C671.536 124.483 673.058 123.732 674.818 123.145C676.614 122.522 678.631 122.21 680.868 122.21C684.461 122.21 687.376 123.31 689.613 125.51C691.886 127.71 693.023 131.065 693.023 135.575C693.023 138.545 692.234 141.46 690.658 144.32C689.118 147.18 687.064 149.893 684.498 152.46C681.931 155.027 679.126 157.373 676.083 159.5C678.833 159.39 680.978 159.225 682.518 159.005C684.058 158.748 685.286 158.528 686.203 158.345C687.156 158.162 688.073 158.07 688.953 158.07C690.199 158.07 691.171 158.327 691.868 158.84C692.564 159.353 692.913 160.087 692.913 161.04C692.913 161.737 692.729 162.415 692.363 163.075C692.033 163.735 691.373 164.34 690.383 164.89C689.393 165.403 687.963 165.807 686.093 166.1C684.223 166.43 681.766 166.595 678.723 166.595C676.926 166.595 675.074 166.577 673.168 166.54C671.298 166.503 669.483 166.448 667.723 166.375C666.696 166.742 665.889 166.998 665.303 167.145C664.753 167.292 664.239 167.365 663.763 167.365ZM722.66 165.935C720.24 165.935 717.985 165.33 715.895 164.12C713.805 162.873 712.119 161.04 710.835 158.62C709.552 156.2 708.91 153.193 708.91 149.6C708.91 147.18 709.332 144.87 710.175 142.67C711.019 140.433 711.972 138.453 713.035 136.73C712.852 136.253 712.76 135.703 712.76 135.08C712.76 133.65 713.164 132.238 713.97 130.845C714.814 129.415 715.914 128.113 717.27 126.94C718.664 125.767 720.222 124.832 721.945 124.135C723.669 123.438 725.429 123.09 727.225 123.09C730.012 123.09 732.469 123.787 734.595 125.18C736.722 126.573 738.39 128.517 739.6 131.01C740.81 133.467 741.415 136.308 741.415 139.535C741.415 143.422 740.902 146.978 739.875 150.205C738.885 153.432 737.51 156.218 735.75 158.565C734.027 160.912 732.029 162.727 729.755 164.01C727.519 165.293 725.154 165.935 722.66 165.935ZM722.99 131.725C723.064 131.945 723.1 132.202 723.1 132.495C723.1 133.045 722.99 133.503 722.77 133.87C722.55 134.237 722.257 134.64 721.89 135.08C721.414 135.63 720.864 136.473 720.24 137.61C719.654 138.71 719.085 139.993 718.535 141.46C717.985 142.927 717.527 144.448 717.16 146.025C716.83 147.565 716.665 149.032 716.665 150.425C716.665 152.882 717.124 154.807 718.04 156.2C718.957 157.593 720.314 158.29 722.11 158.29C723.614 158.29 725.062 157.795 726.455 156.805C727.885 155.815 729.15 154.477 730.25 152.79C731.35 151.067 732.212 149.105 732.835 146.905C733.495 144.705 733.825 142.377 733.825 139.92C733.825 138.16 733.587 136.565 733.11 135.135C732.634 133.705 731.955 132.568 731.075 131.725C730.195 130.882 729.15 130.46 727.94 130.46C726.95 130.46 726.034 130.588 725.19 130.845C724.384 131.065 723.65 131.358 722.99 131.725Z" fill="white"/>
</g>
<defs>
<filter id="filter0_d_60_151" x="530.2" y="106.515" width="228.215" height="95.2305" filterUnits="userSpaceOnUse" color-interpolation-filters="sRGB">
<feFlood flood-opacity="0" result="BackgroundImageFix"/>
<feColorMatrix in="SourceAlpha" type="matrix" values="0 0 0 0 0 0 0 0 0 0 0 0 0 0 0 0 0 0 127 0" result="hardAlpha"/>
<feOffset dx="2" dy="2"/>
<feGaussianBlur stdDeviation="7.5"/>
<feComposite in2="hardAlpha" operator="out"/>
<feColorMatrix type="matrix" values="0 0 0 0 0 0 0 0 0 0 0 0 0 0 0 0 0 0 0.75 0"/>
<feBlend mode="normal" in2="BackgroundImageFix" result="effect1_dropShadow_60_151"/>
<feBlend mode="normal" in="SourceGraphic" in2="effect1_dropShadow_60_151" result="shape"/>
</filter>
<linearGradient id="paint0_linear_60_151" x1="130" y1="102.5" x2="644" y2="616.5" gradientUnits="userSpaceOnUse">
<stop stop-color="#FFA812" stop-opacity="0.9"/>
<stop offset="1" stop-color="#FFA812" stop-opacity="0.75"/>
</linearGradient>
</defs>
</svg>
