<svg width="768" height="746" viewBox="0 0 768 746" fill="none" xmlns="http://www.w3.org/2000/svg">
<circle cx="373" cy="373" r="363" fill="url(#paint0_linear_60_171)" fill-opacity="0.5" stroke="white" stroke-width="20"/>
<circle cx="648.5" cy="144.5" r="117" fill="white" fill-opacity="0.95" stroke="white" stroke-width="5"/>
<path d="M459.348 160.429H316.25L239.012 392.976C238.964 393.128 238.952 393.289 238.976 393.447C238.999 393.604 239.059 393.754 239.149 393.885C239.24 394.016 239.36 394.124 239.499 394.202C239.638 394.28 239.793 394.325 239.952 394.333H328.566C328.734 394.325 328.901 394.358 329.054 394.429C329.206 394.5 329.339 394.606 329.442 394.739C329.544 394.873 329.613 395.029 329.642 395.194C329.672 395.36 329.661 395.53 329.61 395.69L261.036 600.683C260.643 601.866 260.688 603.15 261.16 604.304C261.633 605.458 262.503 606.404 263.613 606.971C264.723 607.539 266 607.69 267.211 607.398C268.423 607.106 269.491 606.39 270.221 605.379L477.092 321.375C477.208 321.22 477.279 321.036 477.296 320.842C477.314 320.649 477.277 320.455 477.19 320.282C477.104 320.109 476.97 319.963 476.806 319.861C476.641 319.759 476.451 319.705 476.257 319.705H383.259C383.083 319.685 382.914 319.626 382.766 319.53C382.617 319.435 382.492 319.306 382.402 319.155C382.311 319.003 382.256 318.833 382.242 318.657C382.227 318.481 382.254 318.304 382.319 318.139L460.287 161.577C460.302 161.44 460.289 161.301 460.249 161.169C460.21 161.037 460.145 160.914 460.057 160.807C459.97 160.7 459.862 160.612 459.74 160.547C459.619 160.482 459.485 160.442 459.348 160.429Z" stroke="white" stroke-width="20"/>
<g filter="url(#filter0_d_60_171)">
<path d="M588.768 172.44C586.608 172.44 584.976 171.72 583.872 170.28C582.768 168.84 581.664 167.088 580.56 165.024C579.504 162.96 578.496 160.92 577.536 158.904C576.576 156.84 575.616 154.752 574.656 152.64C572.112 155.664 569.712 158.544 567.456 161.28C565.248 163.968 563.304 166.344 561.624 168.408C559.992 170.424 558.768 171.984 557.952 173.088C557.232 174 556.512 174.768 555.792 175.392C555.12 176.064 554.136 176.4 552.84 176.4C551.592 176.4 550.608 176.016 549.888 175.248C549.216 174.528 548.88 173.52 548.88 172.224C548.88 171.216 549.48 169.752 550.68 167.832C551.88 165.864 553.488 163.56 555.504 160.92C557.568 158.232 559.872 155.376 562.416 152.352C565.008 149.28 567.696 146.136 570.48 142.92C567.696 136.056 565.512 130.272 563.928 125.568C562.392 120.816 561.624 117.432 561.624 115.416C561.624 112.776 562.92 111.456 565.512 111.456C566.904 111.456 567.984 111.84 568.752 112.608C569.568 113.328 570.24 114.336 570.768 115.632C571.248 116.736 571.992 118.752 573 121.68C574.008 124.56 575.592 128.88 577.752 134.64C581.112 130.8 583.872 127.536 586.032 124.848C588.24 122.16 590.064 120 591.504 118.368C592.944 116.736 594.192 115.536 595.248 114.768C596.304 114 597.336 113.616 598.344 113.616C599.688 113.616 600.72 113.976 601.44 114.696C602.208 115.368 602.592 116.352 602.592 117.648C602.592 118.848 602.376 119.88 601.944 120.744C601.512 121.608 600.936 122.52 600.216 123.48C599.112 125.112 597.552 127.032 595.536 129.24C593.568 131.4 591.36 133.776 588.912 136.368C586.512 138.96 584.088 141.672 581.64 144.504C583.464 148.92 585.216 152.736 586.896 155.952C588.576 159.168 589.944 161.808 591 163.872C592.056 165.936 592.584 167.472 592.584 168.48C592.584 169.68 592.248 170.64 591.576 171.36C590.904 172.08 589.968 172.44 588.768 172.44ZM630.292 176.544C629.476 176.544 628.732 176.424 628.06 176.184C627.436 175.992 626.908 175.584 626.476 174.96C624.508 175.296 622.564 175.56 620.644 175.752C618.724 175.944 616.924 176.04 615.244 176.04C613.804 176.04 612.676 175.68 611.86 174.96C611.044 174.288 610.636 173.328 610.636 172.08C610.636 171.36 611.044 170.544 611.86 169.632C612.676 168.72 614.188 167.856 616.396 167.04C618.604 166.176 621.82 165.504 626.044 165.024C626.38 162.768 626.884 160.104 627.556 157.032C628.228 153.912 629.044 150.6 630.004 147.096C630.964 143.544 632.092 140.04 633.388 136.584C631.612 138.456 629.74 140.04 627.772 141.336C625.852 142.632 624.004 143.616 622.228 144.288C620.5 144.96 619.012 145.296 617.764 145.296C616.756 145.296 615.916 145.128 615.244 144.792C614.62 144.456 614.308 143.832 614.308 142.92C614.308 141.768 614.86 140.712 615.964 139.752C617.068 138.744 618.268 137.76 619.564 136.8C621.532 135.312 623.644 133.536 625.9 131.472C628.204 129.408 630.34 127.2 632.308 124.848C634.324 122.496 635.884 120.192 636.988 117.936C637.516 116.928 638.092 116.136 638.716 115.56C639.34 114.936 640.348 114.624 641.74 114.624C643.132 114.624 644.14 115.248 644.764 116.496C645.388 117.696 645.7 119.136 645.7 120.816C645.7 121.488 645.508 122.88 645.124 124.992C644.74 127.056 644.212 129.6 643.54 132.624C642.868 135.6 642.124 138.888 641.308 142.488C640.492 146.04 639.652 149.688 638.788 153.432C637.924 157.176 637.108 160.8 636.34 164.304C637.924 164.256 639.556 164.232 641.236 164.232C643.252 164.232 645.004 164.4 646.492 164.736C647.98 165.072 648.724 165.792 648.724 166.896C648.724 168.048 648.22 168.912 647.212 169.488C646.252 170.016 645.076 170.496 643.684 170.928C642.388 171.312 640.924 171.72 639.292 172.152C637.66 172.632 635.932 173.064 634.108 173.448C633.628 174.552 633.052 175.344 632.38 175.824C631.708 176.304 631.012 176.544 630.292 176.544ZM663.647 195.12C659.327 196.272 657.167 195.528 657.167 192.888C657.167 191.496 657.983 190.344 659.615 189.432C662.015 187.944 663.959 185.76 665.447 182.88C666.887 180 668.015 176.736 668.831 173.088C669.695 169.44 670.367 165.744 670.847 162C671.087 160.464 671.543 159.456 672.215 158.976C672.887 158.448 673.607 158.184 674.375 158.184C675.863 158.184 677.255 158.784 678.551 159.984C679.847 161.136 680.495 163.056 680.495 165.744C680.495 169.392 679.943 172.872 678.839 176.184C677.783 179.496 676.391 182.472 674.663 185.112C672.983 187.8 671.159 190.008 669.191 191.736C667.223 193.464 665.375 194.592 663.647 195.12ZM734.292 151.128C734.292 152.952 733.572 154.872 732.132 156.888C730.692 158.856 728.82 160.8 726.516 162.72C724.212 164.64 721.692 166.464 718.956 168.192C716.268 169.872 713.604 171.36 710.964 172.656C708.372 174 706.068 175.032 704.052 175.752C702.036 176.52 700.572 176.904 699.66 176.904C697.932 176.904 696.516 176.592 695.412 175.968C694.308 175.344 693.756 174.24 693.756 172.656C693.756 171.456 694.044 170.52 694.62 169.848C695.196 169.176 696.012 168.6 697.068 168.12C699.612 166.968 702.228 165.744 704.916 164.448C707.604 163.152 710.172 161.832 712.62 160.488C715.116 159.144 717.324 157.824 719.244 156.528C721.212 155.232 722.772 154.008 723.924 152.856C725.076 151.656 725.652 150.6 725.652 149.688C725.652 148.632 725.244 147.864 724.428 147.384C723.66 146.904 722.628 146.592 721.332 146.448C720.036 146.256 718.596 146.16 717.012 146.16C714.852 146.16 713.052 146.256 711.612 146.448C710.172 146.64 708.924 146.832 707.868 147.024C706.86 147.168 705.924 147.24 705.06 147.24C703.62 147.24 702.588 146.928 701.964 146.304C701.34 145.632 701.028 144.744 701.028 143.64C701.028 142.728 701.364 141.792 702.036 140.832C702.708 139.872 703.788 139.152 705.276 138.672C708.396 137.664 711.156 136.56 713.556 135.36C716.004 134.112 717.9 132.744 719.244 131.256C720.636 129.768 721.332 128.16 721.332 126.432C721.332 125.904 721.068 125.544 720.54 125.352C720.06 125.16 719.052 125.064 717.516 125.064C716.124 125.064 714.564 125.232 712.836 125.568C711.156 125.904 709.5 126.312 707.868 126.792C706.284 127.224 704.916 127.608 703.764 127.944C702.66 128.28 701.964 128.448 701.676 128.448C699.564 128.448 698.508 127.392 698.508 125.28C698.508 124.8 698.868 124.032 699.588 122.976C700.308 121.92 701.388 120.84 702.828 119.736C704.268 118.584 706.044 117.6 708.156 116.784C710.316 115.968 712.812 115.56 715.644 115.56C718.428 115.56 720.852 116.112 722.916 117.216C725.028 118.32 726.66 119.832 727.812 121.752C729.012 123.624 729.612 125.76 729.612 128.16C729.612 129.984 729.036 131.808 727.884 133.632C726.78 135.408 725.388 136.992 723.708 138.384C726.924 139.344 729.492 141 731.412 143.352C733.332 145.656 734.292 148.248 734.292 151.128Z" fill="white"/>
</g>
<defs>
<filter id="filter0_d_60_171" x="535.88" y="98.4561" width="215.412" height="115.392" filterUnits="userSpaceOnUse" color-interpolation-filters="sRGB">
<feFlood flood-opacity="0" result="BackgroundImageFix"/>
<feColorMatrix in="SourceAlpha" type="matrix" values="0 0 0 0 0 0 0 0 0 0 0 0 0 0 0 0 0 0 127 0" result="hardAlpha"/>
<feOffset dx="2" dy="2"/>
<feGaussianBlur stdDeviation="7.5"/>
<feComposite in2="hardAlpha" operator="out"/>
<feColorMatrix type="matrix" values="0 0 0 0 0 0 0 0 0 0 0 0 0 0 0 0 0 0 0.75 0"/>
<feBlend mode="normal" in2="BackgroundImageFix" result="effect1_dropShadow_60_171"/>
<feBlend mode="normal" in="SourceGraphic" in2="effect1_dropShadow_60_171" result="shape"/>
</filter>
<linearGradient id="paint0_linear_60_171" x1="130" y1="102.5" x2="644" y2="616.5" gradientUnits="userSpaceOnUse">
<stop stop-color="white" stop-opacity="0.9"/>
<stop offset="1" stop-color="white" stop-opacity="0.75"/>
</linearGradient>
</defs>
</svg>
