<svg width="768" height="746" viewBox="0 0 768 746" fill="none" xmlns="http://www.w3.org/2000/svg">
<circle cx="373" cy="373" r="363" fill="url(#paint0_linear_60_47)" fill-opacity="0.5" stroke="#FFA812" stroke-width="20"/>
<circle cx="648.5" cy="144.5" r="117" fill="#FFA812" fill-opacity="0.95" stroke="#FFA812" stroke-width="5"/>
<path d="M459.348 160.429H316.25L239.012 392.976C238.964 393.128 238.952 393.289 238.976 393.447C238.999 393.604 239.059 393.754 239.149 393.885C239.24 394.016 239.36 394.124 239.499 394.202C239.638 394.28 239.793 394.325 239.952 394.333H328.566C328.734 394.325 328.901 394.358 329.054 394.429C329.206 394.5 329.339 394.606 329.442 394.739C329.544 394.873 329.613 395.029 329.642 395.194C329.672 395.36 329.661 395.53 329.61 395.69L261.036 600.683C260.643 601.866 260.688 603.15 261.16 604.304C261.633 605.458 262.503 606.404 263.613 606.971C264.723 607.539 266 607.69 267.211 607.398C268.423 607.106 269.491 606.39 270.221 605.379L477.092 321.375C477.208 321.22 477.279 321.036 477.296 320.842C477.314 320.649 477.277 320.455 477.19 320.282C477.104 320.109 476.97 319.963 476.806 319.861C476.641 319.759 476.451 319.705 476.257 319.705H383.259C383.083 319.685 382.914 319.626 382.766 319.53C382.617 319.435 382.492 319.306 382.402 319.155C382.311 319.003 382.256 318.833 382.242 318.657C382.227 318.481 382.254 318.304 382.319 318.139L460.287 161.577C460.302 161.44 460.289 161.301 460.249 161.169C460.21 161.037 460.145 160.914 460.057 160.807C459.97 160.7 459.862 160.612 459.74 160.547C459.619 160.482 459.485 160.442 459.348 160.429Z" stroke="#FFA812" stroke-width="20"/>
<g filter="url(#filter0_d_60_47)">
<path d="M578.67 166.1C577.02 166.1 575.773 165.55 574.93 164.45C574.087 163.35 573.243 162.012 572.4 160.435C571.593 158.858 570.823 157.3 570.09 155.76C569.357 154.183 568.623 152.588 567.89 150.975C565.947 153.285 564.113 155.485 562.39 157.575C560.703 159.628 559.218 161.443 557.935 163.02C556.688 164.56 555.753 165.752 555.13 166.595C554.58 167.292 554.03 167.878 553.48 168.355C552.967 168.868 552.215 169.125 551.225 169.125C550.272 169.125 549.52 168.832 548.97 168.245C548.457 167.695 548.2 166.925 548.2 165.935C548.2 165.165 548.658 164.047 549.575 162.58C550.492 161.077 551.72 159.317 553.26 157.3C554.837 155.247 556.597 153.065 558.54 150.755C560.52 148.408 562.573 146.007 564.7 143.55C562.573 138.307 560.905 133.888 559.695 130.295C558.522 126.665 557.935 124.08 557.935 122.54C557.935 120.523 558.925 119.515 560.905 119.515C561.968 119.515 562.793 119.808 563.38 120.395C564.003 120.945 564.517 121.715 564.92 122.705C565.287 123.548 565.855 125.088 566.625 127.325C567.395 129.525 568.605 132.825 570.255 137.225C572.822 134.292 574.93 131.798 576.58 129.745C578.267 127.692 579.66 126.042 580.76 124.795C581.86 123.548 582.813 122.632 583.62 122.045C584.427 121.458 585.215 121.165 585.985 121.165C587.012 121.165 587.8 121.44 588.35 121.99C588.937 122.503 589.23 123.255 589.23 124.245C589.23 125.162 589.065 125.95 588.735 126.61C588.405 127.27 587.965 127.967 587.415 128.7C586.572 129.947 585.38 131.413 583.84 133.1C582.337 134.75 580.65 136.565 578.78 138.545C576.947 140.525 575.095 142.597 573.225 144.76C574.618 148.133 575.957 151.048 577.24 153.505C578.523 155.962 579.568 157.978 580.375 159.555C581.182 161.132 581.585 162.305 581.585 163.075C581.585 163.992 581.328 164.725 580.815 165.275C580.302 165.825 579.587 166.1 578.67 166.1ZM610.39 169.235C609.766 169.235 609.198 169.143 608.685 168.96C608.208 168.813 607.805 168.502 607.475 168.025C605.971 168.282 604.486 168.483 603.02 168.63C601.553 168.777 600.178 168.85 598.895 168.85C597.795 168.85 596.933 168.575 596.31 168.025C595.686 167.512 595.375 166.778 595.375 165.825C595.375 165.275 595.686 164.652 596.31 163.955C596.933 163.258 598.088 162.598 599.775 161.975C601.461 161.315 603.918 160.802 607.145 160.435C607.401 158.712 607.786 156.677 608.3 154.33C608.813 151.947 609.436 149.417 610.17 146.74C610.903 144.027 611.765 141.35 612.755 138.71C611.398 140.14 609.968 141.35 608.465 142.34C606.998 143.33 605.586 144.082 604.23 144.595C602.91 145.108 601.773 145.365 600.82 145.365C600.05 145.365 599.408 145.237 598.895 144.98C598.418 144.723 598.18 144.247 598.18 143.55C598.18 142.67 598.601 141.863 599.445 141.13C600.288 140.36 601.205 139.608 602.195 138.875C603.698 137.738 605.311 136.382 607.035 134.805C608.795 133.228 610.426 131.542 611.93 129.745C613.47 127.948 614.661 126.188 615.505 124.465C615.908 123.695 616.348 123.09 616.825 122.65C617.301 122.173 618.071 121.935 619.135 121.935C620.198 121.935 620.968 122.412 621.445 123.365C621.921 124.282 622.16 125.382 622.16 126.665C622.16 127.178 622.013 128.242 621.72 129.855C621.426 131.432 621.023 133.375 620.51 135.685C619.996 137.958 619.428 140.47 618.805 143.22C618.181 145.933 617.54 148.72 616.88 151.58C616.22 154.44 615.596 157.208 615.01 159.885C616.22 159.848 617.466 159.83 618.75 159.83C620.29 159.83 621.628 159.958 622.765 160.215C623.901 160.472 624.47 161.022 624.47 161.865C624.47 162.745 624.085 163.405 623.315 163.845C622.581 164.248 621.683 164.615 620.62 164.945C619.63 165.238 618.511 165.55 617.265 165.88C616.018 166.247 614.698 166.577 613.305 166.87C612.938 167.713 612.498 168.318 611.985 168.685C611.471 169.052 610.94 169.235 610.39 169.235ZM635.87 183.425C632.57 184.305 630.92 183.737 630.92 181.72C630.92 180.657 631.543 179.777 632.79 179.08C634.623 177.943 636.108 176.275 637.245 174.075C638.345 171.875 639.206 169.382 639.83 166.595C640.49 163.808 641.003 160.985 641.37 158.125C641.553 156.952 641.901 156.182 642.415 155.815C642.928 155.412 643.478 155.21 644.065 155.21C645.201 155.21 646.265 155.668 647.255 156.585C648.245 157.465 648.74 158.932 648.74 160.985C648.74 163.772 648.318 166.43 647.475 168.96C646.668 171.49 645.605 173.763 644.285 175.78C643.001 177.833 641.608 179.52 640.105 180.84C638.601 182.16 637.19 183.022 635.87 183.425ZM677.85 169.235C677.227 169.235 676.659 169.143 676.145 168.96C675.669 168.813 675.265 168.502 674.935 168.025C673.432 168.282 671.947 168.483 670.48 168.63C669.014 168.777 667.639 168.85 666.355 168.85C665.255 168.85 664.394 168.575 663.77 168.025C663.147 167.512 662.835 166.778 662.835 165.825C662.835 165.275 663.147 164.652 663.77 163.955C664.394 163.258 665.549 162.598 667.235 161.975C668.922 161.315 671.379 160.802 674.605 160.435C674.862 158.712 675.247 156.677 675.76 154.33C676.274 151.947 676.897 149.417 677.63 146.74C678.364 144.027 679.225 141.35 680.215 138.71C678.859 140.14 677.429 141.35 675.925 142.34C674.459 143.33 673.047 144.082 671.69 144.595C670.37 145.108 669.234 145.365 668.28 145.365C667.51 145.365 666.869 145.237 666.355 144.98C665.879 144.723 665.64 144.247 665.64 143.55C665.64 142.67 666.062 141.863 666.905 141.13C667.749 140.36 668.665 139.608 669.655 138.875C671.159 137.738 672.772 136.382 674.495 134.805C676.255 133.228 677.887 131.542 679.39 129.745C680.93 127.948 682.122 126.188 682.965 124.465C683.369 123.695 683.809 123.09 684.285 122.65C684.762 122.173 685.532 121.935 686.595 121.935C687.659 121.935 688.429 122.412 688.905 123.365C689.382 124.282 689.62 125.382 689.62 126.665C689.62 127.178 689.474 128.242 689.18 129.855C688.887 131.432 688.484 133.375 687.97 135.685C687.457 137.958 686.889 140.47 686.265 143.22C685.642 145.933 685 148.72 684.34 151.58C683.68 154.44 683.057 157.208 682.47 159.885C683.68 159.848 684.927 159.83 686.21 159.83C687.75 159.83 689.089 159.958 690.225 160.215C691.362 160.472 691.93 161.022 691.93 161.865C691.93 162.745 691.545 163.405 690.775 163.845C690.042 164.248 689.144 164.615 688.08 164.945C687.09 165.238 685.972 165.55 684.725 165.88C683.479 166.247 682.159 166.577 680.765 166.87C680.399 167.713 679.959 168.318 679.445 168.685C678.932 169.052 678.4 169.235 677.85 169.235ZM718.796 168.685C717.11 168.685 715.515 168.227 714.011 167.31C712.545 166.43 711.28 165.183 710.216 163.57C709.153 161.957 708.401 160.05 707.961 157.85C707.595 158.033 707.301 158.125 707.081 158.125C707.008 158.125 706.898 158.125 706.751 158.125C706.421 158.162 706.11 158.143 705.816 158.07C705.523 157.997 705.266 157.758 705.046 157.355C704.863 156.915 704.771 156.163 704.771 155.1C704.771 154.037 705.065 152.937 705.651 151.8C706.275 150.663 707.118 149.563 708.181 148.5C708.878 145.933 710.015 143.458 711.591 141.075C713.168 138.655 715.001 136.4 717.091 134.31C719.181 132.183 721.363 130.258 723.636 128.535C725.946 126.812 728.183 125.345 730.346 124.135C732.51 122.888 734.435 121.935 736.121 121.275C737.808 120.578 739.091 120.23 739.971 120.23C741.988 120.23 742.996 121.202 742.996 123.145C742.996 123.512 742.428 124.043 741.291 124.74C740.155 125.4 738.651 126.262 736.781 127.325C734.948 128.388 732.95 129.653 730.786 131.12C728.66 132.587 726.57 134.273 724.516 136.18C722.463 138.087 720.666 140.213 719.126 142.56C720.373 142.23 721.656 141.973 722.976 141.79C724.333 141.607 725.726 141.515 727.156 141.515C729.65 141.515 731.63 142.285 733.096 143.825C734.563 145.328 735.296 147.547 735.296 150.48C735.296 152.79 734.801 155.027 733.811 157.19C732.821 159.353 731.501 161.315 729.851 163.075C728.238 164.798 726.46 166.155 724.516 167.145C722.573 168.172 720.666 168.685 718.796 168.685ZM715.496 152.13C715.35 153.157 715.276 154.183 715.276 155.21C715.276 156.677 715.625 157.942 716.321 159.005C717.018 160.068 717.916 160.6 719.016 160.6C720.226 160.6 721.4 160.288 722.536 159.665C723.71 159.042 724.773 158.217 725.726 157.19C726.68 156.127 727.431 154.953 727.981 153.67C728.531 152.387 728.806 151.085 728.806 149.765C728.806 149.288 728.733 148.885 728.586 148.555C728.44 148.225 728.128 148.06 727.651 148.06C725.231 148.06 722.995 148.463 720.941 149.27C718.925 150.077 717.11 151.03 715.496 152.13Z" fill="white"/>
</g>
<defs>
<filter id="filter0_d_60_47" x="535.2" y="106.515" width="224.796" height="95.2302" filterUnits="userSpaceOnUse" color-interpolation-filters="sRGB">
<feFlood flood-opacity="0" result="BackgroundImageFix"/>
<feColorMatrix in="SourceAlpha" type="matrix" values="0 0 0 0 0 0 0 0 0 0 0 0 0 0 0 0 0 0 127 0" result="hardAlpha"/>
<feOffset dx="2" dy="2"/>
<feGaussianBlur stdDeviation="7.5"/>
<feComposite in2="hardAlpha" operator="out"/>
<feColorMatrix type="matrix" values="0 0 0 0 0 0 0 0 0 0 0 0 0 0 0 0 0 0 0.75 0"/>
<feBlend mode="normal" in2="BackgroundImageFix" result="effect1_dropShadow_60_47"/>
<feBlend mode="normal" in="SourceGraphic" in2="effect1_dropShadow_60_47" result="shape"/>
</filter>
<linearGradient id="paint0_linear_60_47" x1="130" y1="102.5" x2="644" y2="616.5" gradientUnits="userSpaceOnUse">
<stop stop-color="#FFA812" stop-opacity="0.9"/>
<stop offset="1" stop-color="#FFA812" stop-opacity="0.75"/>
</linearGradient>
</defs>
</svg>
