<svg width="768" height="746" viewBox="0 0 768 746" fill="none" xmlns="http://www.w3.org/2000/svg">
<circle cx="373" cy="373" r="363" fill="url(#paint0_linear_55_241)" fill-opacity="0.5" stroke="white" stroke-width="20"/>
<circle cx="648.5" cy="144.5" r="117" fill="white" fill-opacity="0.95" stroke="white" stroke-width="5"/>
<path d="M459.348 160.429H316.25L239.012 392.976C238.964 393.128 238.952 393.289 238.976 393.447C238.999 393.604 239.059 393.754 239.149 393.885C239.24 394.016 239.36 394.124 239.499 394.202C239.638 394.28 239.793 394.325 239.952 394.333H328.566C328.734 394.325 328.901 394.358 329.054 394.429C329.206 394.5 329.339 394.606 329.442 394.739C329.544 394.873 329.613 395.029 329.642 395.194C329.672 395.36 329.661 395.53 329.61 395.69L261.036 600.683C260.643 601.866 260.688 603.151 261.16 604.304C261.633 605.458 262.503 606.404 263.613 606.971C264.723 607.539 266 607.69 267.211 607.398C268.423 607.106 269.491 606.39 270.221 605.379L477.092 321.375C477.208 321.22 477.279 321.036 477.296 320.842C477.314 320.649 477.277 320.455 477.19 320.282C477.104 320.109 476.97 319.963 476.806 319.861C476.641 319.759 476.451 319.705 476.257 319.705H383.259C383.083 319.685 382.914 319.626 382.766 319.53C382.617 319.435 382.492 319.306 382.402 319.155C382.311 319.003 382.256 318.833 382.242 318.657C382.227 318.481 382.254 318.304 382.319 318.139L460.287 161.577C460.302 161.44 460.289 161.301 460.249 161.169C460.21 161.037 460.145 160.914 460.057 160.807C459.97 160.7 459.862 160.612 459.74 160.547C459.619 160.482 459.485 160.442 459.348 160.429Z" stroke="white" stroke-width="20"/>
<g filter="url(#filter0_d_55_241)">
<path d="M588.768 172.44C586.608 172.44 584.976 171.72 583.872 170.28C582.768 168.84 581.664 167.088 580.56 165.024C579.504 162.96 578.496 160.92 577.536 158.904C576.576 156.84 575.616 154.752 574.656 152.64C572.112 155.664 569.712 158.544 567.456 161.28C565.248 163.968 563.304 166.344 561.624 168.408C559.992 170.424 558.768 171.984 557.952 173.088C557.232 174 556.512 174.768 555.792 175.392C555.12 176.064 554.136 176.4 552.84 176.4C551.592 176.4 550.608 176.016 549.888 175.248C549.216 174.528 548.88 173.52 548.88 172.224C548.88 171.216 549.48 169.752 550.68 167.832C551.88 165.864 553.488 163.56 555.504 160.92C557.568 158.232 559.872 155.376 562.416 152.352C565.008 149.28 567.696 146.136 570.48 142.92C567.696 136.056 565.512 130.272 563.928 125.568C562.392 120.816 561.624 117.432 561.624 115.416C561.624 112.776 562.92 111.456 565.512 111.456C566.904 111.456 567.984 111.84 568.752 112.608C569.568 113.328 570.24 114.336 570.768 115.632C571.248 116.736 571.992 118.752 573 121.68C574.008 124.56 575.592 128.88 577.752 134.64C581.112 130.8 583.872 127.536 586.032 124.848C588.24 122.16 590.064 120 591.504 118.368C592.944 116.736 594.192 115.536 595.248 114.768C596.304 114 597.336 113.616 598.344 113.616C599.688 113.616 600.72 113.976 601.44 114.696C602.208 115.368 602.592 116.352 602.592 117.648C602.592 118.848 602.376 119.88 601.944 120.744C601.512 121.608 600.936 122.52 600.216 123.48C599.112 125.112 597.552 127.032 595.536 129.24C593.568 131.4 591.36 133.776 588.912 136.368C586.512 138.96 584.088 141.672 581.64 144.504C583.464 148.92 585.216 152.736 586.896 155.952C588.576 159.168 589.944 161.808 591 163.872C592.056 165.936 592.584 167.472 592.584 168.48C592.584 169.68 592.248 170.64 591.576 171.36C590.904 172.08 589.968 172.44 588.768 172.44ZM630.292 176.544C629.476 176.544 628.732 176.424 628.06 176.184C627.436 175.992 626.908 175.584 626.476 174.96C624.508 175.296 622.564 175.56 620.644 175.752C618.724 175.944 616.924 176.04 615.244 176.04C613.804 176.04 612.676 175.68 611.86 174.96C611.044 174.288 610.636 173.328 610.636 172.08C610.636 171.36 611.044 170.544 611.86 169.632C612.676 168.72 614.188 167.856 616.396 167.04C618.604 166.176 621.82 165.504 626.044 165.024C626.38 162.768 626.884 160.104 627.556 157.032C628.228 153.912 629.044 150.6 630.004 147.096C630.964 143.544 632.092 140.04 633.388 136.584C631.612 138.456 629.74 140.04 627.772 141.336C625.852 142.632 624.004 143.616 622.228 144.288C620.5 144.96 619.012 145.296 617.764 145.296C616.756 145.296 615.916 145.128 615.244 144.792C614.62 144.456 614.308 143.832 614.308 142.92C614.308 141.768 614.86 140.712 615.964 139.752C617.068 138.744 618.268 137.76 619.564 136.8C621.532 135.312 623.644 133.536 625.9 131.472C628.204 129.408 630.34 127.2 632.308 124.848C634.324 122.496 635.884 120.192 636.988 117.936C637.516 116.928 638.092 116.136 638.716 115.56C639.34 114.936 640.348 114.624 641.74 114.624C643.132 114.624 644.14 115.248 644.764 116.496C645.388 117.696 645.7 119.136 645.7 120.816C645.7 121.488 645.508 122.88 645.124 124.992C644.74 127.056 644.212 129.6 643.54 132.624C642.868 135.6 642.124 138.888 641.308 142.488C640.492 146.04 639.652 149.688 638.788 153.432C637.924 157.176 637.108 160.8 636.34 164.304C637.924 164.256 639.556 164.232 641.236 164.232C643.252 164.232 645.004 164.4 646.492 164.736C647.98 165.072 648.724 165.792 648.724 166.896C648.724 168.048 648.22 168.912 647.212 169.488C646.252 170.016 645.076 170.496 643.684 170.928C642.388 171.312 640.924 171.72 639.292 172.152C637.66 172.632 635.932 173.064 634.108 173.448C633.628 174.552 633.052 175.344 632.38 175.824C631.708 176.304 631.012 176.544 630.292 176.544ZM663.647 195.12C659.327 196.272 657.167 195.528 657.167 192.888C657.167 191.496 657.983 190.344 659.615 189.432C662.015 187.944 663.959 185.76 665.447 182.88C666.887 180 668.015 176.736 668.831 173.088C669.695 169.44 670.367 165.744 670.847 162C671.087 160.464 671.543 159.456 672.215 158.976C672.887 158.448 673.607 158.184 674.375 158.184C675.863 158.184 677.255 158.784 678.551 159.984C679.847 161.136 680.495 163.056 680.495 165.744C680.495 169.392 679.943 172.872 678.839 176.184C677.783 179.496 676.391 182.472 674.663 185.112C672.983 187.8 671.159 190.008 669.191 191.736C667.223 193.464 665.375 194.592 663.647 195.12ZM699.536 174.096C697.136 174.096 695.432 173.52 694.424 172.368C693.464 171.264 692.984 170.112 692.984 168.912C692.984 167.856 693.224 166.872 693.704 165.96C694.232 165 695.144 164.232 696.439 163.656C697.736 163.08 699.584 162.84 701.984 162.936C704.384 161.688 706.808 160.152 709.256 158.328C711.752 156.504 714.128 154.488 716.384 152.28C718.688 150.072 720.728 147.816 722.504 145.512C724.328 143.16 725.744 140.856 726.752 138.6C727.808 136.296 728.336 134.136 728.336 132.12C728.336 129.96 727.664 128.328 726.32 127.224C725.024 126.12 723.2 125.568 720.848 125.568C718.832 125.568 716.984 125.808 715.304 126.288C713.624 126.72 712.136 127.248 710.84 127.872C709.544 128.496 708.44 129.048 707.528 129.528C706.664 129.96 705.968 130.176 705.44 130.176C704.528 130.176 703.712 129.792 702.992 129.024C702.272 128.208 702.056 127.152 702.344 125.856C702.536 124.992 703.112 123.96 704.072 122.76C705.032 121.56 706.352 120.36 708.032 119.16C709.712 117.96 711.704 116.976 714.008 116.208C716.36 115.392 719 114.984 721.928 114.984C726.632 114.984 730.448 116.424 733.376 119.304C736.352 122.184 737.84 126.576 737.84 132.48C737.84 136.368 736.808 140.184 734.744 143.928C732.728 147.672 730.04 151.224 726.68 154.584C723.32 157.944 719.648 161.016 715.664 163.8C719.264 163.656 722.072 163.44 724.088 163.152C726.104 162.816 727.712 162.528 728.912 162.288C730.16 162.048 731.36 161.928 732.512 161.928C734.144 161.928 735.416 162.264 736.328 162.936C737.24 163.608 737.696 164.568 737.696 165.816C737.696 166.728 737.456 167.616 736.976 168.48C736.544 169.344 735.68 170.136 734.384 170.856C733.088 171.528 731.216 172.056 728.768 172.44C726.32 172.872 723.104 173.088 719.12 173.088C716.768 173.088 714.344 173.064 711.848 173.016C709.4 172.968 707.024 172.896 704.72 172.8C703.376 173.28 702.32 173.616 701.552 173.808C700.832 174 700.16 174.096 699.536 174.096Z" fill="white"/>
</g>
<defs>
<filter id="filter0_d_55_241" x="535.88" y="98.456" width="218.96" height="115.392" filterUnits="userSpaceOnUse" color-interpolation-filters="sRGB">
<feFlood flood-opacity="0" result="BackgroundImageFix"/>
<feColorMatrix in="SourceAlpha" type="matrix" values="0 0 0 0 0 0 0 0 0 0 0 0 0 0 0 0 0 0 127 0" result="hardAlpha"/>
<feOffset dx="2" dy="2"/>
<feGaussianBlur stdDeviation="7.5"/>
<feComposite in2="hardAlpha" operator="out"/>
<feColorMatrix type="matrix" values="0 0 0 0 0 0 0 0 0 0 0 0 0 0 0 0 0 0 0.75 0"/>
<feBlend mode="normal" in2="BackgroundImageFix" result="effect1_dropShadow_55_241"/>
<feBlend mode="normal" in="SourceGraphic" in2="effect1_dropShadow_55_241" result="shape"/>
</filter>
<linearGradient id="paint0_linear_55_241" x1="130" y1="102.5" x2="644" y2="616.5" gradientUnits="userSpaceOnUse">
<stop stop-color="white" stop-opacity="0.9"/>
<stop offset="1" stop-color="white" stop-opacity="0.75"/>
</linearGradient>
</defs>
</svg>
