<svg width="768" height="746" viewBox="0 0 768 746" fill="none" xmlns="http://www.w3.org/2000/svg">
<circle cx="373" cy="373" r="363" fill="url(#paint0_linear_60_15)" fill-opacity="0.5" stroke="white" stroke-width="20"/>
<circle cx="648.5" cy="144.5" r="117" fill="white" fill-opacity="0.95" stroke="white" stroke-width="5"/>
<path d="M459.348 160.429H316.25L239.012 392.976C238.964 393.128 238.952 393.289 238.976 393.447C238.999 393.604 239.059 393.754 239.149 393.885C239.24 394.016 239.36 394.124 239.499 394.202C239.638 394.28 239.793 394.325 239.952 394.333H328.566C328.734 394.325 328.901 394.358 329.054 394.429C329.206 394.5 329.339 394.606 329.442 394.739C329.544 394.873 329.613 395.029 329.642 395.194C329.672 395.36 329.661 395.53 329.61 395.69L261.036 600.683C260.643 601.866 260.688 603.15 261.16 604.304C261.633 605.458 262.503 606.404 263.613 606.971C264.723 607.539 266 607.69 267.211 607.398C268.423 607.106 269.491 606.39 270.221 605.379L477.092 321.375C477.208 321.22 477.279 321.036 477.296 320.842C477.314 320.649 477.277 320.455 477.19 320.282C477.104 320.109 476.97 319.963 476.806 319.861C476.641 319.759 476.451 319.705 476.257 319.705H383.259C383.083 319.685 382.914 319.626 382.766 319.53C382.617 319.435 382.492 319.306 382.402 319.155C382.311 319.003 382.256 318.833 382.242 318.657C382.227 318.481 382.254 318.304 382.319 318.139L460.287 161.577C460.302 161.44 460.289 161.301 460.249 161.169C460.21 161.037 460.145 160.914 460.057 160.807C459.97 160.7 459.862 160.612 459.74 160.547C459.619 160.482 459.485 160.442 459.348 160.429Z" stroke="white" stroke-width="20"/>
<g filter="url(#filter0_d_60_15)">
<path d="M578.67 166.1C577.02 166.1 575.773 165.55 574.93 164.45C574.087 163.35 573.243 162.012 572.4 160.435C571.593 158.858 570.823 157.3 570.09 155.76C569.357 154.183 568.623 152.588 567.89 150.975C565.947 153.285 564.113 155.485 562.39 157.575C560.703 159.628 559.218 161.443 557.935 163.02C556.688 164.56 555.753 165.752 555.13 166.595C554.58 167.292 554.03 167.878 553.48 168.355C552.967 168.868 552.215 169.125 551.225 169.125C550.272 169.125 549.52 168.832 548.97 168.245C548.457 167.695 548.2 166.925 548.2 165.935C548.2 165.165 548.658 164.047 549.575 162.58C550.492 161.077 551.72 159.317 553.26 157.3C554.837 155.247 556.597 153.065 558.54 150.755C560.52 148.408 562.573 146.007 564.7 143.55C562.573 138.307 560.905 133.888 559.695 130.295C558.522 126.665 557.935 124.08 557.935 122.54C557.935 120.523 558.925 119.515 560.905 119.515C561.968 119.515 562.793 119.808 563.38 120.395C564.003 120.945 564.517 121.715 564.92 122.705C565.287 123.548 565.855 125.088 566.625 127.325C567.395 129.525 568.605 132.825 570.255 137.225C572.822 134.292 574.93 131.798 576.58 129.745C578.267 127.692 579.66 126.042 580.76 124.795C581.86 123.548 582.813 122.632 583.62 122.045C584.427 121.458 585.215 121.165 585.985 121.165C587.012 121.165 587.8 121.44 588.35 121.99C588.937 122.503 589.23 123.255 589.23 124.245C589.23 125.162 589.065 125.95 588.735 126.61C588.405 127.27 587.965 127.967 587.415 128.7C586.572 129.947 585.38 131.413 583.84 133.1C582.337 134.75 580.65 136.565 578.78 138.545C576.947 140.525 575.095 142.597 573.225 144.76C574.618 148.133 575.957 151.048 577.24 153.505C578.523 155.962 579.568 157.978 580.375 159.555C581.182 161.132 581.585 162.305 581.585 163.075C581.585 163.992 581.328 164.725 580.815 165.275C580.302 165.825 579.587 166.1 578.67 166.1ZM610.39 169.235C609.766 169.235 609.198 169.143 608.685 168.96C608.208 168.813 607.805 168.502 607.475 168.025C605.971 168.282 604.486 168.483 603.02 168.63C601.553 168.777 600.178 168.85 598.895 168.85C597.795 168.85 596.933 168.575 596.31 168.025C595.686 167.512 595.375 166.778 595.375 165.825C595.375 165.275 595.686 164.652 596.31 163.955C596.933 163.258 598.088 162.598 599.775 161.975C601.461 161.315 603.918 160.802 607.145 160.435C607.401 158.712 607.786 156.677 608.3 154.33C608.813 151.947 609.436 149.417 610.17 146.74C610.903 144.027 611.765 141.35 612.755 138.71C611.398 140.14 609.968 141.35 608.465 142.34C606.998 143.33 605.586 144.082 604.23 144.595C602.91 145.108 601.773 145.365 600.82 145.365C600.05 145.365 599.408 145.237 598.895 144.98C598.418 144.723 598.18 144.247 598.18 143.55C598.18 142.67 598.601 141.863 599.445 141.13C600.288 140.36 601.205 139.608 602.195 138.875C603.698 137.738 605.311 136.382 607.035 134.805C608.795 133.228 610.426 131.542 611.93 129.745C613.47 127.948 614.661 126.188 615.505 124.465C615.908 123.695 616.348 123.09 616.825 122.65C617.301 122.173 618.071 121.935 619.135 121.935C620.198 121.935 620.968 122.412 621.445 123.365C621.921 124.282 622.16 125.382 622.16 126.665C622.16 127.178 622.013 128.242 621.72 129.855C621.426 131.432 621.023 133.375 620.51 135.685C619.996 137.958 619.428 140.47 618.805 143.22C618.181 145.933 617.54 148.72 616.88 151.58C616.22 154.44 615.596 157.208 615.01 159.885C616.22 159.848 617.466 159.83 618.75 159.83C620.29 159.83 621.628 159.958 622.765 160.215C623.901 160.472 624.47 161.022 624.47 161.865C624.47 162.745 624.085 163.405 623.315 163.845C622.581 164.248 621.683 164.615 620.62 164.945C619.63 165.238 618.511 165.55 617.265 165.88C616.018 166.247 614.698 166.577 613.305 166.87C612.938 167.713 612.498 168.318 611.985 168.685C611.471 169.052 610.94 169.235 610.39 169.235ZM635.87 183.425C632.57 184.305 630.92 183.737 630.92 181.72C630.92 180.657 631.543 179.777 632.79 179.08C634.623 177.943 636.108 176.275 637.245 174.075C638.345 171.875 639.206 169.382 639.83 166.595C640.49 163.808 641.003 160.985 641.37 158.125C641.553 156.952 641.901 156.182 642.415 155.815C642.928 155.412 643.478 155.21 644.065 155.21C645.201 155.21 646.265 155.668 647.255 156.585C648.245 157.465 648.74 158.932 648.74 160.985C648.74 163.772 648.318 166.43 647.475 168.96C646.668 171.49 645.605 173.763 644.285 175.78C643.001 177.833 641.608 179.52 640.105 180.84C638.601 182.16 637.19 183.022 635.87 183.425ZM677.85 169.235C677.227 169.235 676.659 169.143 676.145 168.96C675.669 168.813 675.265 168.502 674.935 168.025C673.432 168.282 671.947 168.483 670.48 168.63C669.014 168.777 667.639 168.85 666.355 168.85C665.255 168.85 664.394 168.575 663.77 168.025C663.147 167.512 662.835 166.778 662.835 165.825C662.835 165.275 663.147 164.652 663.77 163.955C664.394 163.258 665.549 162.598 667.235 161.975C668.922 161.315 671.379 160.802 674.605 160.435C674.862 158.712 675.247 156.677 675.76 154.33C676.274 151.947 676.897 149.417 677.63 146.74C678.364 144.027 679.225 141.35 680.215 138.71C678.859 140.14 677.429 141.35 675.925 142.34C674.459 143.33 673.047 144.082 671.69 144.595C670.37 145.108 669.234 145.365 668.28 145.365C667.51 145.365 666.869 145.237 666.355 144.98C665.879 144.723 665.64 144.247 665.64 143.55C665.64 142.67 666.062 141.863 666.905 141.13C667.749 140.36 668.665 139.608 669.655 138.875C671.159 137.738 672.772 136.382 674.495 134.805C676.255 133.228 677.887 131.542 679.39 129.745C680.93 127.948 682.122 126.188 682.965 124.465C683.369 123.695 683.809 123.09 684.285 122.65C684.762 122.173 685.532 121.935 686.595 121.935C687.659 121.935 688.429 122.412 688.905 123.365C689.382 124.282 689.62 125.382 689.62 126.665C689.62 127.178 689.474 128.242 689.18 129.855C688.887 131.432 688.484 133.375 687.97 135.685C687.457 137.958 686.889 140.47 686.265 143.22C685.642 145.933 685 148.72 684.34 151.58C683.68 154.44 683.057 157.208 682.47 159.885C683.68 159.848 684.927 159.83 686.21 159.83C687.75 159.83 689.089 159.958 690.225 160.215C691.362 160.472 691.93 161.022 691.93 161.865C691.93 162.745 691.545 163.405 690.775 163.845C690.042 164.248 689.144 164.615 688.08 164.945C687.09 165.238 685.972 165.55 684.725 165.88C683.479 166.247 682.159 166.577 680.765 166.87C680.399 167.713 679.959 168.318 679.445 168.685C678.932 169.052 678.4 169.235 677.85 169.235ZM723.213 169.29C721.93 169.29 720.995 168.85 720.408 167.97C719.858 167.127 719.583 166.027 719.583 164.67C719.583 163.203 719.693 161.902 719.913 160.765C720.17 159.628 720.463 158.473 720.793 157.3C718.997 157.447 717.182 157.593 715.348 157.74C713.515 157.85 711.682 157.942 709.848 158.015C709.188 158.528 708.492 158.932 707.758 159.225C707.025 159.518 706.182 159.665 705.228 159.665C703.835 159.665 702.735 159.372 701.928 158.785C701.122 158.198 700.718 157.263 700.718 155.98C700.718 154.513 701.158 153.432 702.038 152.735C702.955 152.002 704.11 151.488 705.503 151.195C707.337 148.958 709.335 146.722 711.498 144.485C713.662 142.248 715.807 140.03 717.933 137.83C720.06 135.63 721.967 133.467 723.653 131.34C725.377 129.177 726.678 127.068 727.558 125.015C727.998 123.988 728.603 123.273 729.373 122.87C730.18 122.43 731.042 122.21 731.958 122.21C733.242 122.21 734.103 122.705 734.543 123.695C735.02 124.685 735.258 125.877 735.258 127.27C735.258 127.6 735.13 128.443 734.873 129.8C734.617 131.12 734.25 132.825 733.773 134.915C733.333 136.968 732.82 139.26 732.233 141.79C731.683 144.283 731.115 146.868 730.528 149.545C732.948 149.288 735.038 149.087 736.798 148.94C738.558 148.757 739.677 148.665 740.153 148.665C741.217 148.665 742.078 148.775 742.738 148.995C743.398 149.215 743.728 149.765 743.728 150.645C743.728 151.452 743.215 152.13 742.188 152.68C741.198 153.193 740.117 153.652 738.943 154.055C737.77 154.458 736.358 154.862 734.708 155.265C733.058 155.668 731.133 156.035 728.933 156.365C728.567 157.868 728.2 159.298 727.833 160.655C727.467 162.012 727.118 163.57 726.788 165.33C726.532 166.503 726.147 167.457 725.633 168.19C725.157 168.923 724.35 169.29 723.213 169.29ZM725.193 138.985C723.397 141.185 721.527 143.385 719.583 145.585C717.677 147.748 715.843 149.71 714.083 151.47C715.44 151.287 716.815 151.122 718.208 150.975C719.638 150.828 721.068 150.682 722.498 150.535L725.193 138.985Z" fill="white"/>
</g>
<defs>
<filter id="filter0_d_60_15" x="535.2" y="106.515" width="225.528" height="95.23" filterUnits="userSpaceOnUse" color-interpolation-filters="sRGB">
<feFlood flood-opacity="0" result="BackgroundImageFix"/>
<feColorMatrix in="SourceAlpha" type="matrix" values="0 0 0 0 0 0 0 0 0 0 0 0 0 0 0 0 0 0 127 0" result="hardAlpha"/>
<feOffset dx="2" dy="2"/>
<feGaussianBlur stdDeviation="7.5"/>
<feComposite in2="hardAlpha" operator="out"/>
<feColorMatrix type="matrix" values="0 0 0 0 0 0 0 0 0 0 0 0 0 0 0 0 0 0 0.75 0"/>
<feBlend mode="normal" in2="BackgroundImageFix" result="effect1_dropShadow_60_15"/>
<feBlend mode="normal" in="SourceGraphic" in2="effect1_dropShadow_60_15" result="shape"/>
</filter>
<linearGradient id="paint0_linear_60_15" x1="130" y1="102.5" x2="644" y2="616.5" gradientUnits="userSpaceOnUse">
<stop stop-color="white" stop-opacity="0.9"/>
<stop offset="1" stop-color="white" stop-opacity="0.75"/>
</linearGradient>
</defs>
</svg>
