<svg width="768" height="746" viewBox="0 0 768 746" fill="none" xmlns="http://www.w3.org/2000/svg">
<circle cx="373" cy="373" r="363" fill="url(#paint0_linear_60_67)" fill-opacity="0.5" stroke="white" stroke-width="20"/>
<circle cx="648.5" cy="144.5" r="117" fill="white" fill-opacity="0.95" stroke="white" stroke-width="5"/>
<path d="M459.348 160.429H316.25L239.012 392.976C238.964 393.128 238.952 393.289 238.976 393.447C238.999 393.604 239.059 393.754 239.149 393.885C239.24 394.016 239.36 394.124 239.499 394.202C239.638 394.28 239.793 394.325 239.952 394.333H328.566C328.734 394.325 328.901 394.358 329.054 394.429C329.206 394.5 329.339 394.606 329.442 394.739C329.544 394.873 329.613 395.029 329.642 395.194C329.672 395.36 329.661 395.53 329.61 395.69L261.036 600.683C260.643 601.866 260.688 603.15 261.16 604.304C261.633 605.458 262.503 606.404 263.613 606.971C264.723 607.539 266 607.69 267.211 607.398C268.423 607.106 269.491 606.39 270.221 605.379L477.092 321.375C477.208 321.22 477.279 321.036 477.296 320.842C477.314 320.649 477.277 320.455 477.19 320.282C477.104 320.109 476.97 319.963 476.806 319.861C476.641 319.759 476.451 319.705 476.257 319.705H383.259C383.083 319.685 382.914 319.626 382.766 319.53C382.617 319.435 382.492 319.306 382.402 319.155C382.311 319.003 382.256 318.833 382.242 318.657C382.227 318.481 382.254 318.304 382.319 318.139L460.287 161.577C460.302 161.44 460.289 161.301 460.249 161.169C460.21 161.037 460.145 160.914 460.057 160.807C459.97 160.7 459.862 160.612 459.74 160.547C459.619 160.482 459.485 160.442 459.348 160.429Z" stroke="white" stroke-width="20"/>
<g filter="url(#filter0_d_60_67)">
<path d="M573.67 166.1C572.02 166.1 570.773 165.55 569.93 164.45C569.087 163.35 568.243 162.012 567.4 160.435C566.593 158.858 565.823 157.3 565.09 155.76C564.357 154.183 563.623 152.588 562.89 150.975C560.947 153.285 559.113 155.485 557.39 157.575C555.703 159.628 554.218 161.443 552.935 163.02C551.688 164.56 550.753 165.752 550.13 166.595C549.58 167.292 549.03 167.878 548.48 168.355C547.967 168.868 547.215 169.125 546.225 169.125C545.272 169.125 544.52 168.832 543.97 168.245C543.457 167.695 543.2 166.925 543.2 165.935C543.2 165.165 543.658 164.047 544.575 162.58C545.492 161.077 546.72 159.317 548.26 157.3C549.837 155.247 551.597 153.065 553.54 150.755C555.52 148.408 557.573 146.007 559.7 143.55C557.573 138.307 555.905 133.888 554.695 130.295C553.522 126.665 552.935 124.08 552.935 122.54C552.935 120.523 553.925 119.515 555.905 119.515C556.968 119.515 557.793 119.808 558.38 120.395C559.003 120.945 559.517 121.715 559.92 122.705C560.287 123.548 560.855 125.088 561.625 127.325C562.395 129.525 563.605 132.825 565.255 137.225C567.822 134.292 569.93 131.798 571.58 129.745C573.267 127.692 574.66 126.042 575.76 124.795C576.86 123.548 577.813 122.632 578.62 122.045C579.427 121.458 580.215 121.165 580.985 121.165C582.012 121.165 582.8 121.44 583.35 121.99C583.937 122.503 584.23 123.255 584.23 124.245C584.23 125.162 584.065 125.95 583.735 126.61C583.405 127.27 582.965 127.967 582.415 128.7C581.572 129.947 580.38 131.413 578.84 133.1C577.337 134.75 575.65 136.565 573.78 138.545C571.947 140.525 570.095 142.597 568.225 144.76C569.618 148.133 570.957 151.048 572.24 153.505C573.523 155.962 574.568 157.978 575.375 159.555C576.182 161.132 576.585 162.305 576.585 163.075C576.585 163.992 576.328 164.725 575.815 165.275C575.302 165.825 574.587 166.1 573.67 166.1ZM605.39 169.235C604.766 169.235 604.198 169.143 603.685 168.96C603.208 168.813 602.805 168.502 602.475 168.025C600.971 168.282 599.486 168.483 598.02 168.63C596.553 168.777 595.178 168.85 593.895 168.85C592.795 168.85 591.933 168.575 591.31 168.025C590.686 167.512 590.375 166.778 590.375 165.825C590.375 165.275 590.686 164.652 591.31 163.955C591.933 163.258 593.088 162.598 594.775 161.975C596.461 161.315 598.918 160.802 602.145 160.435C602.401 158.712 602.786 156.677 603.3 154.33C603.813 151.947 604.436 149.417 605.17 146.74C605.903 144.027 606.765 141.35 607.755 138.71C606.398 140.14 604.968 141.35 603.465 142.34C601.998 143.33 600.586 144.082 599.23 144.595C597.91 145.108 596.773 145.365 595.82 145.365C595.05 145.365 594.408 145.237 593.895 144.98C593.418 144.723 593.18 144.247 593.18 143.55C593.18 142.67 593.601 141.863 594.445 141.13C595.288 140.36 596.205 139.608 597.195 138.875C598.698 137.738 600.311 136.382 602.035 134.805C603.795 133.228 605.426 131.542 606.93 129.745C608.47 127.948 609.661 126.188 610.505 124.465C610.908 123.695 611.348 123.09 611.825 122.65C612.301 122.173 613.071 121.935 614.135 121.935C615.198 121.935 615.968 122.412 616.445 123.365C616.921 124.282 617.16 125.382 617.16 126.665C617.16 127.178 617.013 128.242 616.72 129.855C616.426 131.432 616.023 133.375 615.51 135.685C614.996 137.958 614.428 140.47 613.805 143.22C613.181 145.933 612.54 148.72 611.88 151.58C611.22 154.44 610.596 157.208 610.01 159.885C611.22 159.848 612.466 159.83 613.75 159.83C615.29 159.83 616.628 159.958 617.765 160.215C618.901 160.472 619.47 161.022 619.47 161.865C619.47 162.745 619.085 163.405 618.315 163.845C617.581 164.248 616.683 164.615 615.62 164.945C614.63 165.238 613.511 165.55 612.265 165.88C611.018 166.247 609.698 166.577 608.305 166.87C607.938 167.713 607.498 168.318 606.985 168.685C606.471 169.052 605.94 169.235 605.39 169.235ZM630.87 183.425C627.57 184.305 625.92 183.737 625.92 181.72C625.92 180.657 626.543 179.777 627.79 179.08C629.623 177.943 631.108 176.275 632.245 174.075C633.345 171.875 634.206 169.382 634.83 166.595C635.49 163.808 636.003 160.985 636.37 158.125C636.553 156.952 636.901 156.182 637.415 155.815C637.928 155.412 638.478 155.21 639.065 155.21C640.201 155.21 641.265 155.668 642.255 156.585C643.245 157.465 643.74 158.932 643.74 160.985C643.74 163.772 643.318 166.43 642.475 168.96C641.668 171.49 640.605 173.763 639.285 175.78C638.001 177.833 636.608 179.52 635.105 180.84C633.601 182.16 632.19 183.022 630.87 183.425ZM672.85 169.235C672.227 169.235 671.659 169.143 671.145 168.96C670.669 168.813 670.265 168.502 669.935 168.025C668.432 168.282 666.947 168.483 665.48 168.63C664.014 168.777 662.639 168.85 661.355 168.85C660.255 168.85 659.394 168.575 658.77 168.025C658.147 167.512 657.835 166.778 657.835 165.825C657.835 165.275 658.147 164.652 658.77 163.955C659.394 163.258 660.549 162.598 662.235 161.975C663.922 161.315 666.379 160.802 669.605 160.435C669.862 158.712 670.247 156.677 670.76 154.33C671.274 151.947 671.897 149.417 672.63 146.74C673.364 144.027 674.225 141.35 675.215 138.71C673.859 140.14 672.429 141.35 670.925 142.34C669.459 143.33 668.047 144.082 666.69 144.595C665.37 145.108 664.234 145.365 663.28 145.365C662.51 145.365 661.869 145.237 661.355 144.98C660.879 144.723 660.64 144.247 660.64 143.55C660.64 142.67 661.062 141.863 661.905 141.13C662.749 140.36 663.665 139.608 664.655 138.875C666.159 137.738 667.772 136.382 669.495 134.805C671.255 133.228 672.887 131.542 674.39 129.745C675.93 127.948 677.122 126.188 677.965 124.465C678.369 123.695 678.809 123.09 679.285 122.65C679.762 122.173 680.532 121.935 681.595 121.935C682.659 121.935 683.429 122.412 683.905 123.365C684.382 124.282 684.62 125.382 684.62 126.665C684.62 127.178 684.474 128.242 684.18 129.855C683.887 131.432 683.484 133.375 682.97 135.685C682.457 137.958 681.889 140.47 681.265 143.22C680.642 145.933 680 148.72 679.34 151.58C678.68 154.44 678.057 157.208 677.47 159.885C678.68 159.848 679.927 159.83 681.21 159.83C682.75 159.83 684.089 159.958 685.225 160.215C686.362 160.472 686.93 161.022 686.93 161.865C686.93 162.745 686.545 163.405 685.775 163.845C685.042 164.248 684.144 164.615 683.08 164.945C682.09 165.238 680.972 165.55 679.725 165.88C678.479 166.247 677.159 166.577 675.765 166.87C675.399 167.713 674.959 168.318 674.445 168.685C673.932 169.052 673.4 169.235 672.85 169.235ZM708.785 167.86C707.318 167.86 705.815 167.677 704.275 167.31C702.771 166.98 701.396 166.522 700.15 165.935C698.903 165.385 697.895 164.798 697.125 164.175C696.355 163.515 695.97 162.892 695.97 162.305C695.97 161.645 696.19 161.058 696.63 160.545C697.07 160.032 697.895 159.775 699.105 159.775C699.545 159.775 700.186 159.848 701.03 159.995C701.91 160.105 702.826 160.233 703.78 160.38C704.77 160.527 705.595 160.6 706.255 160.6C709.921 160.6 713.148 160.032 715.935 158.895C718.758 157.722 721.105 156.182 722.975 154.275C724.881 152.332 726.33 150.242 727.32 148.005C725.816 149.178 724.13 150.168 722.26 150.975C720.426 151.782 718.611 152.185 716.815 152.185C714.101 152.185 711.956 151.415 710.38 149.875C708.84 148.298 708.07 146.062 708.07 143.165C708.07 141.295 708.381 139.425 709.005 137.555C709.628 135.648 710.471 133.833 711.535 132.11C712.635 130.387 713.863 128.865 715.22 127.545C716.613 126.188 718.061 125.125 719.565 124.355C721.105 123.585 722.608 123.2 724.075 123.2C726.091 123.2 727.998 123.915 729.795 125.345C731.591 126.738 733.04 128.902 734.14 131.835C735.276 134.732 735.845 138.435 735.845 142.945C735.845 145.072 735.441 147.308 734.635 149.655C733.828 151.965 732.655 154.202 731.115 156.365C729.575 158.528 727.705 160.472 725.505 162.195C723.305 163.918 720.793 165.293 717.97 166.32C715.183 167.347 712.121 167.86 708.785 167.86ZM728.915 140.305C728.878 137.408 728.493 135.062 727.76 133.265C727.063 131.468 725.798 130.57 723.965 130.57C723.011 130.57 722.003 131.01 720.94 131.89C719.913 132.77 718.941 133.925 718.025 135.355C717.145 136.748 716.411 138.233 715.825 139.81C715.275 141.387 715 142.872 715 144.265C715 144.852 715.22 145.145 715.66 145.145C717.42 145.145 719.125 144.852 720.775 144.265C722.461 143.642 724.001 142.945 725.395 142.175C726.825 141.405 727.998 140.782 728.915 140.305Z" fill="white"/>
</g>
<defs>
<filter id="filter0_d_60_67" x="530.2" y="106.515" width="222.645" height="95.23" filterUnits="userSpaceOnUse" color-interpolation-filters="sRGB">
<feFlood flood-opacity="0" result="BackgroundImageFix"/>
<feColorMatrix in="SourceAlpha" type="matrix" values="0 0 0 0 0 0 0 0 0 0 0 0 0 0 0 0 0 0 127 0" result="hardAlpha"/>
<feOffset dx="2" dy="2"/>
<feGaussianBlur stdDeviation="7.5"/>
<feComposite in2="hardAlpha" operator="out"/>
<feColorMatrix type="matrix" values="0 0 0 0 0 0 0 0 0 0 0 0 0 0 0 0 0 0 0.75 0"/>
<feBlend mode="normal" in2="BackgroundImageFix" result="effect1_dropShadow_60_67"/>
<feBlend mode="normal" in="SourceGraphic" in2="effect1_dropShadow_60_67" result="shape"/>
</filter>
<linearGradient id="paint0_linear_60_67" x1="130" y1="102.5" x2="644" y2="616.5" gradientUnits="userSpaceOnUse">
<stop stop-color="white" stop-opacity="0.9"/>
<stop offset="1" stop-color="white" stop-opacity="0.75"/>
</linearGradient>
</defs>
</svg>
