<svg width="768" height="746" viewBox="0 0 768 746" fill="none" xmlns="http://www.w3.org/2000/svg">
<circle cx="373" cy="373" r="363" fill="url(#paint0_linear_66_1500)" fill-opacity="0.5" stroke="white" stroke-width="20"/>
<circle cx="648.5" cy="144.5" r="117" fill="white" fill-opacity="0.95" stroke="white" stroke-width="5"/>
<g clip-path="url(#clip0_66_1500)">
<path d="M516.415 326.711C503.183 325.452 489.988 329.823 480.214 338.71C479.006 339.809 477.861 340.966 476.783 342.172C469.459 328.5 455.982 318.691 440.251 317.19C427.02 315.931 413.825 320.302 404.05 329.189C402.842 330.288 401.697 331.445 400.619 332.651C394.226 320.718 383.142 311.727 369.964 308.637C392.804 285.932 406.509 254.613 406.509 221.171C406.508 153.255 351.253 98 283.336 98C215.419 98 160.165 153.255 160.165 221.172C160.165 271.001 190.571 316.137 236.329 335.049V387.948L202.032 412.446C181.712 426.961 173.365 452.631 181.262 476.32L215.087 577.8C229.285 620.387 268.984 649.001 313.875 649.001H454.705C512.123 649.001 558.835 602.289 558.835 544.871V375.137C558.835 350.25 540.203 328.98 516.415 326.711ZM178.015 221.172C178.015 163.099 225.263 115.852 283.336 115.852C341.409 115.852 388.656 163.099 388.656 221.172C388.656 261.257 365.646 297.786 330.343 315.438V292.1C353.956 276.411 368.425 249.699 368.425 221.172C368.425 174.254 330.254 136.082 283.336 136.082C236.418 136.082 198.246 174.254 198.246 221.172C198.246 249.697 212.717 276.41 236.329 292.1V315.438C201.028 297.786 178.015 261.256 178.015 221.172ZM287.923 174.384C274.69 173.123 261.496 177.495 251.722 186.383C241.94 195.277 236.329 207.958 236.329 221.172V269.216C223.588 256.705 216.098 239.408 216.098 221.172C216.098 184.097 246.261 153.934 283.336 153.934C320.411 153.934 350.574 184.097 350.574 221.172C350.574 239.41 343.084 256.706 330.343 269.218V222.81C330.344 197.922 311.711 176.651 287.923 174.384ZM454.705 631.148H313.874C276.678 631.148 243.784 607.44 232.022 572.154L198.197 470.675C192.792 454.467 198.504 436.904 212.408 426.973L236.329 409.886V487.749C236.329 492.678 240.324 496.675 245.255 496.675C250.184 496.675 254.18 492.679 254.18 487.749V221.172C254.18 212.975 257.662 205.108 263.73 199.591C269.882 193.999 277.878 191.357 286.229 192.155C300.957 193.558 312.494 207.024 312.494 222.809V411.583C312.494 416.512 316.488 420.509 321.419 420.509C326.349 420.509 330.345 416.513 330.345 411.583V354.46C330.345 346.263 333.827 338.396 339.895 332.879C346.045 327.288 354.033 324.639 362.393 325.443C377.121 326.847 388.657 340.313 388.657 356.098V363.981V421.104C388.657 426.033 392.652 430.03 397.583 430.03C402.514 430.03 406.509 426.034 406.509 421.104V363.981C406.509 355.784 409.99 347.917 416.059 342.4C422.209 336.809 430.196 334.16 438.557 334.964C453.285 336.368 464.821 349.833 464.821 365.619V373.499V430.623C464.821 435.551 468.816 439.548 473.747 439.548C478.678 439.548 482.673 435.552 482.673 430.623V373.499C482.673 365.302 486.153 357.435 492.223 351.919C498.373 346.327 506.36 343.679 514.721 344.483C529.448 345.887 540.985 359.352 540.985 375.137V544.869H540.988C540.985 592.444 502.28 631.148 454.705 631.148Z" fill="white"/>
</g>
<g filter="url(#filter0_d_66_1500)">
<path d="M617.344 164.984C615.36 164.984 613.76 164.184 612.544 162.584C611.328 160.984 610.72 159.16 610.72 157.112C610.72 155.384 610.816 153.56 611.008 151.64C611.264 149.656 611.584 147.64 611.968 145.592C609.088 145.784 606.24 145.88 603.424 145.88C601.376 145.88 599.456 145.432 597.664 144.536C595.936 143.64 595.072 142.296 595.072 140.504C595.072 138.84 595.776 137.592 597.184 136.76C598.656 135.864 600.288 135.384 602.08 135.32C603.808 135.192 605.792 134.968 608.032 134.648C610.272 134.328 612.576 133.976 614.944 133.592C615.968 130.328 617.024 127.32 618.112 124.568C619.264 121.816 620.352 119.608 621.376 117.944C622.4 116.28 623.296 115.448 624.064 115.448C625.792 115.448 627.104 115.864 628 116.696C628.896 117.464 629.344 119.16 629.344 121.784C629.344 122.552 629.216 123.832 628.96 125.624C628.704 127.416 628.352 129.464 627.904 131.768C629.568 131.64 630.944 131.576 632.032 131.576C635.424 131.576 637.888 132.12 639.424 133.208C641.024 134.296 641.824 135.768 641.824 137.624C641.824 138.712 640.32 139.832 637.312 140.984C634.304 142.136 630.432 143.128 625.696 143.96C625.12 147.096 624.544 150.104 623.968 152.984C623.392 155.864 622.944 158.264 622.624 160.184C622.368 161.528 621.728 162.68 620.704 163.64C619.744 164.536 618.624 164.984 617.344 164.984ZM656.372 186.488C653.94 186.488 651.764 185.816 649.844 184.472C647.988 183.192 647.06 181.272 647.06 178.712C647.06 176.344 647.764 174.648 649.172 173.624C650.58 172.536 652.468 171.992 654.836 171.992C655.796 171.992 656.756 172.12 657.716 172.376C658.676 172.568 660.468 172.824 663.092 173.144C667.508 170.904 671.412 168.728 674.804 166.616C678.196 164.44 680.852 162.296 682.772 160.184C684.692 158.008 685.652 155.8 685.652 153.56C685.652 151.448 684.82 150.2 683.156 149.816C681.556 149.368 679.604 149.112 677.3 149.048C677.044 149.048 676.756 149.048 676.436 149.048C676.18 148.984 675.892 148.952 675.572 148.952C672.308 148.76 669.236 148.376 666.356 147.8C663.54 147.16 661.236 146.04 659.444 144.44C657.652 142.776 656.756 140.312 656.756 137.048C656.756 133.4 657.236 129.816 658.196 126.296C659.156 122.712 660.372 119.416 661.844 116.408C661.268 115.896 660.916 115.288 660.788 114.584C660.724 113.816 660.692 113.048 660.692 112.28C660.692 111.512 661.268 110.744 662.42 109.976C663.572 109.208 665.14 108.44 667.124 107.672C668.788 105.432 670.388 103.672 671.924 102.392C673.46 101.048 674.676 100.376 675.572 100.376C676.66 100.376 677.62 100.728 678.452 101.432C679.348 102.136 680.02 103.032 680.468 104.12C684.308 103.352 688.308 102.744 692.468 102.296C696.692 101.848 700.788 101.624 704.756 101.624C707.06 101.624 709.14 101.816 710.996 102.2C712.916 102.52 714.42 103.192 715.508 104.216C716.66 105.176 717.236 106.68 717.236 108.728C717.236 110.456 716.66 111.736 715.508 112.568C714.42 113.336 712.948 113.752 711.092 113.816C707.38 113.88 703.412 114.168 699.188 114.68C694.964 115.192 690.804 115.768 686.708 116.408C682.676 116.984 679.06 117.432 675.86 117.752C674.836 119.608 673.844 121.528 672.884 123.512C671.988 125.432 671.22 127.224 670.58 128.888C670.004 130.552 669.716 131.896 669.716 132.92C669.716 134.712 670.484 135.8 672.02 136.184C673.556 136.568 675.38 136.824 677.492 136.952C679.988 137.144 682.484 137.464 684.98 137.912C687.476 138.296 689.748 139 691.796 140.024C693.908 141.048 695.604 142.584 696.884 144.632C698.164 146.616 698.804 149.272 698.804 152.6C698.804 155.736 697.908 158.904 696.116 162.104C694.388 165.304 692.02 168.376 689.012 171.32C686.068 174.2 682.74 176.76 679.028 179C675.38 181.304 671.572 183.128 667.604 184.472C663.7 185.816 659.956 186.488 656.372 186.488Z" fill="white"/>
</g>
<defs>
<filter id="filter0_d_66_1500" x="582.072" y="87.376" width="152.164" height="116.112" filterUnits="userSpaceOnUse" color-interpolation-filters="sRGB">
<feFlood flood-opacity="0" result="BackgroundImageFix"/>
<feColorMatrix in="SourceAlpha" type="matrix" values="0 0 0 0 0 0 0 0 0 0 0 0 0 0 0 0 0 0 127 0" result="hardAlpha"/>
<feOffset dx="2" dy="2"/>
<feGaussianBlur stdDeviation="7.5"/>
<feComposite in2="hardAlpha" operator="out"/>
<feColorMatrix type="matrix" values="0 0 0 0 0 0 0 0 0 0 0 0 0 0 0 0 0 0 0.75 0"/>
<feBlend mode="normal" in2="BackgroundImageFix" result="effect1_dropShadow_66_1500"/>
<feBlend mode="normal" in="SourceGraphic" in2="effect1_dropShadow_66_1500" result="shape"/>
</filter>
<linearGradient id="paint0_linear_66_1500" x1="130" y1="102.5" x2="644" y2="616.5" gradientUnits="userSpaceOnUse">
<stop stop-color="white" stop-opacity="0.9"/>
<stop offset="1" stop-color="white" stop-opacity="0.75"/>
</linearGradient>
<clipPath id="clip0_66_1500">
<rect width="551" height="551" fill="white" transform="translate(84 98)"/>
</clipPath>
</defs>
</svg>
