<svg width="768" height="746" viewBox="0 0 768 746" fill="none" xmlns="http://www.w3.org/2000/svg">
<circle cx="373" cy="373" r="363" fill="url(#paint0_linear_66_1466)" fill-opacity="0.5" stroke="white" stroke-width="20"/>
<circle cx="648.5" cy="144.5" r="117" fill="white" fill-opacity="0.95" stroke="white" stroke-width="5"/>
<g clip-path="url(#clip0_66_1466)">
<path d="M516.415 326.711C503.183 325.452 489.988 329.823 480.214 338.71C479.006 339.809 477.861 340.966 476.783 342.172C469.459 328.5 455.982 318.691 440.251 317.19C427.02 315.931 413.825 320.302 404.05 329.189C402.842 330.288 401.697 331.445 400.619 332.651C394.226 320.718 383.142 311.727 369.964 308.637C392.804 285.932 406.509 254.613 406.509 221.171C406.508 153.255 351.253 98 283.336 98C215.419 98 160.165 153.255 160.165 221.172C160.165 271.001 190.571 316.137 236.329 335.049V387.948L202.032 412.446C181.712 426.961 173.365 452.631 181.262 476.32L215.087 577.8C229.285 620.387 268.984 649.001 313.875 649.001H454.705C512.123 649.001 558.835 602.289 558.835 544.871V375.137C558.835 350.25 540.203 328.98 516.415 326.711ZM178.015 221.172C178.015 163.099 225.263 115.852 283.336 115.852C341.409 115.852 388.656 163.099 388.656 221.172C388.656 261.257 365.646 297.786 330.343 315.438V292.1C353.956 276.411 368.425 249.699 368.425 221.172C368.425 174.254 330.254 136.082 283.336 136.082C236.418 136.082 198.246 174.254 198.246 221.172C198.246 249.697 212.717 276.41 236.329 292.1V315.438C201.028 297.786 178.015 261.256 178.015 221.172ZM287.923 174.384C274.69 173.123 261.496 177.495 251.722 186.383C241.94 195.277 236.329 207.958 236.329 221.172V269.216C223.588 256.705 216.098 239.408 216.098 221.172C216.098 184.097 246.261 153.934 283.336 153.934C320.411 153.934 350.574 184.097 350.574 221.172C350.574 239.41 343.084 256.706 330.343 269.218V222.81C330.344 197.922 311.711 176.651 287.923 174.384ZM454.705 631.148H313.874C276.678 631.148 243.784 607.44 232.022 572.154L198.197 470.675C192.792 454.467 198.504 436.904 212.408 426.973L236.329 409.886V487.749C236.329 492.678 240.324 496.675 245.255 496.675C250.184 496.675 254.18 492.679 254.18 487.749V221.172C254.18 212.975 257.662 205.108 263.73 199.591C269.882 193.999 277.878 191.357 286.229 192.155C300.957 193.558 312.494 207.024 312.494 222.809V411.583C312.494 416.512 316.488 420.509 321.419 420.509C326.349 420.509 330.345 416.513 330.345 411.583V354.46C330.345 346.263 333.827 338.396 339.895 332.879C346.045 327.288 354.033 324.639 362.393 325.443C377.121 326.847 388.657 340.313 388.657 356.098V363.981V421.104C388.657 426.033 392.652 430.03 397.583 430.03C402.514 430.03 406.509 426.034 406.509 421.104V363.981C406.509 355.784 409.99 347.917 416.059 342.4C422.209 336.809 430.196 334.16 438.557 334.964C453.285 336.368 464.821 349.833 464.821 365.619V373.499V430.623C464.821 435.551 468.816 439.548 473.747 439.548C478.678 439.548 482.673 435.552 482.673 430.623V373.499C482.673 365.302 486.153 357.435 492.223 351.919C498.373 346.327 506.36 343.679 514.721 344.483C529.448 345.887 540.985 359.352 540.985 375.137V544.869H540.988C540.985 592.444 502.28 631.148 454.705 631.148Z" fill="white"/>
</g>
<g filter="url(#filter0_d_66_1466)">
<path d="M617.344 164.984C615.36 164.984 613.76 164.184 612.544 162.584C611.328 160.984 610.72 159.16 610.72 157.112C610.72 155.384 610.816 153.56 611.008 151.64C611.264 149.656 611.584 147.64 611.968 145.592C609.088 145.784 606.24 145.88 603.424 145.88C601.376 145.88 599.456 145.432 597.664 144.536C595.936 143.64 595.072 142.296 595.072 140.504C595.072 138.84 595.776 137.592 597.184 136.76C598.656 135.864 600.288 135.384 602.08 135.32C603.808 135.192 605.792 134.968 608.032 134.648C610.272 134.328 612.576 133.976 614.944 133.592C615.968 130.328 617.024 127.32 618.112 124.568C619.264 121.816 620.352 119.608 621.376 117.944C622.4 116.28 623.296 115.448 624.064 115.448C625.792 115.448 627.104 115.864 628 116.696C628.896 117.464 629.344 119.16 629.344 121.784C629.344 122.552 629.216 123.832 628.96 125.624C628.704 127.416 628.352 129.464 627.904 131.768C629.568 131.64 630.944 131.576 632.032 131.576C635.424 131.576 637.888 132.12 639.424 133.208C641.024 134.296 641.824 135.768 641.824 137.624C641.824 138.712 640.32 139.832 637.312 140.984C634.304 142.136 630.432 143.128 625.696 143.96C625.12 147.096 624.544 150.104 623.968 152.984C623.392 155.864 622.944 158.264 622.624 160.184C622.368 161.528 621.728 162.68 620.704 163.64C619.744 164.536 618.624 164.984 617.344 164.984ZM700.927 152.504C700.927 154.936 699.967 157.496 698.047 160.184C696.127 162.808 693.631 165.4 690.559 167.96C687.487 170.52 684.127 172.952 680.479 175.256C676.895 177.496 673.343 179.48 669.823 181.208C666.367 183 663.295 184.376 660.607 185.336C657.919 186.36 655.967 186.872 654.751 186.872C652.447 186.872 650.559 186.456 649.087 185.624C647.615 184.792 646.879 183.32 646.879 181.208C646.879 179.608 647.263 178.36 648.031 177.464C648.799 176.568 649.887 175.8 651.295 175.16C654.687 173.624 658.175 171.992 661.759 170.264C665.343 168.536 668.767 166.776 672.031 164.984C675.359 163.192 678.303 161.432 680.863 159.704C683.487 157.976 685.567 156.344 687.103 154.808C688.639 153.208 689.407 151.8 689.407 150.584C689.407 149.176 688.863 148.152 687.775 147.512C686.751 146.872 685.375 146.456 683.647 146.264C681.919 146.008 679.999 145.88 677.887 145.88C675.007 145.88 672.607 146.008 670.687 146.264C668.767 146.52 667.103 146.776 665.695 147.032C664.351 147.224 663.103 147.32 661.951 147.32C660.031 147.32 658.655 146.904 657.823 146.072C656.991 145.176 656.575 143.992 656.575 142.52C656.575 141.304 657.023 140.056 657.919 138.776C658.815 137.496 660.255 136.536 662.239 135.896C666.399 134.552 670.079 133.08 673.279 131.48C676.543 129.816 679.071 127.992 680.863 126.008C682.719 124.024 683.647 121.88 683.647 119.576C683.647 118.872 683.295 118.392 682.591 118.136C681.951 117.88 680.607 117.752 678.559 117.752C676.703 117.752 674.623 117.976 672.319 118.424C670.079 118.872 667.871 119.416 665.695 120.056C663.583 120.632 661.759 121.144 660.223 121.592C658.751 122.04 657.823 122.264 657.439 122.264C654.623 122.264 653.215 120.856 653.215 118.04C653.215 117.4 653.695 116.376 654.655 114.968C655.615 113.56 657.055 112.12 658.975 110.648C660.895 109.112 663.263 107.8 666.079 106.712C668.959 105.624 672.287 105.08 676.063 105.08C679.775 105.08 683.007 105.816 685.759 107.288C688.575 108.76 690.751 110.776 692.287 113.336C693.887 115.832 694.687 118.68 694.687 121.88C694.687 124.312 693.919 126.744 692.383 129.176C690.911 131.544 689.055 133.656 686.815 135.512C691.103 136.792 694.527 139 697.087 142.136C699.647 145.208 700.927 148.664 700.927 152.504Z" fill="white"/>
</g>
<defs>
<filter id="filter0_d_66_1466" x="582.072" y="92.08" width="135.855" height="111.792" filterUnits="userSpaceOnUse" color-interpolation-filters="sRGB">
<feFlood flood-opacity="0" result="BackgroundImageFix"/>
<feColorMatrix in="SourceAlpha" type="matrix" values="0 0 0 0 0 0 0 0 0 0 0 0 0 0 0 0 0 0 127 0" result="hardAlpha"/>
<feOffset dx="2" dy="2"/>
<feGaussianBlur stdDeviation="7.5"/>
<feComposite in2="hardAlpha" operator="out"/>
<feColorMatrix type="matrix" values="0 0 0 0 0 0 0 0 0 0 0 0 0 0 0 0 0 0 0.75 0"/>
<feBlend mode="normal" in2="BackgroundImageFix" result="effect1_dropShadow_66_1466"/>
<feBlend mode="normal" in="SourceGraphic" in2="effect1_dropShadow_66_1466" result="shape"/>
</filter>
<linearGradient id="paint0_linear_66_1466" x1="130" y1="102.5" x2="644" y2="616.5" gradientUnits="userSpaceOnUse">
<stop stop-color="white" stop-opacity="0.9"/>
<stop offset="1" stop-color="white" stop-opacity="0.75"/>
</linearGradient>
<clipPath id="clip0_66_1466">
<rect width="551" height="551" fill="white" transform="translate(84 98)"/>
</clipPath>
</defs>
</svg>
