<svg width="768" height="746" viewBox="0 0 768 746" fill="none" xmlns="http://www.w3.org/2000/svg">
<circle cx="373" cy="373" r="363" fill="url(#paint0_linear_66_1491)" fill-opacity="0.5" stroke="#900020" stroke-width="20"/>
<circle cx="648.5" cy="144.5" r="117" fill="#900020" fill-opacity="0.95" stroke="#900020" stroke-width="5"/>
<g clip-path="url(#clip0_66_1491)">
<path d="M516.415 326.711C503.183 325.452 489.988 329.823 480.214 338.71C479.006 339.809 477.861 340.966 476.783 342.172C469.459 328.5 455.982 318.691 440.251 317.19C427.02 315.931 413.825 320.302 404.05 329.189C402.842 330.288 401.697 331.445 400.619 332.651C394.226 320.718 383.142 311.727 369.964 308.637C392.804 285.932 406.509 254.613 406.509 221.171C406.508 153.255 351.253 98 283.336 98C215.419 98 160.165 153.255 160.165 221.172C160.165 271.001 190.571 316.137 236.329 335.049V387.948L202.032 412.446C181.712 426.961 173.365 452.631 181.262 476.32L215.087 577.8C229.285 620.387 268.984 649.001 313.875 649.001H454.705C512.123 649.001 558.835 602.289 558.835 544.871V375.137C558.835 350.25 540.203 328.98 516.415 326.711ZM178.015 221.172C178.015 163.099 225.263 115.852 283.336 115.852C341.409 115.852 388.656 163.099 388.656 221.172C388.656 261.257 365.646 297.786 330.343 315.438V292.1C353.956 276.411 368.425 249.699 368.425 221.172C368.425 174.254 330.254 136.082 283.336 136.082C236.418 136.082 198.246 174.254 198.246 221.172C198.246 249.697 212.717 276.41 236.329 292.1V315.438C201.028 297.786 178.015 261.256 178.015 221.172ZM287.923 174.384C274.69 173.123 261.496 177.495 251.722 186.383C241.94 195.277 236.329 207.958 236.329 221.172V269.216C223.588 256.705 216.098 239.408 216.098 221.172C216.098 184.097 246.261 153.934 283.336 153.934C320.411 153.934 350.574 184.097 350.574 221.172C350.574 239.41 343.084 256.706 330.343 269.218V222.81C330.344 197.922 311.711 176.651 287.923 174.384ZM454.705 631.148H313.874C276.678 631.148 243.784 607.44 232.022 572.154L198.197 470.675C192.792 454.467 198.504 436.904 212.408 426.973L236.329 409.886V487.749C236.329 492.678 240.324 496.675 245.255 496.675C250.184 496.675 254.18 492.679 254.18 487.749V221.172C254.18 212.975 257.662 205.108 263.73 199.591C269.882 193.999 277.878 191.357 286.229 192.155C300.957 193.558 312.494 207.024 312.494 222.809V411.583C312.494 416.512 316.488 420.509 321.419 420.509C326.349 420.509 330.345 416.513 330.345 411.583V354.46C330.345 346.263 333.827 338.396 339.895 332.879C346.045 327.288 354.033 324.639 362.393 325.443C377.121 326.847 388.657 340.313 388.657 356.098V363.981V421.104C388.657 426.033 392.652 430.03 397.583 430.03C402.514 430.03 406.509 426.034 406.509 421.104V363.981C406.509 355.784 409.99 347.917 416.059 342.4C422.209 336.809 430.196 334.16 438.557 334.964C453.285 336.368 464.821 349.833 464.821 365.619V373.499V430.623C464.821 435.551 468.816 439.548 473.747 439.548C478.678 439.548 482.673 435.552 482.673 430.623V373.499C482.673 365.302 486.153 357.435 492.223 351.919C498.373 346.327 506.36 343.679 514.721 344.483C529.448 345.887 540.985 359.352 540.985 375.137V544.869H540.988C540.985 592.444 502.28 631.148 454.705 631.148Z" fill="#900020"/>
</g>
<g filter="url(#filter0_d_66_1491)">
<path d="M617.344 164.984C615.36 164.984 613.76 164.184 612.544 162.584C611.328 160.984 610.72 159.16 610.72 157.112C610.72 155.384 610.816 153.56 611.008 151.64C611.264 149.656 611.584 147.64 611.968 145.592C609.088 145.784 606.24 145.88 603.424 145.88C601.376 145.88 599.456 145.432 597.664 144.536C595.936 143.64 595.072 142.296 595.072 140.504C595.072 138.84 595.776 137.592 597.184 136.76C598.656 135.864 600.288 135.384 602.08 135.32C603.808 135.192 605.792 134.968 608.032 134.648C610.272 134.328 612.576 133.976 614.944 133.592C615.968 130.328 617.024 127.32 618.112 124.568C619.264 121.816 620.352 119.608 621.376 117.944C622.4 116.28 623.296 115.448 624.064 115.448C625.792 115.448 627.104 115.864 628 116.696C628.896 117.464 629.344 119.16 629.344 121.784C629.344 122.552 629.216 123.832 628.96 125.624C628.704 127.416 628.352 129.464 627.904 131.768C629.568 131.64 630.944 131.576 632.032 131.576C635.424 131.576 637.888 132.12 639.424 133.208C641.024 134.296 641.824 135.768 641.824 137.624C641.824 138.712 640.32 139.832 637.312 140.984C634.304 142.136 630.432 143.128 625.696 143.96C625.12 147.096 624.544 150.104 623.968 152.984C623.392 155.864 622.944 158.264 622.624 160.184C622.368 161.528 621.728 162.68 620.704 163.64C619.744 164.536 618.624 164.984 617.344 164.984ZM683.721 186.488C681.481 186.488 679.849 185.72 678.825 184.184C677.865 182.712 677.385 180.792 677.385 178.424C677.385 175.864 677.577 173.592 677.961 171.608C678.409 169.624 678.921 167.608 679.497 165.56C676.361 165.816 673.193 166.072 669.993 166.328C666.793 166.52 663.593 166.68 660.393 166.808C659.241 167.704 658.025 168.408 656.745 168.92C655.465 169.432 653.993 169.688 652.329 169.688C649.897 169.688 647.977 169.176 646.569 168.152C645.161 167.128 644.457 165.496 644.457 163.256C644.457 160.696 645.225 158.808 646.761 157.592C648.361 156.312 650.377 155.416 652.809 154.904C656.009 151 659.497 147.096 663.273 143.192C667.049 139.288 670.793 135.416 674.505 131.576C678.217 127.736 681.545 123.96 684.489 120.248C687.497 116.472 689.769 112.792 691.305 109.208C692.073 107.416 693.129 106.168 694.473 105.464C695.881 104.696 697.385 104.312 698.985 104.312C701.225 104.312 702.729 105.176 703.497 106.904C704.329 108.632 704.745 110.712 704.745 113.144C704.745 113.72 704.521 115.192 704.073 117.56C703.625 119.864 702.985 122.84 702.153 126.488C701.385 130.072 700.489 134.072 699.465 138.488C698.505 142.84 697.513 147.352 696.489 152.024C700.713 151.576 704.361 151.224 707.433 150.968C710.505 150.648 712.457 150.488 713.289 150.488C715.145 150.488 716.649 150.68 717.801 151.064C718.953 151.448 719.529 152.408 719.529 153.944C719.529 155.352 718.633 156.536 716.841 157.496C715.113 158.392 713.225 159.192 711.177 159.896C709.129 160.6 706.665 161.304 703.785 162.008C700.905 162.712 697.545 163.352 693.705 163.928C693.065 166.552 692.425 169.048 691.785 171.416C691.145 173.784 690.537 176.504 689.961 179.576C689.513 181.624 688.841 183.288 687.945 184.568C687.113 185.848 685.705 186.488 683.721 186.488ZM687.177 133.592C684.041 137.432 680.777 141.272 677.385 145.112C674.057 148.888 670.857 152.312 667.785 155.384C670.153 155.064 672.553 154.776 674.985 154.52C677.481 154.264 679.977 154.008 682.473 153.752L687.177 133.592Z" fill="white"/>
</g>
<defs>
<filter id="filter0_d_66_1491" x="582.072" y="91.312" width="154.457" height="112.176" filterUnits="userSpaceOnUse" color-interpolation-filters="sRGB">
<feFlood flood-opacity="0" result="BackgroundImageFix"/>
<feColorMatrix in="SourceAlpha" type="matrix" values="0 0 0 0 0 0 0 0 0 0 0 0 0 0 0 0 0 0 127 0" result="hardAlpha"/>
<feOffset dx="2" dy="2"/>
<feGaussianBlur stdDeviation="7.5"/>
<feComposite in2="hardAlpha" operator="out"/>
<feColorMatrix type="matrix" values="0 0 0 0 0 0 0 0 0 0 0 0 0 0 0 0 0 0 0.75 0"/>
<feBlend mode="normal" in2="BackgroundImageFix" result="effect1_dropShadow_66_1491"/>
<feBlend mode="normal" in="SourceGraphic" in2="effect1_dropShadow_66_1491" result="shape"/>
</filter>
<linearGradient id="paint0_linear_66_1491" x1="130" y1="102.5" x2="644" y2="616.5" gradientUnits="userSpaceOnUse">
<stop stop-color="#900020" stop-opacity="0.9"/>
<stop offset="1" stop-color="#900020" stop-opacity="0.75"/>
</linearGradient>
<clipPath id="clip0_66_1491">
<rect width="551" height="551" fill="white" transform="translate(84 98)"/>
</clipPath>
</defs>
</svg>
