<svg width="768" height="746" viewBox="0 0 768 746" fill="none" xmlns="http://www.w3.org/2000/svg">
<circle cx="373" cy="373" r="363" fill="url(#paint0_linear_66_1593)" fill-opacity="0.5" stroke="#900020" stroke-width="20"/>
<circle cx="648.5" cy="144.5" r="117" fill="#900020" fill-opacity="0.95" stroke="#900020" stroke-width="5"/>
<g clip-path="url(#clip0_66_1593)">
<path d="M516.415 326.711C503.183 325.452 489.988 329.823 480.214 338.71C479.006 339.809 477.861 340.966 476.783 342.172C469.459 328.5 455.982 318.691 440.251 317.19C427.02 315.931 413.825 320.302 404.05 329.189C402.842 330.288 401.697 331.445 400.619 332.651C394.226 320.718 383.142 311.727 369.964 308.637C392.804 285.932 406.509 254.613 406.509 221.171C406.508 153.255 351.253 98 283.336 98C215.419 98 160.165 153.255 160.165 221.172C160.165 271.001 190.571 316.137 236.329 335.049V387.948L202.032 412.446C181.712 426.961 173.365 452.631 181.262 476.32L215.087 577.8C229.285 620.387 268.984 649.001 313.875 649.001H454.705C512.123 649.001 558.835 602.289 558.835 544.871V375.137C558.835 350.25 540.203 328.98 516.415 326.711ZM178.015 221.172C178.015 163.099 225.263 115.852 283.336 115.852C341.409 115.852 388.656 163.099 388.656 221.172C388.656 261.257 365.646 297.786 330.343 315.438V292.1C353.956 276.411 368.425 249.699 368.425 221.172C368.425 174.254 330.254 136.082 283.336 136.082C236.418 136.082 198.246 174.254 198.246 221.172C198.246 249.697 212.717 276.41 236.329 292.1V315.438C201.028 297.786 178.015 261.256 178.015 221.172ZM287.923 174.384C274.69 173.123 261.496 177.495 251.722 186.383C241.94 195.277 236.329 207.958 236.329 221.172V269.216C223.588 256.705 216.098 239.408 216.098 221.172C216.098 184.097 246.261 153.934 283.336 153.934C320.411 153.934 350.574 184.097 350.574 221.172C350.574 239.41 343.084 256.706 330.343 269.218V222.81C330.344 197.922 311.711 176.651 287.923 174.384ZM454.705 631.148H313.874C276.678 631.148 243.784 607.44 232.022 572.154L198.197 470.675C192.792 454.467 198.504 436.904 212.408 426.973L236.329 409.886V487.749C236.329 492.678 240.324 496.675 245.255 496.675C250.184 496.675 254.18 492.679 254.18 487.749V221.172C254.18 212.975 257.662 205.108 263.73 199.591C269.882 193.999 277.878 191.357 286.229 192.155C300.957 193.558 312.494 207.024 312.494 222.809V411.583C312.494 416.512 316.488 420.509 321.419 420.509C326.349 420.509 330.345 416.513 330.345 411.583V354.46C330.345 346.263 333.827 338.396 339.895 332.879C346.045 327.288 354.033 324.639 362.393 325.443C377.121 326.847 388.657 340.313 388.657 356.098V363.981V421.104C388.657 426.033 392.652 430.03 397.583 430.03C402.514 430.03 406.509 426.034 406.509 421.104V363.981C406.509 355.784 409.99 347.917 416.059 342.4C422.209 336.809 430.196 334.16 438.557 334.964C453.285 336.368 464.821 349.833 464.821 365.619V373.499V430.623C464.821 435.551 468.816 439.548 473.747 439.548C478.678 439.548 482.673 435.552 482.673 430.623V373.499C482.673 365.302 486.153 357.435 492.223 351.919C498.373 346.327 506.36 343.679 514.721 344.483C529.448 345.887 540.985 359.352 540.985 375.137V544.869H540.988C540.985 592.444 502.28 631.148 454.705 631.148Z" fill="#900020"/>
</g>
<g filter="url(#filter0_d_66_1593)">
<path d="M567.344 165.984C565.36 165.984 563.76 165.184 562.544 163.584C561.328 161.984 560.72 160.16 560.72 158.112C560.72 156.384 560.816 154.56 561.008 152.64C561.264 150.656 561.584 148.64 561.968 146.592C559.088 146.784 556.24 146.88 553.424 146.88C551.376 146.88 549.456 146.432 547.664 145.536C545.936 144.64 545.072 143.296 545.072 141.504C545.072 139.84 545.776 138.592 547.184 137.76C548.656 136.864 550.288 136.384 552.08 136.32C553.808 136.192 555.792 135.968 558.032 135.648C560.272 135.328 562.576 134.976 564.944 134.592C565.968 131.328 567.024 128.32 568.112 125.568C569.264 122.816 570.352 120.608 571.376 118.944C572.4 117.28 573.296 116.448 574.064 116.448C575.792 116.448 577.104 116.864 578 117.696C578.896 118.464 579.344 120.16 579.344 122.784C579.344 123.552 579.216 124.832 578.96 126.624C578.704 128.416 578.352 130.464 577.904 132.768C579.568 132.64 580.944 132.576 582.032 132.576C585.424 132.576 587.888 133.12 589.424 134.208C591.024 135.296 591.824 136.768 591.824 138.624C591.824 139.712 590.32 140.832 587.312 141.984C584.304 143.136 580.432 144.128 575.696 144.96C575.12 148.096 574.544 151.104 573.968 153.984C573.392 156.864 572.944 159.264 572.624 161.184C572.368 162.528 571.728 163.68 570.704 164.64C569.744 165.536 568.624 165.984 567.344 165.984ZM632.354 187.392C631.266 187.392 630.274 187.232 629.378 186.912C628.546 186.656 627.842 186.112 627.266 185.28C624.642 185.728 622.05 186.08 619.49 186.336C616.93 186.592 614.53 186.72 612.29 186.72C610.37 186.72 608.866 186.24 607.778 185.28C606.69 184.384 606.146 183.104 606.146 181.44C606.146 180.48 606.69 179.392 607.778 178.176C608.866 176.96 610.882 175.808 613.826 174.72C616.77 173.568 621.058 172.672 626.69 172.032C627.138 169.024 627.81 165.472 628.706 161.376C629.602 157.216 630.69 152.8 631.97 148.128C633.25 143.392 634.754 138.72 636.482 134.112C634.114 136.608 631.618 138.72 628.994 140.448C626.434 142.176 623.97 143.488 621.602 144.384C619.298 145.28 617.314 145.728 615.65 145.728C614.306 145.728 613.186 145.504 612.29 145.056C611.458 144.608 611.042 143.776 611.042 142.56C611.042 141.024 611.778 139.616 613.25 138.336C614.722 136.992 616.322 135.68 618.05 134.4C620.674 132.416 623.49 130.048 626.498 127.296C629.57 124.544 632.418 121.6 635.042 118.464C637.73 115.328 639.81 112.256 641.282 109.248C641.986 107.904 642.754 106.848 643.586 106.08C644.418 105.248 645.762 104.832 647.618 104.832C649.474 104.832 650.818 105.664 651.65 107.328C652.482 108.928 652.898 110.848 652.898 113.088C652.898 113.984 652.642 115.84 652.13 118.656C651.618 121.408 650.914 124.8 650.018 128.832C649.122 132.8 648.13 137.184 647.042 141.984C645.954 146.72 644.834 151.584 643.682 156.576C642.53 161.568 641.442 166.4 640.418 171.072C642.53 171.008 644.706 170.976 646.946 170.976C649.634 170.976 651.97 171.2 653.954 171.648C655.938 172.096 656.93 173.056 656.93 174.528C656.93 176.064 656.258 177.216 654.914 177.984C653.634 178.688 652.066 179.328 650.21 179.904C648.482 180.416 646.53 180.96 644.354 181.536C642.178 182.176 639.874 182.752 637.442 183.264C636.802 184.736 636.034 185.792 635.138 186.432C634.242 187.072 633.314 187.392 632.354 187.392ZM711.322 181.632C707.098 181.632 703.162 180.576 699.514 178.464C695.866 176.288 692.922 173.088 690.682 168.864C688.442 164.64 687.322 159.392 687.322 153.12C687.322 148.896 688.058 144.864 689.53 141.024C691.002 137.12 692.666 133.664 694.522 130.656C694.202 129.824 694.042 128.864 694.042 127.776C694.042 125.28 694.746 122.816 696.154 120.384C697.626 117.888 699.546 115.616 701.914 113.568C704.346 111.52 707.066 109.888 710.074 108.672C713.082 107.456 716.154 106.848 719.29 106.848C724.154 106.848 728.442 108.064 732.154 110.496C735.866 112.928 738.778 116.32 740.89 120.672C743.002 124.96 744.058 129.92 744.058 135.552C744.058 142.336 743.162 148.544 741.37 154.176C739.642 159.808 737.242 164.672 734.17 168.768C731.162 172.864 727.674 176.032 723.706 178.272C719.802 180.512 715.674 181.632 711.322 181.632ZM711.898 121.92C712.026 122.304 712.09 122.752 712.09 123.264C712.09 124.224 711.898 125.024 711.514 125.664C711.13 126.304 710.618 127.008 709.978 127.776C709.146 128.736 708.186 130.208 707.098 132.192C706.074 134.112 705.082 136.352 704.122 138.912C703.162 141.472 702.362 144.128 701.722 146.88C701.146 149.568 700.858 152.128 700.858 154.56C700.858 158.848 701.658 162.208 703.258 164.64C704.858 167.072 707.226 168.288 710.362 168.288C712.986 168.288 715.514 167.424 717.946 165.696C720.442 163.968 722.65 161.632 724.57 158.688C726.49 155.68 727.994 152.256 729.082 148.416C730.234 144.576 730.81 140.512 730.81 136.224C730.81 133.152 730.394 130.368 729.562 127.872C728.73 125.376 727.546 123.392 726.01 121.92C724.474 120.448 722.65 119.712 720.538 119.712C718.81 119.712 717.21 119.936 715.738 120.384C714.33 120.768 713.05 121.28 711.898 121.92Z" fill="white"/>
</g>
<defs>
<filter id="filter0_d_66_1593" x="532.072" y="91.832" width="228.986" height="112.56" filterUnits="userSpaceOnUse" color-interpolation-filters="sRGB">
<feFlood flood-opacity="0" result="BackgroundImageFix"/>
<feColorMatrix in="SourceAlpha" type="matrix" values="0 0 0 0 0 0 0 0 0 0 0 0 0 0 0 0 0 0 127 0" result="hardAlpha"/>
<feOffset dx="2" dy="2"/>
<feGaussianBlur stdDeviation="7.5"/>
<feComposite in2="hardAlpha" operator="out"/>
<feColorMatrix type="matrix" values="0 0 0 0 0 0 0 0 0 0 0 0 0 0 0 0 0 0 0.75 0"/>
<feBlend mode="normal" in2="BackgroundImageFix" result="effect1_dropShadow_66_1593"/>
<feBlend mode="normal" in="SourceGraphic" in2="effect1_dropShadow_66_1593" result="shape"/>
</filter>
<linearGradient id="paint0_linear_66_1593" x1="130" y1="102.5" x2="644" y2="616.5" gradientUnits="userSpaceOnUse">
<stop stop-color="#900020" stop-opacity="0.9"/>
<stop offset="1" stop-color="#900020" stop-opacity="0.75"/>
</linearGradient>
<clipPath id="clip0_66_1593">
<rect width="551" height="551" fill="white" transform="translate(84 98)"/>
</clipPath>
</defs>
</svg>
