<svg width="768" height="746" viewBox="0 0 768 746" fill="none" xmlns="http://www.w3.org/2000/svg">
<circle cx="373" cy="373" r="363" fill="url(#paint0_linear_66_1559)" fill-opacity="0.5" stroke="#900020" stroke-width="20"/>
<circle cx="648.5" cy="144.5" r="117" fill="#900020" fill-opacity="0.95" stroke="#900020" stroke-width="5"/>
<g clip-path="url(#clip0_66_1559)">
<path d="M516.415 326.711C503.183 325.452 489.988 329.823 480.214 338.71C479.006 339.809 477.861 340.966 476.783 342.172C469.459 328.5 455.982 318.691 440.251 317.19C427.02 315.931 413.825 320.302 404.05 329.189C402.842 330.288 401.697 331.445 400.619 332.651C394.226 320.718 383.142 311.727 369.964 308.637C392.804 285.932 406.509 254.613 406.509 221.171C406.508 153.255 351.253 98 283.336 98C215.419 98 160.165 153.255 160.165 221.172C160.165 271.001 190.571 316.137 236.329 335.049V387.948L202.032 412.446C181.712 426.961 173.365 452.631 181.262 476.32L215.087 577.8C229.285 620.387 268.984 649.001 313.875 649.001H454.705C512.123 649.001 558.835 602.289 558.835 544.871V375.137C558.835 350.25 540.203 328.98 516.415 326.711ZM178.015 221.172C178.015 163.099 225.263 115.852 283.336 115.852C341.409 115.852 388.656 163.099 388.656 221.172C388.656 261.257 365.646 297.786 330.343 315.438V292.1C353.956 276.411 368.425 249.699 368.425 221.172C368.425 174.254 330.254 136.082 283.336 136.082C236.418 136.082 198.246 174.254 198.246 221.172C198.246 249.697 212.717 276.41 236.329 292.1V315.438C201.028 297.786 178.015 261.256 178.015 221.172ZM287.923 174.384C274.69 173.123 261.496 177.495 251.722 186.383C241.94 195.277 236.329 207.958 236.329 221.172V269.216C223.588 256.705 216.098 239.408 216.098 221.172C216.098 184.097 246.261 153.934 283.336 153.934C320.411 153.934 350.574 184.097 350.574 221.172C350.574 239.41 343.084 256.706 330.343 269.218V222.81C330.344 197.922 311.711 176.651 287.923 174.384ZM454.705 631.148H313.874C276.678 631.148 243.784 607.44 232.022 572.154L198.197 470.675C192.792 454.467 198.504 436.904 212.408 426.973L236.329 409.886V487.749C236.329 492.678 240.324 496.675 245.255 496.675C250.184 496.675 254.18 492.679 254.18 487.749V221.172C254.18 212.975 257.662 205.108 263.73 199.591C269.882 193.999 277.878 191.357 286.229 192.155C300.957 193.558 312.494 207.024 312.494 222.809V411.583C312.494 416.512 316.488 420.509 321.419 420.509C326.349 420.509 330.345 416.513 330.345 411.583V354.46C330.345 346.263 333.827 338.396 339.895 332.879C346.045 327.288 354.033 324.639 362.393 325.443C377.121 326.847 388.657 340.313 388.657 356.098V363.981V421.104C388.657 426.033 392.652 430.03 397.583 430.03C402.514 430.03 406.509 426.034 406.509 421.104V363.981C406.509 355.784 409.99 347.917 416.059 342.4C422.209 336.809 430.196 334.16 438.557 334.964C453.285 336.368 464.821 349.833 464.821 365.619V373.499V430.623C464.821 435.551 468.816 439.548 473.747 439.548C478.678 439.548 482.673 435.552 482.673 430.623V373.499C482.673 365.302 486.153 357.435 492.223 351.919C498.373 346.327 506.36 343.679 514.721 344.483C529.448 345.887 540.985 359.352 540.985 375.137V544.869H540.988C540.985 592.444 502.28 631.148 454.705 631.148Z" fill="#900020"/>
</g>
<g filter="url(#filter0_d_66_1559)">
<path d="M617.344 164.984C615.36 164.984 613.76 164.184 612.544 162.584C611.328 160.984 610.72 159.16 610.72 157.112C610.72 155.384 610.816 153.56 611.008 151.64C611.264 149.656 611.584 147.64 611.968 145.592C609.088 145.784 606.24 145.88 603.424 145.88C601.376 145.88 599.456 145.432 597.664 144.536C595.936 143.64 595.072 142.296 595.072 140.504C595.072 138.84 595.776 137.592 597.184 136.76C598.656 135.864 600.288 135.384 602.08 135.32C603.808 135.192 605.792 134.968 608.032 134.648C610.272 134.328 612.576 133.976 614.944 133.592C615.968 130.328 617.024 127.32 618.112 124.568C619.264 121.816 620.352 119.608 621.376 117.944C622.4 116.28 623.296 115.448 624.064 115.448C625.792 115.448 627.104 115.864 628 116.696C628.896 117.464 629.344 119.16 629.344 121.784C629.344 122.552 629.216 123.832 628.96 125.624C628.704 127.416 628.352 129.464 627.904 131.768C629.568 131.64 630.944 131.576 632.032 131.576C635.424 131.576 637.888 132.12 639.424 133.208C641.024 134.296 641.824 135.768 641.824 137.624C641.824 138.712 640.32 139.832 637.312 140.984C634.304 142.136 630.432 143.128 625.696 143.96C625.12 147.096 624.544 150.104 623.968 152.984C623.392 155.864 622.944 158.264 622.624 160.184C622.368 161.528 621.728 162.68 620.704 163.64C619.744 164.536 618.624 164.984 617.344 164.984ZM669.27 182.84C664.342 182.84 660.438 182.2 657.558 180.92C654.678 179.704 652.598 177.976 651.318 175.736C650.102 173.496 649.494 170.904 649.494 167.96C649.494 165.592 650.39 163.064 652.182 160.376C654.038 157.624 656.534 154.744 659.67 151.736C662.806 148.664 666.294 145.528 670.134 142.328C665.462 140.472 662.262 138.584 660.534 136.664C658.87 134.68 658.038 132.408 658.038 129.848C658.038 128.248 658.838 126.328 660.438 124.088C662.102 121.784 664.246 119.448 666.87 117.08C669.558 114.648 672.406 112.408 675.414 110.36C678.486 108.248 681.462 106.552 684.342 105.272C687.286 103.928 689.781 103.256 691.83 103.256C693.942 103.256 695.702 103.736 697.11 104.696C698.518 105.592 699.222 107.064 699.222 109.112C699.222 109.944 698.998 110.904 698.55 111.992C698.102 113.08 697.27 114.008 696.054 114.776C694.902 115.544 693.142 115.928 690.774 115.928C690.07 115.928 689.27 115.832 688.374 115.64C685.622 117.048 682.998 118.584 680.502 120.248C678.006 121.912 675.862 123.64 674.07 125.432C672.278 127.224 671.062 128.984 670.422 130.712C671.83 131.288 673.302 131.864 674.838 132.44C676.438 133.016 678.134 133.592 679.926 134.168C681.206 133.144 682.486 132.12 683.766 131.096C685.11 130.008 686.422 128.92 687.702 127.832C692.694 123.672 697.27 119.992 701.43 116.792C705.654 113.592 709.238 111.064 712.182 109.208C715.19 107.352 717.334 106.424 718.614 106.424C719.702 106.424 720.598 106.84 721.302 107.672C722.006 108.504 722.358 109.464 722.358 110.552C722.358 111.384 721.974 112.344 721.206 113.432C720.502 114.52 719.158 116.024 717.174 117.944C715.19 119.8 712.342 122.264 708.63 125.336C704.982 128.344 700.246 132.216 694.422 136.952C693.718 137.528 692.982 138.104 692.214 138.68C696.374 140.6 699.574 142.84 701.814 145.4C704.054 147.896 705.174 151.096 705.174 155C705.174 159.8 703.798 164.344 701.046 168.632C698.358 172.856 694.358 176.28 689.046 178.904C683.734 181.528 677.142 182.84 669.27 182.84ZM682.614 146.264C679.094 149.016 675.83 151.608 672.822 154.04C669.878 156.472 667.51 158.712 665.718 160.76C663.926 162.744 663.03 164.44 663.03 165.848C663.03 167.64 663.734 169.016 665.142 169.976C666.55 170.872 668.918 171.32 672.246 171.32C674.55 171.32 676.886 170.872 679.254 169.976C681.622 169.08 683.766 167.832 685.686 166.232C687.67 164.632 689.27 162.84 690.486 160.856C691.702 158.808 692.31 156.632 692.31 154.328C692.31 152.408 691.382 150.808 689.526 149.528C687.734 148.248 685.43 147.16 682.614 146.264Z" fill="white"/>
</g>
<defs>
<filter id="filter0_d_66_1559" x="582.072" y="90.2559" width="157.286" height="109.584" filterUnits="userSpaceOnUse" color-interpolation-filters="sRGB">
<feFlood flood-opacity="0" result="BackgroundImageFix"/>
<feColorMatrix in="SourceAlpha" type="matrix" values="0 0 0 0 0 0 0 0 0 0 0 0 0 0 0 0 0 0 127 0" result="hardAlpha"/>
<feOffset dx="2" dy="2"/>
<feGaussianBlur stdDeviation="7.5"/>
<feComposite in2="hardAlpha" operator="out"/>
<feColorMatrix type="matrix" values="0 0 0 0 0 0 0 0 0 0 0 0 0 0 0 0 0 0 0.75 0"/>
<feBlend mode="normal" in2="BackgroundImageFix" result="effect1_dropShadow_66_1559"/>
<feBlend mode="normal" in="SourceGraphic" in2="effect1_dropShadow_66_1559" result="shape"/>
</filter>
<linearGradient id="paint0_linear_66_1559" x1="130" y1="102.5" x2="644" y2="616.5" gradientUnits="userSpaceOnUse">
<stop stop-color="#900020" stop-opacity="0.9"/>
<stop offset="1" stop-color="#900020" stop-opacity="0.75"/>
</linearGradient>
<clipPath id="clip0_66_1559">
<rect width="551" height="551" fill="white" transform="translate(84 98)"/>
</clipPath>
</defs>
</svg>
