<svg width="768" height="746" viewBox="0 0 768 746" fill="none" xmlns="http://www.w3.org/2000/svg">
<circle cx="373" cy="373" r="363" fill="url(#paint0_linear_66_1568)" fill-opacity="0.5" stroke="white" stroke-width="20"/>
<circle cx="648.5" cy="144.5" r="117" fill="white" fill-opacity="0.95" stroke="white" stroke-width="5"/>
<g clip-path="url(#clip0_66_1568)">
<path d="M516.415 326.711C503.183 325.452 489.988 329.823 480.214 338.71C479.006 339.809 477.861 340.966 476.783 342.172C469.459 328.5 455.982 318.691 440.251 317.19C427.02 315.931 413.825 320.302 404.05 329.189C402.842 330.288 401.697 331.445 400.619 332.651C394.226 320.718 383.142 311.727 369.964 308.637C392.804 285.932 406.509 254.613 406.509 221.171C406.508 153.255 351.253 98 283.336 98C215.419 98 160.165 153.255 160.165 221.172C160.165 271.001 190.571 316.137 236.329 335.049V387.948L202.032 412.446C181.712 426.961 173.365 452.631 181.262 476.32L215.087 577.8C229.285 620.387 268.984 649.001 313.875 649.001H454.705C512.123 649.001 558.835 602.289 558.835 544.871V375.137C558.835 350.25 540.203 328.98 516.415 326.711ZM178.015 221.172C178.015 163.099 225.263 115.852 283.336 115.852C341.409 115.852 388.656 163.099 388.656 221.172C388.656 261.257 365.646 297.786 330.343 315.438V292.1C353.956 276.411 368.425 249.699 368.425 221.172C368.425 174.254 330.254 136.082 283.336 136.082C236.418 136.082 198.246 174.254 198.246 221.172C198.246 249.697 212.717 276.41 236.329 292.1V315.438C201.028 297.786 178.015 261.256 178.015 221.172ZM287.923 174.384C274.69 173.123 261.496 177.495 251.722 186.383C241.94 195.277 236.329 207.958 236.329 221.172V269.216C223.588 256.705 216.098 239.408 216.098 221.172C216.098 184.097 246.261 153.934 283.336 153.934C320.411 153.934 350.574 184.097 350.574 221.172C350.574 239.41 343.084 256.706 330.343 269.218V222.81C330.344 197.922 311.711 176.651 287.923 174.384ZM454.705 631.148H313.874C276.678 631.148 243.784 607.44 232.022 572.154L198.197 470.675C192.792 454.467 198.504 436.904 212.408 426.973L236.329 409.886V487.749C236.329 492.678 240.324 496.675 245.255 496.675C250.184 496.675 254.18 492.679 254.18 487.749V221.172C254.18 212.975 257.662 205.108 263.73 199.591C269.882 193.999 277.878 191.357 286.229 192.155C300.957 193.558 312.494 207.024 312.494 222.809V411.583C312.494 416.512 316.488 420.509 321.419 420.509C326.349 420.509 330.345 416.513 330.345 411.583V354.46C330.345 346.263 333.827 338.396 339.895 332.879C346.045 327.288 354.033 324.639 362.393 325.443C377.121 326.847 388.657 340.313 388.657 356.098V363.981V421.104C388.657 426.033 392.652 430.03 397.583 430.03C402.514 430.03 406.509 426.034 406.509 421.104V363.981C406.509 355.784 409.99 347.917 416.059 342.4C422.209 336.809 430.196 334.16 438.557 334.964C453.285 336.368 464.821 349.833 464.821 365.619V373.499V430.623C464.821 435.551 468.816 439.548 473.747 439.548C478.678 439.548 482.673 435.552 482.673 430.623V373.499C482.673 365.302 486.153 357.435 492.223 351.919C498.373 346.327 506.36 343.679 514.721 344.483C529.448 345.887 540.985 359.352 540.985 375.137V544.869H540.988C540.985 592.444 502.28 631.148 454.705 631.148Z" fill="white"/>
</g>
<g filter="url(#filter0_d_66_1568)">
<path d="M617.344 164.984C615.36 164.984 613.76 164.184 612.544 162.584C611.328 160.984 610.72 159.16 610.72 157.112C610.72 155.384 610.816 153.56 611.008 151.64C611.264 149.656 611.584 147.64 611.968 145.592C609.088 145.784 606.24 145.88 603.424 145.88C601.376 145.88 599.456 145.432 597.664 144.536C595.936 143.64 595.072 142.296 595.072 140.504C595.072 138.84 595.776 137.592 597.184 136.76C598.656 135.864 600.288 135.384 602.08 135.32C603.808 135.192 605.792 134.968 608.032 134.648C610.272 134.328 612.576 133.976 614.944 133.592C615.968 130.328 617.024 127.32 618.112 124.568C619.264 121.816 620.352 119.608 621.376 117.944C622.4 116.28 623.296 115.448 624.064 115.448C625.792 115.448 627.104 115.864 628 116.696C628.896 117.464 629.344 119.16 629.344 121.784C629.344 122.552 629.216 123.832 628.96 125.624C628.704 127.416 628.352 129.464 627.904 131.768C629.568 131.64 630.944 131.576 632.032 131.576C635.424 131.576 637.888 132.12 639.424 133.208C641.024 134.296 641.824 135.768 641.824 137.624C641.824 138.712 640.32 139.832 637.312 140.984C634.304 142.136 630.432 143.128 625.696 143.96C625.12 147.096 624.544 150.104 623.968 152.984C623.392 155.864 622.944 158.264 622.624 160.184C622.368 161.528 621.728 162.68 620.704 163.64C619.744 164.536 618.624 164.984 617.344 164.984ZM661.545 183.992C658.985 183.992 656.361 183.672 653.673 183.032C651.049 182.456 648.649 181.656 646.473 180.632C644.297 179.672 642.537 178.648 641.193 177.56C639.849 176.408 639.177 175.32 639.177 174.296C639.177 173.144 639.561 172.12 640.329 171.224C641.097 170.328 642.537 169.88 644.649 169.88C645.417 169.88 646.537 170.008 648.009 170.264C649.545 170.456 651.145 170.68 652.809 170.936C654.537 171.192 655.977 171.32 657.129 171.32C663.529 171.32 669.161 170.328 674.025 168.344C678.953 166.296 683.049 163.608 686.313 160.28C689.641 156.888 692.169 153.24 693.897 149.336C691.273 151.384 688.329 153.112 685.065 154.52C681.865 155.928 678.697 156.632 675.561 156.632C670.825 156.632 667.081 155.288 664.329 152.6C661.641 149.848 660.297 145.944 660.297 140.888C660.297 137.624 660.841 134.36 661.929 131.096C663.017 127.768 664.489 124.6 666.345 121.592C668.265 118.584 670.409 115.928 672.777 113.624C675.209 111.256 677.737 109.4 680.361 108.056C683.049 106.712 685.673 106.04 688.233 106.04C691.753 106.04 695.081 107.288 698.217 109.784C701.353 112.216 703.881 115.992 705.801 121.112C707.785 126.168 708.777 132.632 708.777 140.504C708.777 144.216 708.073 148.12 706.665 152.216C705.257 156.248 703.209 160.152 700.521 163.928C697.833 167.704 694.569 171.096 690.729 174.104C686.889 177.112 682.505 179.512 677.577 181.304C672.713 183.096 667.369 183.992 661.545 183.992ZM696.681 135.896C696.617 130.84 695.945 126.744 694.665 123.608C693.449 120.472 691.241 118.904 688.041 118.904C686.377 118.904 684.617 119.672 682.761 121.208C680.969 122.744 679.273 124.76 677.673 127.256C676.137 129.688 674.857 132.28 673.833 135.032C672.873 137.784 672.393 140.376 672.393 142.808C672.393 143.832 672.777 144.344 673.545 144.344C676.617 144.344 679.593 143.832 682.473 142.808C685.417 141.72 688.105 140.504 690.537 139.16C693.033 137.816 695.081 136.728 696.681 135.896Z" fill="white"/>
</g>
<defs>
<filter id="filter0_d_66_1568" x="582.072" y="93.04" width="143.705" height="107.952" filterUnits="userSpaceOnUse" color-interpolation-filters="sRGB">
<feFlood flood-opacity="0" result="BackgroundImageFix"/>
<feColorMatrix in="SourceAlpha" type="matrix" values="0 0 0 0 0 0 0 0 0 0 0 0 0 0 0 0 0 0 127 0" result="hardAlpha"/>
<feOffset dx="2" dy="2"/>
<feGaussianBlur stdDeviation="7.5"/>
<feComposite in2="hardAlpha" operator="out"/>
<feColorMatrix type="matrix" values="0 0 0 0 0 0 0 0 0 0 0 0 0 0 0 0 0 0 0.75 0"/>
<feBlend mode="normal" in2="BackgroundImageFix" result="effect1_dropShadow_66_1568"/>
<feBlend mode="normal" in="SourceGraphic" in2="effect1_dropShadow_66_1568" result="shape"/>
</filter>
<linearGradient id="paint0_linear_66_1568" x1="130" y1="102.5" x2="644" y2="616.5" gradientUnits="userSpaceOnUse">
<stop stop-color="white" stop-opacity="0.9"/>
<stop offset="1" stop-color="white" stop-opacity="0.75"/>
</linearGradient>
<clipPath id="clip0_66_1568">
<rect width="551" height="551" fill="white" transform="translate(84 98)"/>
</clipPath>
</defs>
</svg>
