<svg width="768" height="746" viewBox="0 0 768 746" fill="none" xmlns="http://www.w3.org/2000/svg">
<circle cx="373" cy="373" r="363" fill="url(#paint0_linear_66_1517)" fill-opacity="0.5" stroke="white" stroke-width="20"/>
<circle cx="648.5" cy="144.5" r="117" fill="white" fill-opacity="0.95" stroke="white" stroke-width="5"/>
<g clip-path="url(#clip0_66_1517)">
<path d="M516.415 326.711C503.183 325.452 489.988 329.823 480.214 338.71C479.006 339.809 477.861 340.966 476.783 342.172C469.459 328.5 455.982 318.691 440.251 317.19C427.02 315.931 413.825 320.302 404.05 329.189C402.842 330.288 401.697 331.445 400.619 332.651C394.226 320.718 383.142 311.727 369.964 308.637C392.804 285.932 406.509 254.613 406.509 221.171C406.508 153.255 351.253 98 283.336 98C215.419 98 160.165 153.255 160.165 221.172C160.165 271.001 190.571 316.137 236.329 335.049V387.948L202.032 412.446C181.712 426.961 173.365 452.631 181.262 476.32L215.087 577.8C229.285 620.387 268.984 649.001 313.875 649.001H454.705C512.123 649.001 558.835 602.289 558.835 544.871V375.137C558.835 350.25 540.203 328.98 516.415 326.711ZM178.015 221.172C178.015 163.099 225.263 115.852 283.336 115.852C341.409 115.852 388.656 163.099 388.656 221.172C388.656 261.257 365.646 297.786 330.343 315.438V292.1C353.956 276.411 368.425 249.699 368.425 221.172C368.425 174.254 330.254 136.082 283.336 136.082C236.418 136.082 198.246 174.254 198.246 221.172C198.246 249.697 212.717 276.41 236.329 292.1V315.438C201.028 297.786 178.015 261.256 178.015 221.172ZM287.923 174.384C274.69 173.123 261.496 177.495 251.722 186.383C241.94 195.277 236.329 207.958 236.329 221.172V269.216C223.588 256.705 216.098 239.408 216.098 221.172C216.098 184.097 246.261 153.934 283.336 153.934C320.411 153.934 350.574 184.097 350.574 221.172C350.574 239.41 343.084 256.706 330.343 269.218V222.81C330.344 197.922 311.711 176.651 287.923 174.384ZM454.705 631.148H313.874C276.678 631.148 243.784 607.44 232.022 572.154L198.197 470.675C192.792 454.467 198.504 436.904 212.408 426.973L236.329 409.886V487.749C236.329 492.678 240.324 496.675 245.255 496.675C250.184 496.675 254.18 492.679 254.18 487.749V221.172C254.18 212.975 257.662 205.108 263.73 199.591C269.882 193.999 277.878 191.357 286.229 192.155C300.957 193.558 312.494 207.024 312.494 222.809V411.583C312.494 416.512 316.488 420.509 321.419 420.509C326.349 420.509 330.345 416.513 330.345 411.583V354.46C330.345 346.263 333.827 338.396 339.895 332.879C346.045 327.288 354.033 324.639 362.393 325.443C377.121 326.847 388.657 340.313 388.657 356.098V363.981V421.104C388.657 426.033 392.652 430.03 397.583 430.03C402.514 430.03 406.509 426.034 406.509 421.104V363.981C406.509 355.784 409.99 347.917 416.059 342.4C422.209 336.809 430.196 334.16 438.557 334.964C453.285 336.368 464.821 349.833 464.821 365.619V373.499V430.623C464.821 435.551 468.816 439.548 473.747 439.548C478.678 439.548 482.673 435.552 482.673 430.623V373.499C482.673 365.302 486.153 357.435 492.223 351.919C498.373 346.327 506.36 343.679 514.721 344.483C529.448 345.887 540.985 359.352 540.985 375.137V544.869H540.988C540.985 592.444 502.28 631.148 454.705 631.148Z" fill="white"/>
</g>
<g filter="url(#filter0_d_66_1517)">
<path d="M617.344 164.984C615.36 164.984 613.76 164.184 612.544 162.584C611.328 160.984 610.72 159.16 610.72 157.112C610.72 155.384 610.816 153.56 611.008 151.64C611.264 149.656 611.584 147.64 611.968 145.592C609.088 145.784 606.24 145.88 603.424 145.88C601.376 145.88 599.456 145.432 597.664 144.536C595.936 143.64 595.072 142.296 595.072 140.504C595.072 138.84 595.776 137.592 597.184 136.76C598.656 135.864 600.288 135.384 602.08 135.32C603.808 135.192 605.792 134.968 608.032 134.648C610.272 134.328 612.576 133.976 614.944 133.592C615.968 130.328 617.024 127.32 618.112 124.568C619.264 121.816 620.352 119.608 621.376 117.944C622.4 116.28 623.296 115.448 624.064 115.448C625.792 115.448 627.104 115.864 628 116.696C628.896 117.464 629.344 119.16 629.344 121.784C629.344 122.552 629.216 123.832 628.96 125.624C628.704 127.416 628.352 129.464 627.904 131.768C629.568 131.64 630.944 131.576 632.032 131.576C635.424 131.576 637.888 132.12 639.424 133.208C641.024 134.296 641.824 135.768 641.824 137.624C641.824 138.712 640.32 139.832 637.312 140.984C634.304 142.136 630.432 143.128 625.696 143.96C625.12 147.096 624.544 150.104 623.968 152.984C623.392 155.864 622.944 158.264 622.624 160.184C622.368 161.528 621.728 162.68 620.704 163.64C619.744 164.536 618.624 164.984 617.344 164.984ZM673.667 185.432C670.723 185.432 667.939 184.632 665.315 183.032C662.755 181.496 660.547 179.32 658.691 176.504C656.835 173.688 655.523 170.36 654.755 166.52C654.115 166.84 653.603 167 653.219 167C653.091 167 652.899 167 652.643 167C652.067 167.064 651.523 167.032 651.011 166.904C650.499 166.776 650.051 166.36 649.667 165.656C649.347 164.888 649.187 163.576 649.187 161.72C649.187 159.864 649.699 157.944 650.723 155.96C651.811 153.976 653.283 152.056 655.139 150.2C656.355 145.72 658.339 141.4 661.091 137.24C663.843 133.016 667.043 129.08 670.691 125.432C674.339 121.72 678.147 118.36 682.115 115.352C686.147 112.344 690.051 109.784 693.827 107.672C697.603 105.496 700.963 103.832 703.907 102.68C706.851 101.464 709.091 100.856 710.627 100.856C714.147 100.856 715.907 102.552 715.907 105.944C715.907 106.584 714.915 107.512 712.931 108.728C710.947 109.88 708.323 111.384 705.059 113.24C701.859 115.096 698.371 117.304 694.595 119.864C690.883 122.424 687.235 125.368 683.651 128.696C680.067 132.024 676.931 135.736 674.243 139.832C676.419 139.256 678.659 138.808 680.963 138.488C683.331 138.168 685.763 138.008 688.259 138.008C692.611 138.008 696.067 139.352 698.627 142.04C701.187 144.664 702.467 148.536 702.467 153.656C702.467 157.688 701.603 161.592 699.875 165.368C698.147 169.144 695.843 172.568 692.963 175.64C690.147 178.648 687.043 181.016 683.651 182.744C680.259 184.536 676.931 185.432 673.667 185.432ZM667.907 156.536C667.651 158.328 667.523 160.12 667.523 161.912C667.523 164.472 668.131 166.68 669.347 168.536C670.563 170.392 672.131 171.32 674.051 171.32C676.163 171.32 678.211 170.776 680.195 169.688C682.243 168.6 684.099 167.16 685.763 165.368C687.427 163.512 688.739 161.464 689.699 159.224C690.659 156.984 691.139 154.712 691.139 152.408C691.139 151.576 691.011 150.872 690.755 150.296C690.499 149.72 689.955 149.432 689.123 149.432C684.899 149.432 680.995 150.136 677.411 151.544C673.891 152.952 670.723 154.616 667.907 156.536Z" fill="white"/>
</g>
<defs>
<filter id="filter0_d_66_1517" x="582.072" y="87.856" width="150.835" height="114.576" filterUnits="userSpaceOnUse" color-interpolation-filters="sRGB">
<feFlood flood-opacity="0" result="BackgroundImageFix"/>
<feColorMatrix in="SourceAlpha" type="matrix" values="0 0 0 0 0 0 0 0 0 0 0 0 0 0 0 0 0 0 127 0" result="hardAlpha"/>
<feOffset dx="2" dy="2"/>
<feGaussianBlur stdDeviation="7.5"/>
<feComposite in2="hardAlpha" operator="out"/>
<feColorMatrix type="matrix" values="0 0 0 0 0 0 0 0 0 0 0 0 0 0 0 0 0 0 0.75 0"/>
<feBlend mode="normal" in2="BackgroundImageFix" result="effect1_dropShadow_66_1517"/>
<feBlend mode="normal" in="SourceGraphic" in2="effect1_dropShadow_66_1517" result="shape"/>
</filter>
<linearGradient id="paint0_linear_66_1517" x1="130" y1="102.5" x2="644" y2="616.5" gradientUnits="userSpaceOnUse">
<stop stop-color="white" stop-opacity="0.9"/>
<stop offset="1" stop-color="white" stop-opacity="0.75"/>
</linearGradient>
<clipPath id="clip0_66_1517">
<rect width="551" height="551" fill="white" transform="translate(84 98)"/>
</clipPath>
</defs>
</svg>
