<svg width="768" height="746" viewBox="0 0 768 746" fill="none" xmlns="http://www.w3.org/2000/svg">
<circle cx="373" cy="373" r="363" fill="url(#paint0_linear_66_1670)" fill-opacity="0.5" stroke="white" stroke-width="20"/>
<circle cx="648.5" cy="144.5" r="117" fill="white" fill-opacity="0.95" stroke="white" stroke-width="5"/>
<g clip-path="url(#clip0_66_1670)">
<path d="M516.415 326.711C503.183 325.452 489.988 329.823 480.214 338.71C479.006 339.809 477.861 340.966 476.783 342.172C469.459 328.5 455.982 318.691 440.251 317.19C427.02 315.931 413.825 320.302 404.05 329.189C402.842 330.288 401.697 331.445 400.619 332.651C394.226 320.718 383.142 311.727 369.964 308.637C392.804 285.932 406.509 254.613 406.509 221.171C406.508 153.255 351.253 98 283.336 98C215.419 98 160.165 153.255 160.165 221.172C160.165 271.001 190.571 316.137 236.329 335.049V387.948L202.032 412.446C181.712 426.961 173.365 452.631 181.262 476.32L215.087 577.8C229.285 620.387 268.984 649.001 313.875 649.001H454.705C512.123 649.001 558.835 602.289 558.835 544.871V375.137C558.835 350.25 540.203 328.98 516.415 326.711ZM178.015 221.172C178.015 163.099 225.263 115.852 283.336 115.852C341.409 115.852 388.656 163.099 388.656 221.172C388.656 261.257 365.646 297.786 330.343 315.438V292.1C353.956 276.411 368.425 249.699 368.425 221.172C368.425 174.254 330.254 136.082 283.336 136.082C236.418 136.082 198.246 174.254 198.246 221.172C198.246 249.697 212.717 276.41 236.329 292.1V315.438C201.028 297.786 178.015 261.256 178.015 221.172ZM287.923 174.384C274.69 173.123 261.496 177.495 251.722 186.383C241.94 195.277 236.329 207.958 236.329 221.172V269.216C223.588 256.705 216.098 239.408 216.098 221.172C216.098 184.097 246.261 153.934 283.336 153.934C320.411 153.934 350.574 184.097 350.574 221.172C350.574 239.41 343.084 256.706 330.343 269.218V222.81C330.344 197.922 311.711 176.651 287.923 174.384ZM454.705 631.148H313.874C276.678 631.148 243.784 607.44 232.022 572.154L198.197 470.675C192.792 454.467 198.504 436.904 212.408 426.973L236.329 409.886V487.749C236.329 492.678 240.324 496.675 245.255 496.675C250.184 496.675 254.18 492.679 254.18 487.749V221.172C254.18 212.975 257.662 205.108 263.73 199.591C269.882 193.999 277.878 191.357 286.229 192.155C300.957 193.558 312.494 207.024 312.494 222.809V411.583C312.494 416.512 316.488 420.509 321.419 420.509C326.349 420.509 330.345 416.513 330.345 411.583V354.46C330.345 346.263 333.827 338.396 339.895 332.879C346.045 327.288 354.033 324.639 362.393 325.443C377.121 326.847 388.657 340.313 388.657 356.098V363.981V421.104C388.657 426.033 392.652 430.03 397.583 430.03C402.514 430.03 406.509 426.034 406.509 421.104V363.981C406.509 355.784 409.99 347.917 416.059 342.4C422.209 336.809 430.196 334.16 438.557 334.964C453.285 336.368 464.821 349.833 464.821 365.619V373.499V430.623C464.821 435.551 468.816 439.548 473.747 439.548C478.678 439.548 482.673 435.552 482.673 430.623V373.499C482.673 365.302 486.153 357.435 492.223 351.919C498.373 346.327 506.36 343.679 514.721 344.483C529.448 345.887 540.985 359.352 540.985 375.137V544.869H540.988C540.985 592.444 502.28 631.148 454.705 631.148Z" fill="white"/>
</g>
<g filter="url(#filter0_d_66_1670)">
<path d="M627.024 181.92C624.144 181.92 621.968 180.96 620.496 179.04C619.024 177.12 617.552 174.784 616.08 172.032C614.672 169.28 613.328 166.56 612.048 163.872C610.768 161.12 609.488 158.336 608.208 155.52C604.816 159.552 601.616 163.392 598.608 167.04C595.664 170.624 593.072 173.792 590.832 176.544C588.656 179.232 587.024 181.312 585.936 182.784C584.976 184 584.016 185.024 583.056 185.856C582.16 186.752 580.848 187.2 579.12 187.2C577.456 187.2 576.144 186.688 575.184 185.664C574.288 184.704 573.84 183.36 573.84 181.632C573.84 180.288 574.64 178.336 576.24 175.776C577.84 173.152 579.984 170.08 582.672 166.56C585.424 162.976 588.496 159.168 591.888 155.136C595.344 151.04 598.928 146.848 602.64 142.56C598.928 133.408 596.016 125.696 593.904 119.424C591.856 113.088 590.832 108.576 590.832 105.888C590.832 102.368 592.56 100.608 596.016 100.608C597.872 100.608 599.312 101.12 600.336 102.144C601.424 103.104 602.32 104.448 603.024 106.176C603.664 107.648 604.656 110.336 606 114.24C607.344 118.08 609.456 123.84 612.336 131.52C616.816 126.4 620.496 122.048 623.376 118.464C626.32 114.88 628.752 112 630.672 109.824C632.592 107.648 634.256 106.048 635.664 105.024C637.072 104 638.448 103.488 639.792 103.488C641.584 103.488 642.96 103.968 643.92 104.928C644.944 105.824 645.456 107.136 645.456 108.864C645.456 110.464 645.168 111.84 644.592 112.992C644.016 114.144 643.248 115.36 642.288 116.64C640.816 118.816 638.736 121.376 636.048 124.32C633.424 127.2 630.48 130.368 627.216 133.824C624.016 137.28 620.784 140.896 617.52 144.672C619.952 150.56 622.288 155.648 624.528 159.936C626.768 164.224 628.592 167.744 630 170.496C631.408 173.248 632.112 175.296 632.112 176.64C632.112 178.24 631.664 179.52 630.768 180.48C629.872 181.44 628.624 181.92 627.024 181.92ZM667.46 184.128C664.26 184.128 661.988 183.36 660.644 181.824C659.364 180.352 658.724 178.816 658.724 177.216C658.724 175.808 659.044 174.496 659.684 173.28C660.388 172 661.604 170.976 663.332 170.208C665.06 169.44 667.524 169.12 670.724 169.248C673.924 167.584 677.156 165.536 680.42 163.104C683.748 160.672 686.916 157.984 689.924 155.04C692.996 152.096 695.716 149.088 698.084 146.016C700.516 142.88 702.404 139.808 703.748 136.8C705.156 133.728 705.86 130.848 705.86 128.16C705.86 125.28 704.964 123.104 703.172 121.632C701.444 120.16 699.012 119.424 695.876 119.424C693.188 119.424 690.724 119.744 688.484 120.384C686.244 120.96 684.26 121.664 682.532 122.496C680.804 123.328 679.332 124.064 678.116 124.704C676.964 125.28 676.036 125.568 675.332 125.568C674.116 125.568 673.028 125.056 672.068 124.032C671.108 122.944 670.82 121.536 671.204 119.808C671.46 118.656 672.228 117.28 673.508 115.68C674.788 114.08 676.548 112.48 678.788 110.88C681.028 109.28 683.684 107.968 686.756 106.944C689.892 105.856 693.412 105.312 697.316 105.312C703.588 105.312 708.676 107.232 712.58 111.072C716.548 114.912 718.532 120.768 718.532 128.64C718.532 133.824 717.156 138.912 714.404 143.904C711.716 148.896 708.132 153.632 703.652 158.112C699.172 162.592 694.276 166.688 688.964 170.4C693.764 170.208 697.508 169.92 700.196 169.536C702.884 169.088 705.028 168.704 706.628 168.384C708.292 168.064 709.892 167.904 711.428 167.904C713.604 167.904 715.3 168.352 716.516 169.248C717.732 170.144 718.34 171.424 718.34 173.088C718.34 174.304 718.02 175.488 717.38 176.64C716.804 177.792 715.652 178.848 713.924 179.808C712.196 180.704 709.7 181.408 706.436 181.92C703.172 182.496 698.884 182.784 693.572 182.784C690.436 182.784 687.204 182.752 683.876 182.688C680.612 182.624 677.444 182.528 674.372 182.4C672.58 183.04 671.172 183.488 670.148 183.744C669.188 184 668.292 184.128 667.46 184.128Z" fill="white"/>
</g>
<defs>
<filter id="filter0_d_66_1670" x="560.84" y="87.6084" width="174.692" height="116.592" filterUnits="userSpaceOnUse" color-interpolation-filters="sRGB">
<feFlood flood-opacity="0" result="BackgroundImageFix"/>
<feColorMatrix in="SourceAlpha" type="matrix" values="0 0 0 0 0 0 0 0 0 0 0 0 0 0 0 0 0 0 127 0" result="hardAlpha"/>
<feOffset dx="2" dy="2"/>
<feGaussianBlur stdDeviation="7.5"/>
<feComposite in2="hardAlpha" operator="out"/>
<feColorMatrix type="matrix" values="0 0 0 0 0 0 0 0 0 0 0 0 0 0 0 0 0 0 0.75 0"/>
<feBlend mode="normal" in2="BackgroundImageFix" result="effect1_dropShadow_66_1670"/>
<feBlend mode="normal" in="SourceGraphic" in2="effect1_dropShadow_66_1670" result="shape"/>
</filter>
<linearGradient id="paint0_linear_66_1670" x1="130" y1="102.5" x2="644" y2="616.5" gradientUnits="userSpaceOnUse">
<stop stop-color="white" stop-opacity="0.9"/>
<stop offset="1" stop-color="white" stop-opacity="0.75"/>
</linearGradient>
<clipPath id="clip0_66_1670">
<rect width="551" height="551" fill="white" transform="translate(84 98)"/>
</clipPath>
</defs>
</svg>
