<svg width="768" height="746" viewBox="0 0 768 746" fill="none" xmlns="http://www.w3.org/2000/svg">
<circle cx="373" cy="373" r="363" fill="url(#paint0_linear_60_517)" fill-opacity="0.5" stroke="white" stroke-width="20"/>
<circle cx="648.5" cy="144.5" r="117" fill="white" fill-opacity="0.95" stroke="white" stroke-width="5"/>
<g clip-path="url(#clip0_60_517)">
<path d="M414.422 573.281C411.671 569.954 406.914 569.635 403.791 572.572C382.314 592.793 354.691 603.93 326.014 603.93C261.167 603.93 208.411 547.64 208.411 478.452V402.496H245.981C250.139 402.496 253.512 398.898 253.512 394.461C253.512 390.023 250.139 386.425 245.981 386.425H236.032V363.227H248.756C252.915 363.227 256.287 359.629 256.287 355.191V280.017C256.287 275.579 252.915 271.981 248.756 271.981H236.032V251.457H248.756C252.915 251.457 256.287 247.859 256.287 243.422V189.861C256.287 173.512 243.821 160.212 228.499 160.212C213.177 160.212 200.71 173.511 200.71 189.861V243.422C200.71 247.859 204.082 251.457 208.241 251.457H220.97V271.981H208.241C204.082 271.981 200.71 275.579 200.71 280.017V355.191C200.71 359.629 204.082 363.227 208.241 363.227H220.97V386.425H200.88C196.721 386.425 193.349 390.023 193.349 394.461V478.452C193.349 556.502 252.863 620 326.014 620C358.365 620 389.526 607.435 413.758 584.623C416.876 581.686 417.174 576.609 414.422 573.281ZM215.772 235.387V189.861C215.772 182.373 221.481 176.282 228.498 176.282C235.514 176.282 241.224 182.374 241.224 189.861V235.388L215.772 235.387ZM215.772 347.156V288.051H241.225V347.156H215.772Z" fill="white"/>
<path d="M546.12 398.857H524.206V371.732H546.118C550.278 371.732 553.649 368.135 553.649 363.698V302.832C553.649 281.079 537.063 263.381 516.675 263.381C496.287 263.381 479.7 281.078 479.7 302.832V363.698C479.7 368.135 483.072 371.733 487.231 371.733H509.144V398.858H487.231C483.072 398.858 479.7 402.456 479.7 406.893V446.204H458.679V394.46C458.679 390.023 455.308 386.425 451.148 386.425H438.422V363.226H451.148C455.308 363.226 458.679 359.628 458.679 355.191V268.613C458.679 264.175 455.308 260.577 451.148 260.577H438.422V240.053H451.148C455.308 240.053 458.679 236.455 458.679 232.018V178.457C458.679 162.108 446.214 148.808 430.891 148.808C415.568 148.808 403.102 162.108 403.102 178.457V232.019C403.102 236.456 406.473 240.054 410.633 240.054H423.36V260.578H410.633C406.473 260.578 403.102 264.176 403.102 268.614V355.192C403.102 359.629 406.473 363.227 410.633 363.227H423.36V386.426H370.957V363.226H383.683C387.843 363.226 391.214 359.628 391.214 355.191V322.935C391.214 318.498 387.843 314.9 383.683 314.9C379.523 314.9 376.152 318.498 376.152 322.935V347.157H350.699V270.947H376.152V296.152C376.152 300.589 379.523 304.187 383.683 304.187C387.843 304.187 391.214 300.589 391.214 296.152V262.911C391.214 258.474 387.843 254.876 383.683 254.876H370.957V234.352H383.683C387.843 234.352 391.214 230.754 391.214 226.317V155.649C391.216 139.3 378.75 126 363.428 126C348.105 126 335.64 139.3 335.64 155.649V226.316C335.64 230.753 339.012 234.351 343.171 234.351H355.897V254.875H343.171C339.012 254.875 335.64 258.473 335.64 262.91V355.191C335.64 359.628 339.012 363.226 343.171 363.226H355.897V386.425H303.494V363.226H316.22C320.379 363.226 323.751 359.628 323.751 355.191V268.613C323.751 264.175 320.379 260.577 316.22 260.577H303.494V240.053H316.22C320.379 240.053 323.751 236.455 323.751 232.018V161.351C323.751 145.003 311.285 131.702 295.963 131.702C280.641 131.702 268.175 145.003 268.175 161.351V232.018C268.175 236.455 271.547 240.053 275.706 240.053H288.432V260.577H275.706C271.547 260.577 268.175 264.175 268.175 268.613V355.191C268.175 359.628 271.547 363.226 275.706 363.226H288.432V386.425H271.083C266.924 386.425 263.552 390.023 263.552 394.46C263.552 398.897 266.924 402.495 271.083 402.495H443.619V478.452C443.619 507.402 434.643 534.596 417.661 557.094C415.051 560.55 415.562 565.608 418.803 568.391C420.195 569.587 421.863 570.169 423.522 570.169C425.723 570.169 427.904 569.143 429.392 567.173C448.279 542.151 458.681 510.641 458.681 478.452V462.274H479.702V499.174C479.702 503.611 483.073 507.209 487.233 507.209C523.856 507.209 553.651 475.419 553.651 436.344V406.893C553.651 402.455 550.28 398.857 546.12 398.857ZM350.7 218.281V155.649C350.7 148.161 356.41 142.07 363.427 142.07C370.443 142.07 376.153 148.162 376.153 155.649V218.281H350.7ZM283.236 223.983V161.351H283.236C283.236 153.864 288.946 147.773 295.963 147.773C302.979 147.773 308.689 153.865 308.689 161.351V223.983H283.236ZM283.236 347.156V276.647H308.69V347.156H283.236ZM418.166 223.983V178.457C418.166 170.969 423.875 164.878 430.893 164.878C437.909 164.878 443.619 170.97 443.619 178.457V223.984L418.166 223.983ZM418.166 347.156V276.647H443.619V347.156H418.166ZM494.761 355.664V302.833H494.762C494.762 289.941 504.593 279.453 516.675 279.453C528.758 279.453 538.587 289.941 538.587 302.833V355.664H494.761ZM538.587 436.345C538.587 463.829 519.523 486.653 494.761 490.552V414.928H538.587V436.345Z" fill="white"/>
<path d="M270.709 431.747C251.527 431.747 235.924 448.395 235.924 468.861C235.924 489.324 251.527 505.973 270.709 505.973C289.888 505.973 305.492 489.325 305.492 468.861C305.491 448.395 289.888 431.747 270.709 431.747ZM270.707 489.903C259.831 489.903 250.984 480.463 250.984 468.861C250.985 457.257 259.833 447.818 270.707 447.818C281.581 447.818 290.429 457.258 290.429 468.861C290.429 480.463 281.582 489.903 270.707 489.903Z" fill="white"/>
<path d="M381.322 431.747C362.142 431.747 346.537 448.395 346.537 468.861C346.537 489.324 362.141 505.973 381.322 505.973C400.503 505.973 416.106 489.325 416.106 468.861C416.106 448.395 400.503 431.747 381.322 431.747ZM381.324 489.903C370.448 489.903 361.601 480.463 361.601 468.861C361.601 457.257 370.449 447.818 381.324 447.818C392.198 447.818 401.046 457.258 401.046 468.861C401.046 480.463 392.198 489.903 381.324 489.903Z" fill="white"/>
</g>
<g filter="url(#filter0_d_60_517)">
<path d="M641.248 152.816C641.248 154.944 640.408 157.184 638.728 159.536C637.048 161.832 634.864 164.1 632.176 166.34C629.488 168.58 626.548 170.708 623.356 172.724C620.22 174.684 617.112 176.42 614.032 177.932C611.008 179.5 608.32 180.704 605.968 181.544C603.616 182.44 601.908 182.888 600.844 182.888C598.828 182.888 597.176 182.524 595.888 181.796C594.6 181.068 593.956 179.78 593.956 177.932C593.956 176.532 594.292 175.44 594.964 174.656C595.636 173.872 596.588 173.2 597.82 172.64C600.788 171.296 603.84 169.868 606.976 168.356C610.112 166.844 613.108 165.304 615.964 163.736C618.876 162.168 621.452 160.628 623.692 159.116C625.988 157.604 627.808 156.176 629.152 154.832C630.496 153.432 631.168 152.2 631.168 151.136C631.168 149.904 630.692 149.008 629.74 148.448C628.844 147.888 627.64 147.524 626.128 147.356C624.616 147.132 622.936 147.02 621.088 147.02C618.568 147.02 616.468 147.132 614.788 147.356C613.108 147.58 611.652 147.804 610.42 148.028C609.244 148.196 608.152 148.28 607.144 148.28C605.464 148.28 604.26 147.916 603.532 147.188C602.804 146.404 602.44 145.368 602.44 144.08C602.44 143.016 602.832 141.924 603.616 140.804C604.4 139.684 605.66 138.844 607.396 138.284C611.036 137.108 614.256 135.82 617.056 134.42C619.912 132.964 622.124 131.368 623.692 129.632C625.316 127.896 626.128 126.02 626.128 124.004C626.128 123.388 625.82 122.968 625.204 122.744C624.644 122.52 623.468 122.408 621.676 122.408C620.052 122.408 618.232 122.604 616.216 122.996C614.256 123.388 612.324 123.864 610.42 124.424C608.572 124.928 606.976 125.376 605.632 125.768C604.344 126.16 603.532 126.356 603.196 126.356C600.732 126.356 599.5 125.124 599.5 122.66C599.5 122.1 599.92 121.204 600.76 119.972C601.6 118.74 602.86 117.48 604.54 116.192C606.22 114.848 608.292 113.7 610.756 112.748C613.276 111.796 616.188 111.32 619.492 111.32C622.74 111.32 625.568 111.964 627.976 113.252C630.44 114.54 632.344 116.304 633.688 118.544C635.088 120.728 635.788 123.22 635.788 126.02C635.788 128.148 635.116 130.276 633.772 132.404C632.484 134.476 630.86 136.324 628.9 137.948C632.652 139.068 635.648 141 637.888 143.744C640.128 146.432 641.248 149.456 641.248 152.816ZM664.689 180.284C662.281 180.284 660.573 179.948 659.565 179.276C658.613 178.604 658.137 177.624 658.137 176.336C658.137 175.216 658.529 174.264 659.313 173.48C660.097 172.64 661.833 171.8 664.521 170.96C667.657 170.008 670.625 168.916 673.425 167.684C676.281 166.396 678.605 164.996 680.397 163.484C682.245 161.972 683.169 160.376 683.169 158.696C683.169 157.576 682.777 156.764 681.993 156.26C681.265 155.756 680.397 155.504 679.389 155.504C678.549 155.504 677.317 155.644 675.693 155.924C674.125 156.148 672.389 156.456 670.485 156.848C668.581 157.184 666.733 157.492 664.941 157.772C663.205 157.996 661.721 158.108 660.489 158.108C657.577 158.108 655.421 157.464 654.021 156.176C652.621 154.832 651.921 153.124 651.921 151.052C651.921 149.932 652.509 148.392 653.685 146.432C654.861 144.472 656.429 142.316 658.389 139.964C660.349 137.612 662.533 135.26 664.941 132.908C667.349 130.556 669.785 128.4 672.249 126.44C674.769 124.424 677.149 122.828 679.389 121.652C681.629 120.42 683.533 119.804 685.101 119.804C686.893 119.804 688.321 120.364 689.385 121.484C690.505 122.604 691.065 124.116 691.065 126.02C691.065 126.916 690.981 127.896 690.813 128.96C690.645 129.968 690.225 130.892 689.553 131.732C688.881 132.516 687.845 133.076 686.445 133.412C685.045 133.748 683.141 133.692 680.733 133.244C678.829 134.644 676.841 136.184 674.769 137.864C672.753 139.488 670.849 141.196 669.057 142.988C667.265 144.724 665.781 146.432 664.605 148.112C666.677 147.44 669.029 146.908 671.661 146.516C674.293 146.068 676.953 145.844 679.641 145.844C682.889 145.844 685.521 146.432 687.537 147.608C689.609 148.728 691.121 150.24 692.073 152.144C693.081 154.048 693.585 156.148 693.585 158.444C693.585 161.02 692.745 163.596 691.065 166.172C689.385 168.748 687.145 171.1 684.345 173.228C681.545 175.356 678.437 177.064 675.021 178.352C671.605 179.64 668.161 180.284 664.689 180.284Z" fill="white"/>
</g>
<defs>
<filter id="filter0_d_60_517" x="580.956" y="98.3203" width="129.629" height="101.567" filterUnits="userSpaceOnUse" color-interpolation-filters="sRGB">
<feFlood flood-opacity="0" result="BackgroundImageFix"/>
<feColorMatrix in="SourceAlpha" type="matrix" values="0 0 0 0 0 0 0 0 0 0 0 0 0 0 0 0 0 0 127 0" result="hardAlpha"/>
<feOffset dx="2" dy="2"/>
<feGaussianBlur stdDeviation="7.5"/>
<feComposite in2="hardAlpha" operator="out"/>
<feColorMatrix type="matrix" values="0 0 0 0 0 0 0 0 0 0 0 0 0 0 0 0 0 0 0.75 0"/>
<feBlend mode="normal" in2="BackgroundImageFix" result="effect1_dropShadow_60_517"/>
<feBlend mode="normal" in="SourceGraphic" in2="effect1_dropShadow_60_517" result="shape"/>
</filter>
<linearGradient id="paint0_linear_60_517" x1="130" y1="102.5" x2="644" y2="616.5" gradientUnits="userSpaceOnUse">
<stop stop-color="white" stop-opacity="0.9"/>
<stop offset="1" stop-color="white" stop-opacity="0.75"/>
</linearGradient>
<clipPath id="clip0_60_517">
<rect width="463" height="494" fill="white" transform="translate(142 126)"/>
</clipPath>
</defs>
</svg>
