<svg width="768" height="746" viewBox="0 0 768 746" fill="none" xmlns="http://www.w3.org/2000/svg">
<circle cx="373" cy="373" r="363" fill="url(#paint0_linear_60_639)" fill-opacity="0.5" stroke="#9528B3" stroke-width="20"/>
<circle cx="648.5" cy="144.5" r="117" fill="#9528B3" fill-opacity="0.95" stroke="#9528B3" stroke-width="5"/>
<g clip-path="url(#clip0_60_639)">
<path d="M414.422 573.281C411.671 569.954 406.914 569.635 403.791 572.572C382.314 592.793 354.691 603.93 326.014 603.93C261.167 603.93 208.411 547.64 208.411 478.452V402.496H245.981C250.139 402.496 253.512 398.898 253.512 394.461C253.512 390.023 250.139 386.425 245.981 386.425H236.032V363.227H248.756C252.915 363.227 256.287 359.629 256.287 355.191V280.017C256.287 275.579 252.915 271.981 248.756 271.981H236.032V251.457H248.756C252.915 251.457 256.287 247.859 256.287 243.422V189.861C256.287 173.512 243.821 160.212 228.499 160.212C213.177 160.212 200.71 173.511 200.71 189.861V243.422C200.71 247.859 204.082 251.457 208.241 251.457H220.97V271.981H208.241C204.082 271.981 200.71 275.579 200.71 280.017V355.191C200.71 359.629 204.082 363.227 208.241 363.227H220.97V386.425H200.88C196.721 386.425 193.349 390.023 193.349 394.461V478.452C193.349 556.502 252.863 620 326.014 620C358.365 620 389.526 607.435 413.758 584.623C416.876 581.686 417.174 576.609 414.422 573.281ZM215.772 235.387V189.861C215.772 182.373 221.481 176.282 228.498 176.282C235.514 176.282 241.224 182.374 241.224 189.861V235.388L215.772 235.387ZM215.772 347.156V288.051H241.225V347.156H215.772Z" fill="#9528B3"/>
<path d="M546.12 398.857H524.206V371.732H546.118C550.278 371.732 553.649 368.135 553.649 363.698V302.832C553.649 281.079 537.063 263.381 516.675 263.381C496.287 263.381 479.7 281.078 479.7 302.832V363.698C479.7 368.135 483.072 371.733 487.231 371.733H509.144V398.858H487.231C483.072 398.858 479.7 402.456 479.7 406.893V446.204H458.679V394.46C458.679 390.023 455.308 386.425 451.148 386.425H438.422V363.226H451.148C455.308 363.226 458.679 359.628 458.679 355.191V268.613C458.679 264.175 455.308 260.577 451.148 260.577H438.422V240.053H451.148C455.308 240.053 458.679 236.455 458.679 232.018V178.457C458.679 162.108 446.214 148.808 430.891 148.808C415.568 148.808 403.102 162.108 403.102 178.457V232.019C403.102 236.456 406.473 240.054 410.633 240.054H423.36V260.578H410.633C406.473 260.578 403.102 264.176 403.102 268.614V355.192C403.102 359.629 406.473 363.227 410.633 363.227H423.36V386.426H370.957V363.226H383.683C387.843 363.226 391.214 359.628 391.214 355.191V322.935C391.214 318.498 387.843 314.9 383.683 314.9C379.523 314.9 376.152 318.498 376.152 322.935V347.157H350.699V270.947H376.152V296.152C376.152 300.589 379.523 304.187 383.683 304.187C387.843 304.187 391.214 300.589 391.214 296.152V262.911C391.214 258.474 387.843 254.876 383.683 254.876H370.957V234.352H383.683C387.843 234.352 391.214 230.754 391.214 226.317V155.649C391.216 139.3 378.75 126 363.428 126C348.105 126 335.64 139.3 335.64 155.649V226.316C335.64 230.753 339.012 234.351 343.171 234.351H355.897V254.875H343.171C339.012 254.875 335.64 258.473 335.64 262.91V355.191C335.64 359.628 339.012 363.226 343.171 363.226H355.897V386.425H303.494V363.226H316.22C320.379 363.226 323.751 359.628 323.751 355.191V268.613C323.751 264.175 320.379 260.577 316.22 260.577H303.494V240.053H316.22C320.379 240.053 323.751 236.455 323.751 232.018V161.351C323.751 145.003 311.285 131.702 295.963 131.702C280.641 131.702 268.175 145.003 268.175 161.351V232.018C268.175 236.455 271.547 240.053 275.706 240.053H288.432V260.577H275.706C271.547 260.577 268.175 264.175 268.175 268.613V355.191C268.175 359.628 271.547 363.226 275.706 363.226H288.432V386.425H271.083C266.924 386.425 263.552 390.023 263.552 394.46C263.552 398.897 266.924 402.495 271.083 402.495H443.619V478.452C443.619 507.402 434.643 534.596 417.661 557.094C415.051 560.55 415.562 565.608 418.803 568.391C420.195 569.587 421.863 570.169 423.522 570.169C425.723 570.169 427.904 569.143 429.392 567.173C448.279 542.151 458.681 510.641 458.681 478.452V462.274H479.702V499.174C479.702 503.611 483.073 507.209 487.233 507.209C523.856 507.209 553.651 475.419 553.651 436.344V406.893C553.651 402.455 550.28 398.857 546.12 398.857ZM350.7 218.281V155.649C350.7 148.161 356.41 142.07 363.427 142.07C370.443 142.07 376.153 148.162 376.153 155.649V218.281H350.7ZM283.236 223.983V161.351H283.236C283.236 153.864 288.946 147.773 295.963 147.773C302.979 147.773 308.689 153.865 308.689 161.351V223.983H283.236ZM283.236 347.156V276.647H308.69V347.156H283.236ZM418.166 223.983V178.457C418.166 170.969 423.875 164.878 430.893 164.878C437.909 164.878 443.619 170.97 443.619 178.457V223.984L418.166 223.983ZM418.166 347.156V276.647H443.619V347.156H418.166ZM494.761 355.664V302.833H494.762C494.762 289.941 504.593 279.453 516.675 279.453C528.758 279.453 538.587 289.941 538.587 302.833V355.664H494.761ZM538.587 436.345C538.587 463.829 519.523 486.653 494.761 490.552V414.928H538.587V436.345Z" fill="#9528B3"/>
<path d="M270.709 431.747C251.527 431.747 235.924 448.395 235.924 468.861C235.924 489.324 251.527 505.973 270.709 505.973C289.888 505.973 305.492 489.325 305.492 468.861C305.491 448.395 289.888 431.747 270.709 431.747ZM270.707 489.903C259.831 489.903 250.984 480.463 250.984 468.861C250.985 457.257 259.833 447.818 270.707 447.818C281.581 447.818 290.429 457.258 290.429 468.861C290.429 480.463 281.582 489.903 270.707 489.903Z" fill="#9528B3"/>
<path d="M381.322 431.747C362.142 431.747 346.537 448.395 346.537 468.861C346.537 489.324 362.141 505.973 381.322 505.973C400.503 505.973 416.106 489.325 416.106 468.861C416.106 448.395 400.503 431.747 381.322 431.747ZM381.324 489.903C370.448 489.903 361.601 480.463 361.601 468.861C361.601 457.257 370.449 447.818 381.324 447.818C392.198 447.818 401.046 457.258 401.046 468.861C401.046 480.463 392.198 489.903 381.324 489.903Z" fill="#9528B3"/>
</g>
<g filter="url(#filter0_d_60_639)">
<path d="M563.856 182.468C562.904 182.468 562.036 182.328 561.252 182.048C560.524 181.824 559.908 181.348 559.404 180.62C557.108 181.012 554.84 181.32 552.6 181.544C550.36 181.768 548.26 181.88 546.3 181.88C544.62 181.88 543.304 181.46 542.352 180.62C541.4 179.836 540.924 178.716 540.924 177.26C540.924 176.42 541.4 175.468 542.352 174.404C543.304 173.34 545.068 172.332 547.644 171.38C550.22 170.372 553.972 169.588 558.9 169.028C559.292 166.396 559.88 163.288 560.664 159.704C561.448 156.064 562.4 152.2 563.52 148.112C564.64 143.968 565.956 139.88 567.468 135.848C565.396 138.032 563.212 139.88 560.916 141.392C558.676 142.904 556.52 144.052 554.448 144.836C552.432 145.62 550.696 146.012 549.24 146.012C548.064 146.012 547.084 145.816 546.3 145.424C545.572 145.032 545.208 144.304 545.208 143.24C545.208 141.896 545.852 140.664 547.14 139.544C548.428 138.368 549.828 137.22 551.34 136.1C553.636 134.364 556.1 132.292 558.732 129.884C561.42 127.476 563.912 124.9 566.208 122.156C568.56 119.412 570.38 116.724 571.668 114.092C572.284 112.916 572.956 111.992 573.684 111.32C574.412 110.592 575.588 110.228 577.212 110.228C578.836 110.228 580.012 110.956 580.74 112.412C581.468 113.812 581.832 115.492 581.832 117.452C581.832 118.236 581.608 119.86 581.16 122.324C580.712 124.732 580.096 127.7 579.312 131.228C578.528 134.7 577.66 138.536 576.708 142.736C575.756 146.88 574.776 151.136 573.768 155.504C572.76 159.872 571.808 164.1 570.912 168.188C572.76 168.132 574.664 168.104 576.624 168.104C578.976 168.104 581.02 168.3 582.756 168.692C584.492 169.084 585.36 169.924 585.36 171.212C585.36 172.556 584.772 173.564 583.596 174.236C582.476 174.852 581.104 175.412 579.48 175.916C577.968 176.364 576.26 176.84 574.356 177.344C572.452 177.904 570.436 178.408 568.308 178.856C567.748 180.144 567.076 181.068 566.292 181.628C565.508 182.188 564.696 182.468 563.856 182.468ZM594.404 204.14C589.364 205.484 586.844 204.616 586.844 201.536C586.844 199.912 587.796 198.568 589.7 197.504C592.5 195.768 594.768 193.22 596.504 189.86C598.184 186.5 599.5 182.692 600.452 178.436C601.46 174.18 602.244 169.868 602.804 165.5C603.084 163.708 603.616 162.532 604.4 161.972C605.184 161.356 606.024 161.048 606.92 161.048C608.656 161.048 610.28 161.748 611.792 163.148C613.304 164.492 614.06 166.732 614.06 169.868C614.06 174.124 613.416 178.184 612.128 182.048C610.896 185.912 609.272 189.384 607.256 192.464C605.296 195.6 603.168 198.176 600.872 200.192C598.576 202.208 596.42 203.524 594.404 204.14ZM637.836 182.552C635.708 182.552 633.804 181.964 632.124 180.788C630.5 179.668 629.688 177.988 629.688 175.748C629.688 173.676 630.304 172.192 631.536 171.296C632.768 170.344 634.42 169.868 636.492 169.868C637.332 169.868 638.172 169.98 639.012 170.204C639.852 170.372 641.42 170.596 643.716 170.876C647.58 168.916 650.996 167.012 653.964 165.164C656.932 163.26 659.256 161.384 660.936 159.536C662.616 157.632 663.456 155.7 663.456 153.74C663.456 151.892 662.728 150.8 661.272 150.464C659.872 150.072 658.164 149.848 656.148 149.792C655.924 149.792 655.672 149.792 655.392 149.792C655.168 149.736 654.916 149.708 654.636 149.708C651.78 149.54 649.092 149.204 646.572 148.7C644.108 148.14 642.092 147.16 640.524 145.76C638.956 144.304 638.172 142.148 638.172 139.292C638.172 136.1 638.592 132.964 639.432 129.884C640.272 126.748 641.336 123.864 642.624 121.232C642.12 120.784 641.812 120.252 641.7 119.636C641.644 118.964 641.616 118.292 641.616 117.62C641.616 116.948 642.12 116.276 643.128 115.604C644.136 114.932 645.508 114.26 647.244 113.588C648.7 111.628 650.1 110.088 651.444 108.968C652.788 107.792 653.852 107.204 654.636 107.204C655.588 107.204 656.428 107.512 657.156 108.128C657.94 108.744 658.528 109.528 658.92 110.48C662.28 109.808 665.78 109.276 669.42 108.884C673.116 108.492 676.7 108.296 680.172 108.296C682.188 108.296 684.008 108.464 685.632 108.8C687.312 109.08 688.628 109.668 689.58 110.564C690.588 111.404 691.092 112.72 691.092 114.512C691.092 116.024 690.588 117.144 689.58 117.872C688.628 118.544 687.34 118.908 685.716 118.964C682.468 119.02 678.996 119.272 675.3 119.72C671.604 120.168 667.964 120.672 664.38 121.232C660.852 121.736 657.688 122.128 654.888 122.408C653.992 124.032 653.124 125.712 652.284 127.448C651.5 129.128 650.828 130.696 650.268 132.152C649.764 133.608 649.512 134.784 649.512 135.68C649.512 137.248 650.184 138.2 651.528 138.536C652.872 138.872 654.468 139.096 656.316 139.208C658.5 139.376 660.684 139.656 662.868 140.048C665.052 140.384 667.04 141 668.832 141.896C670.68 142.792 672.164 144.136 673.284 145.928C674.404 147.664 674.964 149.988 674.964 152.9C674.964 155.644 674.18 158.416 672.612 161.216C671.1 164.016 669.028 166.704 666.396 169.28C663.82 171.8 660.908 174.04 657.66 176C654.468 178.016 651.136 179.612 647.664 180.788C644.248 181.964 640.972 182.552 637.836 182.552ZM700.345 180.284C697.937 180.284 696.229 179.948 695.221 179.276C694.269 178.604 693.793 177.624 693.793 176.336C693.793 175.216 694.185 174.264 694.969 173.48C695.753 172.64 697.489 171.8 700.177 170.96C703.313 170.008 706.281 168.916 709.081 167.684C711.937 166.396 714.261 164.996 716.053 163.484C717.901 161.972 718.825 160.376 718.825 158.696C718.825 157.576 718.433 156.764 717.649 156.26C716.921 155.756 716.053 155.504 715.045 155.504C714.205 155.504 712.973 155.644 711.349 155.924C709.781 156.148 708.045 156.456 706.141 156.848C704.237 157.184 702.389 157.492 700.597 157.772C698.861 157.996 697.377 158.108 696.145 158.108C693.233 158.108 691.077 157.464 689.677 156.176C688.277 154.832 687.577 153.124 687.577 151.052C687.577 149.932 688.165 148.392 689.341 146.432C690.517 144.472 692.085 142.316 694.045 139.964C696.005 137.612 698.189 135.26 700.597 132.908C703.005 130.556 705.441 128.4 707.905 126.44C710.425 124.424 712.805 122.828 715.045 121.652C717.285 120.42 719.189 119.804 720.757 119.804C722.549 119.804 723.977 120.364 725.041 121.484C726.161 122.604 726.721 124.116 726.721 126.02C726.721 126.916 726.637 127.896 726.469 128.96C726.301 129.968 725.881 130.892 725.209 131.732C724.537 132.516 723.501 133.076 722.101 133.412C720.701 133.748 718.797 133.692 716.389 133.244C714.485 134.644 712.497 136.184 710.425 137.864C708.409 139.488 706.505 141.196 704.713 142.988C702.921 144.724 701.437 146.432 700.261 148.112C702.333 147.44 704.685 146.908 707.317 146.516C709.949 146.068 712.609 145.844 715.297 145.844C718.545 145.844 721.177 146.432 723.193 147.608C725.265 148.728 726.777 150.24 727.729 152.144C728.737 154.048 729.241 156.148 729.241 158.444C729.241 161.02 728.401 163.596 726.721 166.172C725.041 168.748 722.801 171.1 720.001 173.228C717.201 175.356 714.093 177.064 710.677 178.352C707.261 179.64 703.817 180.284 700.345 180.284Z" fill="white"/>
</g>
<defs>
<filter id="filter0_d_60_639" x="527.924" y="94.2041" width="218.317" height="128.952" filterUnits="userSpaceOnUse" color-interpolation-filters="sRGB">
<feFlood flood-opacity="0" result="BackgroundImageFix"/>
<feColorMatrix in="SourceAlpha" type="matrix" values="0 0 0 0 0 0 0 0 0 0 0 0 0 0 0 0 0 0 127 0" result="hardAlpha"/>
<feOffset dx="2" dy="2"/>
<feGaussianBlur stdDeviation="7.5"/>
<feComposite in2="hardAlpha" operator="out"/>
<feColorMatrix type="matrix" values="0 0 0 0 0 0 0 0 0 0 0 0 0 0 0 0 0 0 0.75 0"/>
<feBlend mode="normal" in2="BackgroundImageFix" result="effect1_dropShadow_60_639"/>
<feBlend mode="normal" in="SourceGraphic" in2="effect1_dropShadow_60_639" result="shape"/>
</filter>
<linearGradient id="paint0_linear_60_639" x1="130" y1="102.5" x2="644" y2="616.5" gradientUnits="userSpaceOnUse">
<stop stop-color="#9528B3" stop-opacity="0.9"/>
<stop offset="1" stop-color="#9528B3" stop-opacity="0.75"/>
</linearGradient>
<clipPath id="clip0_60_639">
<rect width="463" height="494" fill="white" transform="translate(142 126)"/>
</clipPath>
</defs>
</svg>
