<svg width="768" height="746" viewBox="0 0 768 746" fill="none" xmlns="http://www.w3.org/2000/svg">
<circle cx="373" cy="373" r="363" fill="url(#paint0_linear_60_674)" fill-opacity="0.5" stroke="#9528B3" stroke-width="20"/>
<circle cx="648.5" cy="144.5" r="117" fill="#9528B3" fill-opacity="0.95" stroke="#9528B3" stroke-width="5"/>
<g clip-path="url(#clip0_60_674)">
<path d="M414.422 573.281C411.671 569.954 406.914 569.635 403.791 572.572C382.314 592.793 354.691 603.93 326.014 603.93C261.167 603.93 208.411 547.64 208.411 478.452V402.496H245.981C250.139 402.496 253.512 398.898 253.512 394.461C253.512 390.023 250.139 386.425 245.981 386.425H236.032V363.227H248.756C252.915 363.227 256.287 359.629 256.287 355.191V280.017C256.287 275.579 252.915 271.981 248.756 271.981H236.032V251.457H248.756C252.915 251.457 256.287 247.859 256.287 243.422V189.861C256.287 173.512 243.821 160.212 228.499 160.212C213.177 160.212 200.71 173.511 200.71 189.861V243.422C200.71 247.859 204.082 251.457 208.241 251.457H220.97V271.981H208.241C204.082 271.981 200.71 275.579 200.71 280.017V355.191C200.71 359.629 204.082 363.227 208.241 363.227H220.97V386.425H200.88C196.721 386.425 193.349 390.023 193.349 394.461V478.452C193.349 556.502 252.863 620 326.014 620C358.365 620 389.526 607.435 413.758 584.623C416.876 581.686 417.174 576.609 414.422 573.281ZM215.772 235.387V189.861C215.772 182.373 221.481 176.282 228.498 176.282C235.514 176.282 241.224 182.374 241.224 189.861V235.388L215.772 235.387ZM215.772 347.156V288.051H241.225V347.156H215.772Z" fill="#9528B3"/>
<path d="M546.12 398.857H524.206V371.732H546.118C550.278 371.732 553.649 368.135 553.649 363.698V302.832C553.649 281.079 537.063 263.381 516.675 263.381C496.287 263.381 479.7 281.078 479.7 302.832V363.698C479.7 368.135 483.072 371.733 487.231 371.733H509.144V398.858H487.231C483.072 398.858 479.7 402.456 479.7 406.893V446.204H458.679V394.46C458.679 390.023 455.308 386.425 451.148 386.425H438.422V363.226H451.148C455.308 363.226 458.679 359.628 458.679 355.191V268.613C458.679 264.175 455.308 260.577 451.148 260.577H438.422V240.053H451.148C455.308 240.053 458.679 236.455 458.679 232.018V178.457C458.679 162.108 446.214 148.808 430.891 148.808C415.568 148.808 403.102 162.108 403.102 178.457V232.019C403.102 236.456 406.473 240.054 410.633 240.054H423.36V260.578H410.633C406.473 260.578 403.102 264.176 403.102 268.614V355.192C403.102 359.629 406.473 363.227 410.633 363.227H423.36V386.426H370.957V363.226H383.683C387.843 363.226 391.214 359.628 391.214 355.191V322.935C391.214 318.498 387.843 314.9 383.683 314.9C379.523 314.9 376.152 318.498 376.152 322.935V347.157H350.699V270.947H376.152V296.152C376.152 300.589 379.523 304.187 383.683 304.187C387.843 304.187 391.214 300.589 391.214 296.152V262.911C391.214 258.474 387.843 254.876 383.683 254.876H370.957V234.352H383.683C387.843 234.352 391.214 230.754 391.214 226.317V155.649C391.216 139.3 378.75 126 363.428 126C348.105 126 335.64 139.3 335.64 155.649V226.316C335.64 230.753 339.012 234.351 343.171 234.351H355.897V254.875H343.171C339.012 254.875 335.64 258.473 335.64 262.91V355.191C335.64 359.628 339.012 363.226 343.171 363.226H355.897V386.425H303.494V363.226H316.22C320.379 363.226 323.751 359.628 323.751 355.191V268.613C323.751 264.175 320.379 260.577 316.22 260.577H303.494V240.053H316.22C320.379 240.053 323.751 236.455 323.751 232.018V161.351C323.751 145.003 311.285 131.702 295.963 131.702C280.641 131.702 268.175 145.003 268.175 161.351V232.018C268.175 236.455 271.547 240.053 275.706 240.053H288.432V260.577H275.706C271.547 260.577 268.175 264.175 268.175 268.613V355.191C268.175 359.628 271.547 363.226 275.706 363.226H288.432V386.425H271.083C266.924 386.425 263.552 390.023 263.552 394.46C263.552 398.897 266.924 402.495 271.083 402.495H443.619V478.452C443.619 507.402 434.643 534.596 417.661 557.094C415.051 560.55 415.562 565.608 418.803 568.391C420.195 569.587 421.863 570.169 423.522 570.169C425.723 570.169 427.904 569.143 429.392 567.173C448.279 542.151 458.681 510.641 458.681 478.452V462.274H479.702V499.174C479.702 503.611 483.073 507.209 487.233 507.209C523.856 507.209 553.651 475.419 553.651 436.344V406.893C553.651 402.455 550.28 398.857 546.12 398.857ZM350.7 218.281V155.649C350.7 148.161 356.41 142.07 363.427 142.07C370.443 142.07 376.153 148.162 376.153 155.649V218.281H350.7ZM283.236 223.983V161.351H283.236C283.236 153.864 288.946 147.773 295.963 147.773C302.979 147.773 308.689 153.865 308.689 161.351V223.983H283.236ZM283.236 347.156V276.647H308.69V347.156H283.236ZM418.166 223.983V178.457C418.166 170.969 423.875 164.878 430.893 164.878C437.909 164.878 443.619 170.97 443.619 178.457V223.984L418.166 223.983ZM418.166 347.156V276.647H443.619V347.156H418.166ZM494.761 355.664V302.833H494.762C494.762 289.941 504.593 279.453 516.675 279.453C528.758 279.453 538.587 289.941 538.587 302.833V355.664H494.761ZM538.587 436.345C538.587 463.829 519.523 486.653 494.761 490.552V414.928H538.587V436.345Z" fill="#9528B3"/>
<path d="M270.709 431.747C251.527 431.747 235.924 448.395 235.924 468.861C235.924 489.324 251.527 505.973 270.709 505.973C289.888 505.973 305.492 489.325 305.492 468.861C305.491 448.395 289.888 431.747 270.709 431.747ZM270.707 489.903C259.831 489.903 250.984 480.463 250.984 468.861C250.985 457.257 259.833 447.818 270.707 447.818C281.581 447.818 290.429 457.258 290.429 468.861C290.429 480.463 281.582 489.903 270.707 489.903Z" fill="#9528B3"/>
<path d="M381.322 431.747C362.142 431.747 346.537 448.395 346.537 468.861C346.537 489.324 362.141 505.973 381.322 505.973C400.503 505.973 416.106 489.325 416.106 468.861C416.106 448.395 400.503 431.747 381.322 431.747ZM381.324 489.903C370.448 489.903 361.601 480.463 361.601 468.861C361.601 457.257 370.449 447.818 381.324 447.818C392.198 447.818 401.046 457.258 401.046 468.861C401.046 480.463 392.198 489.903 381.324 489.903Z" fill="#9528B3"/>
</g>
<g filter="url(#filter0_d_60_674)">
<path d="M612.856 182.468C611.904 182.468 611.036 182.328 610.252 182.048C609.524 181.824 608.908 181.348 608.404 180.62C606.108 181.012 603.84 181.32 601.6 181.544C599.36 181.768 597.26 181.88 595.3 181.88C593.62 181.88 592.304 181.46 591.352 180.62C590.4 179.836 589.924 178.716 589.924 177.26C589.924 176.42 590.4 175.468 591.352 174.404C592.304 173.34 594.068 172.332 596.644 171.38C599.22 170.372 602.972 169.588 607.9 169.028C608.292 166.396 608.88 163.288 609.664 159.704C610.448 156.064 611.4 152.2 612.52 148.112C613.64 143.968 614.956 139.88 616.468 135.848C614.396 138.032 612.212 139.88 609.916 141.392C607.676 142.904 605.52 144.052 603.448 144.836C601.432 145.62 599.696 146.012 598.24 146.012C597.064 146.012 596.084 145.816 595.3 145.424C594.572 145.032 594.208 144.304 594.208 143.24C594.208 141.896 594.852 140.664 596.14 139.544C597.428 138.368 598.828 137.22 600.34 136.1C602.636 134.364 605.1 132.292 607.732 129.884C610.42 127.476 612.912 124.9 615.208 122.156C617.56 119.412 619.38 116.724 620.668 114.092C621.284 112.916 621.956 111.992 622.684 111.32C623.412 110.592 624.588 110.228 626.212 110.228C627.836 110.228 629.012 110.956 629.74 112.412C630.468 113.812 630.832 115.492 630.832 117.452C630.832 118.236 630.608 119.86 630.16 122.324C629.712 124.732 629.096 127.7 628.312 131.228C627.528 134.7 626.66 138.536 625.708 142.736C624.756 146.88 623.776 151.136 622.768 155.504C621.76 159.872 620.808 164.1 619.912 168.188C621.76 168.132 623.664 168.104 625.624 168.104C627.976 168.104 630.02 168.3 631.756 168.692C633.492 169.084 634.36 169.924 634.36 171.212C634.36 172.556 633.772 173.564 632.596 174.236C631.476 174.852 630.104 175.412 628.48 175.916C626.968 176.364 625.26 176.84 623.356 177.344C621.452 177.904 619.436 178.408 617.308 178.856C616.748 180.144 616.076 181.068 615.292 181.628C614.508 182.188 613.696 182.468 612.856 182.468ZM653.696 180.284C651.288 180.284 649.58 179.948 648.572 179.276C647.62 178.604 647.144 177.624 647.144 176.336C647.144 175.216 647.536 174.264 648.32 173.48C649.104 172.64 650.84 171.8 653.528 170.96C656.664 170.008 659.632 168.916 662.432 167.684C665.288 166.396 667.612 164.996 669.404 163.484C671.252 161.972 672.176 160.376 672.176 158.696C672.176 157.576 671.784 156.764 671 156.26C670.272 155.756 669.404 155.504 668.396 155.504C667.556 155.504 666.324 155.644 664.7 155.924C663.132 156.148 661.396 156.456 659.492 156.848C657.588 157.184 655.74 157.492 653.948 157.772C652.212 157.996 650.728 158.108 649.496 158.108C646.584 158.108 644.428 157.464 643.028 156.176C641.628 154.832 640.928 153.124 640.928 151.052C640.928 149.932 641.516 148.392 642.692 146.432C643.868 144.472 645.436 142.316 647.396 139.964C649.356 137.612 651.54 135.26 653.948 132.908C656.356 130.556 658.792 128.4 661.256 126.44C663.776 124.424 666.156 122.828 668.396 121.652C670.636 120.42 672.54 119.804 674.108 119.804C675.9 119.804 677.328 120.364 678.392 121.484C679.512 122.604 680.072 124.116 680.072 126.02C680.072 126.916 679.988 127.896 679.82 128.96C679.652 129.968 679.232 130.892 678.56 131.732C677.888 132.516 676.852 133.076 675.452 133.412C674.052 133.748 672.148 133.692 669.74 133.244C667.836 134.644 665.848 136.184 663.776 137.864C661.76 139.488 659.856 141.196 658.064 142.988C656.272 144.724 654.788 146.432 653.612 148.112C655.684 147.44 658.036 146.908 660.668 146.516C663.3 146.068 665.96 145.844 668.648 145.844C671.896 145.844 674.528 146.432 676.544 147.608C678.616 148.728 680.128 150.24 681.08 152.144C682.088 154.048 682.592 156.148 682.592 158.444C682.592 161.02 681.752 163.596 680.072 166.172C678.392 168.748 676.152 171.1 673.352 173.228C670.552 175.356 667.444 177.064 664.028 178.352C660.612 179.64 657.168 180.284 653.696 180.284Z" fill="white"/>
</g>
<defs>
<filter id="filter0_d_60_674" x="576.924" y="97.2275" width="122.669" height="102.24" filterUnits="userSpaceOnUse" color-interpolation-filters="sRGB">
<feFlood flood-opacity="0" result="BackgroundImageFix"/>
<feColorMatrix in="SourceAlpha" type="matrix" values="0 0 0 0 0 0 0 0 0 0 0 0 0 0 0 0 0 0 127 0" result="hardAlpha"/>
<feOffset dx="2" dy="2"/>
<feGaussianBlur stdDeviation="7.5"/>
<feComposite in2="hardAlpha" operator="out"/>
<feColorMatrix type="matrix" values="0 0 0 0 0 0 0 0 0 0 0 0 0 0 0 0 0 0 0.75 0"/>
<feBlend mode="normal" in2="BackgroundImageFix" result="effect1_dropShadow_60_674"/>
<feBlend mode="normal" in="SourceGraphic" in2="effect1_dropShadow_60_674" result="shape"/>
</filter>
<linearGradient id="paint0_linear_60_674" x1="130" y1="102.5" x2="644" y2="616.5" gradientUnits="userSpaceOnUse">
<stop stop-color="#9528B3" stop-opacity="0.9"/>
<stop offset="1" stop-color="#9528B3" stop-opacity="0.75"/>
</linearGradient>
<clipPath id="clip0_60_674">
<rect width="463" height="494" fill="white" transform="translate(142 126)"/>
</clipPath>
</defs>
</svg>
