<svg width="768" height="746" viewBox="0 0 768 746" fill="none" xmlns="http://www.w3.org/2000/svg">
<circle cx="373" cy="373" r="363" fill="url(#paint0_linear_60_569)" fill-opacity="0.5" stroke="#9528B3" stroke-width="20"/>
<circle cx="648.5" cy="144.5" r="117" fill="#9528B3" fill-opacity="0.95" stroke="#9528B3" stroke-width="5"/>
<g clip-path="url(#clip0_60_569)">
<path d="M414.422 573.281C411.671 569.954 406.914 569.635 403.791 572.572C382.314 592.793 354.691 603.93 326.014 603.93C261.167 603.93 208.411 547.64 208.411 478.452V402.496H245.981C250.139 402.496 253.512 398.898 253.512 394.461C253.512 390.023 250.139 386.425 245.981 386.425H236.032V363.227H248.756C252.915 363.227 256.287 359.629 256.287 355.191V280.017C256.287 275.579 252.915 271.981 248.756 271.981H236.032V251.457H248.756C252.915 251.457 256.287 247.859 256.287 243.422V189.861C256.287 173.512 243.821 160.212 228.499 160.212C213.177 160.212 200.71 173.511 200.71 189.861V243.422C200.71 247.859 204.082 251.457 208.241 251.457H220.97V271.981H208.241C204.082 271.981 200.71 275.579 200.71 280.017V355.191C200.71 359.629 204.082 363.227 208.241 363.227H220.97V386.425H200.88C196.721 386.425 193.349 390.023 193.349 394.461V478.452C193.349 556.502 252.863 620 326.014 620C358.365 620 389.526 607.435 413.758 584.623C416.876 581.686 417.174 576.609 414.422 573.281ZM215.772 235.387V189.861C215.772 182.373 221.481 176.282 228.498 176.282C235.514 176.282 241.224 182.374 241.224 189.861V235.388L215.772 235.387ZM215.772 347.156V288.051H241.225V347.156H215.772Z" fill="#9528B3"/>
<path d="M546.12 398.857H524.206V371.732H546.118C550.278 371.732 553.649 368.135 553.649 363.698V302.832C553.649 281.079 537.063 263.381 516.675 263.381C496.287 263.381 479.7 281.078 479.7 302.832V363.698C479.7 368.135 483.072 371.733 487.231 371.733H509.144V398.858H487.231C483.072 398.858 479.7 402.456 479.7 406.893V446.204H458.679V394.46C458.679 390.023 455.308 386.425 451.148 386.425H438.422V363.226H451.148C455.308 363.226 458.679 359.628 458.679 355.191V268.613C458.679 264.175 455.308 260.577 451.148 260.577H438.422V240.053H451.148C455.308 240.053 458.679 236.455 458.679 232.018V178.457C458.679 162.108 446.214 148.808 430.891 148.808C415.568 148.808 403.102 162.108 403.102 178.457V232.019C403.102 236.456 406.473 240.054 410.633 240.054H423.36V260.578H410.633C406.473 260.578 403.102 264.176 403.102 268.614V355.192C403.102 359.629 406.473 363.227 410.633 363.227H423.36V386.426H370.957V363.226H383.683C387.843 363.226 391.214 359.628 391.214 355.191V322.935C391.214 318.498 387.843 314.9 383.683 314.9C379.523 314.9 376.152 318.498 376.152 322.935V347.157H350.699V270.947H376.152V296.152C376.152 300.589 379.523 304.187 383.683 304.187C387.843 304.187 391.214 300.589 391.214 296.152V262.911C391.214 258.474 387.843 254.876 383.683 254.876H370.957V234.352H383.683C387.843 234.352 391.214 230.754 391.214 226.317V155.649C391.216 139.3 378.75 126 363.428 126C348.105 126 335.64 139.3 335.64 155.649V226.316C335.64 230.753 339.012 234.351 343.171 234.351H355.897V254.875H343.171C339.012 254.875 335.64 258.473 335.64 262.91V355.191C335.64 359.628 339.012 363.226 343.171 363.226H355.897V386.425H303.494V363.226H316.22C320.379 363.226 323.751 359.628 323.751 355.191V268.613C323.751 264.175 320.379 260.577 316.22 260.577H303.494V240.053H316.22C320.379 240.053 323.751 236.455 323.751 232.018V161.351C323.751 145.003 311.285 131.702 295.963 131.702C280.641 131.702 268.175 145.003 268.175 161.351V232.018C268.175 236.455 271.547 240.053 275.706 240.053H288.432V260.577H275.706C271.547 260.577 268.175 264.175 268.175 268.613V355.191C268.175 359.628 271.547 363.226 275.706 363.226H288.432V386.425H271.083C266.924 386.425 263.552 390.023 263.552 394.46C263.552 398.897 266.924 402.495 271.083 402.495H443.619V478.452C443.619 507.402 434.643 534.596 417.661 557.094C415.051 560.55 415.562 565.608 418.803 568.391C420.195 569.587 421.863 570.169 423.522 570.169C425.723 570.169 427.904 569.143 429.392 567.173C448.279 542.151 458.681 510.641 458.681 478.452V462.274H479.702V499.174C479.702 503.611 483.073 507.209 487.233 507.209C523.856 507.209 553.651 475.419 553.651 436.344V406.893C553.651 402.455 550.28 398.857 546.12 398.857ZM350.7 218.281V155.649C350.7 148.161 356.41 142.07 363.427 142.07C370.443 142.07 376.153 148.162 376.153 155.649V218.281H350.7ZM283.236 223.983V161.351H283.236C283.236 153.864 288.946 147.773 295.963 147.773C302.979 147.773 308.689 153.865 308.689 161.351V223.983H283.236ZM283.236 347.156V276.647H308.69V347.156H283.236ZM418.166 223.983V178.457C418.166 170.969 423.875 164.878 430.893 164.878C437.909 164.878 443.619 170.97 443.619 178.457V223.984L418.166 223.983ZM418.166 347.156V276.647H443.619V347.156H418.166ZM494.761 355.664V302.833H494.762C494.762 289.941 504.593 279.453 516.675 279.453C528.758 279.453 538.587 289.941 538.587 302.833V355.664H494.761ZM538.587 436.345C538.587 463.829 519.523 486.653 494.761 490.552V414.928H538.587V436.345Z" fill="#9528B3"/>
<path d="M270.709 431.747C251.527 431.747 235.924 448.395 235.924 468.861C235.924 489.324 251.527 505.973 270.709 505.973C289.888 505.973 305.492 489.325 305.492 468.861C305.491 448.395 289.888 431.747 270.709 431.747ZM270.707 489.903C259.831 489.903 250.984 480.463 250.984 468.861C250.985 457.257 259.833 447.818 270.707 447.818C281.581 447.818 290.429 457.258 290.429 468.861C290.429 480.463 281.582 489.903 270.707 489.903Z" fill="#9528B3"/>
<path d="M381.322 431.747C362.142 431.747 346.537 448.395 346.537 468.861C346.537 489.324 362.141 505.973 381.322 505.973C400.503 505.973 416.106 489.325 416.106 468.861C416.106 448.395 400.503 431.747 381.322 431.747ZM381.324 489.903C370.448 489.903 361.601 480.463 361.601 468.861C361.601 457.257 370.449 447.818 381.324 447.818C392.198 447.818 401.046 457.258 401.046 468.861C401.046 480.463 392.198 489.903 381.324 489.903Z" fill="#9528B3"/>
</g>
<g filter="url(#filter0_d_60_569)">
<path d="M549.156 179.612C546.356 179.612 544.368 178.94 543.192 177.596C542.072 176.308 541.512 174.964 541.512 173.564C541.512 172.332 541.792 171.184 542.352 170.12C542.968 169 544.032 168.104 545.544 167.432C547.056 166.76 549.212 166.48 552.012 166.592C554.812 165.136 557.64 163.344 560.496 161.216C563.408 159.088 566.18 156.736 568.812 154.16C571.5 151.584 573.88 148.952 575.952 146.264C578.08 143.52 579.732 140.832 580.908 138.2C582.14 135.512 582.756 132.992 582.756 130.64C582.756 128.12 581.972 126.216 580.404 124.928C578.892 123.64 576.764 122.996 574.02 122.996C571.668 122.996 569.512 123.276 567.552 123.836C565.592 124.34 563.856 124.956 562.344 125.684C560.832 126.412 559.544 127.056 558.48 127.616C557.472 128.12 556.66 128.372 556.044 128.372C554.98 128.372 554.028 127.924 553.188 127.028C552.348 126.076 552.096 124.844 552.432 123.332C552.656 122.324 553.328 121.12 554.448 119.72C555.568 118.32 557.108 116.92 559.068 115.52C561.028 114.12 563.352 112.972 566.04 112.076C568.784 111.124 571.864 110.648 575.28 110.648C580.768 110.648 585.22 112.328 588.636 115.688C592.108 119.048 593.844 124.172 593.844 131.06C593.844 135.596 592.64 140.048 590.232 144.416C587.88 148.784 584.744 152.928 580.824 156.848C576.904 160.768 572.62 164.352 567.972 167.6C572.172 167.432 575.448 167.18 577.8 166.844C580.152 166.452 582.028 166.116 583.428 165.836C584.884 165.556 586.284 165.416 587.628 165.416C589.532 165.416 591.016 165.808 592.08 166.592C593.144 167.376 593.676 168.496 593.676 169.952C593.676 171.016 593.396 172.052 592.836 173.06C592.332 174.068 591.324 174.992 589.812 175.832C588.3 176.616 586.116 177.232 583.26 177.68C580.404 178.184 576.652 178.436 572.004 178.436C569.26 178.436 566.432 178.408 563.52 178.352C560.664 178.296 557.892 178.212 555.204 178.1C553.636 178.66 552.404 179.052 551.508 179.276C550.668 179.5 549.884 179.612 549.156 179.612ZM603.017 204.14C597.977 205.484 595.457 204.616 595.457 201.536C595.457 199.912 596.409 198.568 598.313 197.504C601.113 195.768 603.381 193.22 605.117 189.86C606.797 186.5 608.113 182.692 609.065 178.436C610.073 174.18 610.857 169.868 611.417 165.5C611.697 163.708 612.229 162.532 613.013 161.972C613.797 161.356 614.637 161.048 615.533 161.048C617.269 161.048 618.893 161.748 620.405 163.148C621.917 164.492 622.673 166.732 622.673 169.868C622.673 174.124 622.029 178.184 620.741 182.048C619.509 185.912 617.885 189.384 615.869 192.464C613.909 195.6 611.781 198.176 609.485 200.192C607.189 202.208 605.033 203.524 603.017 204.14ZM646.45 182.552C644.322 182.552 642.418 181.964 640.738 180.788C639.114 179.668 638.302 177.988 638.302 175.748C638.302 173.676 638.918 172.192 640.15 171.296C641.382 170.344 643.034 169.868 645.106 169.868C645.946 169.868 646.786 169.98 647.626 170.204C648.466 170.372 650.034 170.596 652.33 170.876C656.194 168.916 659.61 167.012 662.578 165.164C665.546 163.26 667.87 161.384 669.55 159.536C671.23 157.632 672.07 155.7 672.07 153.74C672.07 151.892 671.342 150.8 669.886 150.464C668.486 150.072 666.778 149.848 664.762 149.792C664.538 149.792 664.286 149.792 664.006 149.792C663.782 149.736 663.53 149.708 663.25 149.708C660.394 149.54 657.706 149.204 655.186 148.7C652.722 148.14 650.706 147.16 649.138 145.76C647.57 144.304 646.786 142.148 646.786 139.292C646.786 136.1 647.206 132.964 648.046 129.884C648.886 126.748 649.95 123.864 651.238 121.232C650.734 120.784 650.426 120.252 650.314 119.636C650.258 118.964 650.23 118.292 650.23 117.62C650.23 116.948 650.734 116.276 651.742 115.604C652.75 114.932 654.122 114.26 655.858 113.588C657.314 111.628 658.714 110.088 660.058 108.968C661.402 107.792 662.466 107.204 663.25 107.204C664.202 107.204 665.042 107.512 665.77 108.128C666.554 108.744 667.142 109.528 667.534 110.48C670.894 109.808 674.394 109.276 678.034 108.884C681.73 108.492 685.314 108.296 688.786 108.296C690.802 108.296 692.622 108.464 694.246 108.8C695.926 109.08 697.242 109.668 698.194 110.564C699.202 111.404 699.706 112.72 699.706 114.512C699.706 116.024 699.202 117.144 698.194 117.872C697.242 118.544 695.954 118.908 694.33 118.964C691.082 119.02 687.61 119.272 683.914 119.72C680.218 120.168 676.578 120.672 672.994 121.232C669.466 121.736 666.302 122.128 663.502 122.408C662.606 124.032 661.738 125.712 660.898 127.448C660.114 129.128 659.442 130.696 658.882 132.152C658.378 133.608 658.126 134.784 658.126 135.68C658.126 137.248 658.798 138.2 660.142 138.536C661.486 138.872 663.082 139.096 664.93 139.208C667.114 139.376 669.298 139.656 671.482 140.048C673.666 140.384 675.654 141 677.446 141.896C679.294 142.792 680.778 144.136 681.898 145.928C683.018 147.664 683.578 149.988 683.578 152.9C683.578 155.644 682.794 158.416 681.226 161.216C679.714 164.016 677.642 166.704 675.01 169.28C672.434 171.8 669.522 174.04 666.274 176C663.082 178.016 659.75 179.612 656.278 180.788C652.862 181.964 649.586 182.552 646.45 182.552ZM708.958 180.284C706.55 180.284 704.842 179.948 703.834 179.276C702.882 178.604 702.406 177.624 702.406 176.336C702.406 175.216 702.798 174.264 703.582 173.48C704.366 172.64 706.102 171.8 708.79 170.96C711.926 170.008 714.894 168.916 717.694 167.684C720.55 166.396 722.874 164.996 724.666 163.484C726.514 161.972 727.438 160.376 727.438 158.696C727.438 157.576 727.046 156.764 726.262 156.26C725.534 155.756 724.666 155.504 723.658 155.504C722.818 155.504 721.586 155.644 719.962 155.924C718.394 156.148 716.658 156.456 714.754 156.848C712.85 157.184 711.002 157.492 709.21 157.772C707.474 157.996 705.99 158.108 704.758 158.108C701.846 158.108 699.69 157.464 698.29 156.176C696.89 154.832 696.19 153.124 696.19 151.052C696.19 149.932 696.778 148.392 697.954 146.432C699.13 144.472 700.698 142.316 702.658 139.964C704.618 137.612 706.802 135.26 709.21 132.908C711.618 130.556 714.054 128.4 716.518 126.44C719.038 124.424 721.418 122.828 723.658 121.652C725.898 120.42 727.802 119.804 729.37 119.804C731.162 119.804 732.59 120.364 733.654 121.484C734.774 122.604 735.334 124.116 735.334 126.02C735.334 126.916 735.25 127.896 735.082 128.96C734.914 129.968 734.494 130.892 733.822 131.732C733.15 132.516 732.114 133.076 730.714 133.412C729.314 133.748 727.41 133.692 725.002 133.244C723.098 134.644 721.11 136.184 719.038 137.864C717.022 139.488 715.118 141.196 713.326 142.988C711.534 144.724 710.05 146.432 708.874 148.112C710.946 147.44 713.298 146.908 715.93 146.516C718.562 146.068 721.222 145.844 723.91 145.844C727.158 145.844 729.79 146.432 731.806 147.608C733.878 148.728 735.39 150.24 736.342 152.144C737.35 154.048 737.854 156.148 737.854 158.444C737.854 161.02 737.014 163.596 735.334 166.172C733.654 168.748 731.414 171.1 728.614 173.228C725.814 175.356 722.706 177.064 719.29 178.352C715.874 179.64 712.43 180.284 708.958 180.284Z" fill="white"/>
</g>
<defs>
<filter id="filter0_d_60_569" x="528.512" y="94.2041" width="226.343" height="128.952" filterUnits="userSpaceOnUse" color-interpolation-filters="sRGB">
<feFlood flood-opacity="0" result="BackgroundImageFix"/>
<feColorMatrix in="SourceAlpha" type="matrix" values="0 0 0 0 0 0 0 0 0 0 0 0 0 0 0 0 0 0 127 0" result="hardAlpha"/>
<feOffset dx="2" dy="2"/>
<feGaussianBlur stdDeviation="7.5"/>
<feComposite in2="hardAlpha" operator="out"/>
<feColorMatrix type="matrix" values="0 0 0 0 0 0 0 0 0 0 0 0 0 0 0 0 0 0 0.75 0"/>
<feBlend mode="normal" in2="BackgroundImageFix" result="effect1_dropShadow_60_569"/>
<feBlend mode="normal" in="SourceGraphic" in2="effect1_dropShadow_60_569" result="shape"/>
</filter>
<linearGradient id="paint0_linear_60_569" x1="130" y1="102.5" x2="644" y2="616.5" gradientUnits="userSpaceOnUse">
<stop stop-color="#9528B3" stop-opacity="0.9"/>
<stop offset="1" stop-color="#9528B3" stop-opacity="0.75"/>
</linearGradient>
<clipPath id="clip0_60_569">
<rect width="463" height="494" fill="white" transform="translate(142 126)"/>
</clipPath>
</defs>
</svg>
