<svg width="768" height="746" viewBox="0 0 768 746" fill="none" xmlns="http://www.w3.org/2000/svg">
<circle cx="373" cy="373" r="363" fill="url(#paint0_linear_60_482)" fill-opacity="0.5" stroke="white" stroke-width="20"/>
<circle cx="648.5" cy="144.5" r="117" fill="white" fill-opacity="0.95" stroke="white" stroke-width="5"/>
<g clip-path="url(#clip0_60_482)">
<path d="M414.422 573.28C411.671 569.954 406.914 569.634 403.791 572.571C382.314 592.792 354.691 603.93 326.014 603.93C261.167 603.93 208.411 547.64 208.411 478.452V402.495H245.981C250.139 402.495 253.512 398.897 253.512 394.46C253.512 390.023 250.139 386.425 245.981 386.425H236.032V363.226H248.756C252.915 363.226 256.287 359.628 256.287 355.191V280.016C256.287 275.579 252.915 271.981 248.756 271.981H236.032V251.457H248.756C252.915 251.457 256.287 247.859 256.287 243.421V189.86C256.287 173.512 243.821 160.211 228.499 160.211C213.177 160.211 200.71 173.511 200.71 189.86V243.421C200.71 247.859 204.082 251.457 208.241 251.457H220.97V271.981H208.241C204.082 271.981 200.71 275.579 200.71 280.016V355.191C200.71 359.628 204.082 363.226 208.241 363.226H220.97V386.425H200.88C196.721 386.425 193.349 390.023 193.349 394.46V478.452C193.349 556.502 252.863 620 326.014 620C358.365 620 389.526 607.435 413.758 584.622C416.876 581.685 417.174 576.608 414.422 573.28ZM215.772 235.386V189.86C215.772 182.373 221.481 176.282 228.498 176.282C235.514 176.282 241.224 182.374 241.224 189.86V235.387L215.772 235.386ZM215.772 347.156V288.05H241.225V347.156H215.772Z" fill="white"/>
<path d="M546.12 398.857H524.206V371.732H546.118C550.278 371.732 553.649 368.135 553.649 363.698V302.832C553.649 281.079 537.063 263.381 516.675 263.381C496.287 263.381 479.7 281.078 479.7 302.832V363.698C479.7 368.135 483.072 371.733 487.231 371.733H509.144V398.858H487.231C483.072 398.858 479.7 402.456 479.7 406.893V446.204H458.679V394.46C458.679 390.023 455.308 386.425 451.148 386.425H438.422V363.226H451.148C455.308 363.226 458.679 359.628 458.679 355.191V268.613C458.679 264.175 455.308 260.577 451.148 260.577H438.422V240.053H451.148C455.308 240.053 458.679 236.455 458.679 232.018V178.457C458.679 162.108 446.214 148.808 430.891 148.808C415.568 148.808 403.102 162.108 403.102 178.457V232.019C403.102 236.456 406.473 240.054 410.633 240.054H423.36V260.578H410.633C406.473 260.578 403.102 264.176 403.102 268.614V355.192C403.102 359.629 406.473 363.227 410.633 363.227H423.36V386.426H370.957V363.226H383.683C387.843 363.226 391.214 359.628 391.214 355.191V322.935C391.214 318.498 387.843 314.9 383.683 314.9C379.523 314.9 376.152 318.498 376.152 322.935V347.157H350.699V270.947H376.152V296.152C376.152 300.589 379.523 304.187 383.683 304.187C387.843 304.187 391.214 300.589 391.214 296.152V262.911C391.214 258.474 387.843 254.876 383.683 254.876H370.957V234.352H383.683C387.843 234.352 391.214 230.754 391.214 226.317V155.649C391.216 139.3 378.75 126 363.428 126C348.105 126 335.64 139.3 335.64 155.649V226.316C335.64 230.753 339.012 234.351 343.171 234.351H355.897V254.875H343.171C339.012 254.875 335.64 258.473 335.64 262.91V355.191C335.64 359.628 339.012 363.226 343.171 363.226H355.897V386.425H303.494V363.226H316.22C320.379 363.226 323.751 359.628 323.751 355.191V268.613C323.751 264.175 320.379 260.577 316.22 260.577H303.494V240.053H316.22C320.379 240.053 323.751 236.455 323.751 232.018V161.351C323.751 145.003 311.285 131.702 295.963 131.702C280.641 131.702 268.175 145.003 268.175 161.351V232.018C268.175 236.455 271.547 240.053 275.706 240.053H288.432V260.577H275.706C271.547 260.577 268.175 264.175 268.175 268.613V355.191C268.175 359.628 271.547 363.226 275.706 363.226H288.432V386.425H271.083C266.924 386.425 263.552 390.023 263.552 394.46C263.552 398.897 266.924 402.495 271.083 402.495H443.619V478.452C443.619 507.402 434.643 534.596 417.661 557.094C415.051 560.55 415.562 565.608 418.803 568.391C420.195 569.587 421.863 570.169 423.522 570.169C425.723 570.169 427.904 569.143 429.392 567.173C448.279 542.151 458.681 510.641 458.681 478.452V462.274H479.702V499.174C479.702 503.611 483.073 507.209 487.233 507.209C523.856 507.209 553.651 475.419 553.651 436.344V406.893C553.651 402.455 550.28 398.857 546.12 398.857ZM350.7 218.281V155.649C350.7 148.161 356.41 142.07 363.427 142.07C370.443 142.07 376.153 148.162 376.153 155.649V218.281H350.7ZM283.236 223.983V161.351H283.236C283.236 153.864 288.946 147.773 295.963 147.773C302.979 147.773 308.689 153.865 308.689 161.351V223.983H283.236ZM283.236 347.156V276.647H308.69V347.156H283.236ZM418.166 223.983V178.457C418.166 170.969 423.875 164.878 430.893 164.878C437.909 164.878 443.619 170.97 443.619 178.457V223.984L418.166 223.983ZM418.166 347.156V276.647H443.619V347.156H418.166ZM494.761 355.664V302.833H494.762C494.762 289.941 504.593 279.453 516.675 279.453C528.758 279.453 538.587 289.941 538.587 302.833V355.664H494.761ZM538.587 436.345C538.587 463.829 519.523 486.653 494.761 490.552V414.928H538.587V436.345Z" fill="white"/>
<path d="M270.709 431.748C251.527 431.748 235.924 448.396 235.924 468.861C235.924 489.325 251.527 505.974 270.709 505.974C289.888 505.974 305.492 489.326 305.492 468.861C305.491 448.396 289.888 431.748 270.709 431.748ZM270.707 489.904C259.831 489.904 250.984 480.463 250.984 468.861C250.985 457.257 259.833 447.818 270.707 447.818C281.581 447.818 290.429 457.258 290.429 468.861C290.429 480.463 281.582 489.904 270.707 489.904Z" fill="white"/>
<path d="M381.322 431.748C362.142 431.748 346.537 448.396 346.537 468.861C346.537 489.325 362.141 505.974 381.322 505.974C400.503 505.974 416.106 489.326 416.106 468.861C416.106 448.396 400.503 431.748 381.322 431.748ZM381.324 489.904C370.448 489.904 361.601 480.463 361.601 468.861C361.601 457.257 370.449 447.818 381.324 447.818C392.198 447.818 401.046 457.258 401.046 468.861C401.046 480.463 392.198 489.904 381.324 489.904Z" fill="white"/>
</g>
<g filter="url(#filter0_d_60_482)">
<path d="M592.248 152.816C592.248 154.944 591.408 157.184 589.728 159.536C588.048 161.832 585.864 164.1 583.176 166.34C580.488 168.58 577.548 170.708 574.356 172.724C571.22 174.684 568.112 176.42 565.032 177.932C562.008 179.5 559.32 180.704 556.968 181.544C554.616 182.44 552.908 182.888 551.844 182.888C549.828 182.888 548.176 182.524 546.888 181.796C545.6 181.068 544.956 179.78 544.956 177.932C544.956 176.532 545.292 175.44 545.964 174.656C546.636 173.872 547.588 173.2 548.82 172.64C551.788 171.296 554.84 169.868 557.976 168.356C561.112 166.844 564.108 165.304 566.964 163.736C569.876 162.168 572.452 160.628 574.692 159.116C576.988 157.604 578.808 156.176 580.152 154.832C581.496 153.432 582.168 152.2 582.168 151.136C582.168 149.904 581.692 149.008 580.74 148.448C579.844 147.888 578.64 147.524 577.128 147.356C575.616 147.132 573.936 147.02 572.088 147.02C569.568 147.02 567.468 147.132 565.788 147.356C564.108 147.58 562.652 147.804 561.42 148.028C560.244 148.196 559.152 148.28 558.144 148.28C556.464 148.28 555.26 147.916 554.532 147.188C553.804 146.404 553.44 145.368 553.44 144.08C553.44 143.016 553.832 141.924 554.616 140.804C555.4 139.684 556.66 138.844 558.396 138.284C562.036 137.108 565.256 135.82 568.056 134.42C570.912 132.964 573.124 131.368 574.692 129.632C576.316 127.896 577.128 126.02 577.128 124.004C577.128 123.388 576.82 122.968 576.204 122.744C575.644 122.52 574.468 122.408 572.676 122.408C571.052 122.408 569.232 122.604 567.216 122.996C565.256 123.388 563.324 123.864 561.42 124.424C559.572 124.928 557.976 125.376 556.632 125.768C555.344 126.16 554.532 126.356 554.196 126.356C551.732 126.356 550.5 125.124 550.5 122.66C550.5 122.1 550.92 121.204 551.76 119.972C552.6 118.74 553.86 117.48 555.54 116.192C557.22 114.848 559.292 113.7 561.756 112.748C564.276 111.796 567.188 111.32 570.492 111.32C573.74 111.32 576.568 111.964 578.976 113.252C581.44 114.54 583.344 116.304 584.688 118.544C586.088 120.728 586.788 123.22 586.788 126.02C586.788 128.148 586.116 130.276 584.772 132.404C583.484 134.476 581.86 136.324 579.9 137.948C583.652 139.068 586.648 141 588.888 143.744C591.128 146.432 592.248 149.456 592.248 152.816ZM598.587 204.14C593.547 205.484 591.027 204.616 591.027 201.536C591.027 199.912 591.979 198.568 593.883 197.504C596.683 195.768 598.951 193.22 600.687 189.86C602.367 186.5 603.683 182.692 604.635 178.436C605.643 174.18 606.427 169.868 606.987 165.5C607.267 163.708 607.799 162.532 608.583 161.972C609.367 161.356 610.207 161.048 611.103 161.048C612.839 161.048 614.463 161.748 615.975 163.148C617.487 164.492 618.243 166.732 618.243 169.868C618.243 174.124 617.599 178.184 616.311 182.048C615.079 185.912 613.455 189.384 611.439 192.464C609.479 195.6 607.351 198.176 605.055 200.192C602.759 202.208 600.603 203.524 598.587 204.14ZM642.02 182.552C639.892 182.552 637.988 181.964 636.308 180.788C634.684 179.668 633.872 177.988 633.872 175.748C633.872 173.676 634.488 172.192 635.72 171.296C636.952 170.344 638.604 169.868 640.676 169.868C641.516 169.868 642.356 169.98 643.196 170.204C644.036 170.372 645.604 170.596 647.9 170.876C651.764 168.916 655.18 167.012 658.148 165.164C661.116 163.26 663.44 161.384 665.12 159.536C666.8 157.632 667.64 155.7 667.64 153.74C667.64 151.892 666.912 150.8 665.456 150.464C664.056 150.072 662.348 149.848 660.332 149.792C660.108 149.792 659.856 149.792 659.576 149.792C659.352 149.736 659.1 149.708 658.82 149.708C655.964 149.54 653.276 149.204 650.756 148.7C648.292 148.14 646.276 147.16 644.708 145.76C643.14 144.304 642.356 142.148 642.356 139.292C642.356 136.1 642.776 132.964 643.616 129.884C644.456 126.748 645.52 123.864 646.808 121.232C646.304 120.784 645.996 120.252 645.884 119.636C645.828 118.964 645.8 118.292 645.8 117.62C645.8 116.948 646.304 116.276 647.312 115.604C648.32 114.932 649.692 114.26 651.428 113.588C652.884 111.628 654.284 110.088 655.628 108.968C656.972 107.792 658.036 107.204 658.82 107.204C659.772 107.204 660.612 107.512 661.34 108.128C662.124 108.744 662.712 109.528 663.104 110.48C666.464 109.808 669.964 109.276 673.604 108.884C677.3 108.492 680.884 108.296 684.356 108.296C686.372 108.296 688.192 108.464 689.816 108.8C691.496 109.08 692.812 109.668 693.764 110.564C694.772 111.404 695.276 112.72 695.276 114.512C695.276 116.024 694.772 117.144 693.764 117.872C692.812 118.544 691.524 118.908 689.9 118.964C686.652 119.02 683.18 119.272 679.484 119.72C675.788 120.168 672.148 120.672 668.564 121.232C665.036 121.736 661.872 122.128 659.072 122.408C658.176 124.032 657.308 125.712 656.468 127.448C655.684 129.128 655.012 130.696 654.452 132.152C653.948 133.608 653.696 134.784 653.696 135.68C653.696 137.248 654.368 138.2 655.712 138.536C657.056 138.872 658.652 139.096 660.5 139.208C662.684 139.376 664.868 139.656 667.052 140.048C669.236 140.384 671.224 141 673.016 141.896C674.864 142.792 676.348 144.136 677.468 145.928C678.588 147.664 679.148 149.988 679.148 152.9C679.148 155.644 678.364 158.416 676.796 161.216C675.284 164.016 673.212 166.704 670.58 169.28C668.004 171.8 665.092 174.04 661.844 176C658.652 178.016 655.32 179.612 651.848 180.788C648.432 181.964 645.156 182.552 642.02 182.552ZM704.528 180.284C702.12 180.284 700.412 179.948 699.404 179.276C698.452 178.604 697.976 177.624 697.976 176.336C697.976 175.216 698.368 174.264 699.152 173.48C699.936 172.64 701.672 171.8 704.36 170.96C707.496 170.008 710.464 168.916 713.264 167.684C716.12 166.396 718.444 164.996 720.236 163.484C722.084 161.972 723.008 160.376 723.008 158.696C723.008 157.576 722.616 156.764 721.832 156.26C721.104 155.756 720.236 155.504 719.228 155.504C718.388 155.504 717.156 155.644 715.532 155.924C713.964 156.148 712.228 156.456 710.324 156.848C708.42 157.184 706.572 157.492 704.78 157.772C703.044 157.996 701.56 158.108 700.328 158.108C697.416 158.108 695.26 157.464 693.86 156.176C692.46 154.832 691.76 153.124 691.76 151.052C691.76 149.932 692.348 148.392 693.524 146.432C694.7 144.472 696.268 142.316 698.228 139.964C700.188 137.612 702.372 135.26 704.78 132.908C707.188 130.556 709.624 128.4 712.088 126.44C714.608 124.424 716.988 122.828 719.228 121.652C721.468 120.42 723.372 119.804 724.94 119.804C726.732 119.804 728.16 120.364 729.224 121.484C730.344 122.604 730.904 124.116 730.904 126.02C730.904 126.916 730.82 127.896 730.652 128.96C730.484 129.968 730.064 130.892 729.392 131.732C728.72 132.516 727.684 133.076 726.284 133.412C724.884 133.748 722.98 133.692 720.572 133.244C718.668 134.644 716.68 136.184 714.608 137.864C712.592 139.488 710.688 141.196 708.896 142.988C707.104 144.724 705.62 146.432 704.444 148.112C706.516 147.44 708.868 146.908 711.5 146.516C714.132 146.068 716.792 145.844 719.48 145.844C722.728 145.844 725.36 146.432 727.376 147.608C729.448 148.728 730.96 150.24 731.912 152.144C732.92 154.048 733.424 156.148 733.424 158.444C733.424 161.02 732.584 163.596 730.904 166.172C729.224 168.748 726.984 171.1 724.184 173.228C721.384 175.356 718.276 177.064 714.86 178.352C711.444 179.64 708 180.284 704.528 180.284Z" fill="white"/>
</g>
<defs>
<filter id="filter0_d_60_482" x="531.956" y="94.2041" width="218.469" height="128.952" filterUnits="userSpaceOnUse" color-interpolation-filters="sRGB">
<feFlood flood-opacity="0" result="BackgroundImageFix"/>
<feColorMatrix in="SourceAlpha" type="matrix" values="0 0 0 0 0 0 0 0 0 0 0 0 0 0 0 0 0 0 127 0" result="hardAlpha"/>
<feOffset dx="2" dy="2"/>
<feGaussianBlur stdDeviation="7.5"/>
<feComposite in2="hardAlpha" operator="out"/>
<feColorMatrix type="matrix" values="0 0 0 0 0 0 0 0 0 0 0 0 0 0 0 0 0 0 0.75 0"/>
<feBlend mode="normal" in2="BackgroundImageFix" result="effect1_dropShadow_60_482"/>
<feBlend mode="normal" in="SourceGraphic" in2="effect1_dropShadow_60_482" result="shape"/>
</filter>
<linearGradient id="paint0_linear_60_482" x1="130" y1="102.5" x2="644" y2="616.5" gradientUnits="userSpaceOnUse">
<stop stop-color="white" stop-opacity="0.9"/>
<stop offset="1" stop-color="white" stop-opacity="0.75"/>
</linearGradient>
<clipPath id="clip0_60_482">
<rect width="463" height="494" fill="white" transform="translate(142 126)"/>
</clipPath>
</defs>
</svg>
