<svg width="768" height="746" viewBox="0 0 768 746" fill="none" xmlns="http://www.w3.org/2000/svg">
<circle cx="373" cy="373" r="363" fill="url(#paint0_linear_60_447)" fill-opacity="0.5" stroke="white" stroke-width="20"/>
<circle cx="648.5" cy="144.5" r="117" fill="white" fill-opacity="0.95" stroke="white" stroke-width="5"/>
<g clip-path="url(#clip0_60_447)">
<path d="M414.422 573.28C411.671 569.954 406.914 569.634 403.791 572.571C382.314 592.792 354.691 603.93 326.014 603.93C261.167 603.93 208.411 547.64 208.411 478.452V402.495H245.981C250.139 402.495 253.512 398.897 253.512 394.46C253.512 390.023 250.139 386.425 245.981 386.425H236.032V363.226H248.756C252.915 363.226 256.287 359.628 256.287 355.191V280.016C256.287 275.579 252.915 271.981 248.756 271.981H236.032V251.457H248.756C252.915 251.457 256.287 247.859 256.287 243.421V189.86C256.287 173.512 243.821 160.211 228.499 160.211C213.177 160.211 200.71 173.511 200.71 189.86V243.421C200.71 247.859 204.082 251.457 208.241 251.457H220.97V271.981H208.241C204.082 271.981 200.71 275.579 200.71 280.016V355.191C200.71 359.628 204.082 363.226 208.241 363.226H220.97V386.425H200.88C196.721 386.425 193.349 390.023 193.349 394.46V478.452C193.349 556.502 252.863 620 326.014 620C358.365 620 389.526 607.435 413.758 584.622C416.876 581.685 417.174 576.608 414.422 573.28ZM215.772 235.386V189.86C215.772 182.373 221.481 176.282 228.498 176.282C235.514 176.282 241.224 182.374 241.224 189.86V235.387L215.772 235.386ZM215.772 347.156V288.05H241.225V347.156H215.772Z" fill="white"/>
<path d="M546.12 398.857H524.206V371.732H546.118C550.278 371.732 553.649 368.135 553.649 363.698V302.832C553.649 281.079 537.063 263.381 516.675 263.381C496.287 263.381 479.7 281.078 479.7 302.832V363.698C479.7 368.135 483.072 371.733 487.231 371.733H509.144V398.858H487.231C483.072 398.858 479.7 402.456 479.7 406.893V446.204H458.679V394.46C458.679 390.023 455.308 386.425 451.148 386.425H438.422V363.226H451.148C455.308 363.226 458.679 359.628 458.679 355.191V268.613C458.679 264.175 455.308 260.577 451.148 260.577H438.422V240.053H451.148C455.308 240.053 458.679 236.455 458.679 232.018V178.457C458.679 162.108 446.214 148.808 430.891 148.808C415.568 148.808 403.102 162.108 403.102 178.457V232.019C403.102 236.456 406.473 240.054 410.633 240.054H423.36V260.578H410.633C406.473 260.578 403.102 264.176 403.102 268.614V355.192C403.102 359.629 406.473 363.227 410.633 363.227H423.36V386.426H370.957V363.226H383.683C387.843 363.226 391.214 359.628 391.214 355.191V322.935C391.214 318.498 387.843 314.9 383.683 314.9C379.523 314.9 376.152 318.498 376.152 322.935V347.157H350.699V270.947H376.152V296.152C376.152 300.589 379.523 304.187 383.683 304.187C387.843 304.187 391.214 300.589 391.214 296.152V262.911C391.214 258.474 387.843 254.876 383.683 254.876H370.957V234.352H383.683C387.843 234.352 391.214 230.754 391.214 226.317V155.649C391.216 139.3 378.75 126 363.428 126C348.105 126 335.64 139.3 335.64 155.649V226.316C335.64 230.753 339.012 234.351 343.171 234.351H355.897V254.875H343.171C339.012 254.875 335.64 258.473 335.64 262.91V355.191C335.64 359.628 339.012 363.226 343.171 363.226H355.897V386.425H303.494V363.226H316.22C320.379 363.226 323.751 359.628 323.751 355.191V268.613C323.751 264.175 320.379 260.577 316.22 260.577H303.494V240.053H316.22C320.379 240.053 323.751 236.455 323.751 232.018V161.351C323.751 145.003 311.285 131.702 295.963 131.702C280.641 131.702 268.175 145.003 268.175 161.351V232.018C268.175 236.455 271.547 240.053 275.706 240.053H288.432V260.577H275.706C271.547 260.577 268.175 264.175 268.175 268.613V355.191C268.175 359.628 271.547 363.226 275.706 363.226H288.432V386.425H271.083C266.924 386.425 263.552 390.023 263.552 394.46C263.552 398.897 266.924 402.495 271.083 402.495H443.619V478.452C443.619 507.402 434.643 534.596 417.661 557.094C415.051 560.55 415.562 565.608 418.803 568.391C420.195 569.587 421.863 570.169 423.522 570.169C425.723 570.169 427.904 569.143 429.392 567.173C448.279 542.151 458.681 510.641 458.681 478.452V462.274H479.702V499.174C479.702 503.611 483.073 507.209 487.233 507.209C523.856 507.209 553.651 475.419 553.651 436.344V406.893C553.651 402.455 550.28 398.857 546.12 398.857ZM350.7 218.281V155.649C350.7 148.161 356.41 142.07 363.427 142.07C370.443 142.07 376.153 148.162 376.153 155.649V218.281H350.7ZM283.236 223.983V161.351H283.236C283.236 153.864 288.946 147.773 295.963 147.773C302.979 147.773 308.689 153.865 308.689 161.351V223.983H283.236ZM283.236 347.156V276.647H308.69V347.156H283.236ZM418.166 223.983V178.457C418.166 170.969 423.875 164.878 430.893 164.878C437.909 164.878 443.619 170.97 443.619 178.457V223.984L418.166 223.983ZM418.166 347.156V276.647H443.619V347.156H418.166ZM494.761 355.664V302.833H494.762C494.762 289.941 504.593 279.453 516.675 279.453C528.758 279.453 538.587 289.941 538.587 302.833V355.664H494.761ZM538.587 436.345C538.587 463.829 519.523 486.653 494.761 490.552V414.928H538.587V436.345Z" fill="white"/>
<path d="M270.709 431.748C251.527 431.748 235.924 448.396 235.924 468.861C235.924 489.325 251.527 505.974 270.709 505.974C289.888 505.974 305.492 489.326 305.492 468.861C305.491 448.396 289.888 431.748 270.709 431.748ZM270.707 489.904C259.831 489.904 250.984 480.463 250.984 468.861C250.985 457.257 259.833 447.818 270.707 447.818C281.581 447.818 290.429 457.258 290.429 468.861C290.429 480.463 281.582 489.904 270.707 489.904Z" fill="white"/>
<path d="M381.322 431.748C362.142 431.748 346.537 448.396 346.537 468.861C346.537 489.325 362.141 505.974 381.322 505.974C400.503 505.974 416.106 489.326 416.106 468.861C416.106 448.396 400.503 431.748 381.322 431.748ZM381.324 489.904C370.448 489.904 361.601 480.463 361.601 468.861C361.601 457.257 370.449 447.818 381.324 447.818C392.198 447.818 401.046 457.258 401.046 468.861C401.046 480.463 392.198 489.904 381.324 489.904Z" fill="white"/>
</g>
<g filter="url(#filter0_d_60_447)">
<path d="M625.372 182.552C623.412 182.552 621.984 181.88 621.088 180.536C620.248 179.248 619.828 177.568 619.828 175.496C619.828 173.256 619.996 171.268 620.332 169.532C620.724 167.796 621.172 166.032 621.676 164.24C618.932 164.464 616.16 164.688 613.36 164.912C610.56 165.08 607.76 165.22 604.96 165.332C603.952 166.116 602.888 166.732 601.768 167.18C600.648 167.628 599.36 167.852 597.904 167.852C595.776 167.852 594.096 167.404 592.864 166.508C591.632 165.612 591.016 164.184 591.016 162.224C591.016 159.984 591.688 158.332 593.032 157.268C594.432 156.148 596.196 155.364 598.324 154.916C601.124 151.5 604.176 148.084 607.48 144.668C610.784 141.252 614.06 137.864 617.308 134.504C620.556 131.144 623.468 127.84 626.044 124.592C628.676 121.288 630.664 118.068 632.008 114.932C632.68 113.364 633.604 112.272 634.78 111.656C636.012 110.984 637.328 110.648 638.728 110.648C640.688 110.648 642.004 111.404 642.676 112.916C643.404 114.428 643.768 116.248 643.768 118.376C643.768 118.88 643.572 120.168 643.18 122.24C642.788 124.256 642.228 126.86 641.5 130.052C640.828 133.188 640.044 136.688 639.148 140.552C638.308 144.36 637.44 148.308 636.544 152.396C640.24 152.004 643.432 151.696 646.12 151.472C648.808 151.192 650.516 151.052 651.244 151.052C652.868 151.052 654.184 151.22 655.192 151.556C656.2 151.892 656.704 152.732 656.704 154.076C656.704 155.308 655.92 156.344 654.352 157.184C652.84 157.968 651.188 158.668 649.396 159.284C647.604 159.9 645.448 160.516 642.928 161.132C640.408 161.748 637.468 162.308 634.108 162.812C633.548 165.108 632.988 167.292 632.428 169.364C631.868 171.436 631.336 173.816 630.832 176.504C630.44 178.296 629.852 179.752 629.068 180.872C628.34 181.992 627.108 182.552 625.372 182.552ZM628.396 136.268C625.652 139.628 622.796 142.988 619.828 146.348C616.916 149.652 614.116 152.648 611.428 155.336C613.5 155.056 615.6 154.804 617.728 154.58C619.912 154.356 622.096 154.132 624.28 153.908L628.396 136.268ZM671.743 180.284C669.335 180.284 667.627 179.948 666.619 179.276C665.667 178.604 665.191 177.624 665.191 176.336C665.191 175.216 665.583 174.264 666.367 173.48C667.151 172.64 668.887 171.8 671.575 170.96C674.711 170.008 677.679 168.916 680.479 167.684C683.335 166.396 685.659 164.996 687.451 163.484C689.299 161.972 690.223 160.376 690.223 158.696C690.223 157.576 689.831 156.764 689.047 156.26C688.319 155.756 687.451 155.504 686.443 155.504C685.603 155.504 684.371 155.644 682.747 155.924C681.179 156.148 679.443 156.456 677.539 156.848C675.635 157.184 673.787 157.492 671.995 157.772C670.259 157.996 668.775 158.108 667.543 158.108C664.631 158.108 662.475 157.464 661.075 156.176C659.675 154.832 658.975 153.124 658.975 151.052C658.975 149.932 659.563 148.392 660.739 146.432C661.915 144.472 663.483 142.316 665.443 139.964C667.403 137.612 669.587 135.26 671.995 132.908C674.403 130.556 676.839 128.4 679.303 126.44C681.823 124.424 684.203 122.828 686.443 121.652C688.683 120.42 690.587 119.804 692.155 119.804C693.947 119.804 695.375 120.364 696.439 121.484C697.559 122.604 698.119 124.116 698.119 126.02C698.119 126.916 698.035 127.896 697.867 128.96C697.699 129.968 697.279 130.892 696.607 131.732C695.935 132.516 694.899 133.076 693.499 133.412C692.099 133.748 690.195 133.692 687.787 133.244C685.883 134.644 683.895 136.184 681.823 137.864C679.807 139.488 677.903 141.196 676.111 142.988C674.319 144.724 672.835 146.432 671.659 148.112C673.731 147.44 676.083 146.908 678.715 146.516C681.347 146.068 684.007 145.844 686.695 145.844C689.943 145.844 692.575 146.432 694.591 147.608C696.663 148.728 698.175 150.24 699.127 152.144C700.135 154.048 700.639 156.148 700.639 158.444C700.639 161.02 699.799 163.596 698.119 166.172C696.439 168.748 694.199 171.1 691.399 173.228C688.599 175.356 685.491 177.064 682.075 178.352C678.659 179.64 675.215 180.284 671.743 180.284Z" fill="white"/>
</g>
<defs>
<filter id="filter0_d_60_447" x="578.016" y="97.6479" width="139.624" height="101.904" filterUnits="userSpaceOnUse" color-interpolation-filters="sRGB">
<feFlood flood-opacity="0" result="BackgroundImageFix"/>
<feColorMatrix in="SourceAlpha" type="matrix" values="0 0 0 0 0 0 0 0 0 0 0 0 0 0 0 0 0 0 127 0" result="hardAlpha"/>
<feOffset dx="2" dy="2"/>
<feGaussianBlur stdDeviation="7.5"/>
<feComposite in2="hardAlpha" operator="out"/>
<feColorMatrix type="matrix" values="0 0 0 0 0 0 0 0 0 0 0 0 0 0 0 0 0 0 0.75 0"/>
<feBlend mode="normal" in2="BackgroundImageFix" result="effect1_dropShadow_60_447"/>
<feBlend mode="normal" in="SourceGraphic" in2="effect1_dropShadow_60_447" result="shape"/>
</filter>
<linearGradient id="paint0_linear_60_447" x1="130" y1="102.5" x2="644" y2="616.5" gradientUnits="userSpaceOnUse">
<stop stop-color="white" stop-opacity="0.9"/>
<stop offset="1" stop-color="white" stop-opacity="0.75"/>
</linearGradient>
<clipPath id="clip0_60_447">
<rect width="463" height="494" fill="white" transform="translate(142 126)"/>
</clipPath>
</defs>
</svg>
