<svg width="768" height="746" viewBox="0 0 768 746" fill="none" xmlns="http://www.w3.org/2000/svg">
<circle cx="373" cy="373" r="363" fill="url(#paint0_linear_60_692)" fill-opacity="0.5" stroke="white" stroke-width="20"/>
<circle cx="648.5" cy="144.5" r="117" fill="white" fill-opacity="0.95" stroke="white" stroke-width="5"/>
<g clip-path="url(#clip0_60_692)">
<path d="M414.422 573.281C411.671 569.954 406.914 569.635 403.791 572.572C382.314 592.793 354.691 603.93 326.014 603.93C261.167 603.93 208.411 547.64 208.411 478.452V402.496H245.981C250.139 402.496 253.512 398.898 253.512 394.461C253.512 390.023 250.139 386.425 245.981 386.425H236.032V363.227H248.756C252.915 363.227 256.287 359.629 256.287 355.191V280.017C256.287 275.579 252.915 271.981 248.756 271.981H236.032V251.457H248.756C252.915 251.457 256.287 247.859 256.287 243.422V189.861C256.287 173.512 243.821 160.212 228.499 160.212C213.177 160.212 200.71 173.511 200.71 189.861V243.422C200.71 247.859 204.082 251.457 208.241 251.457H220.97V271.981H208.241C204.082 271.981 200.71 275.579 200.71 280.017V355.191C200.71 359.629 204.082 363.227 208.241 363.227H220.97V386.425H200.88C196.721 386.425 193.349 390.023 193.349 394.461V478.452C193.349 556.502 252.863 620 326.014 620C358.365 620 389.526 607.435 413.758 584.623C416.876 581.686 417.174 576.609 414.422 573.281ZM215.772 235.387V189.861C215.772 182.373 221.481 176.282 228.498 176.282C235.514 176.282 241.224 182.374 241.224 189.861V235.388L215.772 235.387ZM215.772 347.156V288.051H241.225V347.156H215.772Z" fill="white"/>
<path d="M546.12 398.857H524.206V371.732H546.118C550.278 371.732 553.649 368.135 553.649 363.698V302.832C553.649 281.079 537.063 263.381 516.675 263.381C496.287 263.381 479.7 281.078 479.7 302.832V363.698C479.7 368.135 483.072 371.733 487.231 371.733H509.144V398.858H487.231C483.072 398.858 479.7 402.456 479.7 406.893V446.204H458.679V394.46C458.679 390.023 455.308 386.425 451.148 386.425H438.422V363.226H451.148C455.308 363.226 458.679 359.628 458.679 355.191V268.613C458.679 264.175 455.308 260.577 451.148 260.577H438.422V240.053H451.148C455.308 240.053 458.679 236.455 458.679 232.018V178.457C458.679 162.108 446.214 148.808 430.891 148.808C415.568 148.808 403.102 162.108 403.102 178.457V232.019C403.102 236.456 406.473 240.054 410.633 240.054H423.36V260.578H410.633C406.473 260.578 403.102 264.176 403.102 268.614V355.192C403.102 359.629 406.473 363.227 410.633 363.227H423.36V386.426H370.957V363.226H383.683C387.843 363.226 391.214 359.628 391.214 355.191V322.935C391.214 318.498 387.843 314.9 383.683 314.9C379.523 314.9 376.152 318.498 376.152 322.935V347.157H350.699V270.947H376.152V296.152C376.152 300.589 379.523 304.187 383.683 304.187C387.843 304.187 391.214 300.589 391.214 296.152V262.911C391.214 258.474 387.843 254.876 383.683 254.876H370.957V234.352H383.683C387.843 234.352 391.214 230.754 391.214 226.317V155.649C391.216 139.3 378.75 126 363.428 126C348.105 126 335.64 139.3 335.64 155.649V226.316C335.64 230.753 339.012 234.351 343.171 234.351H355.897V254.875H343.171C339.012 254.875 335.64 258.473 335.64 262.91V355.191C335.64 359.628 339.012 363.226 343.171 363.226H355.897V386.425H303.494V363.226H316.22C320.379 363.226 323.751 359.628 323.751 355.191V268.613C323.751 264.175 320.379 260.577 316.22 260.577H303.494V240.053H316.22C320.379 240.053 323.751 236.455 323.751 232.018V161.351C323.751 145.003 311.285 131.702 295.963 131.702C280.641 131.702 268.175 145.003 268.175 161.351V232.018C268.175 236.455 271.547 240.053 275.706 240.053H288.432V260.577H275.706C271.547 260.577 268.175 264.175 268.175 268.613V355.191C268.175 359.628 271.547 363.226 275.706 363.226H288.432V386.425H271.083C266.924 386.425 263.552 390.023 263.552 394.46C263.552 398.897 266.924 402.495 271.083 402.495H443.619V478.452C443.619 507.402 434.643 534.596 417.661 557.094C415.051 560.55 415.562 565.608 418.803 568.391C420.195 569.587 421.863 570.169 423.522 570.169C425.723 570.169 427.904 569.143 429.392 567.173C448.279 542.151 458.681 510.641 458.681 478.452V462.274H479.702V499.174C479.702 503.611 483.073 507.209 487.233 507.209C523.856 507.209 553.651 475.419 553.651 436.344V406.893C553.651 402.455 550.28 398.857 546.12 398.857ZM350.7 218.281V155.649C350.7 148.161 356.41 142.07 363.427 142.07C370.443 142.07 376.153 148.162 376.153 155.649V218.281H350.7ZM283.236 223.983V161.351H283.236C283.236 153.864 288.946 147.773 295.963 147.773C302.979 147.773 308.689 153.865 308.689 161.351V223.983H283.236ZM283.236 347.156V276.647H308.69V347.156H283.236ZM418.166 223.983V178.457C418.166 170.969 423.875 164.878 430.893 164.878C437.909 164.878 443.619 170.97 443.619 178.457V223.984L418.166 223.983ZM418.166 347.156V276.647H443.619V347.156H418.166ZM494.761 355.664V302.833H494.762C494.762 289.941 504.593 279.453 516.675 279.453C528.758 279.453 538.587 289.941 538.587 302.833V355.664H494.761ZM538.587 436.345C538.587 463.829 519.523 486.653 494.761 490.552V414.928H538.587V436.345Z" fill="white"/>
<path d="M270.709 431.747C251.527 431.747 235.924 448.395 235.924 468.861C235.924 489.324 251.527 505.973 270.709 505.973C289.888 505.973 305.492 489.325 305.492 468.861C305.491 448.395 289.888 431.747 270.709 431.747ZM270.707 489.903C259.831 489.903 250.984 480.463 250.984 468.861C250.985 457.257 259.833 447.818 270.707 447.818C281.581 447.818 290.429 457.258 290.429 468.861C290.429 480.463 281.582 489.903 270.707 489.903Z" fill="white"/>
<path d="M381.322 431.747C362.142 431.747 346.537 448.395 346.537 468.861C346.537 489.324 362.141 505.973 381.322 505.973C400.503 505.973 416.106 489.325 416.106 468.861C416.106 448.395 400.503 431.747 381.322 431.747ZM381.324 489.903C370.448 489.903 361.601 480.463 361.601 468.861C361.601 457.257 370.449 447.818 381.324 447.818C392.198 447.818 401.046 457.258 401.046 468.861C401.046 480.463 392.198 489.903 381.324 489.903Z" fill="white"/>
</g>
<g filter="url(#filter0_d_60_692)">
<path d="M568.644 177.428C564.948 177.428 561.504 176.504 558.312 174.656C555.12 172.752 552.544 169.952 550.584 166.256C548.624 162.56 547.644 157.968 547.644 152.48C547.644 148.784 548.288 145.256 549.576 141.896C550.864 138.48 552.32 135.456 553.944 132.824C553.664 132.096 553.524 131.256 553.524 130.304C553.524 128.12 554.14 125.964 555.372 123.836C556.66 121.652 558.34 119.664 560.412 117.872C562.54 116.08 564.92 114.652 567.552 113.588C570.184 112.524 572.872 111.992 575.616 111.992C579.872 111.992 583.624 113.056 586.872 115.184C590.12 117.312 592.668 120.28 594.516 124.088C596.364 127.84 597.288 132.18 597.288 137.108C597.288 143.044 596.504 148.476 594.936 153.404C593.424 158.332 591.324 162.588 588.636 166.172C586.004 169.756 582.952 172.528 579.48 174.488C576.064 176.448 572.452 177.428 568.644 177.428ZM569.148 125.18C569.26 125.516 569.316 125.908 569.316 126.356C569.316 127.196 569.148 127.896 568.812 128.456C568.476 129.016 568.028 129.632 567.468 130.304C566.74 131.144 565.9 132.432 564.948 134.168C564.052 135.848 563.184 137.808 562.344 140.048C561.504 142.288 560.804 144.612 560.244 147.02C559.74 149.372 559.488 151.612 559.488 153.74C559.488 157.492 560.188 160.432 561.588 162.56C562.988 164.688 565.06 165.752 567.804 165.752C570.1 165.752 572.312 164.996 574.44 163.484C576.624 161.972 578.556 159.928 580.236 157.352C581.916 154.72 583.232 151.724 584.184 148.364C585.192 145.004 585.696 141.448 585.696 137.696C585.696 135.008 585.332 132.572 584.604 130.388C583.876 128.204 582.84 126.468 581.496 125.18C580.152 123.892 578.556 123.248 576.708 123.248C575.196 123.248 573.796 123.444 572.508 123.836C571.276 124.172 570.156 124.62 569.148 125.18ZM603.099 204.14C598.059 205.484 595.539 204.616 595.539 201.536C595.539 199.912 596.491 198.568 598.395 197.504C601.195 195.768 603.463 193.22 605.199 189.86C606.879 186.5 608.195 182.692 609.147 178.436C610.155 174.18 610.939 169.868 611.499 165.5C611.779 163.708 612.311 162.532 613.095 161.972C613.879 161.356 614.719 161.048 615.615 161.048C617.351 161.048 618.975 161.748 620.487 163.148C621.999 164.492 622.755 166.732 622.755 169.868C622.755 174.124 622.111 178.184 620.823 182.048C619.591 185.912 617.967 189.384 615.951 192.464C613.991 195.6 611.863 198.176 609.567 200.192C607.271 202.208 605.115 203.524 603.099 204.14ZM657.817 179.36C653.505 179.36 650.089 178.8 647.569 177.68C645.049 176.616 643.229 175.104 642.109 173.144C641.045 171.184 640.513 168.916 640.513 166.34C640.513 164.268 641.297 162.056 642.865 159.704C644.489 157.296 646.673 154.776 649.417 152.144C652.161 149.456 655.213 146.712 658.573 143.912C654.485 142.288 651.685 140.636 650.173 138.956C648.717 137.22 647.989 135.232 647.989 132.992C647.989 131.592 648.689 129.912 650.089 127.952C651.545 125.936 653.421 123.892 655.717 121.82C658.069 119.692 660.561 117.732 663.193 115.94C665.881 114.092 668.485 112.608 671.005 111.488C673.581 110.312 675.765 109.724 677.557 109.724C679.405 109.724 680.945 110.144 682.177 110.984C683.409 111.768 684.025 113.056 684.025 114.848C684.025 115.576 683.829 116.416 683.437 117.368C683.045 118.32 682.317 119.132 681.253 119.804C680.245 120.476 678.705 120.812 676.633 120.812C676.017 120.812 675.317 120.728 674.533 120.56C672.125 121.792 669.829 123.136 667.645 124.592C665.461 126.048 663.585 127.56 662.017 129.128C660.449 130.696 659.385 132.236 658.825 133.748C660.057 134.252 661.345 134.756 662.689 135.26C664.089 135.764 665.573 136.268 667.141 136.772C668.261 135.876 669.381 134.98 670.501 134.084C671.677 133.132 672.825 132.18 673.945 131.228C678.313 127.588 682.317 124.368 685.957 121.568C689.653 118.768 692.789 116.556 695.365 114.932C697.997 113.308 699.873 112.496 700.993 112.496C701.945 112.496 702.729 112.86 703.345 113.588C703.961 114.316 704.269 115.156 704.269 116.108C704.269 116.836 703.933 117.676 703.261 118.628C702.645 119.58 701.469 120.896 699.733 122.576C697.997 124.2 695.505 126.356 692.257 129.044C689.065 131.676 684.921 135.064 679.825 139.208C679.209 139.712 678.565 140.216 677.893 140.72C681.533 142.4 684.333 144.36 686.293 146.6C688.253 148.784 689.233 151.584 689.233 155C689.233 159.2 688.029 163.176 685.621 166.928C683.269 170.624 679.769 173.62 675.121 175.916C670.473 178.212 664.705 179.36 657.817 179.36ZM669.493 147.356C666.413 149.764 663.557 152.032 660.925 154.16C658.349 156.288 656.277 158.248 654.709 160.04C653.141 161.776 652.357 163.26 652.357 164.492C652.357 166.06 652.973 167.264 654.205 168.104C655.437 168.888 657.509 169.28 660.421 169.28C662.437 169.28 664.481 168.888 666.553 168.104C668.625 167.32 670.501 166.228 672.181 164.828C673.917 163.428 675.317 161.86 676.381 160.124C677.445 158.332 677.977 156.428 677.977 154.412C677.977 152.732 677.165 151.332 675.541 150.212C673.973 149.092 671.957 148.14 669.493 147.356ZM715.767 180.284C713.359 180.284 711.651 179.948 710.643 179.276C709.691 178.604 709.215 177.624 709.215 176.336C709.215 175.216 709.607 174.264 710.391 173.48C711.175 172.64 712.911 171.8 715.599 170.96C718.735 170.008 721.703 168.916 724.503 167.684C727.359 166.396 729.683 164.996 731.475 163.484C733.323 161.972 734.247 160.376 734.247 158.696C734.247 157.576 733.855 156.764 733.071 156.26C732.343 155.756 731.475 155.504 730.467 155.504C729.627 155.504 728.395 155.644 726.771 155.924C725.203 156.148 723.467 156.456 721.563 156.848C719.659 157.184 717.811 157.492 716.019 157.772C714.283 157.996 712.799 158.108 711.567 158.108C708.655 158.108 706.499 157.464 705.099 156.176C703.699 154.832 702.999 153.124 702.999 151.052C702.999 149.932 703.587 148.392 704.763 146.432C705.939 144.472 707.507 142.316 709.467 139.964C711.427 137.612 713.611 135.26 716.019 132.908C718.427 130.556 720.863 128.4 723.327 126.44C725.847 124.424 728.227 122.828 730.467 121.652C732.707 120.42 734.611 119.804 736.179 119.804C737.971 119.804 739.399 120.364 740.463 121.484C741.583 122.604 742.143 124.116 742.143 126.02C742.143 126.916 742.059 127.896 741.891 128.96C741.723 129.968 741.303 130.892 740.631 131.732C739.959 132.516 738.923 133.076 737.523 133.412C736.123 133.748 734.219 133.692 731.811 133.244C729.907 134.644 727.919 136.184 725.847 137.864C723.831 139.488 721.927 141.196 720.135 142.988C718.343 144.724 716.859 146.432 715.683 148.112C717.755 147.44 720.107 146.908 722.739 146.516C725.371 146.068 728.031 145.844 730.719 145.844C733.967 145.844 736.599 146.432 738.615 147.608C740.687 148.728 742.199 150.24 743.151 152.144C744.159 154.048 744.663 156.148 744.663 158.444C744.663 161.02 743.823 163.596 742.143 166.172C740.463 168.748 738.223 171.1 735.423 173.228C732.623 175.356 729.515 177.064 726.099 178.352C722.683 179.64 719.239 180.284 715.767 180.284Z" fill="white"/>
</g>
<defs>
<filter id="filter0_d_60_692" x="534.644" y="96.7236" width="227.02" height="126.433" filterUnits="userSpaceOnUse" color-interpolation-filters="sRGB">
<feFlood flood-opacity="0" result="BackgroundImageFix"/>
<feColorMatrix in="SourceAlpha" type="matrix" values="0 0 0 0 0 0 0 0 0 0 0 0 0 0 0 0 0 0 127 0" result="hardAlpha"/>
<feOffset dx="2" dy="2"/>
<feGaussianBlur stdDeviation="7.5"/>
<feComposite in2="hardAlpha" operator="out"/>
<feColorMatrix type="matrix" values="0 0 0 0 0 0 0 0 0 0 0 0 0 0 0 0 0 0 0.75 0"/>
<feBlend mode="normal" in2="BackgroundImageFix" result="effect1_dropShadow_60_692"/>
<feBlend mode="normal" in="SourceGraphic" in2="effect1_dropShadow_60_692" result="shape"/>
</filter>
<linearGradient id="paint0_linear_60_692" x1="130" y1="102.5" x2="644" y2="616.5" gradientUnits="userSpaceOnUse">
<stop stop-color="white" stop-opacity="0.9"/>
<stop offset="1" stop-color="white" stop-opacity="0.75"/>
</linearGradient>
<clipPath id="clip0_60_692">
<rect width="463" height="494" fill="white" transform="translate(142 126)"/>
</clipPath>
</defs>
</svg>
