<svg width="768" height="746" viewBox="0 0 768 746" fill="none" xmlns="http://www.w3.org/2000/svg">
<circle cx="373" cy="373" r="363" fill="url(#paint0_linear_60_307)" fill-opacity="0.5" stroke="white" stroke-width="20"/>
<circle cx="648.5" cy="144.5" r="117" fill="white" fill-opacity="0.95" stroke="white" stroke-width="5"/>
<g clip-path="url(#clip0_60_307)">
<path d="M414.422 573.28C411.671 569.954 406.914 569.634 403.791 572.571C382.314 592.792 354.691 603.93 326.014 603.93C261.167 603.93 208.411 547.64 208.411 478.452V402.495H245.981C250.139 402.495 253.512 398.897 253.512 394.46C253.512 390.023 250.139 386.425 245.981 386.425H236.032V363.226H248.756C252.915 363.226 256.287 359.628 256.287 355.191V280.016C256.287 275.579 252.915 271.981 248.756 271.981H236.032V251.457H248.756C252.915 251.457 256.287 247.859 256.287 243.421V189.86C256.287 173.512 243.821 160.211 228.499 160.211C213.177 160.211 200.71 173.511 200.71 189.86V243.421C200.71 247.859 204.082 251.457 208.241 251.457H220.97V271.981H208.241C204.082 271.981 200.71 275.579 200.71 280.016V355.191C200.71 359.628 204.082 363.226 208.241 363.226H220.97V386.425H200.88C196.721 386.425 193.349 390.023 193.349 394.46V478.452C193.349 556.502 252.863 620 326.014 620C358.365 620 389.526 607.435 413.758 584.622C416.876 581.685 417.174 576.608 414.422 573.28ZM215.772 235.386V189.86C215.772 182.373 221.481 176.282 228.498 176.282C235.514 176.282 241.224 182.374 241.224 189.86V235.387L215.772 235.386ZM215.772 347.156V288.05H241.225V347.156H215.772Z" fill="white"/>
<path d="M546.12 398.857H524.206V371.732H546.118C550.278 371.732 553.649 368.135 553.649 363.698V302.832C553.649 281.079 537.063 263.381 516.675 263.381C496.287 263.381 479.7 281.078 479.7 302.832V363.698C479.7 368.135 483.072 371.733 487.231 371.733H509.144V398.858H487.231C483.072 398.858 479.7 402.456 479.7 406.893V446.204H458.679V394.46C458.679 390.023 455.308 386.425 451.148 386.425H438.422V363.226H451.148C455.308 363.226 458.679 359.628 458.679 355.191V268.613C458.679 264.175 455.308 260.577 451.148 260.577H438.422V240.053H451.148C455.308 240.053 458.679 236.455 458.679 232.018V178.457C458.679 162.108 446.214 148.808 430.891 148.808C415.568 148.808 403.102 162.108 403.102 178.457V232.019C403.102 236.456 406.473 240.054 410.633 240.054H423.36V260.578H410.633C406.473 260.578 403.102 264.176 403.102 268.614V355.192C403.102 359.629 406.473 363.227 410.633 363.227H423.36V386.426H370.957V363.226H383.683C387.843 363.226 391.214 359.628 391.214 355.191V322.935C391.214 318.498 387.843 314.9 383.683 314.9C379.523 314.9 376.152 318.498 376.152 322.935V347.157H350.699V270.947H376.152V296.152C376.152 300.589 379.523 304.187 383.683 304.187C387.843 304.187 391.214 300.589 391.214 296.152V262.911C391.214 258.474 387.843 254.876 383.683 254.876H370.957V234.352H383.683C387.843 234.352 391.214 230.754 391.214 226.317V155.649C391.216 139.3 378.75 126 363.428 126C348.105 126 335.64 139.3 335.64 155.649V226.316C335.64 230.753 339.012 234.351 343.171 234.351H355.897V254.875H343.171C339.012 254.875 335.64 258.473 335.64 262.91V355.191C335.64 359.628 339.012 363.226 343.171 363.226H355.897V386.425H303.494V363.226H316.22C320.379 363.226 323.751 359.628 323.751 355.191V268.613C323.751 264.175 320.379 260.577 316.22 260.577H303.494V240.053H316.22C320.379 240.053 323.751 236.455 323.751 232.018V161.351C323.751 145.003 311.285 131.702 295.963 131.702C280.641 131.702 268.175 145.003 268.175 161.351V232.018C268.175 236.455 271.547 240.053 275.706 240.053H288.432V260.577H275.706C271.547 260.577 268.175 264.175 268.175 268.613V355.191C268.175 359.628 271.547 363.226 275.706 363.226H288.432V386.425H271.083C266.924 386.425 263.552 390.023 263.552 394.46C263.552 398.897 266.924 402.495 271.083 402.495H443.619V478.452C443.619 507.402 434.643 534.596 417.661 557.094C415.051 560.55 415.562 565.608 418.803 568.391C420.195 569.587 421.863 570.169 423.522 570.169C425.723 570.169 427.904 569.143 429.392 567.173C448.279 542.151 458.681 510.641 458.681 478.452V462.274H479.702V499.174C479.702 503.611 483.073 507.209 487.233 507.209C523.856 507.209 553.651 475.419 553.651 436.344V406.893C553.651 402.455 550.28 398.857 546.12 398.857ZM350.7 218.281V155.649C350.7 148.161 356.41 142.07 363.427 142.07C370.443 142.07 376.153 148.162 376.153 155.649V218.281H350.7ZM283.236 223.983V161.351H283.236C283.236 153.864 288.946 147.773 295.963 147.773C302.979 147.773 308.689 153.865 308.689 161.351V223.983H283.236ZM283.236 347.156V276.647H308.69V347.156H283.236ZM418.166 223.983V178.457C418.166 170.969 423.875 164.878 430.893 164.878C437.909 164.878 443.619 170.97 443.619 178.457V223.984L418.166 223.983ZM418.166 347.156V276.647H443.619V347.156H418.166ZM494.761 355.664V302.833H494.762C494.762 289.941 504.593 279.453 516.675 279.453C528.758 279.453 538.587 289.941 538.587 302.833V355.664H494.761ZM538.587 436.345C538.587 463.829 519.523 486.653 494.761 490.552V414.928H538.587V436.345Z" fill="white"/>
<path d="M270.709 431.747C251.527 431.747 235.924 448.396 235.924 468.861C235.924 489.324 251.527 505.974 270.709 505.974C289.888 505.974 305.492 489.325 305.492 468.861C305.491 448.396 289.888 431.747 270.709 431.747ZM270.707 489.903C259.831 489.903 250.984 480.463 250.984 468.861C250.985 457.257 259.833 447.818 270.707 447.818C281.581 447.818 290.429 457.258 290.429 468.861C290.429 480.463 281.582 489.903 270.707 489.903Z" fill="white"/>
<path d="M381.322 431.747C362.142 431.747 346.537 448.396 346.537 468.861C346.537 489.324 362.141 505.974 381.322 505.974C400.503 505.974 416.106 489.325 416.106 468.861C416.106 448.396 400.503 431.747 381.322 431.747ZM381.324 489.903C370.448 489.903 361.601 480.463 361.601 468.861C361.601 457.257 370.449 447.818 381.324 447.818C392.198 447.818 401.046 457.258 401.046 468.861C401.046 480.463 392.198 489.903 381.324 489.903Z" fill="white"/>
</g>
<g filter="url(#filter0_d_60_307)">
<path d="M599.28 182.048C598.16 182.048 597.152 181.656 596.256 180.872C595.416 180.144 594.996 179.024 594.996 177.512C594.996 176.28 595.528 174.488 596.592 172.136C597.656 169.728 599.112 166.928 600.96 163.736C602.864 160.488 604.992 156.96 607.344 153.152C609.752 149.288 612.3 145.284 614.988 141.14C617.228 137.668 619.524 134.168 621.876 130.64C624.284 127.056 626.608 123.556 628.848 120.14C624.872 120.812 621.008 121.484 617.256 122.156C613.56 122.828 610.368 123.416 607.68 123.92C604.992 124.368 603.144 124.592 602.136 124.592C599.56 124.592 597.88 124.06 597.096 122.996C596.312 121.932 595.92 120.728 595.92 119.384C595.92 118.712 596.704 118.012 598.272 117.284C599.84 116.5 601.912 115.716 604.488 114.932C607.064 114.148 609.864 113.42 612.888 112.748C615.912 112.076 618.88 111.46 621.792 110.9C624.76 110.34 627.392 109.92 629.688 109.64C632.04 109.304 633.776 109.136 634.896 109.136C636.296 109.136 637.64 109.5 638.928 110.228C640.216 110.9 641.28 111.796 642.12 112.916C642.96 113.98 643.38 115.128 643.38 116.36C643.38 116.752 642.932 117.76 642.036 119.384C641.196 120.952 640.02 122.996 638.508 125.516C636.996 128.036 635.26 130.892 633.3 134.084C631.34 137.276 629.296 140.636 627.168 144.164C624.424 148.7 621.596 153.264 618.684 157.856C615.828 162.392 613.112 166.564 610.536 170.372C607.96 174.124 605.72 177.12 603.816 179.36C603.2 180.088 602.5 180.704 601.716 181.208C600.988 181.768 600.176 182.048 599.28 182.048ZM654.7 180.284C652.292 180.284 650.584 179.948 649.576 179.276C648.624 178.604 648.148 177.624 648.148 176.336C648.148 175.216 648.54 174.264 649.324 173.48C650.108 172.64 651.844 171.8 654.532 170.96C657.668 170.008 660.636 168.916 663.436 167.684C666.292 166.396 668.616 164.996 670.408 163.484C672.256 161.972 673.18 160.376 673.18 158.696C673.18 157.576 672.788 156.764 672.004 156.26C671.276 155.756 670.408 155.504 669.4 155.504C668.56 155.504 667.328 155.644 665.704 155.924C664.136 156.148 662.4 156.456 660.496 156.848C658.592 157.184 656.744 157.492 654.952 157.772C653.216 157.996 651.732 158.108 650.5 158.108C647.588 158.108 645.432 157.464 644.032 156.176C642.632 154.832 641.932 153.124 641.932 151.052C641.932 149.932 642.52 148.392 643.696 146.432C644.872 144.472 646.44 142.316 648.4 139.964C650.36 137.612 652.544 135.26 654.952 132.908C657.36 130.556 659.796 128.4 662.26 126.44C664.78 124.424 667.16 122.828 669.4 121.652C671.64 120.42 673.544 119.804 675.112 119.804C676.904 119.804 678.332 120.364 679.396 121.484C680.516 122.604 681.076 124.116 681.076 126.02C681.076 126.916 680.992 127.896 680.824 128.96C680.656 129.968 680.236 130.892 679.564 131.732C678.892 132.516 677.856 133.076 676.456 133.412C675.056 133.748 673.152 133.692 670.744 133.244C668.84 134.644 666.852 136.184 664.78 137.864C662.764 139.488 660.86 141.196 659.068 142.988C657.276 144.724 655.792 146.432 654.616 148.112C656.688 147.44 659.04 146.908 661.672 146.516C664.304 146.068 666.964 145.844 669.652 145.844C672.9 145.844 675.532 146.432 677.548 147.608C679.62 148.728 681.132 150.24 682.084 152.144C683.092 154.048 683.596 156.148 683.596 158.444C683.596 161.02 682.756 163.596 681.076 166.172C679.396 168.748 677.156 171.1 674.356 173.228C671.556 175.356 668.448 177.064 665.032 178.352C661.616 179.64 658.172 180.284 654.7 180.284Z" fill="white"/>
</g>
<defs>
<filter id="filter0_d_60_307" x="581.996" y="96.136" width="118.601" height="102.912" filterUnits="userSpaceOnUse" color-interpolation-filters="sRGB">
<feFlood flood-opacity="0" result="BackgroundImageFix"/>
<feColorMatrix in="SourceAlpha" type="matrix" values="0 0 0 0 0 0 0 0 0 0 0 0 0 0 0 0 0 0 127 0" result="hardAlpha"/>
<feOffset dx="2" dy="2"/>
<feGaussianBlur stdDeviation="7.5"/>
<feComposite in2="hardAlpha" operator="out"/>
<feColorMatrix type="matrix" values="0 0 0 0 0 0 0 0 0 0 0 0 0 0 0 0 0 0 0.75 0"/>
<feBlend mode="normal" in2="BackgroundImageFix" result="effect1_dropShadow_60_307"/>
<feBlend mode="normal" in="SourceGraphic" in2="effect1_dropShadow_60_307" result="shape"/>
</filter>
<linearGradient id="paint0_linear_60_307" x1="130" y1="102.5" x2="644" y2="616.5" gradientUnits="userSpaceOnUse">
<stop stop-color="white" stop-opacity="0.9"/>
<stop offset="1" stop-color="white" stop-opacity="0.75"/>
</linearGradient>
<clipPath id="clip0_60_307">
<rect width="463" height="494" fill="white" transform="translate(142 126)"/>
</clipPath>
</defs>
</svg>
