<svg width="768" height="746" viewBox="0 0 768 746" fill="none" xmlns="http://www.w3.org/2000/svg">
<circle cx="373" cy="373" r="363" fill="url(#paint0_linear_60_359)" fill-opacity="0.5" stroke="#9528B3" stroke-width="20"/>
<circle cx="648.5" cy="144.5" r="117" fill="#9528B3" fill-opacity="0.95" stroke="#9528B3" stroke-width="5"/>
<g clip-path="url(#clip0_60_359)">
<path d="M414.422 573.28C411.671 569.954 406.914 569.634 403.791 572.571C382.314 592.792 354.691 603.93 326.014 603.93C261.167 603.93 208.411 547.64 208.411 478.452V402.495H245.981C250.139 402.495 253.512 398.897 253.512 394.46C253.512 390.023 250.139 386.425 245.981 386.425H236.032V363.226H248.756C252.915 363.226 256.287 359.628 256.287 355.191V280.016C256.287 275.579 252.915 271.981 248.756 271.981H236.032V251.457H248.756C252.915 251.457 256.287 247.859 256.287 243.421V189.86C256.287 173.512 243.821 160.211 228.499 160.211C213.177 160.211 200.71 173.511 200.71 189.86V243.421C200.71 247.859 204.082 251.457 208.241 251.457H220.97V271.981H208.241C204.082 271.981 200.71 275.579 200.71 280.016V355.191C200.71 359.628 204.082 363.226 208.241 363.226H220.97V386.425H200.88C196.721 386.425 193.349 390.023 193.349 394.46V478.452C193.349 556.502 252.863 620 326.014 620C358.365 620 389.526 607.435 413.758 584.622C416.876 581.685 417.174 576.608 414.422 573.28ZM215.772 235.386V189.86C215.772 182.373 221.481 176.282 228.498 176.282C235.514 176.282 241.224 182.374 241.224 189.86V235.387L215.772 235.386ZM215.772 347.156V288.05H241.225V347.156H215.772Z" fill="#9528B3"/>
<path d="M546.12 398.857H524.206V371.732H546.118C550.278 371.732 553.649 368.135 553.649 363.698V302.832C553.649 281.079 537.063 263.381 516.675 263.381C496.287 263.381 479.7 281.078 479.7 302.832V363.698C479.7 368.135 483.072 371.733 487.231 371.733H509.144V398.858H487.231C483.072 398.858 479.7 402.456 479.7 406.893V446.204H458.679V394.46C458.679 390.023 455.308 386.425 451.148 386.425H438.422V363.226H451.148C455.308 363.226 458.679 359.628 458.679 355.191V268.613C458.679 264.175 455.308 260.577 451.148 260.577H438.422V240.053H451.148C455.308 240.053 458.679 236.455 458.679 232.018V178.457C458.679 162.108 446.214 148.808 430.891 148.808C415.568 148.808 403.102 162.108 403.102 178.457V232.019C403.102 236.456 406.473 240.054 410.633 240.054H423.36V260.578H410.633C406.473 260.578 403.102 264.176 403.102 268.614V355.192C403.102 359.629 406.473 363.227 410.633 363.227H423.36V386.426H370.957V363.226H383.683C387.843 363.226 391.214 359.628 391.214 355.191V322.935C391.214 318.498 387.843 314.9 383.683 314.9C379.523 314.9 376.152 318.498 376.152 322.935V347.157H350.699V270.947H376.152V296.152C376.152 300.589 379.523 304.187 383.683 304.187C387.843 304.187 391.214 300.589 391.214 296.152V262.911C391.214 258.474 387.843 254.876 383.683 254.876H370.957V234.352H383.683C387.843 234.352 391.214 230.754 391.214 226.317V155.649C391.216 139.3 378.75 126 363.428 126C348.105 126 335.64 139.3 335.64 155.649V226.316C335.64 230.753 339.012 234.351 343.171 234.351H355.897V254.875H343.171C339.012 254.875 335.64 258.473 335.64 262.91V355.191C335.64 359.628 339.012 363.226 343.171 363.226H355.897V386.425H303.494V363.226H316.22C320.379 363.226 323.751 359.628 323.751 355.191V268.613C323.751 264.175 320.379 260.577 316.22 260.577H303.494V240.053H316.22C320.379 240.053 323.751 236.455 323.751 232.018V161.351C323.751 145.003 311.285 131.702 295.963 131.702C280.641 131.702 268.175 145.003 268.175 161.351V232.018C268.175 236.455 271.547 240.053 275.706 240.053H288.432V260.577H275.706C271.547 260.577 268.175 264.175 268.175 268.613V355.191C268.175 359.628 271.547 363.226 275.706 363.226H288.432V386.425H271.083C266.924 386.425 263.552 390.023 263.552 394.46C263.552 398.897 266.924 402.495 271.083 402.495H443.619V478.452C443.619 507.402 434.643 534.596 417.661 557.094C415.051 560.55 415.562 565.608 418.803 568.391C420.195 569.587 421.863 570.169 423.522 570.169C425.723 570.169 427.904 569.143 429.392 567.173C448.279 542.151 458.681 510.641 458.681 478.452V462.274H479.702V499.174C479.702 503.611 483.073 507.209 487.233 507.209C523.856 507.209 553.651 475.419 553.651 436.344V406.893C553.651 402.455 550.28 398.857 546.12 398.857ZM350.7 218.281V155.649C350.7 148.161 356.41 142.07 363.427 142.07C370.443 142.07 376.153 148.162 376.153 155.649V218.281H350.7ZM283.236 223.983V161.351H283.236C283.236 153.864 288.946 147.773 295.963 147.773C302.979 147.773 308.689 153.865 308.689 161.351V223.983H283.236ZM283.236 347.156V276.647H308.69V347.156H283.236ZM418.166 223.983V178.457C418.166 170.969 423.875 164.878 430.893 164.878C437.909 164.878 443.619 170.97 443.619 178.457V223.984L418.166 223.983ZM418.166 347.156V276.647H443.619V347.156H418.166ZM494.761 355.664V302.833H494.762C494.762 289.941 504.593 279.453 516.675 279.453C528.758 279.453 538.587 289.941 538.587 302.833V355.664H494.761ZM538.587 436.345C538.587 463.829 519.523 486.653 494.761 490.552V414.928H538.587V436.345Z" fill="#9528B3"/>
<path d="M270.709 431.747C251.527 431.747 235.924 448.396 235.924 468.861C235.924 489.324 251.527 505.974 270.709 505.974C289.888 505.974 305.492 489.325 305.492 468.861C305.491 448.396 289.888 431.747 270.709 431.747ZM270.707 489.903C259.831 489.903 250.984 480.463 250.984 468.861C250.985 457.257 259.833 447.818 270.707 447.818C281.581 447.818 290.429 457.258 290.429 468.861C290.429 480.463 281.582 489.903 270.707 489.903Z" fill="#9528B3"/>
<path d="M381.322 431.747C362.142 431.747 346.537 448.396 346.537 468.861C346.537 489.324 362.141 505.974 381.322 505.974C400.503 505.974 416.106 489.325 416.106 468.861C416.106 448.396 400.503 431.747 381.322 431.747ZM381.324 489.903C370.448 489.903 361.601 480.463 361.601 468.861C361.601 457.257 370.449 447.818 381.324 447.818C392.198 447.818 401.046 457.258 401.046 468.861C401.046 480.463 392.198 489.903 381.324 489.903Z" fill="#9528B3"/>
</g>
<g filter="url(#filter0_d_60_359)">
<path d="M610.032 181.628C607.456 181.628 605.02 180.928 602.724 179.528C600.484 178.184 598.552 176.28 596.928 173.816C595.304 171.352 594.156 168.44 593.484 165.08C592.924 165.36 592.476 165.5 592.14 165.5C592.028 165.5 591.86 165.5 591.636 165.5C591.132 165.556 590.656 165.528 590.208 165.416C589.76 165.304 589.368 164.94 589.032 164.324C588.752 163.652 588.612 162.504 588.612 160.88C588.612 159.256 589.06 157.576 589.956 155.84C590.908 154.104 592.196 152.424 593.82 150.8C594.884 146.88 596.62 143.1 599.028 139.46C601.436 135.764 604.236 132.32 607.428 129.128C610.62 125.88 613.952 122.94 617.424 120.308C620.952 117.676 624.368 115.436 627.672 113.588C630.976 111.684 633.916 110.228 636.492 109.22C639.068 108.156 641.028 107.624 642.372 107.624C645.452 107.624 646.992 109.108 646.992 112.076C646.992 112.636 646.124 113.448 644.388 114.512C642.652 115.52 640.356 116.836 637.5 118.46C634.7 120.084 631.648 122.016 628.344 124.256C625.096 126.496 621.904 129.072 618.768 131.984C615.632 134.896 612.888 138.144 610.536 141.728C612.44 141.224 614.4 140.832 616.416 140.552C618.488 140.272 620.616 140.132 622.8 140.132C626.608 140.132 629.632 141.308 631.872 143.66C634.112 145.956 635.232 149.344 635.232 153.824C635.232 157.352 634.476 160.768 632.964 164.072C631.452 167.376 629.436 170.372 626.916 173.06C624.452 175.692 621.736 177.764 618.768 179.276C615.8 180.844 612.888 181.628 610.032 181.628ZM604.992 156.344C604.768 157.912 604.656 159.48 604.656 161.048C604.656 163.288 605.188 165.22 606.252 166.844C607.316 168.468 608.688 169.28 610.368 169.28C612.216 169.28 614.008 168.804 615.744 167.852C617.536 166.9 619.16 165.64 620.616 164.072C622.072 162.448 623.22 160.656 624.06 158.696C624.9 156.736 625.32 154.748 625.32 152.732C625.32 152.004 625.208 151.388 624.984 150.884C624.76 150.38 624.284 150.128 623.556 150.128C619.86 150.128 616.444 150.744 613.308 151.976C610.228 153.208 607.456 154.664 604.992 156.344ZM660.935 180.284C658.527 180.284 656.819 179.948 655.811 179.276C654.859 178.604 654.383 177.624 654.383 176.336C654.383 175.216 654.775 174.264 655.559 173.48C656.343 172.64 658.079 171.8 660.767 170.96C663.903 170.008 666.871 168.916 669.671 167.684C672.527 166.396 674.851 164.996 676.643 163.484C678.491 161.972 679.415 160.376 679.415 158.696C679.415 157.576 679.023 156.764 678.239 156.26C677.511 155.756 676.643 155.504 675.635 155.504C674.795 155.504 673.563 155.644 671.939 155.924C670.371 156.148 668.635 156.456 666.731 156.848C664.827 157.184 662.979 157.492 661.187 157.772C659.451 157.996 657.967 158.108 656.735 158.108C653.823 158.108 651.667 157.464 650.267 156.176C648.867 154.832 648.167 153.124 648.167 151.052C648.167 149.932 648.755 148.392 649.931 146.432C651.107 144.472 652.675 142.316 654.635 139.964C656.595 137.612 658.779 135.26 661.187 132.908C663.595 130.556 666.031 128.4 668.495 126.44C671.015 124.424 673.395 122.828 675.635 121.652C677.875 120.42 679.779 119.804 681.347 119.804C683.139 119.804 684.567 120.364 685.631 121.484C686.751 122.604 687.311 124.116 687.311 126.02C687.311 126.916 687.227 127.896 687.059 128.96C686.891 129.968 686.471 130.892 685.799 131.732C685.127 132.516 684.091 133.076 682.691 133.412C681.291 133.748 679.387 133.692 676.979 133.244C675.075 134.644 673.087 136.184 671.015 137.864C668.999 139.488 667.095 141.196 665.303 142.988C663.511 144.724 662.027 146.432 660.851 148.112C662.923 147.44 665.275 146.908 667.907 146.516C670.539 146.068 673.199 145.844 675.887 145.844C679.135 145.844 681.767 146.432 683.783 147.608C685.855 148.728 687.367 150.24 688.319 152.144C689.327 154.048 689.831 156.148 689.831 158.444C689.831 161.02 688.991 163.596 687.311 166.172C685.631 168.748 683.391 171.1 680.591 173.228C677.791 175.356 674.683 177.064 671.267 178.352C667.851 179.64 664.407 180.284 660.935 180.284Z" fill="white"/>
</g>
<defs>
<filter id="filter0_d_60_359" x="575.612" y="94.624" width="131.219" height="104.004" filterUnits="userSpaceOnUse" color-interpolation-filters="sRGB">
<feFlood flood-opacity="0" result="BackgroundImageFix"/>
<feColorMatrix in="SourceAlpha" type="matrix" values="0 0 0 0 0 0 0 0 0 0 0 0 0 0 0 0 0 0 127 0" result="hardAlpha"/>
<feOffset dx="2" dy="2"/>
<feGaussianBlur stdDeviation="7.5"/>
<feComposite in2="hardAlpha" operator="out"/>
<feColorMatrix type="matrix" values="0 0 0 0 0 0 0 0 0 0 0 0 0 0 0 0 0 0 0.75 0"/>
<feBlend mode="normal" in2="BackgroundImageFix" result="effect1_dropShadow_60_359"/>
<feBlend mode="normal" in="SourceGraphic" in2="effect1_dropShadow_60_359" result="shape"/>
</filter>
<linearGradient id="paint0_linear_60_359" x1="130" y1="102.5" x2="644" y2="616.5" gradientUnits="userSpaceOnUse">
<stop stop-color="#9528B3" stop-opacity="0.9"/>
<stop offset="1" stop-color="#9528B3" stop-opacity="0.75"/>
</linearGradient>
<clipPath id="clip0_60_359">
<rect width="463" height="494" fill="white" transform="translate(142 126)"/>
</clipPath>
</defs>
</svg>
