<svg width="768" height="746" viewBox="0 0 768 746" fill="none" xmlns="http://www.w3.org/2000/svg">
<circle cx="373" cy="373" r="363" fill="url(#paint0_linear_60_587)" fill-opacity="0.5" stroke="white" stroke-width="20"/>
<circle cx="648.5" cy="144.5" r="117" fill="white" fill-opacity="0.95" stroke="white" stroke-width="5"/>
<g clip-path="url(#clip0_60_587)">
<path d="M414.422 573.281C411.671 569.954 406.914 569.635 403.791 572.572C382.314 592.793 354.691 603.93 326.014 603.93C261.167 603.93 208.411 547.64 208.411 478.452V402.496H245.981C250.139 402.496 253.512 398.898 253.512 394.461C253.512 390.023 250.139 386.425 245.981 386.425H236.032V363.227H248.756C252.915 363.227 256.287 359.629 256.287 355.191V280.017C256.287 275.579 252.915 271.981 248.756 271.981H236.032V251.457H248.756C252.915 251.457 256.287 247.859 256.287 243.422V189.861C256.287 173.512 243.821 160.212 228.499 160.212C213.177 160.212 200.71 173.511 200.71 189.861V243.422C200.71 247.859 204.082 251.457 208.241 251.457H220.97V271.981H208.241C204.082 271.981 200.71 275.579 200.71 280.017V355.191C200.71 359.629 204.082 363.227 208.241 363.227H220.97V386.425H200.88C196.721 386.425 193.349 390.023 193.349 394.461V478.452C193.349 556.502 252.863 620 326.014 620C358.365 620 389.526 607.435 413.758 584.623C416.876 581.686 417.174 576.609 414.422 573.281ZM215.772 235.387V189.861C215.772 182.373 221.481 176.282 228.498 176.282C235.514 176.282 241.224 182.374 241.224 189.861V235.388L215.772 235.387ZM215.772 347.156V288.051H241.225V347.156H215.772Z" fill="white"/>
<path d="M546.12 398.857H524.206V371.732H546.118C550.278 371.732 553.649 368.135 553.649 363.698V302.832C553.649 281.079 537.063 263.381 516.675 263.381C496.287 263.381 479.7 281.078 479.7 302.832V363.698C479.7 368.135 483.072 371.733 487.231 371.733H509.144V398.858H487.231C483.072 398.858 479.7 402.456 479.7 406.893V446.204H458.679V394.46C458.679 390.023 455.308 386.425 451.148 386.425H438.422V363.226H451.148C455.308 363.226 458.679 359.628 458.679 355.191V268.613C458.679 264.175 455.308 260.577 451.148 260.577H438.422V240.053H451.148C455.308 240.053 458.679 236.455 458.679 232.018V178.457C458.679 162.108 446.214 148.808 430.891 148.808C415.568 148.808 403.102 162.108 403.102 178.457V232.019C403.102 236.456 406.473 240.054 410.633 240.054H423.36V260.578H410.633C406.473 260.578 403.102 264.176 403.102 268.614V355.192C403.102 359.629 406.473 363.227 410.633 363.227H423.36V386.426H370.957V363.226H383.683C387.843 363.226 391.214 359.628 391.214 355.191V322.935C391.214 318.498 387.843 314.9 383.683 314.9C379.523 314.9 376.152 318.498 376.152 322.935V347.157H350.699V270.947H376.152V296.152C376.152 300.589 379.523 304.187 383.683 304.187C387.843 304.187 391.214 300.589 391.214 296.152V262.911C391.214 258.474 387.843 254.876 383.683 254.876H370.957V234.352H383.683C387.843 234.352 391.214 230.754 391.214 226.317V155.649C391.216 139.3 378.75 126 363.428 126C348.105 126 335.64 139.3 335.64 155.649V226.316C335.64 230.753 339.012 234.351 343.171 234.351H355.897V254.875H343.171C339.012 254.875 335.64 258.473 335.64 262.91V355.191C335.64 359.628 339.012 363.226 343.171 363.226H355.897V386.425H303.494V363.226H316.22C320.379 363.226 323.751 359.628 323.751 355.191V268.613C323.751 264.175 320.379 260.577 316.22 260.577H303.494V240.053H316.22C320.379 240.053 323.751 236.455 323.751 232.018V161.351C323.751 145.003 311.285 131.702 295.963 131.702C280.641 131.702 268.175 145.003 268.175 161.351V232.018C268.175 236.455 271.547 240.053 275.706 240.053H288.432V260.577H275.706C271.547 260.577 268.175 264.175 268.175 268.613V355.191C268.175 359.628 271.547 363.226 275.706 363.226H288.432V386.425H271.083C266.924 386.425 263.552 390.023 263.552 394.46C263.552 398.897 266.924 402.495 271.083 402.495H443.619V478.452C443.619 507.402 434.643 534.596 417.661 557.094C415.051 560.55 415.562 565.608 418.803 568.391C420.195 569.587 421.863 570.169 423.522 570.169C425.723 570.169 427.904 569.143 429.392 567.173C448.279 542.151 458.681 510.641 458.681 478.452V462.274H479.702V499.174C479.702 503.611 483.073 507.209 487.233 507.209C523.856 507.209 553.651 475.419 553.651 436.344V406.893C553.651 402.455 550.28 398.857 546.12 398.857ZM350.7 218.281V155.649C350.7 148.161 356.41 142.07 363.427 142.07C370.443 142.07 376.153 148.162 376.153 155.649V218.281H350.7ZM283.236 223.983V161.351H283.236C283.236 153.864 288.946 147.773 295.963 147.773C302.979 147.773 308.689 153.865 308.689 161.351V223.983H283.236ZM283.236 347.156V276.647H308.69V347.156H283.236ZM418.166 223.983V178.457C418.166 170.969 423.875 164.878 430.893 164.878C437.909 164.878 443.619 170.97 443.619 178.457V223.984L418.166 223.983ZM418.166 347.156V276.647H443.619V347.156H418.166ZM494.761 355.664V302.833H494.762C494.762 289.941 504.593 279.453 516.675 279.453C528.758 279.453 538.587 289.941 538.587 302.833V355.664H494.761ZM538.587 436.345C538.587 463.829 519.523 486.653 494.761 490.552V414.928H538.587V436.345Z" fill="white"/>
<path d="M270.709 431.747C251.527 431.747 235.924 448.395 235.924 468.861C235.924 489.324 251.527 505.973 270.709 505.973C289.888 505.973 305.492 489.325 305.492 468.861C305.491 448.395 289.888 431.747 270.709 431.747ZM270.707 489.903C259.831 489.903 250.984 480.463 250.984 468.861C250.985 457.257 259.833 447.818 270.707 447.818C281.581 447.818 290.429 457.258 290.429 468.861C290.429 480.463 281.582 489.903 270.707 489.903Z" fill="white"/>
<path d="M381.322 431.747C362.142 431.747 346.537 448.395 346.537 468.861C346.537 489.324 362.141 505.973 381.322 505.973C400.503 505.973 416.106 489.325 416.106 468.861C416.106 448.395 400.503 431.747 381.322 431.747ZM381.324 489.903C370.448 489.903 361.601 480.463 361.601 468.861C361.601 457.257 370.449 447.818 381.324 447.818C392.198 447.818 401.046 457.258 401.046 468.861C401.046 480.463 392.198 489.903 381.324 489.903Z" fill="white"/>
</g>
<g filter="url(#filter0_d_60_587)">
<path d="M598.156 179.612C595.356 179.612 593.368 178.94 592.192 177.596C591.072 176.308 590.512 174.964 590.512 173.564C590.512 172.332 590.792 171.184 591.352 170.12C591.968 169 593.032 168.104 594.544 167.432C596.056 166.76 598.212 166.48 601.012 166.592C603.812 165.136 606.64 163.344 609.496 161.216C612.408 159.088 615.18 156.736 617.812 154.16C620.5 151.584 622.88 148.952 624.952 146.264C627.08 143.52 628.732 140.832 629.908 138.2C631.14 135.512 631.756 132.992 631.756 130.64C631.756 128.12 630.972 126.216 629.404 124.928C627.892 123.64 625.764 122.996 623.02 122.996C620.668 122.996 618.512 123.276 616.552 123.836C614.592 124.34 612.856 124.956 611.344 125.684C609.832 126.412 608.544 127.056 607.48 127.616C606.472 128.12 605.66 128.372 605.044 128.372C603.98 128.372 603.028 127.924 602.188 127.028C601.348 126.076 601.096 124.844 601.432 123.332C601.656 122.324 602.328 121.12 603.448 119.72C604.568 118.32 606.108 116.92 608.068 115.52C610.028 114.12 612.352 112.972 615.04 112.076C617.784 111.124 620.864 110.648 624.28 110.648C629.768 110.648 634.22 112.328 637.636 115.688C641.108 119.048 642.844 124.172 642.844 131.06C642.844 135.596 641.64 140.048 639.232 144.416C636.88 148.784 633.744 152.928 629.824 156.848C625.904 160.768 621.62 164.352 616.972 167.6C621.172 167.432 624.448 167.18 626.8 166.844C629.152 166.452 631.028 166.116 632.428 165.836C633.884 165.556 635.284 165.416 636.628 165.416C638.532 165.416 640.016 165.808 641.08 166.592C642.144 167.376 642.676 168.496 642.676 169.952C642.676 171.016 642.396 172.052 641.836 173.06C641.332 174.068 640.324 174.992 638.812 175.832C637.3 176.616 635.116 177.232 632.26 177.68C629.404 178.184 625.652 178.436 621.004 178.436C618.26 178.436 615.432 178.408 612.52 178.352C609.664 178.296 606.892 178.212 604.204 178.1C602.636 178.66 601.404 179.052 600.508 179.276C599.668 179.5 598.884 179.612 598.156 179.612ZM665.345 180.284C662.937 180.284 661.229 179.948 660.221 179.276C659.269 178.604 658.793 177.624 658.793 176.336C658.793 175.216 659.185 174.264 659.969 173.48C660.753 172.64 662.489 171.8 665.177 170.96C668.313 170.008 671.281 168.916 674.081 167.684C676.937 166.396 679.261 164.996 681.053 163.484C682.901 161.972 683.825 160.376 683.825 158.696C683.825 157.576 683.433 156.764 682.649 156.26C681.921 155.756 681.053 155.504 680.045 155.504C679.205 155.504 677.973 155.644 676.349 155.924C674.781 156.148 673.045 156.456 671.141 156.848C669.237 157.184 667.389 157.492 665.597 157.772C663.861 157.996 662.377 158.108 661.145 158.108C658.233 158.108 656.077 157.464 654.677 156.176C653.277 154.832 652.577 153.124 652.577 151.052C652.577 149.932 653.165 148.392 654.341 146.432C655.517 144.472 657.085 142.316 659.045 139.964C661.005 137.612 663.189 135.26 665.597 132.908C668.005 130.556 670.441 128.4 672.905 126.44C675.425 124.424 677.805 122.828 680.045 121.652C682.285 120.42 684.189 119.804 685.757 119.804C687.549 119.804 688.977 120.364 690.041 121.484C691.161 122.604 691.721 124.116 691.721 126.02C691.721 126.916 691.637 127.896 691.469 128.96C691.301 129.968 690.881 130.892 690.209 131.732C689.537 132.516 688.501 133.076 687.101 133.412C685.701 133.748 683.797 133.692 681.389 133.244C679.485 134.644 677.497 136.184 675.425 137.864C673.409 139.488 671.505 141.196 669.713 142.988C667.921 144.724 666.437 146.432 665.261 148.112C667.333 147.44 669.685 146.908 672.317 146.516C674.949 146.068 677.609 145.844 680.297 145.844C683.545 145.844 686.177 146.432 688.193 147.608C690.265 148.728 691.777 150.24 692.729 152.144C693.737 154.048 694.241 156.148 694.241 158.444C694.241 161.02 693.401 163.596 691.721 166.172C690.041 168.748 687.801 171.1 685.001 173.228C682.201 175.356 679.093 177.064 675.677 178.352C672.261 179.64 668.817 180.284 665.345 180.284Z" fill="white"/>
</g>
<defs>
<filter id="filter0_d_60_587" x="577.512" y="97.6484" width="133.729" height="99.6357" filterUnits="userSpaceOnUse" color-interpolation-filters="sRGB">
<feFlood flood-opacity="0" result="BackgroundImageFix"/>
<feColorMatrix in="SourceAlpha" type="matrix" values="0 0 0 0 0 0 0 0 0 0 0 0 0 0 0 0 0 0 127 0" result="hardAlpha"/>
<feOffset dx="2" dy="2"/>
<feGaussianBlur stdDeviation="7.5"/>
<feComposite in2="hardAlpha" operator="out"/>
<feColorMatrix type="matrix" values="0 0 0 0 0 0 0 0 0 0 0 0 0 0 0 0 0 0 0.75 0"/>
<feBlend mode="normal" in2="BackgroundImageFix" result="effect1_dropShadow_60_587"/>
<feBlend mode="normal" in="SourceGraphic" in2="effect1_dropShadow_60_587" result="shape"/>
</filter>
<linearGradient id="paint0_linear_60_587" x1="130" y1="102.5" x2="644" y2="616.5" gradientUnits="userSpaceOnUse">
<stop stop-color="white" stop-opacity="0.9"/>
<stop offset="1" stop-color="white" stop-opacity="0.75"/>
</linearGradient>
<clipPath id="clip0_60_587">
<rect width="463" height="494" fill="white" transform="translate(142 126)"/>
</clipPath>
</defs>
</svg>
