<svg width="768" height="746" viewBox="0 0 768 746" fill="none" xmlns="http://www.w3.org/2000/svg">
<circle cx="373" cy="373" r="363" fill="url(#paint0_linear_60_412)" fill-opacity="0.5" stroke="white" stroke-width="20"/>
<circle cx="648.5" cy="144.5" r="117" fill="white" fill-opacity="0.95" stroke="white" stroke-width="5"/>
<g clip-path="url(#clip0_60_412)">
<path d="M414.422 573.28C411.671 569.954 406.914 569.634 403.791 572.571C382.314 592.792 354.691 603.93 326.014 603.93C261.167 603.93 208.411 547.64 208.411 478.452V402.495H245.981C250.139 402.495 253.512 398.897 253.512 394.46C253.512 390.023 250.139 386.425 245.981 386.425H236.032V363.226H248.756C252.915 363.226 256.287 359.628 256.287 355.191V280.016C256.287 275.579 252.915 271.981 248.756 271.981H236.032V251.457H248.756C252.915 251.457 256.287 247.859 256.287 243.421V189.86C256.287 173.512 243.821 160.211 228.499 160.211C213.177 160.211 200.71 173.511 200.71 189.86V243.421C200.71 247.859 204.082 251.457 208.241 251.457H220.97V271.981H208.241C204.082 271.981 200.71 275.579 200.71 280.016V355.191C200.71 359.628 204.082 363.226 208.241 363.226H220.97V386.425H200.88C196.721 386.425 193.349 390.023 193.349 394.46V478.452C193.349 556.502 252.863 620 326.014 620C358.365 620 389.526 607.435 413.758 584.622C416.876 581.685 417.174 576.608 414.422 573.28ZM215.772 235.386V189.86C215.772 182.373 221.481 176.282 228.498 176.282C235.514 176.282 241.224 182.374 241.224 189.86V235.387L215.772 235.386ZM215.772 347.156V288.05H241.225V347.156H215.772Z" fill="white"/>
<path d="M546.12 398.857H524.206V371.732H546.118C550.278 371.732 553.649 368.135 553.649 363.698V302.832C553.649 281.079 537.063 263.381 516.675 263.381C496.287 263.381 479.7 281.078 479.7 302.832V363.698C479.7 368.135 483.072 371.733 487.231 371.733H509.144V398.858H487.231C483.072 398.858 479.7 402.456 479.7 406.893V446.204H458.679V394.46C458.679 390.023 455.308 386.425 451.148 386.425H438.422V363.226H451.148C455.308 363.226 458.679 359.628 458.679 355.191V268.613C458.679 264.175 455.308 260.577 451.148 260.577H438.422V240.053H451.148C455.308 240.053 458.679 236.455 458.679 232.018V178.457C458.679 162.108 446.214 148.808 430.891 148.808C415.568 148.808 403.102 162.108 403.102 178.457V232.019C403.102 236.456 406.473 240.054 410.633 240.054H423.36V260.578H410.633C406.473 260.578 403.102 264.176 403.102 268.614V355.192C403.102 359.629 406.473 363.227 410.633 363.227H423.36V386.426H370.957V363.226H383.683C387.843 363.226 391.214 359.628 391.214 355.191V322.935C391.214 318.498 387.843 314.9 383.683 314.9C379.523 314.9 376.152 318.498 376.152 322.935V347.157H350.699V270.947H376.152V296.152C376.152 300.589 379.523 304.187 383.683 304.187C387.843 304.187 391.214 300.589 391.214 296.152V262.911C391.214 258.474 387.843 254.876 383.683 254.876H370.957V234.352H383.683C387.843 234.352 391.214 230.754 391.214 226.317V155.649C391.216 139.3 378.75 126 363.428 126C348.105 126 335.64 139.3 335.64 155.649V226.316C335.64 230.753 339.012 234.351 343.171 234.351H355.897V254.875H343.171C339.012 254.875 335.64 258.473 335.64 262.91V355.191C335.64 359.628 339.012 363.226 343.171 363.226H355.897V386.425H303.494V363.226H316.22C320.379 363.226 323.751 359.628 323.751 355.191V268.613C323.751 264.175 320.379 260.577 316.22 260.577H303.494V240.053H316.22C320.379 240.053 323.751 236.455 323.751 232.018V161.351C323.751 145.003 311.285 131.702 295.963 131.702C280.641 131.702 268.175 145.003 268.175 161.351V232.018C268.175 236.455 271.547 240.053 275.706 240.053H288.432V260.577H275.706C271.547 260.577 268.175 264.175 268.175 268.613V355.191C268.175 359.628 271.547 363.226 275.706 363.226H288.432V386.425H271.083C266.924 386.425 263.552 390.023 263.552 394.46C263.552 398.897 266.924 402.495 271.083 402.495H443.619V478.452C443.619 507.402 434.643 534.596 417.661 557.094C415.051 560.55 415.562 565.608 418.803 568.391C420.195 569.587 421.863 570.169 423.522 570.169C425.723 570.169 427.904 569.143 429.392 567.173C448.279 542.151 458.681 510.641 458.681 478.452V462.274H479.702V499.174C479.702 503.611 483.073 507.209 487.233 507.209C523.856 507.209 553.651 475.419 553.651 436.344V406.893C553.651 402.455 550.28 398.857 546.12 398.857ZM350.7 218.281V155.649C350.7 148.161 356.41 142.07 363.427 142.07C370.443 142.07 376.153 148.162 376.153 155.649V218.281H350.7ZM283.236 223.983V161.351H283.236C283.236 153.864 288.946 147.773 295.963 147.773C302.979 147.773 308.689 153.865 308.689 161.351V223.983H283.236ZM283.236 347.156V276.647H308.69V347.156H283.236ZM418.166 223.983V178.457C418.166 170.969 423.875 164.878 430.893 164.878C437.909 164.878 443.619 170.97 443.619 178.457V223.984L418.166 223.983ZM418.166 347.156V276.647H443.619V347.156H418.166ZM494.761 355.664V302.833H494.762C494.762 289.941 504.593 279.453 516.675 279.453C528.758 279.453 538.587 289.941 538.587 302.833V355.664H494.761ZM538.587 436.345C538.587 463.829 519.523 486.653 494.761 490.552V414.928H538.587V436.345Z" fill="white"/>
<path d="M270.709 431.748C251.527 431.748 235.924 448.396 235.924 468.861C235.924 489.325 251.527 505.974 270.709 505.974C289.888 505.974 305.492 489.326 305.492 468.861C305.491 448.396 289.888 431.748 270.709 431.748ZM270.707 489.904C259.831 489.904 250.984 480.463 250.984 468.861C250.985 457.257 259.833 447.818 270.707 447.818C281.581 447.818 290.429 457.258 290.429 468.861C290.429 480.463 281.582 489.904 270.707 489.904Z" fill="white"/>
<path d="M381.322 431.748C362.142 431.748 346.537 448.396 346.537 468.861C346.537 489.325 362.141 505.974 381.322 505.974C400.503 505.974 416.106 489.326 416.106 468.861C416.106 448.396 400.503 431.748 381.322 431.748ZM381.324 489.904C370.448 489.904 361.601 480.463 361.601 468.861C361.601 457.257 370.449 447.818 381.324 447.818C392.198 447.818 401.046 457.258 401.046 468.861C401.046 480.463 392.198 489.904 381.324 489.904Z" fill="white"/>
</g>
<g filter="url(#filter0_d_60_412)">
<path d="M576.372 182.552C574.412 182.552 572.984 181.88 572.088 180.536C571.248 179.248 570.828 177.568 570.828 175.496C570.828 173.256 570.996 171.268 571.332 169.532C571.724 167.796 572.172 166.032 572.676 164.24C569.932 164.464 567.16 164.688 564.36 164.912C561.56 165.08 558.76 165.22 555.96 165.332C554.952 166.116 553.888 166.732 552.768 167.18C551.648 167.628 550.36 167.852 548.904 167.852C546.776 167.852 545.096 167.404 543.864 166.508C542.632 165.612 542.016 164.184 542.016 162.224C542.016 159.984 542.688 158.332 544.032 157.268C545.432 156.148 547.196 155.364 549.324 154.916C552.124 151.5 555.176 148.084 558.48 144.668C561.784 141.252 565.06 137.864 568.308 134.504C571.556 131.144 574.468 127.84 577.044 124.592C579.676 121.288 581.664 118.068 583.008 114.932C583.68 113.364 584.604 112.272 585.78 111.656C587.012 110.984 588.328 110.648 589.728 110.648C591.688 110.648 593.004 111.404 593.676 112.916C594.404 114.428 594.768 116.248 594.768 118.376C594.768 118.88 594.572 120.168 594.18 122.24C593.788 124.256 593.228 126.86 592.5 130.052C591.828 133.188 591.044 136.688 590.148 140.552C589.308 144.36 588.44 148.308 587.544 152.396C591.24 152.004 594.432 151.696 597.12 151.472C599.808 151.192 601.516 151.052 602.244 151.052C603.868 151.052 605.184 151.22 606.192 151.556C607.2 151.892 607.704 152.732 607.704 154.076C607.704 155.308 606.92 156.344 605.352 157.184C603.84 157.968 602.188 158.668 600.396 159.284C598.604 159.9 596.448 160.516 593.928 161.132C591.408 161.748 588.468 162.308 585.108 162.812C584.548 165.108 583.988 167.292 583.428 169.364C582.868 171.436 582.336 173.816 581.832 176.504C581.44 178.296 580.852 179.752 580.068 180.872C579.34 181.992 578.108 182.552 576.372 182.552ZM579.396 136.268C576.652 139.628 573.796 142.988 570.828 146.348C567.916 149.652 565.116 152.648 562.428 155.336C564.5 155.056 566.6 154.804 568.728 154.58C570.912 154.356 573.096 154.132 575.28 153.908L579.396 136.268ZM608.185 204.14C603.145 205.484 600.625 204.616 600.625 201.536C600.625 199.912 601.577 198.568 603.481 197.504C606.281 195.768 608.549 193.22 610.285 189.86C611.965 186.5 613.281 182.692 614.233 178.436C615.241 174.18 616.025 169.868 616.585 165.5C616.865 163.708 617.397 162.532 618.181 161.972C618.965 161.356 619.805 161.048 620.701 161.048C622.437 161.048 624.061 161.748 625.573 163.148C627.085 164.492 627.841 166.732 627.841 169.868C627.841 174.124 627.197 178.184 625.909 182.048C624.677 185.912 623.053 189.384 621.037 192.464C619.077 195.6 616.949 198.176 614.653 200.192C612.357 202.208 610.201 203.524 608.185 204.14ZM651.618 182.552C649.49 182.552 647.586 181.964 645.906 180.788C644.282 179.668 643.47 177.988 643.47 175.748C643.47 173.676 644.086 172.192 645.318 171.296C646.55 170.344 648.202 169.868 650.274 169.868C651.114 169.868 651.954 169.98 652.794 170.204C653.634 170.372 655.202 170.596 657.498 170.876C661.362 168.916 664.778 167.012 667.746 165.164C670.714 163.26 673.038 161.384 674.718 159.536C676.398 157.632 677.238 155.7 677.238 153.74C677.238 151.892 676.51 150.8 675.054 150.464C673.654 150.072 671.946 149.848 669.93 149.792C669.706 149.792 669.454 149.792 669.174 149.792C668.95 149.736 668.698 149.708 668.418 149.708C665.562 149.54 662.874 149.204 660.354 148.7C657.89 148.14 655.874 147.16 654.306 145.76C652.738 144.304 651.954 142.148 651.954 139.292C651.954 136.1 652.374 132.964 653.214 129.884C654.054 126.748 655.118 123.864 656.406 121.232C655.902 120.784 655.594 120.252 655.482 119.636C655.426 118.964 655.398 118.292 655.398 117.62C655.398 116.948 655.902 116.276 656.91 115.604C657.918 114.932 659.29 114.26 661.026 113.588C662.482 111.628 663.882 110.088 665.226 108.968C666.57 107.792 667.634 107.204 668.418 107.204C669.37 107.204 670.21 107.512 670.938 108.128C671.722 108.744 672.31 109.528 672.702 110.48C676.062 109.808 679.562 109.276 683.202 108.884C686.898 108.492 690.482 108.296 693.954 108.296C695.97 108.296 697.79 108.464 699.414 108.8C701.094 109.08 702.41 109.668 703.362 110.564C704.37 111.404 704.874 112.72 704.874 114.512C704.874 116.024 704.37 117.144 703.362 117.872C702.41 118.544 701.122 118.908 699.498 118.964C696.25 119.02 692.778 119.272 689.082 119.72C685.386 120.168 681.746 120.672 678.162 121.232C674.634 121.736 671.47 122.128 668.67 122.408C667.774 124.032 666.906 125.712 666.066 127.448C665.282 129.128 664.61 130.696 664.05 132.152C663.546 133.608 663.294 134.784 663.294 135.68C663.294 137.248 663.966 138.2 665.31 138.536C666.654 138.872 668.25 139.096 670.098 139.208C672.282 139.376 674.466 139.656 676.65 140.048C678.834 140.384 680.822 141 682.614 141.896C684.462 142.792 685.946 144.136 687.066 145.928C688.186 147.664 688.746 149.988 688.746 152.9C688.746 155.644 687.962 158.416 686.394 161.216C684.882 164.016 682.81 166.704 680.178 169.28C677.602 171.8 674.69 174.04 671.442 176C668.25 178.016 664.918 179.612 661.446 180.788C658.03 181.964 654.754 182.552 651.618 182.552ZM714.126 180.284C711.718 180.284 710.01 179.948 709.002 179.276C708.05 178.604 707.574 177.624 707.574 176.336C707.574 175.216 707.966 174.264 708.75 173.48C709.534 172.64 711.27 171.8 713.958 170.96C717.094 170.008 720.062 168.916 722.862 167.684C725.718 166.396 728.042 164.996 729.834 163.484C731.682 161.972 732.606 160.376 732.606 158.696C732.606 157.576 732.214 156.764 731.43 156.26C730.702 155.756 729.834 155.504 728.826 155.504C727.986 155.504 726.754 155.644 725.13 155.924C723.562 156.148 721.826 156.456 719.922 156.848C718.018 157.184 716.17 157.492 714.378 157.772C712.642 157.996 711.158 158.108 709.926 158.108C707.014 158.108 704.858 157.464 703.458 156.176C702.058 154.832 701.358 153.124 701.358 151.052C701.358 149.932 701.946 148.392 703.122 146.432C704.298 144.472 705.866 142.316 707.826 139.964C709.786 137.612 711.97 135.26 714.378 132.908C716.786 130.556 719.222 128.4 721.686 126.44C724.206 124.424 726.586 122.828 728.826 121.652C731.066 120.42 732.97 119.804 734.538 119.804C736.33 119.804 737.758 120.364 738.822 121.484C739.942 122.604 740.502 124.116 740.502 126.02C740.502 126.916 740.418 127.896 740.25 128.96C740.082 129.968 739.662 130.892 738.99 131.732C738.318 132.516 737.282 133.076 735.882 133.412C734.482 133.748 732.578 133.692 730.17 133.244C728.266 134.644 726.278 136.184 724.206 137.864C722.19 139.488 720.286 141.196 718.494 142.988C716.702 144.724 715.218 146.432 714.042 148.112C716.114 147.44 718.466 146.908 721.098 146.516C723.73 146.068 726.39 145.844 729.078 145.844C732.326 145.844 734.958 146.432 736.974 147.608C739.046 148.728 740.558 150.24 741.51 152.144C742.518 154.048 743.022 156.148 743.022 158.444C743.022 161.02 742.182 163.596 740.502 166.172C738.822 168.748 736.582 171.1 733.782 173.228C730.982 175.356 727.874 177.064 724.458 178.352C721.042 179.64 717.598 180.284 714.126 180.284Z" fill="white"/>
</g>
<defs>
<filter id="filter0_d_60_412" x="529.016" y="94.2041" width="231.007" height="128.952" filterUnits="userSpaceOnUse" color-interpolation-filters="sRGB">
<feFlood flood-opacity="0" result="BackgroundImageFix"/>
<feColorMatrix in="SourceAlpha" type="matrix" values="0 0 0 0 0 0 0 0 0 0 0 0 0 0 0 0 0 0 127 0" result="hardAlpha"/>
<feOffset dx="2" dy="2"/>
<feGaussianBlur stdDeviation="7.5"/>
<feComposite in2="hardAlpha" operator="out"/>
<feColorMatrix type="matrix" values="0 0 0 0 0 0 0 0 0 0 0 0 0 0 0 0 0 0 0.75 0"/>
<feBlend mode="normal" in2="BackgroundImageFix" result="effect1_dropShadow_60_412"/>
<feBlend mode="normal" in="SourceGraphic" in2="effect1_dropShadow_60_412" result="shape"/>
</filter>
<linearGradient id="paint0_linear_60_412" x1="130" y1="102.5" x2="644" y2="616.5" gradientUnits="userSpaceOnUse">
<stop stop-color="white" stop-opacity="0.9"/>
<stop offset="1" stop-color="white" stop-opacity="0.75"/>
</linearGradient>
<clipPath id="clip0_60_412">
<rect width="463" height="494" fill="white" transform="translate(142 126)"/>
</clipPath>
</defs>
</svg>
