<svg width="768" height="746" viewBox="0 0 768 746" fill="none" xmlns="http://www.w3.org/2000/svg">
<circle cx="373" cy="373" r="363" fill="url(#paint0_linear_55_310)" fill-opacity="0.5" stroke="#9528B3" stroke-width="20"/>
<circle cx="648.5" cy="144.5" r="117" fill="#9528B3" fill-opacity="0.95" stroke="#9528B3" stroke-width="5"/>
<g clip-path="url(#clip0_55_310)">
<path d="M414.422 573.28C411.671 569.954 406.914 569.634 403.791 572.571C382.314 592.792 354.691 603.93 326.014 603.93C261.167 603.93 208.411 547.64 208.411 478.452V402.495H245.981C250.139 402.495 253.512 398.897 253.512 394.46C253.512 390.023 250.139 386.425 245.981 386.425H236.032V363.226H248.756C252.915 363.226 256.287 359.628 256.287 355.191V280.016C256.287 275.579 252.915 271.981 248.756 271.981H236.032V251.457H248.756C252.915 251.457 256.287 247.859 256.287 243.421V189.86C256.287 173.512 243.821 160.211 228.499 160.211C213.177 160.211 200.71 173.511 200.71 189.86V243.421C200.71 247.859 204.082 251.457 208.241 251.457H220.97V271.981H208.241C204.082 271.981 200.71 275.579 200.71 280.016V355.191C200.71 359.628 204.082 363.226 208.241 363.226H220.97V386.425H200.88C196.721 386.425 193.349 390.023 193.349 394.46V478.452C193.349 556.502 252.863 620 326.014 620C358.365 620 389.526 607.435 413.758 584.622C416.876 581.685 417.174 576.608 414.422 573.28ZM215.772 235.386V189.86C215.772 182.373 221.481 176.282 228.498 176.282C235.514 176.282 241.224 182.374 241.224 189.86V235.387L215.772 235.386ZM215.772 347.156V288.05H241.225V347.156H215.772Z" fill="#9528B3"/>
<path d="M546.12 398.857H524.206V371.732H546.118C550.278 371.732 553.649 368.135 553.649 363.698V302.832C553.649 281.079 537.063 263.381 516.675 263.381C496.287 263.381 479.7 281.078 479.7 302.832V363.698C479.7 368.135 483.072 371.733 487.231 371.733H509.144V398.858H487.231C483.072 398.858 479.7 402.456 479.7 406.893V446.204H458.679V394.46C458.679 390.023 455.308 386.425 451.148 386.425H438.422V363.226H451.148C455.308 363.226 458.679 359.628 458.679 355.191V268.613C458.679 264.175 455.308 260.577 451.148 260.577H438.422V240.053H451.148C455.308 240.053 458.679 236.455 458.679 232.018V178.457C458.679 162.108 446.214 148.808 430.891 148.808C415.568 148.808 403.102 162.108 403.102 178.457V232.019C403.102 236.456 406.473 240.054 410.633 240.054H423.36V260.578H410.633C406.473 260.578 403.102 264.176 403.102 268.614V355.192C403.102 359.629 406.473 363.227 410.633 363.227H423.36V386.426H370.957V363.226H383.683C387.843 363.226 391.214 359.628 391.214 355.191V322.935C391.214 318.498 387.843 314.9 383.683 314.9C379.523 314.9 376.152 318.498 376.152 322.935V347.157H350.699V270.947H376.152V296.152C376.152 300.589 379.523 304.187 383.683 304.187C387.843 304.187 391.214 300.589 391.214 296.152V262.911C391.214 258.474 387.843 254.876 383.683 254.876H370.957V234.352H383.683C387.843 234.352 391.214 230.754 391.214 226.317V155.649C391.216 139.3 378.75 126 363.428 126C348.105 126 335.64 139.3 335.64 155.649V226.316C335.64 230.753 339.012 234.351 343.171 234.351H355.897V254.875H343.171C339.012 254.875 335.64 258.473 335.64 262.91V355.191C335.64 359.628 339.012 363.226 343.171 363.226H355.897V386.425H303.494V363.226H316.22C320.379 363.226 323.751 359.628 323.751 355.191V268.613C323.751 264.175 320.379 260.577 316.22 260.577H303.494V240.053H316.22C320.379 240.053 323.751 236.455 323.751 232.018V161.351C323.751 145.003 311.285 131.702 295.963 131.702C280.641 131.702 268.175 145.003 268.175 161.351V232.018C268.175 236.455 271.547 240.053 275.706 240.053H288.432V260.577H275.706C271.547 260.577 268.175 264.175 268.175 268.613V355.191C268.175 359.628 271.547 363.226 275.706 363.226H288.432V386.425H271.083C266.924 386.425 263.552 390.023 263.552 394.46C263.552 398.897 266.924 402.495 271.083 402.495H443.619V478.452C443.619 507.402 434.643 534.596 417.661 557.094C415.051 560.55 415.562 565.608 418.803 568.391C420.195 569.587 421.863 570.169 423.522 570.169C425.723 570.169 427.904 569.143 429.392 567.173C448.279 542.151 458.681 510.641 458.681 478.452V462.274H479.702V499.174C479.702 503.611 483.073 507.209 487.233 507.209C523.856 507.209 553.651 475.419 553.651 436.344V406.893C553.651 402.455 550.28 398.857 546.12 398.857ZM350.7 218.281V155.649C350.7 148.161 356.41 142.07 363.427 142.07C370.443 142.07 376.153 148.162 376.153 155.649V218.281H350.7ZM283.236 223.983V161.351H283.236C283.236 153.864 288.946 147.773 295.963 147.773C302.979 147.773 308.689 153.865 308.689 161.351V223.983H283.236ZM283.236 347.156V276.647H308.69V347.156H283.236ZM418.166 223.983V178.457C418.166 170.969 423.875 164.878 430.893 164.878C437.909 164.878 443.619 170.97 443.619 178.457V223.984L418.166 223.983ZM418.166 347.156V276.647H443.619V347.156H418.166ZM494.761 355.664V302.833H494.762C494.762 289.941 504.593 279.453 516.675 279.453C528.758 279.453 538.587 289.941 538.587 302.833V355.664H494.761ZM538.587 436.345C538.587 463.829 519.523 486.653 494.761 490.552V414.928H538.587V436.345Z" fill="#9528B3"/>
<path d="M270.709 431.747C251.527 431.747 235.924 448.396 235.924 468.861C235.924 489.324 251.527 505.974 270.709 505.974C289.888 505.974 305.492 489.325 305.492 468.861C305.491 448.396 289.888 431.747 270.709 431.747ZM270.707 489.903C259.831 489.903 250.984 480.463 250.984 468.861C250.985 457.257 259.833 447.818 270.707 447.818C281.581 447.818 290.429 457.258 290.429 468.861C290.429 480.463 281.582 489.903 270.707 489.903Z" fill="#9528B3"/>
<path d="M381.322 431.747C362.142 431.747 346.537 448.396 346.537 468.861C346.537 489.324 362.141 505.974 381.322 505.974C400.503 505.974 416.106 489.325 416.106 468.861C416.106 448.396 400.503 431.747 381.322 431.747ZM381.324 489.903C370.448 489.903 361.601 480.463 361.601 468.861C361.601 457.257 370.449 447.818 381.324 447.818C392.198 447.818 401.046 457.258 401.046 468.861C401.046 480.463 392.198 489.903 381.324 489.903Z" fill="#9528B3"/>
</g>
<g filter="url(#filter0_d_55_310)">
<path d="M571.856 181.468C570.904 181.468 570.036 181.328 569.252 181.048C568.524 180.824 567.908 180.348 567.404 179.62C565.108 180.012 562.84 180.32 560.6 180.544C558.36 180.768 556.26 180.88 554.3 180.88C552.62 180.88 551.304 180.46 550.352 179.62C549.4 178.836 548.924 177.716 548.924 176.26C548.924 175.42 549.4 174.468 550.352 173.404C551.304 172.34 553.068 171.332 555.644 170.38C558.22 169.372 561.972 168.588 566.9 168.028C567.292 165.396 567.88 162.288 568.664 158.704C569.448 155.064 570.4 151.2 571.52 147.112C572.64 142.968 573.956 138.88 575.468 134.848C573.396 137.032 571.212 138.88 568.916 140.392C566.676 141.904 564.52 143.052 562.448 143.836C560.432 144.62 558.696 145.012 557.24 145.012C556.064 145.012 555.084 144.816 554.3 144.424C553.572 144.032 553.208 143.304 553.208 142.24C553.208 140.896 553.852 139.664 555.14 138.544C556.428 137.368 557.828 136.22 559.34 135.1C561.636 133.364 564.1 131.292 566.732 128.884C569.42 126.476 571.912 123.9 574.208 121.156C576.56 118.412 578.38 115.724 579.668 113.092C580.284 111.916 580.956 110.992 581.684 110.32C582.412 109.592 583.588 109.228 585.212 109.228C586.836 109.228 588.012 109.956 588.74 111.412C589.468 112.812 589.832 114.492 589.832 116.452C589.832 117.236 589.608 118.86 589.16 121.324C588.712 123.732 588.096 126.7 587.312 130.228C586.528 133.7 585.66 137.536 584.708 141.736C583.756 145.88 582.776 150.136 581.768 154.504C580.76 158.872 579.808 163.1 578.912 167.188C580.76 167.132 582.664 167.104 584.624 167.104C586.976 167.104 589.02 167.3 590.756 167.692C592.492 168.084 593.36 168.924 593.36 170.212C593.36 171.556 592.772 172.564 591.596 173.236C590.476 173.852 589.104 174.412 587.48 174.916C585.968 175.364 584.26 175.84 582.356 176.344C580.452 176.904 578.436 177.408 576.308 177.856C575.748 179.144 575.076 180.068 574.292 180.628C573.508 181.188 572.696 181.468 571.856 181.468ZM637.593 176.428C633.897 176.428 630.453 175.504 627.261 173.656C624.069 171.752 621.493 168.952 619.533 165.256C617.573 161.56 616.593 156.968 616.593 151.48C616.593 147.784 617.237 144.256 618.525 140.896C619.813 137.48 621.269 134.456 622.893 131.824C622.613 131.096 622.473 130.256 622.473 129.304C622.473 127.12 623.089 124.964 624.321 122.836C625.609 120.652 627.289 118.664 629.361 116.872C631.489 115.08 633.869 113.652 636.501 112.588C639.133 111.524 641.821 110.992 644.565 110.992C648.821 110.992 652.573 112.056 655.821 114.184C659.069 116.312 661.617 119.28 663.465 123.088C665.313 126.84 666.237 131.18 666.237 136.108C666.237 142.044 665.453 147.476 663.885 152.404C662.373 157.332 660.273 161.588 657.585 165.172C654.953 168.756 651.901 171.528 648.429 173.488C645.013 175.448 641.401 176.428 637.593 176.428ZM638.097 124.18C638.209 124.516 638.265 124.908 638.265 125.356C638.265 126.196 638.097 126.896 637.761 127.456C637.425 128.016 636.977 128.632 636.417 129.304C635.689 130.144 634.849 131.432 633.897 133.168C633.001 134.848 632.133 136.808 631.293 139.048C630.453 141.288 629.753 143.612 629.193 146.02C628.689 148.372 628.437 150.612 628.437 152.74C628.437 156.492 629.137 159.432 630.537 161.56C631.937 163.688 634.009 164.752 636.753 164.752C639.049 164.752 641.261 163.996 643.389 162.484C645.573 160.972 647.505 158.928 649.185 156.352C650.865 153.72 652.181 150.724 653.133 147.364C654.141 144.004 654.645 140.448 654.645 136.696C654.645 134.008 654.281 131.572 653.553 129.388C652.825 127.204 651.789 125.468 650.445 124.18C649.101 122.892 647.505 122.248 645.657 122.248C644.145 122.248 642.745 122.444 641.457 122.836C640.225 123.172 639.105 123.62 638.097 124.18ZM691.2 179.284C688.792 179.284 687.084 178.948 686.076 178.276C685.124 177.604 684.648 176.624 684.648 175.336C684.648 174.216 685.04 173.264 685.824 172.48C686.608 171.64 688.344 170.8 691.032 169.96C694.168 169.008 697.136 167.916 699.936 166.684C702.792 165.396 705.116 163.996 706.908 162.484C708.756 160.972 709.68 159.376 709.68 157.696C709.68 156.576 709.288 155.764 708.504 155.26C707.776 154.756 706.908 154.504 705.9 154.504C705.06 154.504 703.828 154.644 702.204 154.924C700.636 155.148 698.9 155.456 696.996 155.848C695.092 156.184 693.244 156.492 691.452 156.772C689.716 156.996 688.232 157.108 687 157.108C684.088 157.108 681.932 156.464 680.532 155.176C679.132 153.832 678.432 152.124 678.432 150.052C678.432 148.932 679.02 147.392 680.196 145.432C681.372 143.472 682.94 141.316 684.9 138.964C686.86 136.612 689.044 134.26 691.452 131.908C693.86 129.556 696.296 127.4 698.76 125.44C701.28 123.424 703.66 121.828 705.9 120.652C708.14 119.42 710.044 118.804 711.612 118.804C713.404 118.804 714.832 119.364 715.896 120.484C717.016 121.604 717.576 123.116 717.576 125.02C717.576 125.916 717.492 126.896 717.324 127.96C717.156 128.968 716.736 129.892 716.064 130.732C715.392 131.516 714.356 132.076 712.956 132.412C711.556 132.748 709.652 132.692 707.244 132.244C705.34 133.644 703.352 135.184 701.28 136.864C699.264 138.488 697.36 140.196 695.568 141.988C693.776 143.724 692.292 145.432 691.116 147.112C693.188 146.44 695.54 145.908 698.172 145.516C700.804 145.068 703.464 144.844 706.152 144.844C709.4 144.844 712.032 145.432 714.048 146.608C716.12 147.728 717.632 149.24 718.584 151.144C719.592 153.048 720.096 155.148 720.096 157.444C720.096 160.02 719.256 162.596 717.576 165.172C715.896 167.748 713.656 170.1 710.856 172.228C708.056 174.356 704.948 176.064 701.532 177.352C698.116 178.64 694.672 179.284 691.2 179.284Z" fill="white"/>
</g>
<defs>
<filter id="filter0_d_55_310" x="535.924" y="96.228" width="201.173" height="102.24" filterUnits="userSpaceOnUse" color-interpolation-filters="sRGB">
<feFlood flood-opacity="0" result="BackgroundImageFix"/>
<feColorMatrix in="SourceAlpha" type="matrix" values="0 0 0 0 0 0 0 0 0 0 0 0 0 0 0 0 0 0 127 0" result="hardAlpha"/>
<feOffset dx="2" dy="2"/>
<feGaussianBlur stdDeviation="7.5"/>
<feComposite in2="hardAlpha" operator="out"/>
<feColorMatrix type="matrix" values="0 0 0 0 0 0 0 0 0 0 0 0 0 0 0 0 0 0 0.75 0"/>
<feBlend mode="normal" in2="BackgroundImageFix" result="effect1_dropShadow_55_310"/>
<feBlend mode="normal" in="SourceGraphic" in2="effect1_dropShadow_55_310" result="shape"/>
</filter>
<linearGradient id="paint0_linear_55_310" x1="130" y1="102.5" x2="644" y2="616.5" gradientUnits="userSpaceOnUse">
<stop stop-color="#9528B3" stop-opacity="0.9"/>
<stop offset="1" stop-color="#9528B3" stop-opacity="0.75"/>
</linearGradient>
<clipPath id="clip0_55_310">
<rect width="463" height="494" fill="white" transform="translate(142 126)"/>
</clipPath>
</defs>
</svg>
