<svg width="768" height="746" viewBox="0 0 768 746" fill="none" xmlns="http://www.w3.org/2000/svg">
<circle cx="373" cy="373" r="363" fill="url(#paint0_linear_60_377)" fill-opacity="0.5" stroke="white" stroke-width="20"/>
<circle cx="648.5" cy="144.5" r="117" fill="white" fill-opacity="0.95" stroke="white" stroke-width="5"/>
<g clip-path="url(#clip0_60_377)">
<path d="M414.422 573.28C411.671 569.954 406.914 569.634 403.791 572.571C382.314 592.792 354.691 603.93 326.014 603.93C261.167 603.93 208.411 547.64 208.411 478.452V402.495H245.981C250.139 402.495 253.512 398.897 253.512 394.46C253.512 390.023 250.139 386.425 245.981 386.425H236.032V363.226H248.756C252.915 363.226 256.287 359.628 256.287 355.191V280.016C256.287 275.579 252.915 271.981 248.756 271.981H236.032V251.457H248.756C252.915 251.457 256.287 247.859 256.287 243.421V189.86C256.287 173.512 243.821 160.211 228.499 160.211C213.177 160.211 200.71 173.511 200.71 189.86V243.421C200.71 247.859 204.082 251.457 208.241 251.457H220.97V271.981H208.241C204.082 271.981 200.71 275.579 200.71 280.016V355.191C200.71 359.628 204.082 363.226 208.241 363.226H220.97V386.425H200.88C196.721 386.425 193.349 390.023 193.349 394.46V478.452C193.349 556.502 252.863 620 326.014 620C358.365 620 389.526 607.435 413.758 584.622C416.876 581.685 417.174 576.608 414.422 573.28ZM215.772 235.386V189.86C215.772 182.373 221.481 176.282 228.498 176.282C235.514 176.282 241.224 182.374 241.224 189.86V235.387L215.772 235.386ZM215.772 347.156V288.05H241.225V347.156H215.772Z" fill="white"/>
<path d="M546.12 398.857H524.206V371.732H546.118C550.278 371.732 553.649 368.135 553.649 363.698V302.832C553.649 281.079 537.063 263.381 516.675 263.381C496.287 263.381 479.7 281.078 479.7 302.832V363.698C479.7 368.135 483.072 371.733 487.231 371.733H509.144V398.858H487.231C483.072 398.858 479.7 402.456 479.7 406.893V446.204H458.679V394.46C458.679 390.023 455.308 386.425 451.148 386.425H438.422V363.226H451.148C455.308 363.226 458.679 359.628 458.679 355.191V268.613C458.679 264.175 455.308 260.577 451.148 260.577H438.422V240.053H451.148C455.308 240.053 458.679 236.455 458.679 232.018V178.457C458.679 162.108 446.214 148.808 430.891 148.808C415.568 148.808 403.102 162.108 403.102 178.457V232.019C403.102 236.456 406.473 240.054 410.633 240.054H423.36V260.578H410.633C406.473 260.578 403.102 264.176 403.102 268.614V355.192C403.102 359.629 406.473 363.227 410.633 363.227H423.36V386.426H370.957V363.226H383.683C387.843 363.226 391.214 359.628 391.214 355.191V322.935C391.214 318.498 387.843 314.9 383.683 314.9C379.523 314.9 376.152 318.498 376.152 322.935V347.157H350.699V270.947H376.152V296.152C376.152 300.589 379.523 304.187 383.683 304.187C387.843 304.187 391.214 300.589 391.214 296.152V262.911C391.214 258.474 387.843 254.876 383.683 254.876H370.957V234.352H383.683C387.843 234.352 391.214 230.754 391.214 226.317V155.649C391.216 139.3 378.75 126 363.428 126C348.105 126 335.64 139.3 335.64 155.649V226.316C335.64 230.753 339.012 234.351 343.171 234.351H355.897V254.875H343.171C339.012 254.875 335.64 258.473 335.64 262.91V355.191C335.64 359.628 339.012 363.226 343.171 363.226H355.897V386.425H303.494V363.226H316.22C320.379 363.226 323.751 359.628 323.751 355.191V268.613C323.751 264.175 320.379 260.577 316.22 260.577H303.494V240.053H316.22C320.379 240.053 323.751 236.455 323.751 232.018V161.351C323.751 145.003 311.285 131.702 295.963 131.702C280.641 131.702 268.175 145.003 268.175 161.351V232.018C268.175 236.455 271.547 240.053 275.706 240.053H288.432V260.577H275.706C271.547 260.577 268.175 264.175 268.175 268.613V355.191C268.175 359.628 271.547 363.226 275.706 363.226H288.432V386.425H271.083C266.924 386.425 263.552 390.023 263.552 394.46C263.552 398.897 266.924 402.495 271.083 402.495H443.619V478.452C443.619 507.402 434.643 534.596 417.661 557.094C415.051 560.55 415.562 565.608 418.803 568.391C420.195 569.587 421.863 570.169 423.522 570.169C425.723 570.169 427.904 569.143 429.392 567.173C448.279 542.151 458.681 510.641 458.681 478.452V462.274H479.702V499.174C479.702 503.611 483.073 507.209 487.233 507.209C523.856 507.209 553.651 475.419 553.651 436.344V406.893C553.651 402.455 550.28 398.857 546.12 398.857ZM350.7 218.281V155.649C350.7 148.161 356.41 142.07 363.427 142.07C370.443 142.07 376.153 148.162 376.153 155.649V218.281H350.7ZM283.236 223.983V161.351H283.236C283.236 153.864 288.946 147.773 295.963 147.773C302.979 147.773 308.689 153.865 308.689 161.351V223.983H283.236ZM283.236 347.156V276.647H308.69V347.156H283.236ZM418.166 223.983V178.457C418.166 170.969 423.875 164.878 430.893 164.878C437.909 164.878 443.619 170.97 443.619 178.457V223.984L418.166 223.983ZM418.166 347.156V276.647H443.619V347.156H418.166ZM494.761 355.664V302.833H494.762C494.762 289.941 504.593 279.453 516.675 279.453C528.758 279.453 538.587 289.941 538.587 302.833V355.664H494.761ZM538.587 436.345C538.587 463.829 519.523 486.653 494.761 490.552V414.928H538.587V436.345Z" fill="white"/>
<path d="M270.709 431.748C251.527 431.748 235.924 448.396 235.924 468.861C235.924 489.325 251.527 505.974 270.709 505.974C289.888 505.974 305.492 489.326 305.492 468.861C305.491 448.396 289.888 431.748 270.709 431.748ZM270.707 489.904C259.831 489.904 250.984 480.463 250.984 468.861C250.985 457.257 259.833 447.818 270.707 447.818C281.581 447.818 290.429 457.258 290.429 468.861C290.429 480.463 281.582 489.904 270.707 489.904Z" fill="white"/>
<path d="M381.322 431.748C362.142 431.748 346.537 448.396 346.537 468.861C346.537 489.325 362.141 505.974 381.322 505.974C400.503 505.974 416.106 489.326 416.106 468.861C416.106 448.396 400.503 431.748 381.322 431.748ZM381.324 489.904C370.448 489.904 361.601 480.463 361.601 468.861C361.601 457.257 370.449 447.818 381.324 447.818C392.198 447.818 401.046 457.258 401.046 468.861C401.046 480.463 392.198 489.904 381.324 489.904Z" fill="white"/>
</g>
<g filter="url(#filter0_d_60_377)">
<path d="M597.852 182.552C595.724 182.552 593.82 181.964 592.14 180.788C590.516 179.668 589.704 177.988 589.704 175.748C589.704 173.676 590.32 172.192 591.552 171.296C592.784 170.344 594.436 169.868 596.508 169.868C597.348 169.868 598.188 169.98 599.028 170.204C599.868 170.372 601.436 170.596 603.732 170.876C607.596 168.916 611.012 167.012 613.98 165.164C616.948 163.26 619.272 161.384 620.952 159.536C622.632 157.632 623.472 155.7 623.472 153.74C623.472 151.892 622.744 150.8 621.288 150.464C619.888 150.072 618.18 149.848 616.164 149.792C615.94 149.792 615.688 149.792 615.408 149.792C615.184 149.736 614.932 149.708 614.652 149.708C611.796 149.54 609.108 149.204 606.588 148.7C604.124 148.14 602.108 147.16 600.54 145.76C598.972 144.304 598.188 142.148 598.188 139.292C598.188 136.1 598.608 132.964 599.448 129.884C600.288 126.748 601.352 123.864 602.64 121.232C602.136 120.784 601.828 120.252 601.716 119.636C601.66 118.964 601.632 118.292 601.632 117.62C601.632 116.948 602.136 116.276 603.144 115.604C604.152 114.932 605.524 114.26 607.26 113.588C608.716 111.628 610.116 110.088 611.46 108.968C612.804 107.792 613.868 107.204 614.652 107.204C615.604 107.204 616.444 107.512 617.172 108.128C617.956 108.744 618.544 109.528 618.936 110.48C622.296 109.808 625.796 109.276 629.436 108.884C633.132 108.492 636.716 108.296 640.188 108.296C642.204 108.296 644.024 108.464 645.648 108.8C647.328 109.08 648.644 109.668 649.596 110.564C650.604 111.404 651.108 112.72 651.108 114.512C651.108 116.024 650.604 117.144 649.596 117.872C648.644 118.544 647.356 118.908 645.732 118.964C642.484 119.02 639.012 119.272 635.316 119.72C631.62 120.168 627.98 120.672 624.396 121.232C620.868 121.736 617.704 122.128 614.904 122.408C614.008 124.032 613.14 125.712 612.3 127.448C611.516 129.128 610.844 130.696 610.284 132.152C609.78 133.608 609.528 134.784 609.528 135.68C609.528 137.248 610.2 138.2 611.544 138.536C612.888 138.872 614.484 139.096 616.332 139.208C618.516 139.376 620.7 139.656 622.884 140.048C625.068 140.384 627.056 141 628.848 141.896C630.696 142.792 632.18 144.136 633.3 145.928C634.42 147.664 634.98 149.988 634.98 152.9C634.98 155.644 634.196 158.416 632.628 161.216C631.116 164.016 629.044 166.704 626.412 169.28C623.836 171.8 620.924 174.04 617.676 176C614.484 178.016 611.152 179.612 607.68 180.788C604.264 181.964 600.988 182.552 597.852 182.552ZM660.36 180.284C657.952 180.284 656.244 179.948 655.236 179.276C654.284 178.604 653.808 177.624 653.808 176.336C653.808 175.216 654.2 174.264 654.984 173.48C655.768 172.64 657.504 171.8 660.192 170.96C663.328 170.008 666.296 168.916 669.096 167.684C671.952 166.396 674.276 164.996 676.068 163.484C677.916 161.972 678.84 160.376 678.84 158.696C678.84 157.576 678.448 156.764 677.664 156.26C676.936 155.756 676.068 155.504 675.06 155.504C674.22 155.504 672.988 155.644 671.364 155.924C669.796 156.148 668.06 156.456 666.156 156.848C664.252 157.184 662.404 157.492 660.612 157.772C658.876 157.996 657.392 158.108 656.16 158.108C653.248 158.108 651.092 157.464 649.692 156.176C648.292 154.832 647.592 153.124 647.592 151.052C647.592 149.932 648.18 148.392 649.356 146.432C650.532 144.472 652.1 142.316 654.06 139.964C656.02 137.612 658.204 135.26 660.612 132.908C663.02 130.556 665.456 128.4 667.92 126.44C670.44 124.424 672.82 122.828 675.06 121.652C677.3 120.42 679.204 119.804 680.772 119.804C682.564 119.804 683.992 120.364 685.056 121.484C686.176 122.604 686.736 124.116 686.736 126.02C686.736 126.916 686.652 127.896 686.484 128.96C686.316 129.968 685.896 130.892 685.224 131.732C684.552 132.516 683.516 133.076 682.116 133.412C680.716 133.748 678.812 133.692 676.404 133.244C674.5 134.644 672.512 136.184 670.44 137.864C668.424 139.488 666.52 141.196 664.728 142.988C662.936 144.724 661.452 146.432 660.276 148.112C662.348 147.44 664.7 146.908 667.332 146.516C669.964 146.068 672.624 145.844 675.312 145.844C678.56 145.844 681.192 146.432 683.208 147.608C685.28 148.728 686.792 150.24 687.744 152.144C688.752 154.048 689.256 156.148 689.256 158.444C689.256 161.02 688.416 163.596 686.736 166.172C685.056 168.748 682.816 171.1 680.016 173.228C677.216 175.356 674.108 177.064 670.692 178.352C667.276 179.64 663.832 180.284 660.36 180.284Z" fill="white"/>
</g>
<defs>
<filter id="filter0_d_60_377" x="576.704" y="94.2041" width="129.553" height="105.348" filterUnits="userSpaceOnUse" color-interpolation-filters="sRGB">
<feFlood flood-opacity="0" result="BackgroundImageFix"/>
<feColorMatrix in="SourceAlpha" type="matrix" values="0 0 0 0 0 0 0 0 0 0 0 0 0 0 0 0 0 0 127 0" result="hardAlpha"/>
<feOffset dx="2" dy="2"/>
<feGaussianBlur stdDeviation="7.5"/>
<feComposite in2="hardAlpha" operator="out"/>
<feColorMatrix type="matrix" values="0 0 0 0 0 0 0 0 0 0 0 0 0 0 0 0 0 0 0.75 0"/>
<feBlend mode="normal" in2="BackgroundImageFix" result="effect1_dropShadow_60_377"/>
<feBlend mode="normal" in="SourceGraphic" in2="effect1_dropShadow_60_377" result="shape"/>
</filter>
<linearGradient id="paint0_linear_60_377" x1="130" y1="102.5" x2="644" y2="616.5" gradientUnits="userSpaceOnUse">
<stop stop-color="white" stop-opacity="0.9"/>
<stop offset="1" stop-color="white" stop-opacity="0.75"/>
</linearGradient>
<clipPath id="clip0_60_377">
<rect width="463" height="494" fill="white" transform="translate(142 126)"/>
</clipPath>
</defs>
</svg>
