<svg width="768" height="746" viewBox="0 0 768 746" fill="none" xmlns="http://www.w3.org/2000/svg">
<circle cx="373" cy="373" r="363" fill="url(#paint0_linear_60_254)" fill-opacity="0.5" stroke="#9528B3" stroke-width="20"/>
<circle cx="648.5" cy="144.5" r="117" fill="#9528B3" fill-opacity="0.95" stroke="#9528B3" stroke-width="5"/>
<g clip-path="url(#clip0_60_254)">
<path d="M414.422 573.28C411.671 569.954 406.914 569.634 403.791 572.571C382.314 592.792 354.691 603.93 326.014 603.93C261.167 603.93 208.411 547.64 208.411 478.452V402.495H245.981C250.139 402.495 253.512 398.897 253.512 394.46C253.512 390.023 250.139 386.425 245.981 386.425H236.032V363.226H248.756C252.915 363.226 256.287 359.628 256.287 355.191V280.016C256.287 275.579 252.915 271.981 248.756 271.981H236.032V251.457H248.756C252.915 251.457 256.287 247.859 256.287 243.421V189.86C256.287 173.512 243.821 160.211 228.499 160.211C213.177 160.211 200.71 173.511 200.71 189.86V243.421C200.71 247.859 204.082 251.457 208.241 251.457H220.97V271.981H208.241C204.082 271.981 200.71 275.579 200.71 280.016V355.191C200.71 359.628 204.082 363.226 208.241 363.226H220.97V386.425H200.88C196.721 386.425 193.349 390.023 193.349 394.46V478.452C193.349 556.502 252.863 620 326.014 620C358.365 620 389.526 607.435 413.758 584.622C416.876 581.685 417.174 576.608 414.422 573.28ZM215.772 235.386V189.86C215.772 182.373 221.481 176.282 228.498 176.282C235.514 176.282 241.224 182.374 241.224 189.86V235.387L215.772 235.386ZM215.772 347.156V288.05H241.225V347.156H215.772Z" fill="#9528B3"/>
<path d="M546.12 398.857H524.206V371.732H546.118C550.278 371.732 553.649 368.135 553.649 363.698V302.832C553.649 281.079 537.063 263.381 516.675 263.381C496.287 263.381 479.7 281.078 479.7 302.832V363.698C479.7 368.135 483.072 371.733 487.231 371.733H509.144V398.858H487.231C483.072 398.858 479.7 402.456 479.7 406.893V446.204H458.679V394.46C458.679 390.023 455.308 386.425 451.148 386.425H438.422V363.226H451.148C455.308 363.226 458.679 359.628 458.679 355.191V268.613C458.679 264.175 455.308 260.577 451.148 260.577H438.422V240.053H451.148C455.308 240.053 458.679 236.455 458.679 232.018V178.457C458.679 162.108 446.214 148.808 430.891 148.808C415.568 148.808 403.102 162.108 403.102 178.457V232.019C403.102 236.456 406.473 240.054 410.633 240.054H423.36V260.578H410.633C406.473 260.578 403.102 264.176 403.102 268.614V355.192C403.102 359.629 406.473 363.227 410.633 363.227H423.36V386.426H370.957V363.226H383.683C387.843 363.226 391.214 359.628 391.214 355.191V322.935C391.214 318.498 387.843 314.9 383.683 314.9C379.523 314.9 376.152 318.498 376.152 322.935V347.157H350.699V270.947H376.152V296.152C376.152 300.589 379.523 304.187 383.683 304.187C387.843 304.187 391.214 300.589 391.214 296.152V262.911C391.214 258.474 387.843 254.876 383.683 254.876H370.957V234.352H383.683C387.843 234.352 391.214 230.754 391.214 226.317V155.649C391.216 139.3 378.75 126 363.428 126C348.105 126 335.64 139.3 335.64 155.649V226.316C335.64 230.753 339.012 234.351 343.171 234.351H355.897V254.875H343.171C339.012 254.875 335.64 258.473 335.64 262.91V355.191C335.64 359.628 339.012 363.226 343.171 363.226H355.897V386.425H303.494V363.226H316.22C320.379 363.226 323.751 359.628 323.751 355.191V268.613C323.751 264.175 320.379 260.577 316.22 260.577H303.494V240.053H316.22C320.379 240.053 323.751 236.455 323.751 232.018V161.351C323.751 145.003 311.285 131.702 295.963 131.702C280.641 131.702 268.175 145.003 268.175 161.351V232.018C268.175 236.455 271.547 240.053 275.706 240.053H288.432V260.577H275.706C271.547 260.577 268.175 264.175 268.175 268.613V355.191C268.175 359.628 271.547 363.226 275.706 363.226H288.432V386.425H271.083C266.924 386.425 263.552 390.023 263.552 394.46C263.552 398.897 266.924 402.495 271.083 402.495H443.619V478.452C443.619 507.402 434.643 534.596 417.661 557.094C415.051 560.55 415.562 565.608 418.803 568.391C420.195 569.587 421.863 570.169 423.522 570.169C425.723 570.169 427.904 569.143 429.392 567.173C448.279 542.151 458.681 510.641 458.681 478.452V462.274H479.702V499.174C479.702 503.611 483.073 507.209 487.233 507.209C523.856 507.209 553.651 475.419 553.651 436.344V406.893C553.651 402.455 550.28 398.857 546.12 398.857ZM350.7 218.281V155.649C350.7 148.161 356.41 142.07 363.427 142.07C370.443 142.07 376.153 148.162 376.153 155.649V218.281H350.7ZM283.236 223.983V161.351H283.236C283.236 153.864 288.946 147.773 295.963 147.773C302.979 147.773 308.689 153.865 308.689 161.351V223.983H283.236ZM283.236 347.156V276.647H308.69V347.156H283.236ZM418.166 223.983V178.457C418.166 170.969 423.875 164.878 430.893 164.878C437.909 164.878 443.619 170.97 443.619 178.457V223.984L418.166 223.983ZM418.166 347.156V276.647H443.619V347.156H418.166ZM494.761 355.664V302.833H494.762C494.762 289.941 504.593 279.453 516.675 279.453C528.758 279.453 538.587 289.941 538.587 302.833V355.664H494.761ZM538.587 436.345C538.587 463.829 519.523 486.653 494.761 490.552V414.928H538.587V436.345Z" fill="#9528B3"/>
<path d="M270.709 431.747C251.527 431.747 235.924 448.396 235.924 468.861C235.924 489.324 251.527 505.974 270.709 505.974C289.888 505.974 305.492 489.325 305.492 468.861C305.491 448.396 289.888 431.747 270.709 431.747ZM270.707 489.903C259.831 489.903 250.984 480.463 250.984 468.861C250.985 457.257 259.833 447.818 270.707 447.818C281.581 447.818 290.429 457.258 290.429 468.861C290.429 480.463 281.582 489.903 270.707 489.903Z" fill="#9528B3"/>
<path d="M381.322 431.747C362.142 431.747 346.537 448.396 346.537 468.861C346.537 489.324 362.141 505.974 381.322 505.974C400.503 505.974 416.106 489.325 416.106 468.861C416.106 448.396 400.503 431.747 381.322 431.747ZM381.324 489.903C370.448 489.903 361.601 480.463 361.601 468.861C361.601 457.257 370.449 447.818 381.324 447.818C392.198 447.818 401.046 457.258 401.046 468.861C401.046 480.463 392.198 489.903 381.324 489.903Z" fill="#9528B3"/>
</g>
<g filter="url(#filter0_d_60_254)">
<path d="M601.968 180.368C599.728 180.368 597.432 180.088 595.08 179.528C592.784 179.024 590.684 178.324 588.78 177.428C586.876 176.588 585.336 175.692 584.16 174.74C582.984 173.732 582.396 172.78 582.396 171.884C582.396 170.876 582.732 169.98 583.404 169.196C584.076 168.412 585.336 168.02 587.184 168.02C587.856 168.02 588.836 168.132 590.124 168.356C591.468 168.524 592.868 168.72 594.324 168.944C595.836 169.168 597.096 169.28 598.104 169.28C603.704 169.28 608.632 168.412 612.888 166.676C617.2 164.884 620.784 162.532 623.64 159.62C626.552 156.652 628.764 153.46 630.276 150.044C627.98 151.836 625.404 153.348 622.548 154.58C619.748 155.812 616.976 156.428 614.232 156.428C610.088 156.428 606.812 155.252 604.404 152.9C602.052 150.492 600.876 147.076 600.876 142.652C600.876 139.796 601.352 136.94 602.304 134.084C603.256 131.172 604.544 128.4 606.168 125.768C607.848 123.136 609.724 120.812 611.796 118.796C613.924 116.724 616.136 115.1 618.432 113.924C620.784 112.748 623.08 112.16 625.32 112.16C628.4 112.16 631.312 113.252 634.056 115.436C636.8 117.564 639.012 120.868 640.692 125.348C642.428 129.772 643.296 135.428 643.296 142.316C643.296 145.564 642.68 148.98 641.448 152.564C640.216 156.092 638.424 159.508 636.072 162.812C633.72 166.116 630.864 169.084 627.504 171.716C624.144 174.348 620.308 176.448 615.996 178.016C611.74 179.584 607.064 180.368 601.968 180.368ZM632.712 138.284C632.656 133.86 632.068 130.276 630.948 127.532C629.884 124.788 627.952 123.416 625.152 123.416C623.696 123.416 622.156 124.088 620.532 125.432C618.964 126.776 617.48 128.54 616.08 130.724C614.736 132.852 613.616 135.12 612.72 137.528C611.88 139.936 611.46 142.204 611.46 144.332C611.46 145.228 611.796 145.676 612.468 145.676C615.156 145.676 617.76 145.228 620.28 144.332C622.856 143.38 625.208 142.316 627.336 141.14C629.52 139.964 631.312 139.012 632.712 138.284ZM667.825 180.284C665.417 180.284 663.709 179.948 662.701 179.276C661.749 178.604 661.273 177.624 661.273 176.336C661.273 175.216 661.665 174.264 662.449 173.48C663.233 172.64 664.969 171.8 667.657 170.96C670.793 170.008 673.761 168.916 676.561 167.684C679.417 166.396 681.741 164.996 683.533 163.484C685.381 161.972 686.305 160.376 686.305 158.696C686.305 157.576 685.913 156.764 685.129 156.26C684.401 155.756 683.533 155.504 682.525 155.504C681.685 155.504 680.453 155.644 678.829 155.924C677.261 156.148 675.525 156.456 673.621 156.848C671.717 157.184 669.869 157.492 668.077 157.772C666.341 157.996 664.857 158.108 663.625 158.108C660.713 158.108 658.557 157.464 657.157 156.176C655.757 154.832 655.057 153.124 655.057 151.052C655.057 149.932 655.645 148.392 656.821 146.432C657.997 144.472 659.565 142.316 661.525 139.964C663.485 137.612 665.669 135.26 668.077 132.908C670.485 130.556 672.921 128.4 675.385 126.44C677.905 124.424 680.285 122.828 682.525 121.652C684.765 120.42 686.669 119.804 688.237 119.804C690.029 119.804 691.457 120.364 692.521 121.484C693.641 122.604 694.201 124.116 694.201 126.02C694.201 126.916 694.117 127.896 693.949 128.96C693.781 129.968 693.361 130.892 692.689 131.732C692.017 132.516 690.981 133.076 689.581 133.412C688.181 133.748 686.277 133.692 683.869 133.244C681.965 134.644 679.977 136.184 677.905 137.864C675.889 139.488 673.985 141.196 672.193 142.988C670.401 144.724 668.917 146.432 667.741 148.112C669.813 147.44 672.165 146.908 674.797 146.516C677.429 146.068 680.089 145.844 682.777 145.844C686.025 145.844 688.657 146.432 690.673 147.608C692.745 148.728 694.257 150.24 695.209 152.144C696.217 154.048 696.721 156.148 696.721 158.444C696.721 161.02 695.881 163.596 694.201 166.172C692.521 168.748 690.281 171.1 687.481 173.228C684.681 175.356 681.573 177.064 678.157 178.352C674.741 179.64 671.297 180.284 667.825 180.284Z" fill="white"/>
</g>
<defs>
<filter id="filter0_d_60_254" x="569.396" y="99.16" width="144.325" height="98.208" filterUnits="userSpaceOnUse" color-interpolation-filters="sRGB">
<feFlood flood-opacity="0" result="BackgroundImageFix"/>
<feColorMatrix in="SourceAlpha" type="matrix" values="0 0 0 0 0 0 0 0 0 0 0 0 0 0 0 0 0 0 127 0" result="hardAlpha"/>
<feOffset dx="2" dy="2"/>
<feGaussianBlur stdDeviation="7.5"/>
<feComposite in2="hardAlpha" operator="out"/>
<feColorMatrix type="matrix" values="0 0 0 0 0 0 0 0 0 0 0 0 0 0 0 0 0 0 0.75 0"/>
<feBlend mode="normal" in2="BackgroundImageFix" result="effect1_dropShadow_60_254"/>
<feBlend mode="normal" in="SourceGraphic" in2="effect1_dropShadow_60_254" result="shape"/>
</filter>
<linearGradient id="paint0_linear_60_254" x1="130" y1="102.5" x2="644" y2="616.5" gradientUnits="userSpaceOnUse">
<stop stop-color="#9528B3" stop-opacity="0.9"/>
<stop offset="1" stop-color="#9528B3" stop-opacity="0.75"/>
</linearGradient>
<clipPath id="clip0_60_254">
<rect width="463" height="494" fill="white" transform="translate(142 126)"/>
</clipPath>
</defs>
</svg>
