<?xml version="1.0" encoding="iso-8859-1"?>
<!-- Uploaded to: SVG Repo, www.svgrepo.com, Generator: SVG Repo Mixer Tools -->
<svg width="20" height="20" version="1.1" id="Capa_1" xmlns="http://www.w3.org/2000/svg" xmlns:xlink="http://www.w3.org/1999/xlink" 
     viewBox="0 0 93.576 93.576" xml:space="preserve">
<g>
    <path style="fill:#c0c0c0;" d="M46.783,3C22.641,3,3,22.641,3,46.783C3,70.93,22.641,90.576,46.783,90.576
        c24.147,0,43.793-19.646,43.793-43.793C90.576,22.641,70.931,3,46.783,3z M46.783,81.662c-19.227,0-34.868-15.646-34.868-34.879
        c0-19.226,15.642-34.867,34.868-34.867c19.231,0,34.878,15.642,34.878,34.867C81.661,66.015,66.015,81.662,46.783,81.662z"/>
    <path d="M46.783,0C20.987,0,0,20.987,0,46.783c0,25.802,20.987,46.793,46.783,46.793c25.802,0,46.793-20.991,46.793-46.793
        C93.576,20.987,72.585,0,46.783,0z M46.783,90.576C22.641,90.576,3,70.93,3,46.783C3,22.641,22.641,3,46.783,3
        c24.147,0,43.793,19.641,43.793,43.782C90.576,70.93,70.931,90.576,46.783,90.576z"/>
    <path style="fill:#c0c0c0;" d="M51.519,53.923c0-0.416-0.097-0.572-0.243-0.708c-0.031-0.029-0.096-0.082-0.213-0.153v1.581
        C51.519,54.377,51.519,54.075,51.519,53.923z"/>
    <path style="fill:#c0c0c0;" d="M42.734,38.013v0.104c0,0.35,0.109,0.479,0.212,0.574c0.025,0.022,0.108,0.09,0.298,0.189v-1.604
        c-0.121,0.059-0.188,0.108-0.221,0.137C42.785,37.623,42.734,37.805,42.734,38.013z"/>
    <path style="fill:#c0c0c0;" d="M46.783,14.916c-17.572,0-31.868,14.296-31.868,31.867c0,17.578,14.296,31.879,31.868,31.879
        c17.577,0,31.878-14.301,31.878-31.879C78.661,29.211,64.36,14.916,46.783,14.916z M63.032,53.258c0,1.783-0.126,3.428-0.796,4.887
        c-0.683,1.454-1.537,2.724-2.756,3.787c-1.205,1.045-2.716,1.884-4.377,2.495c-1.246,0.456-2.071,0.793-4.071,1.006v4.885h-8
        v-4.997c-2-0.328-4.439-0.87-6.502-1.614c-2.508-0.901-4.862-2.113-6.93-3.601L28.4,59.254l6.324-9.352l1.247,0.891
        c1.537,1.094,2.986,1.982,4.478,2.641c0.869,0.383,1.583,0.7,2.583,0.949v-3.154c-2-0.431-3.071-0.904-4.419-1.438
        c-1.701-0.667-3.119-1.506-4.294-2.49c-1.211-1.006-1.931-2.22-2.562-3.602c-0.625-1.371-0.726-2.988-0.726-4.809v-0.103
        c0-1.726,0.126-3.336,0.759-4.786c0.623-1.45,1.461-2.748,2.681-3.85c1.184-1.065,2.614-1.934,4.311-2.582
        c1.287-0.492,2.249-0.842,4.249-1.042v-3.21h8v3.414c2,0.284,3.58,0.721,5.092,1.302c1.914,0.741,3.79,1.685,5.413,2.805
        l1.211,0.807l-5.797,9.49l-1.296-0.92c-0.992-0.698-2.072-1.291-3.148-1.76c-0.49-0.212-0.475-0.398-1.475-0.563v2.819
        c2,0.432,3.203,0.924,4.519,1.47c1.677,0.701,3.123,1.549,4.264,2.522c1.21,1.029,1.925,2.265,2.525,3.671
        c0.594,1.402,0.691,3.008,0.691,4.774V53.258z"/>
    <path d="M46.783,11.916c-19.227,0-34.868,15.642-34.868,34.867c0,19.232,15.642,34.879,34.868,34.879
        c19.231,0,34.878-15.646,34.878-34.879C81.661,27.557,66.015,11.916,46.783,11.916z M46.783,78.662
        c-17.572,0-31.868-14.301-31.868-31.879c0-17.571,14.296-31.867,31.868-31.867c17.577,0,31.878,14.296,31.878,31.867
        C78.661,64.361,64.36,78.662,46.783,78.662z"/>
    <path style="fill:#c0c0c0;" d="M57.889,46.988c-0.906-0.772-2.068-1.458-3.454-2.037c-1.46-0.605-3.237-1.145-5.205-1.602
        l-1.198-0.27v-9.068l1.875,0.426c1.23,0.284,2.527,0.71,3.817,1.266c0.789,0.345,1.571,0.742,2.321,1.19l2.114-1.963
        l2.313,1.963l-2.344,1.945L57.889,46.988z"/>
    <path style="fill:#c0c0c0;" d="M42.221,55.676c-1.618-0.726-3.362-1.228-5.076-1.665v3.815c2.026,0.415,4.014,0.949,5.851,1.543
        l0.118,0.048l1.685-2.835l-0.217-0.132L42.221,55.676z"/>
    <path style="fill:#c0c0c0;" d="M53.465,48.356c-0.597-0.477-1.342-0.892-2.131-1.23c-1.195-0.446-2.548-0.827-3.808-1.153
        l-0.799-0.184v3.903c1.173,0.389,2.339,0.795,3.458,1.286c0.648,0.251,1.346,0.522,1.958,0.836L53.465,48.356z"/>
</g>
</svg>
