<svg width="768" height="746" viewBox="0 0 768 746" fill="none" xmlns="http://www.w3.org/2000/svg">
<circle cx="373" cy="373" r="363" fill="url(#paint0_linear_53_191)" fill-opacity="0.5" stroke="white" stroke-width="20"/>
<circle cx="648.5" cy="144.5" r="117" fill="white" fill-opacity="0.95" stroke="white" stroke-width="5"/>
<path d="M233.667 561.588V607M445.333 561.588V607M445.333 379.941C457.024 379.941 466.5 369.776 466.5 357.235C466.5 344.695 457.024 334.529 445.333 334.529C433.643 334.529 424.167 344.695 424.167 357.235C424.167 369.776 433.643 379.941 445.333 379.941ZM445.333 379.941V448.059M445.333 357.235H445.545M286.583 391.294H286.795M360.667 391.294C360.667 435.185 327.498 470.765 286.583 470.765C245.668 470.765 212.5 435.185 212.5 391.294C212.5 347.404 245.668 311.824 286.583 311.824C327.498 311.824 360.667 347.404 360.667 391.294ZM250.6 561.588H428.4C463.964 561.588 481.744 561.588 495.329 554.163C507.278 547.633 516.991 537.213 523.078 524.396C530 509.823 530 490.75 530 452.6V329.988C530 291.839 530 272.764 523.078 258.193C516.991 245.376 507.278 234.955 495.329 228.424C481.744 221 463.964 221 428.4 221H250.6C215.037 221 197.255 221 183.672 228.424C171.723 234.955 162.009 245.376 155.921 258.193C149 272.764 149 291.839 149 329.988V452.6C149 490.75 149 509.823 155.921 524.396C162.009 537.213 171.723 547.633 183.672 554.163C197.255 561.588 215.037 561.588 250.6 561.588Z" stroke="white" stroke-width="20" stroke-linecap="round" stroke-linejoin="round"/>
<g filter="url(#filter0_d_53_191)">
<path d="M636.139 130.29C634.746 130.29 633.499 129.905 632.399 129.135C631.336 128.402 630.804 127.302 630.804 125.835C630.804 124.478 631.207 123.507 632.014 122.92C632.821 122.297 633.902 121.985 635.259 121.985C635.809 121.985 636.359 122.058 636.909 122.205C637.459 122.315 638.486 122.462 639.989 122.645C642.519 121.362 644.756 120.115 646.699 118.905C648.642 117.658 650.164 116.43 651.264 115.22C652.364 113.973 652.914 112.708 652.914 111.425C652.914 110.215 652.437 109.5 651.484 109.28C650.567 109.023 649.449 108.877 648.129 108.84C647.982 108.84 647.817 108.84 647.634 108.84C647.487 108.803 647.322 108.785 647.139 108.785C645.269 108.675 643.509 108.455 641.859 108.125C640.246 107.758 638.926 107.117 637.899 106.2C636.872 105.247 636.359 103.835 636.359 101.965C636.359 99.875 636.634 97.8217 637.184 95.805C637.734 93.7517 638.431 91.8633 639.274 90.14C638.944 89.8467 638.742 89.4983 638.669 89.095C638.632 88.655 638.614 88.215 638.614 87.775C638.614 87.335 638.944 86.895 639.604 86.455C640.264 86.015 641.162 85.575 642.299 85.135C643.252 83.8517 644.169 82.8433 645.049 82.11C645.929 81.34 646.626 80.955 647.139 80.955C647.762 80.955 648.312 81.1567 648.789 81.56C649.302 81.9633 649.687 82.4767 649.944 83.1C652.144 82.66 654.436 82.3117 656.819 82.055C659.239 81.7983 661.586 81.67 663.859 81.67C665.179 81.67 666.371 81.78 667.434 82C668.534 82.1833 669.396 82.5683 670.019 83.155C670.679 83.705 671.009 84.5667 671.009 85.74C671.009 86.73 670.679 87.4633 670.019 87.94C669.396 88.38 668.552 88.6183 667.489 88.655C665.362 88.6917 663.089 88.8567 660.669 89.15C658.249 89.4433 655.866 89.7733 653.519 90.14C651.209 90.47 649.137 90.7267 647.304 90.91C646.717 91.9733 646.149 93.0733 645.599 94.21C645.086 95.31 644.646 96.3367 644.279 97.29C643.949 98.2433 643.784 99.0133 643.784 99.6C643.784 100.627 644.224 101.25 645.104 101.47C645.984 101.69 647.029 101.837 648.239 101.91C649.669 102.02 651.099 102.203 652.529 102.46C653.959 102.68 655.261 103.083 656.434 103.67C657.644 104.257 658.616 105.137 659.349 106.31C660.082 107.447 660.449 108.968 660.449 110.875C660.449 112.672 659.936 114.487 658.909 116.32C657.919 118.153 656.562 119.913 654.839 121.6C653.152 123.25 651.246 124.717 649.119 126C647.029 127.32 644.847 128.365 642.574 129.135C640.337 129.905 638.192 130.29 636.139 130.29ZM604.579 205.63C603.809 205.63 603.094 205.447 602.434 205.08C601.774 204.713 601.243 204.072 600.839 203.155C600.473 202.238 600.363 200.955 600.509 199.305C599.226 194.978 598.053 190.67 596.989 186.38C595.963 182.09 594.991 177.672 594.074 173.125C592.754 176.132 591.563 179.212 590.499 182.365C589.436 185.482 588.483 188.433 587.639 191.22C586.796 193.97 586.026 196.28 585.329 198.15C584.779 199.8 584.229 201.028 583.679 201.835C583.129 202.605 582.579 203.1 582.029 203.32C581.516 203.577 581.003 203.705 580.489 203.705C579.243 203.705 578.289 203.412 577.629 202.825C576.969 202.238 576.639 201.175 576.639 199.635C576.639 198.828 576.859 197.6 577.299 195.95C577.739 194.263 578.326 192.338 579.059 190.175C579.829 187.975 580.709 185.683 581.699 183.3C582.689 180.88 583.734 178.533 584.834 176.26C585.934 173.987 587.034 171.933 588.134 170.1C589.234 168.23 590.298 166.745 591.324 165.645C592.351 164.545 593.268 163.995 594.074 163.995C594.771 163.995 595.413 164.068 595.999 164.215C596.586 164.325 597.154 164.655 597.704 165.205C598.254 165.718 598.823 166.58 599.409 167.79C599.886 168.707 600.363 170.027 600.839 171.75C601.316 173.437 601.774 175.38 602.214 177.58C602.654 179.743 603.094 182.017 603.534 184.4C604.011 186.783 604.488 189.112 604.964 191.385C606.358 185.042 607.476 179.468 608.319 174.665C609.199 169.825 609.841 166.03 610.244 163.28C610.648 160.53 610.868 159.082 610.904 158.935C611.161 157.872 611.436 157.138 611.729 156.735C612.023 156.295 612.353 156.038 612.719 155.965C613.086 155.855 613.508 155.8 613.984 155.8C614.021 155.8 614.039 155.8 614.039 155.8C614.993 155.8 615.928 156.185 616.844 156.955C617.798 157.725 618.274 158.77 618.274 160.09C618.274 160.53 618.183 161.52 617.999 163.06C617.816 164.563 617.541 166.47 617.174 168.78C616.844 171.053 616.404 173.583 615.854 176.37C615.304 179.12 614.663 181.998 613.929 185.005C613.233 187.975 612.444 190.927 611.564 193.86C610.684 196.793 609.713 199.543 608.649 202.11C608.063 203.577 607.366 204.53 606.559 204.97C605.789 205.41 605.129 205.63 604.579 205.63ZM637.821 202.44C636.868 202.44 636.171 201.982 635.731 201.065C635.291 200.148 635.071 198.517 635.071 196.17C635.071 192.87 635.273 189.387 635.676 185.72C636.116 182.017 636.684 178.02 637.381 173.73C638.004 170.32 639.489 167.698 641.836 165.865C644.219 164.032 647.409 162.528 651.406 161.355C653.899 160.622 656.484 159.943 659.161 159.32C661.838 158.697 664.349 158.202 666.696 157.835C669.079 157.432 671.041 157.23 672.581 157.23C673.754 157.23 674.671 157.413 675.331 157.78C675.991 158.147 676.449 158.605 676.706 159.155C676.999 159.668 677.146 160.145 677.146 160.585C677.146 161.282 676.981 161.905 676.651 162.455C676.321 163.005 675.606 163.427 674.506 163.72C674.029 163.867 673.021 164.123 671.481 164.49C669.978 164.82 668.126 165.223 665.926 165.7C663.763 166.177 661.471 166.69 659.051 167.24C656.631 167.753 654.284 168.285 652.011 168.835C649.774 169.495 648.124 170.302 647.061 171.255C646.034 172.172 645.356 173.51 645.026 175.27C644.953 175.637 644.879 176.15 644.806 176.81C646.309 176.333 647.923 175.948 649.646 175.655C651.369 175.362 652.964 175.142 654.431 174.995C655.898 174.848 656.979 174.775 657.676 174.775C658.409 174.775 659.179 174.903 659.986 175.16C660.829 175.38 661.544 175.728 662.131 176.205C662.754 176.645 663.066 177.213 663.066 177.91C663.066 178.57 662.809 179.175 662.296 179.725C661.783 180.238 660.738 180.733 659.161 181.21C658.831 181.32 658.079 181.467 656.906 181.65C655.769 181.833 654.413 182.072 652.836 182.365C651.296 182.622 649.719 182.915 648.106 183.245C646.529 183.575 645.136 183.923 643.926 184.29C643.669 186.27 643.431 188.25 643.211 190.23C642.991 192.21 642.808 193.933 642.661 195.4C642.514 196.83 642.404 197.728 642.331 198.095C642.111 199.452 641.579 200.515 640.736 201.285C639.893 202.055 638.921 202.44 637.821 202.44ZM685.987 168.505C684.227 168.505 682.925 168.34 682.082 168.01C681.275 167.643 680.744 167.222 680.487 166.745C680.267 166.232 680.157 165.773 680.157 165.37C680.157 164.857 680.45 164.27 681.037 163.61C681.624 162.913 682.76 162.4 684.447 162.07C686.134 161.703 688.132 161.373 690.442 161.08C692.752 160.75 695.209 160.475 697.812 160.255C700.415 159.998 703.055 159.778 705.732 159.595C708.409 159.412 710.957 159.283 713.377 159.21C715.797 159.1 717.942 159.045 719.812 159.045C721.755 159.045 723.259 159.155 724.322 159.375C725.385 159.595 726.137 159.87 726.577 160.2C727.054 160.53 727.329 160.878 727.402 161.245C727.512 161.612 727.567 161.96 727.567 162.29C727.567 162.363 727.567 162.418 727.567 162.455C727.567 162.895 727.457 163.372 727.237 163.885C727.054 164.398 726.632 164.838 725.972 165.205C725.312 165.535 724.322 165.7 723.002 165.7C722.525 165.7 721.462 165.773 719.812 165.92C718.162 166.067 716.145 166.25 713.762 166.47C711.379 166.69 708.849 166.91 706.172 167.13C705.769 168.78 705.31 170.705 704.797 172.905C704.32 175.105 703.825 177.415 703.312 179.835C702.835 182.255 702.377 184.638 701.937 186.985C701.497 189.295 701.13 191.44 700.837 193.42C700.544 195.363 700.342 196.958 700.232 198.205C700.085 199.892 699.59 201.083 698.747 201.78C697.94 202.44 697.134 202.77 696.327 202.77C695.74 202.77 695.154 202.642 694.567 202.385C693.98 202.165 693.504 201.67 693.137 200.9C692.77 200.093 692.587 198.902 692.587 197.325C692.587 195.712 692.734 193.732 693.027 191.385C693.32 189.002 693.705 186.453 694.182 183.74C694.695 181.027 695.264 178.295 695.887 175.545C696.547 172.795 697.225 170.228 697.922 167.845C695.465 168.028 693.192 168.193 691.102 168.34C689.012 168.45 687.307 168.505 685.987 168.505Z" fill="white"/>
</g>
<defs>
<filter id="filter0_d_53_191" x="563.64" y="67.955" width="180.928" height="154.675" filterUnits="userSpaceOnUse" color-interpolation-filters="sRGB">
<feFlood flood-opacity="0" result="BackgroundImageFix"/>
<feColorMatrix in="SourceAlpha" type="matrix" values="0 0 0 0 0 0 0 0 0 0 0 0 0 0 0 0 0 0 127 0" result="hardAlpha"/>
<feOffset dx="2" dy="2"/>
<feGaussianBlur stdDeviation="7.5"/>
<feComposite in2="hardAlpha" operator="out"/>
<feColorMatrix type="matrix" values="0 0 0 0 0 0 0 0 0 0 0 0 0 0 0 0 0 0 0.75 0"/>
<feBlend mode="normal" in2="BackgroundImageFix" result="effect1_dropShadow_53_191"/>
<feBlend mode="normal" in="SourceGraphic" in2="effect1_dropShadow_53_191" result="shape"/>
</filter>
<linearGradient id="paint0_linear_53_191" x1="130" y1="102.5" x2="644" y2="616.5" gradientUnits="userSpaceOnUse">
<stop stop-color="white" stop-opacity="0.9"/>
<stop offset="1" stop-color="white" stop-opacity="0.75"/>
</linearGradient>
</defs>
</svg>
