<svg width="768" height="746" viewBox="0 0 768 746" fill="none" xmlns="http://www.w3.org/2000/svg">
<circle cx="373" cy="373" r="363" fill="url(#paint0_linear_60_931)" fill-opacity="0.5" stroke="#12499E" stroke-width="20"/>
<circle cx="648.5" cy="144.5" r="117" fill="#12499E" fill-opacity="0.95" stroke="#12499E" stroke-width="5"/>
<path d="M233.667 561.588V607M445.333 561.588V607M445.333 379.941C457.024 379.941 466.5 369.776 466.5 357.235C466.5 344.695 457.024 334.529 445.333 334.529C433.643 334.529 424.167 344.695 424.167 357.235C424.167 369.776 433.643 379.941 445.333 379.941ZM445.333 379.941V448.059M445.333 357.235H445.545M286.583 391.294H286.795M360.667 391.294C360.667 435.185 327.498 470.765 286.583 470.765C245.668 470.765 212.5 435.185 212.5 391.294C212.5 347.404 245.668 311.824 286.583 311.824C327.498 311.824 360.667 347.404 360.667 391.294ZM250.6 561.588H428.4C463.964 561.588 481.744 561.588 495.329 554.163C507.278 547.633 516.991 537.213 523.078 524.396C530 509.823 530 490.75 530 452.6V329.988C530 291.839 530 272.764 523.078 258.193C516.991 245.376 507.278 234.955 495.329 228.424C481.744 221 463.964 221 428.4 221H250.6C215.037 221 197.255 221 183.672 228.424C171.723 234.955 162.009 245.376 155.921 258.193C149 272.764 149 291.839 149 329.988V452.6C149 490.75 149 509.823 155.921 524.396C162.009 537.213 171.723 547.633 183.672 554.163C197.255 561.588 215.037 561.588 250.6 561.588Z" stroke="#12499E" stroke-width="20" stroke-linecap="round" stroke-linejoin="round"/>
<g filter="url(#filter0_d_60_931)">
<path d="M626.21 131.235C625.587 131.235 625.019 131.143 624.505 130.96C624.029 130.813 623.625 130.502 623.295 130.025C621.792 130.282 620.307 130.483 618.84 130.63C617.374 130.777 615.999 130.85 614.715 130.85C613.615 130.85 612.754 130.575 612.13 130.025C611.507 129.512 611.195 128.778 611.195 127.825C611.195 127.275 611.507 126.652 612.13 125.955C612.754 125.258 613.909 124.598 615.595 123.975C617.282 123.315 619.739 122.802 622.965 122.435C623.222 120.712 623.607 118.677 624.12 116.33C624.634 113.947 625.257 111.417 625.99 108.74C626.724 106.027 627.585 103.35 628.575 100.71C627.219 102.14 625.789 103.35 624.285 104.34C622.819 105.33 621.407 106.082 620.05 106.595C618.73 107.108 617.594 107.365 616.64 107.365C615.87 107.365 615.229 107.237 614.715 106.98C614.239 106.723 614 106.247 614 105.55C614 104.67 614.422 103.863 615.265 103.13C616.109 102.36 617.025 101.608 618.015 100.875C619.519 99.7383 621.132 98.3817 622.855 96.805C624.615 95.2283 626.247 93.5417 627.75 91.745C629.29 89.9483 630.482 88.1883 631.325 86.465C631.729 85.695 632.169 85.09 632.645 84.65C633.122 84.1733 633.892 83.935 634.955 83.935C636.019 83.935 636.789 84.4117 637.265 85.365C637.742 86.2817 637.98 87.3817 637.98 88.665C637.98 89.1783 637.834 90.2417 637.54 91.855C637.247 93.4317 636.844 95.375 636.33 97.685C635.817 99.9583 635.249 102.47 634.625 105.22C634.002 107.933 633.36 110.72 632.7 113.58C632.04 116.44 631.417 119.208 630.83 121.885C632.04 121.848 633.287 121.83 634.57 121.83C636.11 121.83 637.449 121.958 638.585 122.215C639.722 122.472 640.29 123.022 640.29 123.865C640.29 124.745 639.905 125.405 639.135 125.845C638.402 126.248 637.504 126.615 636.44 126.945C635.45 127.238 634.332 127.55 633.085 127.88C631.839 128.247 630.519 128.577 629.125 128.87C628.759 129.713 628.319 130.318 627.805 130.685C627.292 131.052 626.76 131.235 626.21 131.235ZM655.712 130.96C654.978 130.96 654.318 130.703 653.732 130.19C653.182 129.713 652.907 128.98 652.907 127.99C652.907 127.183 653.255 126.01 653.952 124.47C654.648 122.893 655.602 121.06 656.812 118.97C658.058 116.843 659.452 114.533 660.992 112.04C662.568 109.51 664.237 106.888 665.997 104.175C667.463 101.902 668.967 99.61 670.507 97.3C672.083 94.9533 673.605 92.6617 675.072 90.425C672.468 90.865 669.938 91.305 667.482 91.745C665.062 92.185 662.972 92.57 661.212 92.9C659.452 93.1933 658.242 93.34 657.582 93.34C655.895 93.34 654.795 92.9917 654.282 92.295C653.768 91.5983 653.512 90.81 653.512 89.93C653.512 89.49 654.025 89.0317 655.052 88.555C656.078 88.0417 657.435 87.5283 659.122 87.015C660.808 86.5017 662.642 86.025 664.622 85.585C666.602 85.145 668.545 84.7417 670.452 84.375C672.395 84.0083 674.118 83.7333 675.622 83.55C677.162 83.33 678.298 83.22 679.032 83.22C679.948 83.22 680.828 83.4583 681.672 83.935C682.515 84.375 683.212 84.9617 683.762 85.695C684.312 86.3917 684.587 87.1433 684.587 87.95C684.587 88.2067 684.293 88.8667 683.707 89.93C683.157 90.9567 682.387 92.295 681.397 93.945C680.407 95.595 679.27 97.465 677.987 99.555C676.703 101.645 675.365 103.845 673.972 106.155C672.175 109.125 670.323 112.113 668.417 115.12C666.547 118.09 664.768 120.822 663.082 123.315C661.395 125.772 659.928 127.733 658.682 129.2C658.278 129.677 657.82 130.08 657.307 130.41C656.83 130.777 656.298 130.96 655.712 130.96ZM604.579 206.63C603.809 206.63 603.094 206.447 602.434 206.08C601.774 205.713 601.243 205.072 600.839 204.155C600.473 203.238 600.363 201.955 600.509 200.305C599.226 195.978 598.053 191.67 596.989 187.38C595.963 183.09 594.991 178.672 594.074 174.125C592.754 177.132 591.563 180.212 590.499 183.365C589.436 186.482 588.483 189.433 587.639 192.22C586.796 194.97 586.026 197.28 585.329 199.15C584.779 200.8 584.229 202.028 583.679 202.835C583.129 203.605 582.579 204.1 582.029 204.32C581.516 204.577 581.003 204.705 580.489 204.705C579.243 204.705 578.289 204.412 577.629 203.825C576.969 203.238 576.639 202.175 576.639 200.635C576.639 199.828 576.859 198.6 577.299 196.95C577.739 195.263 578.326 193.338 579.059 191.175C579.829 188.975 580.709 186.683 581.699 184.3C582.689 181.88 583.734 179.533 584.834 177.26C585.934 174.987 587.034 172.933 588.134 171.1C589.234 169.23 590.298 167.745 591.324 166.645C592.351 165.545 593.268 164.995 594.074 164.995C594.771 164.995 595.413 165.068 595.999 165.215C596.586 165.325 597.154 165.655 597.704 166.205C598.254 166.718 598.823 167.58 599.409 168.79C599.886 169.707 600.363 171.027 600.839 172.75C601.316 174.437 601.774 176.38 602.214 178.58C602.654 180.743 603.094 183.017 603.534 185.4C604.011 187.783 604.488 190.112 604.964 192.385C606.358 186.042 607.476 180.468 608.319 175.665C609.199 170.825 609.841 167.03 610.244 164.28C610.648 161.53 610.868 160.082 610.904 159.935C611.161 158.872 611.436 158.138 611.729 157.735C612.023 157.295 612.353 157.038 612.719 156.965C613.086 156.855 613.508 156.8 613.984 156.8C614.021 156.8 614.039 156.8 614.039 156.8C614.993 156.8 615.928 157.185 616.844 157.955C617.798 158.725 618.274 159.77 618.274 161.09C618.274 161.53 618.183 162.52 617.999 164.06C617.816 165.563 617.541 167.47 617.174 169.78C616.844 172.053 616.404 174.583 615.854 177.37C615.304 180.12 614.663 182.998 613.929 186.005C613.233 188.975 612.444 191.927 611.564 194.86C610.684 197.793 609.713 200.543 608.649 203.11C608.063 204.577 607.366 205.53 606.559 205.97C605.789 206.41 605.129 206.63 604.579 206.63ZM637.821 203.44C636.868 203.44 636.171 202.982 635.731 202.065C635.291 201.148 635.071 199.517 635.071 197.17C635.071 193.87 635.273 190.387 635.676 186.72C636.116 183.017 636.684 179.02 637.381 174.73C638.004 171.32 639.489 168.698 641.836 166.865C644.219 165.032 647.409 163.528 651.406 162.355C653.899 161.622 656.484 160.943 659.161 160.32C661.838 159.697 664.349 159.202 666.696 158.835C669.079 158.432 671.041 158.23 672.581 158.23C673.754 158.23 674.671 158.413 675.331 158.78C675.991 159.147 676.449 159.605 676.706 160.155C676.999 160.668 677.146 161.145 677.146 161.585C677.146 162.282 676.981 162.905 676.651 163.455C676.321 164.005 675.606 164.427 674.506 164.72C674.029 164.867 673.021 165.123 671.481 165.49C669.978 165.82 668.126 166.223 665.926 166.7C663.763 167.177 661.471 167.69 659.051 168.24C656.631 168.753 654.284 169.285 652.011 169.835C649.774 170.495 648.124 171.302 647.061 172.255C646.034 173.172 645.356 174.51 645.026 176.27C644.953 176.637 644.879 177.15 644.806 177.81C646.309 177.333 647.923 176.948 649.646 176.655C651.369 176.362 652.964 176.142 654.431 175.995C655.898 175.848 656.979 175.775 657.676 175.775C658.409 175.775 659.179 175.903 659.986 176.16C660.829 176.38 661.544 176.728 662.131 177.205C662.754 177.645 663.066 178.213 663.066 178.91C663.066 179.57 662.809 180.175 662.296 180.725C661.783 181.238 660.738 181.733 659.161 182.21C658.831 182.32 658.079 182.467 656.906 182.65C655.769 182.833 654.413 183.072 652.836 183.365C651.296 183.622 649.719 183.915 648.106 184.245C646.529 184.575 645.136 184.923 643.926 185.29C643.669 187.27 643.431 189.25 643.211 191.23C642.991 193.21 642.808 194.933 642.661 196.4C642.514 197.83 642.404 198.728 642.331 199.095C642.111 200.452 641.579 201.515 640.736 202.285C639.893 203.055 638.921 203.44 637.821 203.44ZM685.987 169.505C684.227 169.505 682.925 169.34 682.082 169.01C681.275 168.643 680.744 168.222 680.487 167.745C680.267 167.232 680.157 166.773 680.157 166.37C680.157 165.857 680.45 165.27 681.037 164.61C681.624 163.913 682.76 163.4 684.447 163.07C686.134 162.703 688.132 162.373 690.442 162.08C692.752 161.75 695.209 161.475 697.812 161.255C700.415 160.998 703.055 160.778 705.732 160.595C708.409 160.412 710.957 160.283 713.377 160.21C715.797 160.1 717.942 160.045 719.812 160.045C721.755 160.045 723.259 160.155 724.322 160.375C725.385 160.595 726.137 160.87 726.577 161.2C727.054 161.53 727.329 161.878 727.402 162.245C727.512 162.612 727.567 162.96 727.567 163.29C727.567 163.363 727.567 163.418 727.567 163.455C727.567 163.895 727.457 164.372 727.237 164.885C727.054 165.398 726.632 165.838 725.972 166.205C725.312 166.535 724.322 166.7 723.002 166.7C722.525 166.7 721.462 166.773 719.812 166.92C718.162 167.067 716.145 167.25 713.762 167.47C711.379 167.69 708.849 167.91 706.172 168.13C705.769 169.78 705.31 171.705 704.797 173.905C704.32 176.105 703.825 178.415 703.312 180.835C702.835 183.255 702.377 185.638 701.937 187.985C701.497 190.295 701.13 192.44 700.837 194.42C700.544 196.363 700.342 197.958 700.232 199.205C700.085 200.892 699.59 202.083 698.747 202.78C697.94 203.44 697.134 203.77 696.327 203.77C695.74 203.77 695.154 203.642 694.567 203.385C693.98 203.165 693.504 202.67 693.137 201.9C692.77 201.093 692.587 199.902 692.587 198.325C692.587 196.712 692.734 194.732 693.027 192.385C693.32 190.002 693.705 187.453 694.182 184.74C694.695 182.027 695.264 179.295 695.887 176.545C696.547 173.795 697.225 171.228 697.922 168.845C695.465 169.028 693.192 169.193 691.102 169.34C689.012 169.45 687.307 169.505 685.987 169.505Z" fill="white"/>
</g>
<defs>
<filter id="filter0_d_60_931" x="563.64" y="70.22" width="180.928" height="153.41" filterUnits="userSpaceOnUse" color-interpolation-filters="sRGB">
<feFlood flood-opacity="0" result="BackgroundImageFix"/>
<feColorMatrix in="SourceAlpha" type="matrix" values="0 0 0 0 0 0 0 0 0 0 0 0 0 0 0 0 0 0 127 0" result="hardAlpha"/>
<feOffset dx="2" dy="2"/>
<feGaussianBlur stdDeviation="7.5"/>
<feComposite in2="hardAlpha" operator="out"/>
<feColorMatrix type="matrix" values="0 0 0 0 0 0 0 0 0 0 0 0 0 0 0 0 0 0 0.75 0"/>
<feBlend mode="normal" in2="BackgroundImageFix" result="effect1_dropShadow_60_931"/>
<feBlend mode="normal" in="SourceGraphic" in2="effect1_dropShadow_60_931" result="shape"/>
</filter>
<linearGradient id="paint0_linear_60_931" x1="130" y1="102.5" x2="644" y2="616.5" gradientUnits="userSpaceOnUse">
<stop stop-color="#12499E" stop-opacity="0.9"/>
<stop offset="1" stop-color="#12499E" stop-opacity="0.75"/>
</linearGradient>
</defs>
</svg>
