<svg width="768" height="746" viewBox="0 0 768 746" fill="none" xmlns="http://www.w3.org/2000/svg">
<circle cx="373" cy="373" r="363" fill="url(#paint0_linear_60_920)" fill-opacity="0.5" stroke="#12499E" stroke-width="20"/>
<circle cx="648.5" cy="144.5" r="117" fill="#12499E" fill-opacity="0.95" stroke="#12499E" stroke-width="5"/>
<path d="M233.667 561.588V607M445.333 561.588V607M445.333 379.941C457.024 379.941 466.5 369.776 466.5 357.235C466.5 344.695 457.024 334.529 445.333 334.529C433.643 334.529 424.167 344.695 424.167 357.235C424.167 369.776 433.643 379.941 445.333 379.941ZM445.333 379.941V448.059M445.333 357.235H445.545M286.583 391.294H286.795M360.667 391.294C360.667 435.185 327.498 470.765 286.583 470.765C245.668 470.765 212.5 435.185 212.5 391.294C212.5 347.404 245.668 311.824 286.583 311.824C327.498 311.824 360.667 347.404 360.667 391.294ZM250.6 561.588H428.4C463.964 561.588 481.744 561.588 495.329 554.163C507.278 547.633 516.991 537.213 523.078 524.396C530 509.823 530 490.75 530 452.6V329.988C530 291.839 530 272.764 523.078 258.193C516.991 245.376 507.278 234.955 495.329 228.424C481.744 221 463.964 221 428.4 221H250.6C215.037 221 197.255 221 183.672 228.424C171.723 234.955 162.009 245.376 155.921 258.193C149 272.764 149 291.839 149 329.988V452.6C149 490.75 149 509.823 155.921 524.396C162.009 537.213 171.723 547.633 183.672 554.163C197.255 561.588 215.037 561.588 250.6 561.588Z" stroke="#12499E" stroke-width="20" stroke-linecap="round" stroke-linejoin="round"/>
<g filter="url(#filter0_d_60_920)">
<path d="M624.68 131.235C624.056 131.235 623.488 131.143 622.975 130.96C622.498 130.813 622.095 130.502 621.765 130.025C620.261 130.282 618.776 130.483 617.31 130.63C615.843 130.777 614.468 130.85 613.185 130.85C612.085 130.85 611.223 130.575 610.6 130.025C609.976 129.512 609.665 128.778 609.665 127.825C609.665 127.275 609.976 126.652 610.6 125.955C611.223 125.258 612.378 124.598 614.065 123.975C615.751 123.315 618.208 122.802 621.435 122.435C621.691 120.712 622.076 118.677 622.59 116.33C623.103 113.947 623.726 111.417 624.46 108.74C625.193 106.027 626.055 103.35 627.045 100.71C625.688 102.14 624.258 103.35 622.755 104.34C621.288 105.33 619.876 106.082 618.52 106.595C617.2 107.108 616.063 107.365 615.11 107.365C614.34 107.365 613.698 107.237 613.185 106.98C612.708 106.723 612.47 106.247 612.47 105.55C612.47 104.67 612.891 103.863 613.735 103.13C614.578 102.36 615.495 101.608 616.485 100.875C617.988 99.7383 619.601 98.3817 621.325 96.805C623.085 95.2283 624.716 93.5417 626.22 91.745C627.76 89.9483 628.951 88.1883 629.795 86.465C630.198 85.695 630.638 85.09 631.115 84.65C631.591 84.1733 632.361 83.935 633.425 83.935C634.488 83.935 635.258 84.4117 635.735 85.365C636.211 86.2817 636.45 87.3817 636.45 88.665C636.45 89.1783 636.303 90.2417 636.01 91.855C635.716 93.4317 635.313 95.375 634.8 97.685C634.286 99.9583 633.718 102.47 633.095 105.22C632.471 107.933 631.83 110.72 631.17 113.58C630.51 116.44 629.886 119.208 629.3 121.885C630.51 121.848 631.756 121.83 633.04 121.83C634.58 121.83 635.918 121.958 637.055 122.215C638.191 122.472 638.76 123.022 638.76 123.865C638.76 124.745 638.375 125.405 637.605 125.845C636.871 126.248 635.973 126.615 634.91 126.945C633.92 127.238 632.801 127.55 631.555 127.88C630.308 128.247 628.988 128.577 627.595 128.87C627.228 129.713 626.788 130.318 626.275 130.685C625.761 131.052 625.23 131.235 624.68 131.235ZM681.512 111.82C681.512 113.213 680.962 114.68 679.862 116.22C678.762 117.723 677.332 119.208 675.572 120.675C673.812 122.142 671.887 123.535 669.797 124.855C667.743 126.138 665.708 127.275 663.692 128.265C661.712 129.292 659.952 130.08 658.412 130.63C656.872 131.217 655.753 131.51 655.057 131.51C653.737 131.51 652.655 131.272 651.812 130.795C650.968 130.318 650.547 129.475 650.547 128.265C650.547 127.348 650.767 126.633 651.207 126.12C651.647 125.607 652.27 125.167 653.077 124.8C655.02 123.92 657.018 122.985 659.072 121.995C661.125 121.005 663.087 119.997 664.957 118.97C666.863 117.943 668.55 116.935 670.017 115.945C671.52 114.955 672.712 114.02 673.592 113.14C674.472 112.223 674.912 111.417 674.912 110.72C674.912 109.913 674.6 109.327 673.977 108.96C673.39 108.593 672.602 108.355 671.612 108.245C670.622 108.098 669.522 108.025 668.312 108.025C666.662 108.025 665.287 108.098 664.187 108.245C663.087 108.392 662.133 108.538 661.327 108.685C660.557 108.795 659.842 108.85 659.182 108.85C658.082 108.85 657.293 108.612 656.817 108.135C656.34 107.622 656.102 106.943 656.102 106.1C656.102 105.403 656.358 104.688 656.872 103.955C657.385 103.222 658.21 102.672 659.347 102.305C661.73 101.535 663.838 100.692 665.672 99.775C667.542 98.8217 668.99 97.7767 670.017 96.64C671.08 95.5033 671.612 94.275 671.612 92.955C671.612 92.5517 671.41 92.2767 671.007 92.13C670.64 91.9833 669.87 91.91 668.697 91.91C667.633 91.91 666.442 92.0383 665.122 92.295C663.838 92.5517 662.573 92.8633 661.327 93.23C660.117 93.56 659.072 93.8533 658.192 94.11C657.348 94.3667 656.817 94.495 656.597 94.495C654.983 94.495 654.177 93.6883 654.177 92.075C654.177 91.7083 654.452 91.1217 655.002 90.315C655.552 89.5083 656.377 88.6833 657.477 87.84C658.577 86.96 659.933 86.2083 661.547 85.585C663.197 84.9617 665.103 84.65 667.267 84.65C669.393 84.65 671.245 85.0717 672.822 85.915C674.435 86.7583 675.682 87.9133 676.562 89.38C677.478 90.81 677.937 92.4417 677.937 94.275C677.937 95.6683 677.497 97.0617 676.617 98.455C675.773 99.8117 674.71 101.022 673.427 102.085C675.883 102.818 677.845 104.083 679.312 105.88C680.778 107.64 681.512 109.62 681.512 111.82ZM604.579 206.63C603.809 206.63 603.094 206.447 602.434 206.08C601.774 205.713 601.243 205.072 600.839 204.155C600.473 203.238 600.363 201.955 600.509 200.305C599.226 195.978 598.053 191.67 596.989 187.38C595.963 183.09 594.991 178.672 594.074 174.125C592.754 177.132 591.563 180.212 590.499 183.365C589.436 186.482 588.483 189.433 587.639 192.22C586.796 194.97 586.026 197.28 585.329 199.15C584.779 200.8 584.229 202.028 583.679 202.835C583.129 203.605 582.579 204.1 582.029 204.32C581.516 204.577 581.003 204.705 580.489 204.705C579.243 204.705 578.289 204.412 577.629 203.825C576.969 203.238 576.639 202.175 576.639 200.635C576.639 199.828 576.859 198.6 577.299 196.95C577.739 195.263 578.326 193.338 579.059 191.175C579.829 188.975 580.709 186.683 581.699 184.3C582.689 181.88 583.734 179.533 584.834 177.26C585.934 174.987 587.034 172.933 588.134 171.1C589.234 169.23 590.298 167.745 591.324 166.645C592.351 165.545 593.268 164.995 594.074 164.995C594.771 164.995 595.413 165.068 595.999 165.215C596.586 165.325 597.154 165.655 597.704 166.205C598.254 166.718 598.823 167.58 599.409 168.79C599.886 169.707 600.363 171.027 600.839 172.75C601.316 174.437 601.774 176.38 602.214 178.58C602.654 180.743 603.094 183.017 603.534 185.4C604.011 187.783 604.488 190.112 604.964 192.385C606.358 186.042 607.476 180.468 608.319 175.665C609.199 170.825 609.841 167.03 610.244 164.28C610.648 161.53 610.868 160.082 610.904 159.935C611.161 158.872 611.436 158.138 611.729 157.735C612.023 157.295 612.353 157.038 612.719 156.965C613.086 156.855 613.508 156.8 613.984 156.8C614.021 156.8 614.039 156.8 614.039 156.8C614.993 156.8 615.928 157.185 616.844 157.955C617.798 158.725 618.274 159.77 618.274 161.09C618.274 161.53 618.183 162.52 617.999 164.06C617.816 165.563 617.541 167.47 617.174 169.78C616.844 172.053 616.404 174.583 615.854 177.37C615.304 180.12 614.663 182.998 613.929 186.005C613.233 188.975 612.444 191.927 611.564 194.86C610.684 197.793 609.713 200.543 608.649 203.11C608.063 204.577 607.366 205.53 606.559 205.97C605.789 206.41 605.129 206.63 604.579 206.63ZM637.821 203.44C636.868 203.44 636.171 202.982 635.731 202.065C635.291 201.148 635.071 199.517 635.071 197.17C635.071 193.87 635.273 190.387 635.676 186.72C636.116 183.017 636.684 179.02 637.381 174.73C638.004 171.32 639.489 168.698 641.836 166.865C644.219 165.032 647.409 163.528 651.406 162.355C653.899 161.622 656.484 160.943 659.161 160.32C661.838 159.697 664.349 159.202 666.696 158.835C669.079 158.432 671.041 158.23 672.581 158.23C673.754 158.23 674.671 158.413 675.331 158.78C675.991 159.147 676.449 159.605 676.706 160.155C676.999 160.668 677.146 161.145 677.146 161.585C677.146 162.282 676.981 162.905 676.651 163.455C676.321 164.005 675.606 164.427 674.506 164.72C674.029 164.867 673.021 165.123 671.481 165.49C669.978 165.82 668.126 166.223 665.926 166.7C663.763 167.177 661.471 167.69 659.051 168.24C656.631 168.753 654.284 169.285 652.011 169.835C649.774 170.495 648.124 171.302 647.061 172.255C646.034 173.172 645.356 174.51 645.026 176.27C644.953 176.637 644.879 177.15 644.806 177.81C646.309 177.333 647.923 176.948 649.646 176.655C651.369 176.362 652.964 176.142 654.431 175.995C655.898 175.848 656.979 175.775 657.676 175.775C658.409 175.775 659.179 175.903 659.986 176.16C660.829 176.38 661.544 176.728 662.131 177.205C662.754 177.645 663.066 178.213 663.066 178.91C663.066 179.57 662.809 180.175 662.296 180.725C661.783 181.238 660.738 181.733 659.161 182.21C658.831 182.32 658.079 182.467 656.906 182.65C655.769 182.833 654.413 183.072 652.836 183.365C651.296 183.622 649.719 183.915 648.106 184.245C646.529 184.575 645.136 184.923 643.926 185.29C643.669 187.27 643.431 189.25 643.211 191.23C642.991 193.21 642.808 194.933 642.661 196.4C642.514 197.83 642.404 198.728 642.331 199.095C642.111 200.452 641.579 201.515 640.736 202.285C639.893 203.055 638.921 203.44 637.821 203.44ZM685.987 169.505C684.227 169.505 682.925 169.34 682.082 169.01C681.275 168.643 680.744 168.222 680.487 167.745C680.267 167.232 680.157 166.773 680.157 166.37C680.157 165.857 680.45 165.27 681.037 164.61C681.624 163.913 682.76 163.4 684.447 163.07C686.134 162.703 688.132 162.373 690.442 162.08C692.752 161.75 695.209 161.475 697.812 161.255C700.415 160.998 703.055 160.778 705.732 160.595C708.409 160.412 710.957 160.283 713.377 160.21C715.797 160.1 717.942 160.045 719.812 160.045C721.755 160.045 723.259 160.155 724.322 160.375C725.385 160.595 726.137 160.87 726.577 161.2C727.054 161.53 727.329 161.878 727.402 162.245C727.512 162.612 727.567 162.96 727.567 163.29C727.567 163.363 727.567 163.418 727.567 163.455C727.567 163.895 727.457 164.372 727.237 164.885C727.054 165.398 726.632 165.838 725.972 166.205C725.312 166.535 724.322 166.7 723.002 166.7C722.525 166.7 721.462 166.773 719.812 166.92C718.162 167.067 716.145 167.25 713.762 167.47C711.379 167.69 708.849 167.91 706.172 168.13C705.769 169.78 705.31 171.705 704.797 173.905C704.32 176.105 703.825 178.415 703.312 180.835C702.835 183.255 702.377 185.638 701.937 187.985C701.497 190.295 701.13 192.44 700.837 194.42C700.544 196.363 700.342 197.958 700.232 199.205C700.085 200.892 699.59 202.083 698.747 202.78C697.94 203.44 697.134 203.77 696.327 203.77C695.74 203.77 695.154 203.642 694.567 203.385C693.98 203.165 693.504 202.67 693.137 201.9C692.77 201.093 692.587 199.902 692.587 198.325C692.587 196.712 692.734 194.732 693.027 192.385C693.32 190.002 693.705 187.453 694.182 184.74C694.695 182.027 695.264 179.295 695.887 176.545C696.547 173.795 697.225 171.228 697.922 168.845C695.465 169.028 693.192 169.193 691.102 169.34C689.012 169.45 687.307 169.505 685.987 169.505Z" fill="white"/>
</g>
<defs>
<filter id="filter0_d_60_920" x="563.64" y="70.9351" width="180.928" height="152.695" filterUnits="userSpaceOnUse" color-interpolation-filters="sRGB">
<feFlood flood-opacity="0" result="BackgroundImageFix"/>
<feColorMatrix in="SourceAlpha" type="matrix" values="0 0 0 0 0 0 0 0 0 0 0 0 0 0 0 0 0 0 127 0" result="hardAlpha"/>
<feOffset dx="2" dy="2"/>
<feGaussianBlur stdDeviation="7.5"/>
<feComposite in2="hardAlpha" operator="out"/>
<feColorMatrix type="matrix" values="0 0 0 0 0 0 0 0 0 0 0 0 0 0 0 0 0 0 0.75 0"/>
<feBlend mode="normal" in2="BackgroundImageFix" result="effect1_dropShadow_60_920"/>
<feBlend mode="normal" in="SourceGraphic" in2="effect1_dropShadow_60_920" result="shape"/>
</filter>
<linearGradient id="paint0_linear_60_920" x1="130" y1="102.5" x2="644" y2="616.5" gradientUnits="userSpaceOnUse">
<stop stop-color="#12499E" stop-opacity="0.9"/>
<stop offset="1" stop-color="#12499E" stop-opacity="0.75"/>
</linearGradient>
</defs>
</svg>
