<svg width="768" height="746" viewBox="0 0 768 746" fill="none" xmlns="http://www.w3.org/2000/svg">
<circle cx="373" cy="373" r="363" fill="url(#paint0_linear_60_1008)" fill-opacity="0.5" stroke="#12499E" stroke-width="20"/>
<circle cx="648.5" cy="144.5" r="117" fill="#12499E" fill-opacity="0.95" stroke="#12499E" stroke-width="5"/>
<path d="M233.667 561.588V607M445.333 561.588V607M445.333 379.941C457.024 379.941 466.5 369.776 466.5 357.235C466.5 344.695 457.024 334.529 445.333 334.529C433.643 334.529 424.167 344.695 424.167 357.235C424.167 369.776 433.643 379.941 445.333 379.941ZM445.333 379.941V448.059M445.333 357.235H445.545M286.583 391.294H286.795M360.667 391.294C360.667 435.185 327.498 470.765 286.583 470.765C245.668 470.765 212.5 435.185 212.5 391.294C212.5 347.404 245.668 311.824 286.583 311.824C327.498 311.824 360.667 347.404 360.667 391.294ZM250.6 561.588H428.4C463.964 561.588 481.744 561.588 495.329 554.163C507.278 547.633 516.991 537.213 523.078 524.396C530 509.823 530 490.75 530 452.6V329.988C530 291.839 530 272.764 523.078 258.193C516.991 245.376 507.278 234.955 495.329 228.424C481.744 221 463.964 221 428.4 221H250.6C215.037 221 197.255 221 183.672 228.424C171.723 234.955 162.009 245.376 155.921 258.193C149 272.764 149 291.839 149 329.988V452.6C149 490.75 149 509.823 155.921 524.396C162.009 537.213 171.723 547.633 183.672 554.163C197.255 561.588 215.037 561.588 250.6 561.588Z" stroke="#12499E" stroke-width="20" stroke-linecap="round" stroke-linejoin="round"/>
<g filter="url(#filter0_d_60_1008)">
<path d="M621.932 130.685C620.245 130.685 618.65 130.227 617.147 129.31C615.68 128.43 614.415 127.183 613.352 125.57C612.288 123.957 611.537 122.05 611.097 119.85C610.73 120.033 610.437 120.125 610.217 120.125C610.143 120.125 610.033 120.125 609.887 120.125C609.557 120.162 609.245 120.143 608.952 120.07C608.658 119.997 608.402 119.758 608.182 119.355C607.998 118.915 607.907 118.163 607.907 117.1C607.907 116.037 608.2 114.937 608.787 113.8C609.41 112.663 610.253 111.563 611.317 110.5C612.013 107.933 613.15 105.458 614.727 103.075C616.303 100.655 618.137 98.4 620.227 96.31C622.317 94.1833 624.498 92.2583 626.772 90.535C629.082 88.8117 631.318 87.345 633.482 86.135C635.645 84.8883 637.57 83.935 639.257 83.275C640.943 82.5783 642.227 82.23 643.107 82.23C645.123 82.23 646.132 83.2017 646.132 85.145C646.132 85.5117 645.563 86.0433 644.427 86.74C643.29 87.4 641.787 88.2617 639.917 89.325C638.083 90.3883 636.085 91.6533 633.922 93.12C631.795 94.5867 629.705 96.2733 627.652 98.18C625.598 100.087 623.802 102.213 622.262 104.56C623.508 104.23 624.792 103.973 626.112 103.79C627.468 103.607 628.862 103.515 630.292 103.515C632.785 103.515 634.765 104.285 636.232 105.825C637.698 107.328 638.432 109.547 638.432 112.48C638.432 114.79 637.937 117.027 636.947 119.19C635.957 121.353 634.637 123.315 632.987 125.075C631.373 126.798 629.595 128.155 627.652 129.145C625.708 130.172 623.802 130.685 621.932 130.685ZM618.632 114.13C618.485 115.157 618.412 116.183 618.412 117.21C618.412 118.677 618.76 119.942 619.457 121.005C620.153 122.068 621.052 122.6 622.152 122.6C623.362 122.6 624.535 122.288 625.672 121.665C626.845 121.042 627.908 120.217 628.862 119.19C629.815 118.127 630.567 116.953 631.117 115.67C631.667 114.387 631.942 113.085 631.942 111.765C631.942 111.288 631.868 110.885 631.722 110.555C631.575 110.225 631.263 110.06 630.787 110.06C628.367 110.06 626.13 110.463 624.077 111.27C622.06 112.077 620.245 113.03 618.632 114.13ZM667.526 129.145C665.326 129.145 663.346 128.595 661.586 127.495C659.826 126.432 658.432 124.91 657.406 122.93C656.379 120.913 655.866 118.53 655.866 115.78C655.866 113.03 656.471 110.317 657.681 107.64C658.927 104.927 660.559 102.342 662.576 99.885C664.629 97.3917 666.884 95.1 669.341 93.01C671.797 90.8833 674.254 89.0317 676.711 87.455C679.204 85.8783 681.496 84.65 683.586 83.77C685.712 82.89 687.417 82.45 688.701 82.45C689.654 82.45 690.387 82.725 690.901 83.275C691.451 83.7883 691.726 84.4117 691.726 85.145C691.726 85.7317 691.524 86.245 691.121 86.685C690.754 87.0883 690.057 87.6017 689.031 88.225C686.941 89.3983 684.796 90.645 682.596 91.965C680.396 93.285 678.251 94.6967 676.161 96.2C674.071 97.7033 672.146 99.3533 670.386 101.15C668.626 102.947 667.141 104.908 665.931 107.035C667.507 105.825 669.249 104.817 671.156 104.01C673.062 103.167 674.932 102.745 676.766 102.745C679.589 102.745 681.734 103.625 683.201 105.385C684.704 107.108 685.456 109.308 685.456 111.985C685.456 114.075 684.942 116.147 683.916 118.2C682.889 120.217 681.514 122.05 679.791 123.7C678.067 125.35 676.142 126.67 674.016 127.66C671.889 128.65 669.726 129.145 667.526 129.145ZM663.621 113.25C663.364 114.607 663.236 116 663.236 117.43C663.236 120.327 664.739 121.775 667.746 121.775C669.029 121.775 670.312 121.445 671.596 120.785C672.916 120.125 674.107 119.245 675.171 118.145C676.271 117.008 677.132 115.743 677.756 114.35C678.416 112.957 678.746 111.527 678.746 110.06C678.746 109.657 678.636 109.272 678.416 108.905C678.196 108.502 677.719 108.3 676.986 108.3C675.226 108.3 673.484 108.63 671.761 109.29C670.037 109.913 668.461 110.628 667.031 111.435C665.637 112.205 664.501 112.81 663.621 113.25ZM604.579 206.63C603.809 206.63 603.094 206.447 602.434 206.08C601.774 205.713 601.243 205.072 600.839 204.155C600.473 203.238 600.363 201.955 600.509 200.305C599.226 195.978 598.053 191.67 596.989 187.38C595.963 183.09 594.991 178.672 594.074 174.125C592.754 177.132 591.563 180.212 590.499 183.365C589.436 186.482 588.483 189.433 587.639 192.22C586.796 194.97 586.026 197.28 585.329 199.15C584.779 200.8 584.229 202.028 583.679 202.835C583.129 203.605 582.579 204.1 582.029 204.32C581.516 204.577 581.003 204.705 580.489 204.705C579.243 204.705 578.289 204.412 577.629 203.825C576.969 203.238 576.639 202.175 576.639 200.635C576.639 199.828 576.859 198.6 577.299 196.95C577.739 195.263 578.326 193.338 579.059 191.175C579.829 188.975 580.709 186.683 581.699 184.3C582.689 181.88 583.734 179.533 584.834 177.26C585.934 174.987 587.034 172.933 588.134 171.1C589.234 169.23 590.298 167.745 591.324 166.645C592.351 165.545 593.268 164.995 594.074 164.995C594.771 164.995 595.413 165.068 595.999 165.215C596.586 165.325 597.154 165.655 597.704 166.205C598.254 166.718 598.823 167.58 599.409 168.79C599.886 169.707 600.363 171.027 600.839 172.75C601.316 174.437 601.774 176.38 602.214 178.58C602.654 180.743 603.094 183.017 603.534 185.4C604.011 187.783 604.488 190.112 604.964 192.385C606.358 186.042 607.476 180.468 608.319 175.665C609.199 170.825 609.841 167.03 610.244 164.28C610.648 161.53 610.868 160.082 610.904 159.935C611.161 158.872 611.436 158.138 611.729 157.735C612.023 157.295 612.353 157.038 612.719 156.965C613.086 156.855 613.508 156.8 613.984 156.8C614.021 156.8 614.039 156.8 614.039 156.8C614.993 156.8 615.928 157.185 616.844 157.955C617.798 158.725 618.274 159.77 618.274 161.09C618.274 161.53 618.183 162.52 617.999 164.06C617.816 165.563 617.541 167.47 617.174 169.78C616.844 172.053 616.404 174.583 615.854 177.37C615.304 180.12 614.663 182.998 613.929 186.005C613.233 188.975 612.444 191.927 611.564 194.86C610.684 197.793 609.713 200.543 608.649 203.11C608.063 204.577 607.366 205.53 606.559 205.97C605.789 206.41 605.129 206.63 604.579 206.63ZM637.821 203.44C636.868 203.44 636.171 202.982 635.731 202.065C635.291 201.148 635.071 199.517 635.071 197.17C635.071 193.87 635.273 190.387 635.676 186.72C636.116 183.017 636.684 179.02 637.381 174.73C638.004 171.32 639.489 168.698 641.836 166.865C644.219 165.032 647.409 163.528 651.406 162.355C653.899 161.622 656.484 160.943 659.161 160.32C661.838 159.697 664.349 159.202 666.696 158.835C669.079 158.432 671.041 158.23 672.581 158.23C673.754 158.23 674.671 158.413 675.331 158.78C675.991 159.147 676.449 159.605 676.706 160.155C676.999 160.668 677.146 161.145 677.146 161.585C677.146 162.282 676.981 162.905 676.651 163.455C676.321 164.005 675.606 164.427 674.506 164.72C674.029 164.867 673.021 165.123 671.481 165.49C669.978 165.82 668.126 166.223 665.926 166.7C663.763 167.177 661.471 167.69 659.051 168.24C656.631 168.753 654.284 169.285 652.011 169.835C649.774 170.495 648.124 171.302 647.061 172.255C646.034 173.172 645.356 174.51 645.026 176.27C644.953 176.637 644.879 177.15 644.806 177.81C646.309 177.333 647.923 176.948 649.646 176.655C651.369 176.362 652.964 176.142 654.431 175.995C655.898 175.848 656.979 175.775 657.676 175.775C658.409 175.775 659.179 175.903 659.986 176.16C660.829 176.38 661.544 176.728 662.131 177.205C662.754 177.645 663.066 178.213 663.066 178.91C663.066 179.57 662.809 180.175 662.296 180.725C661.783 181.238 660.738 181.733 659.161 182.21C658.831 182.32 658.079 182.467 656.906 182.65C655.769 182.833 654.413 183.072 652.836 183.365C651.296 183.622 649.719 183.915 648.106 184.245C646.529 184.575 645.136 184.923 643.926 185.29C643.669 187.27 643.431 189.25 643.211 191.23C642.991 193.21 642.808 194.933 642.661 196.4C642.514 197.83 642.404 198.728 642.331 199.095C642.111 200.452 641.579 201.515 640.736 202.285C639.893 203.055 638.921 203.44 637.821 203.44ZM685.987 169.505C684.227 169.505 682.925 169.34 682.082 169.01C681.275 168.643 680.744 168.222 680.487 167.745C680.267 167.232 680.157 166.773 680.157 166.37C680.157 165.857 680.45 165.27 681.037 164.61C681.624 163.913 682.76 163.4 684.447 163.07C686.134 162.703 688.132 162.373 690.442 162.08C692.752 161.75 695.209 161.475 697.812 161.255C700.415 160.998 703.055 160.778 705.732 160.595C708.409 160.412 710.957 160.283 713.377 160.21C715.797 160.1 717.942 160.045 719.812 160.045C721.755 160.045 723.259 160.155 724.322 160.375C725.385 160.595 726.137 160.87 726.577 161.2C727.054 161.53 727.329 161.878 727.402 162.245C727.512 162.612 727.567 162.96 727.567 163.29C727.567 163.363 727.567 163.418 727.567 163.455C727.567 163.895 727.457 164.372 727.237 164.885C727.054 165.398 726.632 165.838 725.972 166.205C725.312 166.535 724.322 166.7 723.002 166.7C722.525 166.7 721.462 166.773 719.812 166.92C718.162 167.067 716.145 167.25 713.762 167.47C711.379 167.69 708.849 167.91 706.172 168.13C705.769 169.78 705.31 171.705 704.797 173.905C704.32 176.105 703.825 178.415 703.312 180.835C702.835 183.255 702.377 185.638 701.937 187.985C701.497 190.295 701.13 192.44 700.837 194.42C700.544 196.363 700.342 197.958 700.232 199.205C700.085 200.892 699.59 202.083 698.747 202.78C697.94 203.44 697.134 203.77 696.327 203.77C695.74 203.77 695.154 203.642 694.567 203.385C693.98 203.165 693.504 202.67 693.137 201.9C692.77 201.093 692.587 199.902 692.587 198.325C692.587 196.712 692.734 194.732 693.027 192.385C693.32 190.002 693.705 187.453 694.182 184.74C694.695 182.027 695.264 179.295 695.887 176.545C696.547 173.795 697.225 171.228 697.922 168.845C695.465 169.028 693.192 169.193 691.102 169.34C689.012 169.45 687.307 169.505 685.987 169.505Z" fill="white"/>
</g>
<defs>
<filter id="filter0_d_60_1008" x="563.64" y="69.2305" width="180.928" height="154.399" filterUnits="userSpaceOnUse" color-interpolation-filters="sRGB">
<feFlood flood-opacity="0" result="BackgroundImageFix"/>
<feColorMatrix in="SourceAlpha" type="matrix" values="0 0 0 0 0 0 0 0 0 0 0 0 0 0 0 0 0 0 127 0" result="hardAlpha"/>
<feOffset dx="2" dy="2"/>
<feGaussianBlur stdDeviation="7.5"/>
<feComposite in2="hardAlpha" operator="out"/>
<feColorMatrix type="matrix" values="0 0 0 0 0 0 0 0 0 0 0 0 0 0 0 0 0 0 0.75 0"/>
<feBlend mode="normal" in2="BackgroundImageFix" result="effect1_dropShadow_60_1008"/>
<feBlend mode="normal" in="SourceGraphic" in2="effect1_dropShadow_60_1008" result="shape"/>
</filter>
<linearGradient id="paint0_linear_60_1008" x1="130" y1="102.5" x2="644" y2="616.5" gradientUnits="userSpaceOnUse">
<stop stop-color="#12499E" stop-opacity="0.9"/>
<stop offset="1" stop-color="#12499E" stop-opacity="0.75"/>
</linearGradient>
</defs>
</svg>
