<svg width="768" height="746" viewBox="0 0 768 746" fill="none" xmlns="http://www.w3.org/2000/svg">
<circle cx="373" cy="373" r="363" fill="url(#paint0_linear_60_893)" fill-opacity="0.5" stroke="white" stroke-width="20"/>
<circle cx="648.5" cy="144.5" r="117" fill="white" fill-opacity="0.95" stroke="white" stroke-width="5"/>
<path d="M233.667 561.588V607M445.333 561.588V607M445.333 379.941C457.024 379.941 466.5 369.776 466.5 357.235C466.5 344.695 457.024 334.529 445.333 334.529C433.643 334.529 424.167 344.695 424.167 357.235C424.167 369.776 433.643 379.941 445.333 379.941ZM445.333 379.941V448.059M445.333 357.235H445.545M286.583 391.294H286.795M360.667 391.294C360.667 435.185 327.498 470.765 286.583 470.765C245.668 470.765 212.5 435.185 212.5 391.294C212.5 347.404 245.668 311.824 286.583 311.824C327.498 311.824 360.667 347.404 360.667 391.294ZM250.6 561.588H428.4C463.964 561.588 481.744 561.588 495.329 554.163C507.278 547.633 516.991 537.213 523.078 524.396C530 509.823 530 490.75 530 452.6V329.988C530 291.839 530 272.764 523.078 258.193C516.991 245.376 507.278 234.955 495.329 228.424C481.744 221 463.964 221 428.4 221H250.6C215.037 221 197.255 221 183.672 228.424C171.723 234.955 162.009 245.376 155.921 258.193C149 272.764 149 291.839 149 329.988V452.6C149 490.75 149 509.823 155.921 524.396C162.009 537.213 171.723 547.633 183.672 554.163C197.255 561.588 215.037 561.588 250.6 561.588Z" stroke="white" stroke-width="20" stroke-linecap="round" stroke-linejoin="round"/>
<g filter="url(#filter0_d_60_893)">
<path d="M637.826 130.96C637.093 130.96 636.433 130.703 635.846 130.19C635.296 129.713 635.021 128.98 635.021 127.99C635.021 127.183 635.369 126.01 636.066 124.47C636.763 122.893 637.716 121.06 638.926 118.97C640.173 116.843 641.566 114.533 643.106 112.04C644.683 109.51 646.351 106.888 648.111 104.175C649.578 101.902 651.081 99.61 652.621 97.3C654.198 94.9533 655.719 92.6617 657.186 90.425C654.583 90.865 652.053 91.305 649.596 91.745C647.176 92.185 645.086 92.57 643.326 92.9C641.566 93.1933 640.356 93.34 639.696 93.34C638.009 93.34 636.909 92.9917 636.396 92.295C635.883 91.5983 635.626 90.81 635.626 89.93C635.626 89.49 636.139 89.0317 637.166 88.555C638.193 88.0417 639.549 87.5283 641.236 87.015C642.923 86.5017 644.756 86.025 646.736 85.585C648.716 85.145 650.659 84.7417 652.566 84.375C654.509 84.0083 656.233 83.7333 657.736 83.55C659.276 83.33 660.413 83.22 661.146 83.22C662.063 83.22 662.943 83.4583 663.786 83.935C664.629 84.375 665.326 84.9617 665.876 85.695C666.426 86.3917 666.701 87.1433 666.701 87.95C666.701 88.2067 666.408 88.8667 665.821 89.93C665.271 90.9567 664.501 92.295 663.511 93.945C662.521 95.595 661.384 97.465 660.101 99.555C658.818 101.645 657.479 103.845 656.086 106.155C654.289 109.125 652.438 112.113 650.531 115.12C648.661 118.09 646.883 120.822 645.196 123.315C643.509 125.772 642.043 127.733 640.796 129.2C640.393 129.677 639.934 130.08 639.421 130.41C638.944 130.777 638.413 130.96 637.826 130.96ZM604.579 206.63C603.809 206.63 603.094 206.447 602.434 206.08C601.774 205.713 601.243 205.072 600.839 204.155C600.473 203.238 600.363 201.955 600.509 200.305C599.226 195.978 598.053 191.67 596.989 187.38C595.963 183.09 594.991 178.672 594.074 174.125C592.754 177.132 591.563 180.212 590.499 183.365C589.436 186.482 588.483 189.433 587.639 192.22C586.796 194.97 586.026 197.28 585.329 199.15C584.779 200.8 584.229 202.028 583.679 202.835C583.129 203.605 582.579 204.1 582.029 204.32C581.516 204.577 581.003 204.705 580.489 204.705C579.243 204.705 578.289 204.412 577.629 203.825C576.969 203.238 576.639 202.175 576.639 200.635C576.639 199.828 576.859 198.6 577.299 196.95C577.739 195.263 578.326 193.338 579.059 191.175C579.829 188.975 580.709 186.683 581.699 184.3C582.689 181.88 583.734 179.533 584.834 177.26C585.934 174.987 587.034 172.933 588.134 171.1C589.234 169.23 590.298 167.745 591.324 166.645C592.351 165.545 593.268 164.995 594.074 164.995C594.771 164.995 595.413 165.068 595.999 165.215C596.586 165.325 597.154 165.655 597.704 166.205C598.254 166.718 598.823 167.58 599.409 168.79C599.886 169.707 600.363 171.027 600.839 172.75C601.316 174.437 601.774 176.38 602.214 178.58C602.654 180.743 603.094 183.017 603.534 185.4C604.011 187.783 604.488 190.112 604.964 192.385C606.358 186.042 607.476 180.468 608.319 175.665C609.199 170.825 609.841 167.03 610.244 164.28C610.648 161.53 610.868 160.082 610.904 159.935C611.161 158.872 611.436 158.138 611.729 157.735C612.023 157.295 612.353 157.038 612.719 156.965C613.086 156.855 613.508 156.8 613.984 156.8C614.021 156.8 614.039 156.8 614.039 156.8C614.993 156.8 615.928 157.185 616.844 157.955C617.798 158.725 618.274 159.77 618.274 161.09C618.274 161.53 618.183 162.52 617.999 164.06C617.816 165.563 617.541 167.47 617.174 169.78C616.844 172.053 616.404 174.583 615.854 177.37C615.304 180.12 614.663 182.998 613.929 186.005C613.233 188.975 612.444 191.927 611.564 194.86C610.684 197.793 609.713 200.543 608.649 203.11C608.063 204.577 607.366 205.53 606.559 205.97C605.789 206.41 605.129 206.63 604.579 206.63ZM637.821 203.44C636.868 203.44 636.171 202.982 635.731 202.065C635.291 201.148 635.071 199.517 635.071 197.17C635.071 193.87 635.273 190.387 635.676 186.72C636.116 183.017 636.684 179.02 637.381 174.73C638.004 171.32 639.489 168.698 641.836 166.865C644.219 165.032 647.409 163.528 651.406 162.355C653.899 161.622 656.484 160.943 659.161 160.32C661.838 159.697 664.349 159.202 666.696 158.835C669.079 158.432 671.041 158.23 672.581 158.23C673.754 158.23 674.671 158.413 675.331 158.78C675.991 159.147 676.449 159.605 676.706 160.155C676.999 160.668 677.146 161.145 677.146 161.585C677.146 162.282 676.981 162.905 676.651 163.455C676.321 164.005 675.606 164.427 674.506 164.72C674.029 164.867 673.021 165.123 671.481 165.49C669.978 165.82 668.126 166.223 665.926 166.7C663.763 167.177 661.471 167.69 659.051 168.24C656.631 168.753 654.284 169.285 652.011 169.835C649.774 170.495 648.124 171.302 647.061 172.255C646.034 173.172 645.356 174.51 645.026 176.27C644.953 176.637 644.879 177.15 644.806 177.81C646.309 177.333 647.923 176.948 649.646 176.655C651.369 176.362 652.964 176.142 654.431 175.995C655.898 175.848 656.979 175.775 657.676 175.775C658.409 175.775 659.179 175.903 659.986 176.16C660.829 176.38 661.544 176.728 662.131 177.205C662.754 177.645 663.066 178.213 663.066 178.91C663.066 179.57 662.809 180.175 662.296 180.725C661.783 181.238 660.738 181.733 659.161 182.21C658.831 182.32 658.079 182.467 656.906 182.65C655.769 182.833 654.413 183.072 652.836 183.365C651.296 183.622 649.719 183.915 648.106 184.245C646.529 184.575 645.136 184.923 643.926 185.29C643.669 187.27 643.431 189.25 643.211 191.23C642.991 193.21 642.808 194.933 642.661 196.4C642.514 197.83 642.404 198.728 642.331 199.095C642.111 200.452 641.579 201.515 640.736 202.285C639.893 203.055 638.921 203.44 637.821 203.44ZM685.987 169.505C684.227 169.505 682.925 169.34 682.082 169.01C681.275 168.643 680.744 168.222 680.487 167.745C680.267 167.232 680.157 166.773 680.157 166.37C680.157 165.857 680.45 165.27 681.037 164.61C681.624 163.913 682.76 163.4 684.447 163.07C686.134 162.703 688.132 162.373 690.442 162.08C692.752 161.75 695.209 161.475 697.812 161.255C700.415 160.998 703.055 160.778 705.732 160.595C708.409 160.412 710.957 160.283 713.377 160.21C715.797 160.1 717.942 160.045 719.812 160.045C721.755 160.045 723.259 160.155 724.322 160.375C725.385 160.595 726.137 160.87 726.577 161.2C727.054 161.53 727.329 161.878 727.402 162.245C727.512 162.612 727.567 162.96 727.567 163.29C727.567 163.363 727.567 163.418 727.567 163.455C727.567 163.895 727.457 164.372 727.237 164.885C727.054 165.398 726.632 165.838 725.972 166.205C725.312 166.535 724.322 166.7 723.002 166.7C722.525 166.7 721.462 166.773 719.812 166.92C718.162 167.067 716.145 167.25 713.762 167.47C711.379 167.69 708.849 167.91 706.172 168.13C705.769 169.78 705.31 171.705 704.797 173.905C704.32 176.105 703.825 178.415 703.312 180.835C702.835 183.255 702.377 185.638 701.937 187.985C701.497 190.295 701.13 192.44 700.837 194.42C700.544 196.363 700.342 197.958 700.232 199.205C700.085 200.892 699.59 202.083 698.747 202.78C697.94 203.44 697.134 203.77 696.327 203.77C695.74 203.77 695.154 203.642 694.567 203.385C693.98 203.165 693.504 202.67 693.137 201.9C692.77 201.093 692.587 199.902 692.587 198.325C692.587 196.712 692.734 194.732 693.027 192.385C693.32 190.002 693.705 187.453 694.182 184.74C694.695 182.027 695.264 179.295 695.887 176.545C696.547 173.795 697.225 171.228 697.922 168.845C695.465 169.028 693.192 169.193 691.102 169.34C689.012 169.45 687.307 169.505 685.987 169.505Z" fill="white"/>
</g>
<defs>
<filter id="filter0_d_60_893" x="563.64" y="70.22" width="180.928" height="153.41" filterUnits="userSpaceOnUse" color-interpolation-filters="sRGB">
<feFlood flood-opacity="0" result="BackgroundImageFix"/>
<feColorMatrix in="SourceAlpha" type="matrix" values="0 0 0 0 0 0 0 0 0 0 0 0 0 0 0 0 0 0 127 0" result="hardAlpha"/>
<feOffset dx="2" dy="2"/>
<feGaussianBlur stdDeviation="7.5"/>
<feComposite in2="hardAlpha" operator="out"/>
<feColorMatrix type="matrix" values="0 0 0 0 0 0 0 0 0 0 0 0 0 0 0 0 0 0 0.75 0"/>
<feBlend mode="normal" in2="BackgroundImageFix" result="effect1_dropShadow_60_893"/>
<feBlend mode="normal" in="SourceGraphic" in2="effect1_dropShadow_60_893" result="shape"/>
</filter>
<linearGradient id="paint0_linear_60_893" x1="130" y1="102.5" x2="644" y2="616.5" gradientUnits="userSpaceOnUse">
<stop stop-color="white" stop-opacity="0.9"/>
<stop offset="1" stop-color="white" stop-opacity="0.75"/>
</linearGradient>
</defs>
</svg>
