<svg width="768" height="746" viewBox="0 0 768 746" fill="none" xmlns="http://www.w3.org/2000/svg">
<circle cx="373" cy="373" r="363" fill="url(#paint0_linear_60_1025)" fill-opacity="0.5" stroke="white" stroke-width="20"/>
<circle cx="648.5" cy="144.5" r="117" fill="white" fill-opacity="0.95" stroke="white" stroke-width="5"/>
<path d="M233.667 561.588V607M445.333 561.588V607M445.333 379.941C457.024 379.941 466.5 369.776 466.5 357.235C466.5 344.695 457.024 334.529 445.333 334.529C433.643 334.529 424.167 344.695 424.167 357.235C424.167 369.776 433.643 379.941 445.333 379.941ZM445.333 379.941V448.059M445.333 357.235H445.545M286.583 391.294H286.795M360.667 391.294C360.667 435.185 327.498 470.765 286.583 470.765C245.668 470.765 212.5 435.185 212.5 391.294C212.5 347.404 245.668 311.824 286.583 311.824C327.498 311.824 360.667 347.404 360.667 391.294ZM250.6 561.588H428.4C463.964 561.588 481.744 561.588 495.329 554.163C507.278 547.633 516.991 537.213 523.078 524.396C530 509.823 530 490.75 530 452.6V329.988C530 291.839 530 272.764 523.078 258.193C516.991 245.376 507.278 234.955 495.329 228.424C481.744 221 463.964 221 428.4 221H250.6C215.037 221 197.255 221 183.672 228.424C171.723 234.955 162.009 245.376 155.921 258.193C149 272.764 149 291.839 149 329.988V452.6C149 490.75 149 509.823 155.921 524.396C162.009 537.213 171.723 547.633 183.672 554.163C197.255 561.588 215.037 561.588 250.6 561.588Z" stroke="white" stroke-width="20" stroke-linecap="round" stroke-linejoin="round"/>
<g filter="url(#filter0_d_60_1025)">
<path d="M617.64 129.2C614.816 129.2 612.58 128.833 610.93 128.1C609.28 127.403 608.088 126.413 607.355 125.13C606.658 123.847 606.31 122.362 606.31 120.675C606.31 119.318 606.823 117.87 607.85 116.33C608.913 114.753 610.343 113.103 612.14 111.38C613.936 109.62 615.935 107.823 618.135 105.99C615.458 104.927 613.625 103.845 612.635 102.745C611.681 101.608 611.205 100.307 611.205 98.84C611.205 97.9233 611.663 96.8233 612.58 95.54C613.533 94.22 614.761 92.8817 616.265 91.525C617.805 90.1317 619.436 88.8483 621.16 87.675C622.92 86.465 624.625 85.4933 626.275 84.76C627.961 83.99 629.391 83.605 630.565 83.605C631.775 83.605 632.783 83.88 633.59 84.43C634.396 84.9433 634.8 85.7867 634.8 86.96C634.8 87.4367 634.671 87.9867 634.415 88.61C634.158 89.2333 633.681 89.765 632.985 90.205C632.325 90.645 631.316 90.865 629.96 90.865C629.556 90.865 629.098 90.81 628.585 90.7C627.008 91.5067 625.505 92.3867 624.075 93.34C622.645 94.2933 621.416 95.2833 620.39 96.31C619.363 97.3367 618.666 98.345 618.3 99.335C619.106 99.665 619.95 99.995 620.83 100.325C621.746 100.655 622.718 100.985 623.745 101.315C624.478 100.728 625.211 100.142 625.945 99.555C626.715 98.9317 627.466 98.3083 628.2 97.685C631.06 95.3017 633.681 93.1933 636.065 91.36C638.485 89.5267 640.538 88.0783 642.225 87.015C643.948 85.9517 645.176 85.42 645.91 85.42C646.533 85.42 647.046 85.6583 647.45 86.135C647.853 86.6117 648.055 87.1617 648.055 87.785C648.055 88.2617 647.835 88.8117 647.395 89.435C646.991 90.0583 646.221 90.92 645.085 92.02C643.948 93.0833 642.316 94.495 640.19 96.255C638.1 97.9783 635.386 100.197 632.05 102.91C631.646 103.24 631.225 103.57 630.785 103.9C633.168 105 635.001 106.283 636.285 107.75C637.568 109.18 638.21 111.013 638.21 113.25C638.21 116 637.421 118.603 635.845 121.06C634.305 123.48 632.013 125.442 628.97 126.945C625.926 128.448 622.15 129.2 617.64 129.2ZM625.285 108.245C623.268 109.822 621.398 111.307 619.675 112.7C617.988 114.093 616.631 115.377 615.605 116.55C614.578 117.687 614.065 118.658 614.065 119.465C614.065 120.492 614.468 121.28 615.275 121.83C616.081 122.343 617.438 122.6 619.345 122.6C620.665 122.6 622.003 122.343 623.36 121.83C624.716 121.317 625.945 120.602 627.045 119.685C628.181 118.768 629.098 117.742 629.795 116.605C630.491 115.432 630.84 114.185 630.84 112.865C630.84 111.765 630.308 110.848 629.245 110.115C628.218 109.382 626.898 108.758 625.285 108.245ZM662.574 129.86C661.108 129.86 659.604 129.677 658.064 129.31C656.561 128.98 655.186 128.522 653.939 127.935C652.693 127.385 651.684 126.798 650.914 126.175C650.144 125.515 649.759 124.892 649.759 124.305C649.759 123.645 649.979 123.058 650.419 122.545C650.859 122.032 651.684 121.775 652.894 121.775C653.334 121.775 653.976 121.848 654.819 121.995C655.699 122.105 656.616 122.233 657.569 122.38C658.559 122.527 659.384 122.6 660.044 122.6C663.711 122.6 666.938 122.032 669.724 120.895C672.548 119.722 674.894 118.182 676.764 116.275C678.671 114.332 680.119 112.242 681.109 110.005C679.606 111.178 677.919 112.168 676.049 112.975C674.216 113.782 672.401 114.185 670.604 114.185C667.891 114.185 665.746 113.415 664.169 111.875C662.629 110.298 661.859 108.062 661.859 105.165C661.859 103.295 662.171 101.425 662.794 99.555C663.418 97.6483 664.261 95.8333 665.324 94.11C666.424 92.3867 667.653 90.865 669.009 89.545C670.403 88.1883 671.851 87.125 673.354 86.355C674.894 85.585 676.398 85.2 677.864 85.2C679.881 85.2 681.788 85.915 683.584 87.345C685.381 88.7383 686.829 90.9017 687.929 93.835C689.066 96.7317 689.634 100.435 689.634 104.945C689.634 107.072 689.231 109.308 688.424 111.655C687.618 113.965 686.444 116.202 684.904 118.365C683.364 120.528 681.494 122.472 679.294 124.195C677.094 125.918 674.583 127.293 671.759 128.32C668.973 129.347 665.911 129.86 662.574 129.86ZM682.704 102.305C682.668 99.4083 682.283 97.0617 681.549 95.265C680.853 93.4683 679.588 92.57 677.754 92.57C676.801 92.57 675.793 93.01 674.729 93.89C673.703 94.77 672.731 95.925 671.814 97.355C670.934 98.7483 670.201 100.233 669.614 101.81C669.064 103.387 668.789 104.872 668.789 106.265C668.789 106.852 669.009 107.145 669.449 107.145C671.209 107.145 672.914 106.852 674.564 106.265C676.251 105.642 677.791 104.945 679.184 104.175C680.614 103.405 681.788 102.782 682.704 102.305ZM604.579 206.63C603.809 206.63 603.094 206.447 602.434 206.08C601.774 205.713 601.243 205.072 600.839 204.155C600.473 203.238 600.363 201.955 600.509 200.305C599.226 195.978 598.053 191.67 596.989 187.38C595.963 183.09 594.991 178.672 594.074 174.125C592.754 177.132 591.563 180.212 590.499 183.365C589.436 186.482 588.483 189.433 587.639 192.22C586.796 194.97 586.026 197.28 585.329 199.15C584.779 200.8 584.229 202.028 583.679 202.835C583.129 203.605 582.579 204.1 582.029 204.32C581.516 204.577 581.003 204.705 580.489 204.705C579.243 204.705 578.289 204.412 577.629 203.825C576.969 203.238 576.639 202.175 576.639 200.635C576.639 199.828 576.859 198.6 577.299 196.95C577.739 195.263 578.326 193.338 579.059 191.175C579.829 188.975 580.709 186.683 581.699 184.3C582.689 181.88 583.734 179.533 584.834 177.26C585.934 174.987 587.034 172.933 588.134 171.1C589.234 169.23 590.298 167.745 591.324 166.645C592.351 165.545 593.268 164.995 594.074 164.995C594.771 164.995 595.413 165.068 595.999 165.215C596.586 165.325 597.154 165.655 597.704 166.205C598.254 166.718 598.823 167.58 599.409 168.79C599.886 169.707 600.363 171.027 600.839 172.75C601.316 174.437 601.774 176.38 602.214 178.58C602.654 180.743 603.094 183.017 603.534 185.4C604.011 187.783 604.488 190.112 604.964 192.385C606.358 186.042 607.476 180.468 608.319 175.665C609.199 170.825 609.841 167.03 610.244 164.28C610.648 161.53 610.868 160.082 610.904 159.935C611.161 158.872 611.436 158.138 611.729 157.735C612.023 157.295 612.353 157.038 612.719 156.965C613.086 156.855 613.508 156.8 613.984 156.8C614.021 156.8 614.039 156.8 614.039 156.8C614.993 156.8 615.928 157.185 616.844 157.955C617.798 158.725 618.274 159.77 618.274 161.09C618.274 161.53 618.183 162.52 617.999 164.06C617.816 165.563 617.541 167.47 617.174 169.78C616.844 172.053 616.404 174.583 615.854 177.37C615.304 180.12 614.663 182.998 613.929 186.005C613.233 188.975 612.444 191.927 611.564 194.86C610.684 197.793 609.713 200.543 608.649 203.11C608.063 204.577 607.366 205.53 606.559 205.97C605.789 206.41 605.129 206.63 604.579 206.63ZM637.821 203.44C636.868 203.44 636.171 202.982 635.731 202.065C635.291 201.148 635.071 199.517 635.071 197.17C635.071 193.87 635.273 190.387 635.676 186.72C636.116 183.017 636.684 179.02 637.381 174.73C638.004 171.32 639.489 168.698 641.836 166.865C644.219 165.032 647.409 163.528 651.406 162.355C653.899 161.622 656.484 160.943 659.161 160.32C661.838 159.697 664.349 159.202 666.696 158.835C669.079 158.432 671.041 158.23 672.581 158.23C673.754 158.23 674.671 158.413 675.331 158.78C675.991 159.147 676.449 159.605 676.706 160.155C676.999 160.668 677.146 161.145 677.146 161.585C677.146 162.282 676.981 162.905 676.651 163.455C676.321 164.005 675.606 164.427 674.506 164.72C674.029 164.867 673.021 165.123 671.481 165.49C669.978 165.82 668.126 166.223 665.926 166.7C663.763 167.177 661.471 167.69 659.051 168.24C656.631 168.753 654.284 169.285 652.011 169.835C649.774 170.495 648.124 171.302 647.061 172.255C646.034 173.172 645.356 174.51 645.026 176.27C644.953 176.637 644.879 177.15 644.806 177.81C646.309 177.333 647.923 176.948 649.646 176.655C651.369 176.362 652.964 176.142 654.431 175.995C655.898 175.848 656.979 175.775 657.676 175.775C658.409 175.775 659.179 175.903 659.986 176.16C660.829 176.38 661.544 176.728 662.131 177.205C662.754 177.645 663.066 178.213 663.066 178.91C663.066 179.57 662.809 180.175 662.296 180.725C661.783 181.238 660.738 181.733 659.161 182.21C658.831 182.32 658.079 182.467 656.906 182.65C655.769 182.833 654.413 183.072 652.836 183.365C651.296 183.622 649.719 183.915 648.106 184.245C646.529 184.575 645.136 184.923 643.926 185.29C643.669 187.27 643.431 189.25 643.211 191.23C642.991 193.21 642.808 194.933 642.661 196.4C642.514 197.83 642.404 198.728 642.331 199.095C642.111 200.452 641.579 201.515 640.736 202.285C639.893 203.055 638.921 203.44 637.821 203.44ZM685.987 169.505C684.227 169.505 682.925 169.34 682.082 169.01C681.275 168.643 680.744 168.222 680.487 167.745C680.267 167.232 680.157 166.773 680.157 166.37C680.157 165.857 680.45 165.27 681.037 164.61C681.624 163.913 682.76 163.4 684.447 163.07C686.134 162.703 688.132 162.373 690.442 162.08C692.752 161.75 695.209 161.475 697.812 161.255C700.415 160.998 703.055 160.778 705.732 160.595C708.409 160.412 710.957 160.283 713.377 160.21C715.797 160.1 717.942 160.045 719.812 160.045C721.755 160.045 723.259 160.155 724.322 160.375C725.385 160.595 726.137 160.87 726.577 161.2C727.054 161.53 727.329 161.878 727.402 162.245C727.512 162.612 727.567 162.96 727.567 163.29C727.567 163.363 727.567 163.418 727.567 163.455C727.567 163.895 727.457 164.372 727.237 164.885C727.054 165.398 726.632 165.838 725.972 166.205C725.312 166.535 724.322 166.7 723.002 166.7C722.525 166.7 721.462 166.773 719.812 166.92C718.162 167.067 716.145 167.25 713.762 167.47C711.379 167.69 708.849 167.91 706.172 168.13C705.769 169.78 705.31 171.705 704.797 173.905C704.32 176.105 703.825 178.415 703.312 180.835C702.835 183.255 702.377 185.638 701.937 187.985C701.497 190.295 701.13 192.44 700.837 194.42C700.544 196.363 700.342 197.958 700.232 199.205C700.085 200.892 699.59 202.083 698.747 202.78C697.94 203.44 697.134 203.77 696.327 203.77C695.74 203.77 695.154 203.642 694.567 203.385C693.98 203.165 693.504 202.67 693.137 201.9C692.77 201.093 692.587 199.902 692.587 198.325C692.587 196.712 692.734 194.732 693.027 192.385C693.32 190.002 693.705 187.453 694.182 184.74C694.695 182.027 695.264 179.295 695.887 176.545C696.547 173.795 697.225 171.228 697.922 168.845C695.465 169.028 693.192 169.193 691.102 169.34C689.012 169.45 687.307 169.505 685.987 169.505Z" fill="white"/>
</g>
<defs>
<filter id="filter0_d_60_1025" x="563.64" y="70.6055" width="180.928" height="153.024" filterUnits="userSpaceOnUse" color-interpolation-filters="sRGB">
<feFlood flood-opacity="0" result="BackgroundImageFix"/>
<feColorMatrix in="SourceAlpha" type="matrix" values="0 0 0 0 0 0 0 0 0 0 0 0 0 0 0 0 0 0 127 0" result="hardAlpha"/>
<feOffset dx="2" dy="2"/>
<feGaussianBlur stdDeviation="7.5"/>
<feComposite in2="hardAlpha" operator="out"/>
<feColorMatrix type="matrix" values="0 0 0 0 0 0 0 0 0 0 0 0 0 0 0 0 0 0 0.75 0"/>
<feBlend mode="normal" in2="BackgroundImageFix" result="effect1_dropShadow_60_1025"/>
<feBlend mode="normal" in="SourceGraphic" in2="effect1_dropShadow_60_1025" result="shape"/>
</filter>
<linearGradient id="paint0_linear_60_1025" x1="130" y1="102.5" x2="644" y2="616.5" gradientUnits="userSpaceOnUse">
<stop stop-color="white" stop-opacity="0.9"/>
<stop offset="1" stop-color="white" stop-opacity="0.75"/>
</linearGradient>
</defs>
</svg>
