<svg width="768" height="746" viewBox="0 0 768 746" fill="none" xmlns="http://www.w3.org/2000/svg">
<circle cx="373" cy="373" r="363" fill="url(#paint0_linear_60_959)" fill-opacity="0.5" stroke="white" stroke-width="20"/>
<circle cx="648.5" cy="144.5" r="117" fill="white" fill-opacity="0.95" stroke="white" stroke-width="5"/>
<path d="M233.667 561.588V607M445.333 561.588V607M445.333 379.941C457.024 379.941 466.5 369.776 466.5 357.235C466.5 344.695 457.024 334.529 445.333 334.529C433.643 334.529 424.167 344.695 424.167 357.235C424.167 369.776 433.643 379.941 445.333 379.941ZM445.333 379.941V448.059M445.333 357.235H445.545M286.583 391.294H286.795M360.667 391.294C360.667 435.185 327.498 470.765 286.583 470.765C245.668 470.765 212.5 435.185 212.5 391.294C212.5 347.404 245.668 311.824 286.583 311.824C327.498 311.824 360.667 347.404 360.667 391.294ZM250.6 561.588H428.4C463.964 561.588 481.744 561.588 495.329 554.163C507.278 547.633 516.991 537.213 523.078 524.396C530 509.823 530 490.75 530 452.6V329.988C530 291.839 530 272.764 523.078 258.193C516.991 245.376 507.278 234.955 495.329 228.424C481.744 221 463.964 221 428.4 221H250.6C215.037 221 197.255 221 183.672 228.424C171.723 234.955 162.009 245.376 155.921 258.193C149 272.764 149 291.839 149 329.988V452.6C149 490.75 149 509.823 155.921 524.396C162.009 537.213 171.723 547.633 183.672 554.163C197.255 561.588 215.037 561.588 250.6 561.588Z" stroke="white" stroke-width="20" stroke-linecap="round" stroke-linejoin="round"/>
<g filter="url(#filter0_d_60_959)">
<path d="M641.39 111.82C641.39 113.213 640.84 114.68 639.74 116.22C638.64 117.723 637.21 119.208 635.45 120.675C633.69 122.142 631.765 123.535 629.675 124.855C627.621 126.138 625.586 127.275 623.57 128.265C621.59 129.292 619.83 130.08 618.29 130.63C616.75 131.217 615.631 131.51 614.935 131.51C613.615 131.51 612.533 131.272 611.69 130.795C610.846 130.318 610.425 129.475 610.425 128.265C610.425 127.348 610.645 126.633 611.085 126.12C611.525 125.607 612.148 125.167 612.955 124.8C614.898 123.92 616.896 122.985 618.95 121.995C621.003 121.005 622.965 119.997 624.835 118.97C626.741 117.943 628.428 116.935 629.895 115.945C631.398 114.955 632.59 114.02 633.47 113.14C634.35 112.223 634.79 111.417 634.79 110.72C634.79 109.913 634.478 109.327 633.855 108.96C633.268 108.593 632.48 108.355 631.49 108.245C630.5 108.098 629.4 108.025 628.19 108.025C626.54 108.025 625.165 108.098 624.065 108.245C622.965 108.392 622.011 108.538 621.205 108.685C620.435 108.795 619.72 108.85 619.06 108.85C617.96 108.85 617.171 108.612 616.695 108.135C616.218 107.622 615.98 106.943 615.98 106.1C615.98 105.403 616.236 104.688 616.75 103.955C617.263 103.222 618.088 102.672 619.225 102.305C621.608 101.535 623.716 100.692 625.55 99.775C627.42 98.8217 628.868 97.7767 629.895 96.64C630.958 95.5033 631.49 94.275 631.49 92.955C631.49 92.5517 631.288 92.2767 630.885 92.13C630.518 91.9833 629.748 91.91 628.575 91.91C627.511 91.91 626.32 92.0383 625 92.295C623.716 92.5517 622.451 92.8633 621.205 93.23C619.995 93.56 618.95 93.8533 618.07 94.11C617.226 94.3667 616.695 94.495 616.475 94.495C614.861 94.495 614.055 93.6883 614.055 92.075C614.055 91.7083 614.33 91.1217 614.88 90.315C615.43 89.5083 616.255 88.6833 617.355 87.84C618.455 86.96 619.811 86.2083 621.425 85.585C623.075 84.9617 624.981 84.65 627.145 84.65C629.271 84.65 631.123 85.0717 632.7 85.915C634.313 86.7583 635.56 87.9133 636.44 89.38C637.356 90.81 637.815 92.4417 637.815 94.275C637.815 95.6683 637.375 97.0617 636.495 98.455C635.651 99.8117 634.588 101.022 633.305 102.085C635.761 102.818 637.723 104.083 639.19 105.88C640.656 107.64 641.39 109.62 641.39 111.82ZM655.016 129.365C653.182 129.365 651.881 128.925 651.111 128.045C650.377 127.202 650.011 126.322 650.011 125.405C650.011 124.598 650.194 123.847 650.561 123.15C650.964 122.417 651.661 121.83 652.651 121.39C653.641 120.95 655.052 120.767 656.886 120.84C658.719 119.887 660.571 118.713 662.441 117.32C664.347 115.927 666.162 114.387 667.886 112.7C669.646 111.013 671.204 109.29 672.561 107.53C673.954 105.733 675.036 103.973 675.806 102.25C676.612 100.49 677.016 98.84 677.016 97.3C677.016 95.65 676.502 94.4033 675.476 93.56C674.486 92.7167 673.092 92.295 671.296 92.295C669.756 92.295 668.344 92.4783 667.061 92.845C665.777 93.175 664.641 93.5783 663.651 94.055C662.661 94.5317 661.817 94.9533 661.121 95.32C660.461 95.65 659.929 95.815 659.526 95.815C658.829 95.815 658.206 95.5217 657.656 94.935C657.106 94.3117 656.941 93.505 657.161 92.515C657.307 91.855 657.747 91.0667 658.481 90.15C659.214 89.2333 660.222 88.3167 661.506 87.4C662.789 86.4833 664.311 85.7317 666.071 85.145C667.867 84.5217 669.884 84.21 672.121 84.21C675.714 84.21 678.629 85.31 680.866 87.51C683.139 89.71 684.276 93.065 684.276 97.575C684.276 100.545 683.487 103.46 681.911 106.32C680.371 109.18 678.317 111.893 675.751 114.46C673.184 117.027 670.379 119.373 667.336 121.5C670.086 121.39 672.231 121.225 673.771 121.005C675.311 120.748 676.539 120.528 677.456 120.345C678.409 120.162 679.326 120.07 680.206 120.07C681.452 120.07 682.424 120.327 683.121 120.84C683.817 121.353 684.166 122.087 684.166 123.04C684.166 123.737 683.982 124.415 683.616 125.075C683.286 125.735 682.626 126.34 681.636 126.89C680.646 127.403 679.216 127.807 677.346 128.1C675.476 128.43 673.019 128.595 669.976 128.595C668.179 128.595 666.327 128.577 664.421 128.54C662.551 128.503 660.736 128.448 658.976 128.375C657.949 128.742 657.142 128.998 656.556 129.145C656.006 129.292 655.492 129.365 655.016 129.365ZM604.579 206.63C603.809 206.63 603.094 206.447 602.434 206.08C601.774 205.713 601.243 205.072 600.839 204.155C600.473 203.238 600.363 201.955 600.509 200.305C599.226 195.978 598.053 191.67 596.989 187.38C595.963 183.09 594.991 178.672 594.074 174.125C592.754 177.132 591.563 180.212 590.499 183.365C589.436 186.482 588.483 189.433 587.639 192.22C586.796 194.97 586.026 197.28 585.329 199.15C584.779 200.8 584.229 202.028 583.679 202.835C583.129 203.605 582.579 204.1 582.029 204.32C581.516 204.577 581.003 204.705 580.489 204.705C579.243 204.705 578.289 204.412 577.629 203.825C576.969 203.238 576.639 202.175 576.639 200.635C576.639 199.828 576.859 198.6 577.299 196.95C577.739 195.263 578.326 193.338 579.059 191.175C579.829 188.975 580.709 186.683 581.699 184.3C582.689 181.88 583.734 179.533 584.834 177.26C585.934 174.987 587.034 172.933 588.134 171.1C589.234 169.23 590.298 167.745 591.324 166.645C592.351 165.545 593.268 164.995 594.074 164.995C594.771 164.995 595.413 165.068 595.999 165.215C596.586 165.325 597.154 165.655 597.704 166.205C598.254 166.718 598.823 167.58 599.409 168.79C599.886 169.707 600.363 171.027 600.839 172.75C601.316 174.437 601.774 176.38 602.214 178.58C602.654 180.743 603.094 183.017 603.534 185.4C604.011 187.783 604.488 190.112 604.964 192.385C606.358 186.042 607.476 180.468 608.319 175.665C609.199 170.825 609.841 167.03 610.244 164.28C610.648 161.53 610.868 160.082 610.904 159.935C611.161 158.872 611.436 158.138 611.729 157.735C612.023 157.295 612.353 157.038 612.719 156.965C613.086 156.855 613.508 156.8 613.984 156.8C614.021 156.8 614.039 156.8 614.039 156.8C614.993 156.8 615.928 157.185 616.844 157.955C617.798 158.725 618.274 159.77 618.274 161.09C618.274 161.53 618.183 162.52 617.999 164.06C617.816 165.563 617.541 167.47 617.174 169.78C616.844 172.053 616.404 174.583 615.854 177.37C615.304 180.12 614.663 182.998 613.929 186.005C613.233 188.975 612.444 191.927 611.564 194.86C610.684 197.793 609.713 200.543 608.649 203.11C608.063 204.577 607.366 205.53 606.559 205.97C605.789 206.41 605.129 206.63 604.579 206.63ZM637.821 203.44C636.868 203.44 636.171 202.982 635.731 202.065C635.291 201.148 635.071 199.517 635.071 197.17C635.071 193.87 635.273 190.387 635.676 186.72C636.116 183.017 636.684 179.02 637.381 174.73C638.004 171.32 639.489 168.698 641.836 166.865C644.219 165.032 647.409 163.528 651.406 162.355C653.899 161.622 656.484 160.943 659.161 160.32C661.838 159.697 664.349 159.202 666.696 158.835C669.079 158.432 671.041 158.23 672.581 158.23C673.754 158.23 674.671 158.413 675.331 158.78C675.991 159.147 676.449 159.605 676.706 160.155C676.999 160.668 677.146 161.145 677.146 161.585C677.146 162.282 676.981 162.905 676.651 163.455C676.321 164.005 675.606 164.427 674.506 164.72C674.029 164.867 673.021 165.123 671.481 165.49C669.978 165.82 668.126 166.223 665.926 166.7C663.763 167.177 661.471 167.69 659.051 168.24C656.631 168.753 654.284 169.285 652.011 169.835C649.774 170.495 648.124 171.302 647.061 172.255C646.034 173.172 645.356 174.51 645.026 176.27C644.953 176.637 644.879 177.15 644.806 177.81C646.309 177.333 647.923 176.948 649.646 176.655C651.369 176.362 652.964 176.142 654.431 175.995C655.898 175.848 656.979 175.775 657.676 175.775C658.409 175.775 659.179 175.903 659.986 176.16C660.829 176.38 661.544 176.728 662.131 177.205C662.754 177.645 663.066 178.213 663.066 178.91C663.066 179.57 662.809 180.175 662.296 180.725C661.783 181.238 660.738 181.733 659.161 182.21C658.831 182.32 658.079 182.467 656.906 182.65C655.769 182.833 654.413 183.072 652.836 183.365C651.296 183.622 649.719 183.915 648.106 184.245C646.529 184.575 645.136 184.923 643.926 185.29C643.669 187.27 643.431 189.25 643.211 191.23C642.991 193.21 642.808 194.933 642.661 196.4C642.514 197.83 642.404 198.728 642.331 199.095C642.111 200.452 641.579 201.515 640.736 202.285C639.893 203.055 638.921 203.44 637.821 203.44ZM685.987 169.505C684.227 169.505 682.925 169.34 682.082 169.01C681.275 168.643 680.744 168.222 680.487 167.745C680.267 167.232 680.157 166.773 680.157 166.37C680.157 165.857 680.45 165.27 681.037 164.61C681.624 163.913 682.76 163.4 684.447 163.07C686.134 162.703 688.132 162.373 690.442 162.08C692.752 161.75 695.209 161.475 697.812 161.255C700.415 160.998 703.055 160.778 705.732 160.595C708.409 160.412 710.957 160.283 713.377 160.21C715.797 160.1 717.942 160.045 719.812 160.045C721.755 160.045 723.259 160.155 724.322 160.375C725.385 160.595 726.137 160.87 726.577 161.2C727.054 161.53 727.329 161.878 727.402 162.245C727.512 162.612 727.567 162.96 727.567 163.29C727.567 163.363 727.567 163.418 727.567 163.455C727.567 163.895 727.457 164.372 727.237 164.885C727.054 165.398 726.632 165.838 725.972 166.205C725.312 166.535 724.322 166.7 723.002 166.7C722.525 166.7 721.462 166.773 719.812 166.92C718.162 167.067 716.145 167.25 713.762 167.47C711.379 167.69 708.849 167.91 706.172 168.13C705.769 169.78 705.31 171.705 704.797 173.905C704.32 176.105 703.825 178.415 703.312 180.835C702.835 183.255 702.377 185.638 701.937 187.985C701.497 190.295 701.13 192.44 700.837 194.42C700.544 196.363 700.342 197.958 700.232 199.205C700.085 200.892 699.59 202.083 698.747 202.78C697.94 203.44 697.134 203.77 696.327 203.77C695.74 203.77 695.154 203.642 694.567 203.385C693.98 203.165 693.504 202.67 693.137 201.9C692.77 201.093 692.587 199.902 692.587 198.325C692.587 196.712 692.734 194.732 693.027 192.385C693.32 190.002 693.705 187.453 694.182 184.74C694.695 182.027 695.264 179.295 695.887 176.545C696.547 173.795 697.225 171.228 697.922 168.845C695.465 169.028 693.192 169.193 691.102 169.34C689.012 169.45 687.307 169.505 685.987 169.505Z" fill="white"/>
</g>
<defs>
<filter id="filter0_d_60_959" x="563.64" y="71.21" width="180.928" height="152.42" filterUnits="userSpaceOnUse" color-interpolation-filters="sRGB">
<feFlood flood-opacity="0" result="BackgroundImageFix"/>
<feColorMatrix in="SourceAlpha" type="matrix" values="0 0 0 0 0 0 0 0 0 0 0 0 0 0 0 0 0 0 127 0" result="hardAlpha"/>
<feOffset dx="2" dy="2"/>
<feGaussianBlur stdDeviation="7.5"/>
<feComposite in2="hardAlpha" operator="out"/>
<feColorMatrix type="matrix" values="0 0 0 0 0 0 0 0 0 0 0 0 0 0 0 0 0 0 0.75 0"/>
<feBlend mode="normal" in2="BackgroundImageFix" result="effect1_dropShadow_60_959"/>
<feBlend mode="normal" in="SourceGraphic" in2="effect1_dropShadow_60_959" result="shape"/>
</filter>
<linearGradient id="paint0_linear_60_959" x1="130" y1="102.5" x2="644" y2="616.5" gradientUnits="userSpaceOnUse">
<stop stop-color="white" stop-opacity="0.9"/>
<stop offset="1" stop-color="white" stop-opacity="0.75"/>
</linearGradient>
</defs>
</svg>
