<svg width="768" height="746" viewBox="0 0 768 746" fill="none" xmlns="http://www.w3.org/2000/svg">
<circle cx="373" cy="373" r="363" fill="url(#paint0_linear_60_904)" fill-opacity="0.5" stroke="white" stroke-width="20"/>
<circle cx="648.5" cy="144.5" r="117" fill="white" fill-opacity="0.95" stroke="white" stroke-width="5"/>
<path d="M233.667 561.588V607M445.333 561.588V607M445.333 379.941C457.024 379.941 466.5 369.776 466.5 357.235C466.5 344.695 457.024 334.529 445.333 334.529C433.643 334.529 424.167 344.695 424.167 357.235C424.167 369.776 433.643 379.941 445.333 379.941ZM445.333 379.941V448.059M445.333 357.235H445.545M286.583 391.294H286.795M360.667 391.294C360.667 435.185 327.498 470.765 286.583 470.765C245.668 470.765 212.5 435.185 212.5 391.294C212.5 347.404 245.668 311.824 286.583 311.824C327.498 311.824 360.667 347.404 360.667 391.294ZM250.6 561.588H428.4C463.964 561.588 481.744 561.588 495.329 554.163C507.278 547.633 516.991 537.213 523.078 524.396C530 509.823 530 490.75 530 452.6V329.988C530 291.839 530 272.764 523.078 258.193C516.991 245.376 507.278 234.955 495.329 228.424C481.744 221 463.964 221 428.4 221H250.6C215.037 221 197.255 221 183.672 228.424C171.723 234.955 162.009 245.376 155.921 258.193C149 272.764 149 291.839 149 329.988V452.6C149 490.75 149 509.823 155.921 524.396C162.009 537.213 171.723 547.633 183.672 554.163C197.255 561.588 215.037 561.588 250.6 561.588Z" stroke="white" stroke-width="20" stroke-linecap="round" stroke-linejoin="round"/>
<g filter="url(#filter0_d_60_904)">
<path d="M622.101 131.235C621.478 131.235 620.91 131.143 620.396 130.96C619.92 130.813 619.516 130.502 619.186 130.025C617.683 130.282 616.198 130.483 614.731 130.63C613.265 130.777 611.89 130.85 610.606 130.85C609.506 130.85 608.645 130.575 608.021 130.025C607.398 129.512 607.086 128.778 607.086 127.825C607.086 127.275 607.398 126.652 608.021 125.955C608.645 125.258 609.8 124.598 611.486 123.975C613.173 123.315 615.63 122.802 618.856 122.435C619.113 120.712 619.498 118.677 620.011 116.33C620.525 113.947 621.148 111.417 621.881 108.74C622.615 106.027 623.476 103.35 624.466 100.71C623.11 102.14 621.68 103.35 620.176 104.34C618.71 105.33 617.298 106.082 615.941 106.595C614.621 107.108 613.485 107.365 612.531 107.365C611.761 107.365 611.12 107.237 610.606 106.98C610.13 106.723 609.891 106.247 609.891 105.55C609.891 104.67 610.313 103.863 611.156 103.13C612 102.36 612.916 101.608 613.906 100.875C615.41 99.7383 617.023 98.3817 618.746 96.805C620.506 95.2283 622.138 93.5417 623.641 91.745C625.181 89.9483 626.373 88.1883 627.216 86.465C627.62 85.695 628.06 85.09 628.536 84.65C629.013 84.1733 629.783 83.935 630.846 83.935C631.91 83.935 632.68 84.4117 633.156 85.365C633.633 86.2817 633.871 87.3817 633.871 88.665C633.871 89.1783 633.725 90.2417 633.431 91.855C633.138 93.4317 632.735 95.375 632.221 97.685C631.708 99.9583 631.14 102.47 630.516 105.22C629.893 107.933 629.251 110.72 628.591 113.58C627.931 116.44 627.308 119.208 626.721 121.885C627.931 121.848 629.178 121.83 630.461 121.83C632.001 121.83 633.34 121.958 634.476 122.215C635.613 122.472 636.181 123.022 636.181 123.865C636.181 124.745 635.796 125.405 635.026 125.845C634.293 126.248 633.395 126.615 632.331 126.945C631.341 127.238 630.223 127.55 628.976 127.88C627.73 128.247 626.41 128.577 625.016 128.87C624.65 129.713 624.21 130.318 623.696 130.685C623.183 131.052 622.651 131.235 622.101 131.235ZM665.144 127.935C662.724 127.935 660.469 127.33 658.379 126.12C656.289 124.873 654.602 123.04 653.319 120.62C652.035 118.2 651.394 115.193 651.394 111.6C651.394 109.18 651.815 106.87 652.659 104.67C653.502 102.433 654.455 100.453 655.519 98.73C655.335 98.2533 655.244 97.7033 655.244 97.08C655.244 95.65 655.647 94.2383 656.454 92.845C657.297 91.415 658.397 90.1133 659.754 88.94C661.147 87.7667 662.705 86.8317 664.429 86.135C666.152 85.4383 667.912 85.09 669.709 85.09C672.495 85.09 674.952 85.7867 677.079 87.18C679.205 88.5733 680.874 90.5167 682.084 93.01C683.294 95.4667 683.899 98.3083 683.899 101.535C683.899 105.422 683.385 108.978 682.359 112.205C681.369 115.432 679.994 118.218 678.234 120.565C676.51 122.912 674.512 124.727 672.239 126.01C670.002 127.293 667.637 127.935 665.144 127.935ZM665.474 93.725C665.547 93.945 665.584 94.2017 665.584 94.495C665.584 95.045 665.474 95.5033 665.254 95.87C665.034 96.2367 664.74 96.64 664.374 97.08C663.897 97.63 663.347 98.4733 662.724 99.61C662.137 100.71 661.569 101.993 661.019 103.46C660.469 104.927 660.01 106.448 659.644 108.025C659.314 109.565 659.149 111.032 659.149 112.425C659.149 114.882 659.607 116.807 660.524 118.2C661.44 119.593 662.797 120.29 664.594 120.29C666.097 120.29 667.545 119.795 668.939 118.805C670.369 117.815 671.634 116.477 672.734 114.79C673.834 113.067 674.695 111.105 675.319 108.905C675.979 106.705 676.309 104.377 676.309 101.92C676.309 100.16 676.07 98.565 675.594 97.135C675.117 95.705 674.439 94.5683 673.559 93.725C672.679 92.8817 671.634 92.46 670.424 92.46C669.434 92.46 668.517 92.5883 667.674 92.845C666.867 93.065 666.134 93.3583 665.474 93.725ZM604.579 206.63C603.809 206.63 603.094 206.447 602.434 206.08C601.774 205.713 601.243 205.072 600.839 204.155C600.473 203.238 600.363 201.955 600.509 200.305C599.226 195.978 598.053 191.67 596.989 187.38C595.963 183.09 594.991 178.672 594.074 174.125C592.754 177.132 591.563 180.212 590.499 183.365C589.436 186.482 588.483 189.433 587.639 192.22C586.796 194.97 586.026 197.28 585.329 199.15C584.779 200.8 584.229 202.028 583.679 202.835C583.129 203.605 582.579 204.1 582.029 204.32C581.516 204.577 581.003 204.705 580.489 204.705C579.243 204.705 578.289 204.412 577.629 203.825C576.969 203.238 576.639 202.175 576.639 200.635C576.639 199.828 576.859 198.6 577.299 196.95C577.739 195.263 578.326 193.338 579.059 191.175C579.829 188.975 580.709 186.683 581.699 184.3C582.689 181.88 583.734 179.533 584.834 177.26C585.934 174.987 587.034 172.933 588.134 171.1C589.234 169.23 590.298 167.745 591.324 166.645C592.351 165.545 593.268 164.995 594.074 164.995C594.771 164.995 595.413 165.068 595.999 165.215C596.586 165.325 597.154 165.655 597.704 166.205C598.254 166.718 598.823 167.58 599.409 168.79C599.886 169.707 600.363 171.027 600.839 172.75C601.316 174.437 601.774 176.38 602.214 178.58C602.654 180.743 603.094 183.017 603.534 185.4C604.011 187.783 604.488 190.112 604.964 192.385C606.358 186.042 607.476 180.468 608.319 175.665C609.199 170.825 609.841 167.03 610.244 164.28C610.648 161.53 610.868 160.082 610.904 159.935C611.161 158.872 611.436 158.138 611.729 157.735C612.023 157.295 612.353 157.038 612.719 156.965C613.086 156.855 613.508 156.8 613.984 156.8C614.021 156.8 614.039 156.8 614.039 156.8C614.993 156.8 615.928 157.185 616.844 157.955C617.798 158.725 618.274 159.77 618.274 161.09C618.274 161.53 618.183 162.52 617.999 164.06C617.816 165.563 617.541 167.47 617.174 169.78C616.844 172.053 616.404 174.583 615.854 177.37C615.304 180.12 614.663 182.998 613.929 186.005C613.233 188.975 612.444 191.927 611.564 194.86C610.684 197.793 609.713 200.543 608.649 203.11C608.063 204.577 607.366 205.53 606.559 205.97C605.789 206.41 605.129 206.63 604.579 206.63ZM637.821 203.44C636.868 203.44 636.171 202.982 635.731 202.065C635.291 201.148 635.071 199.517 635.071 197.17C635.071 193.87 635.273 190.387 635.676 186.72C636.116 183.017 636.684 179.02 637.381 174.73C638.004 171.32 639.489 168.698 641.836 166.865C644.219 165.032 647.409 163.528 651.406 162.355C653.899 161.622 656.484 160.943 659.161 160.32C661.838 159.697 664.349 159.202 666.696 158.835C669.079 158.432 671.041 158.23 672.581 158.23C673.754 158.23 674.671 158.413 675.331 158.78C675.991 159.147 676.449 159.605 676.706 160.155C676.999 160.668 677.146 161.145 677.146 161.585C677.146 162.282 676.981 162.905 676.651 163.455C676.321 164.005 675.606 164.427 674.506 164.72C674.029 164.867 673.021 165.123 671.481 165.49C669.978 165.82 668.126 166.223 665.926 166.7C663.763 167.177 661.471 167.69 659.051 168.24C656.631 168.753 654.284 169.285 652.011 169.835C649.774 170.495 648.124 171.302 647.061 172.255C646.034 173.172 645.356 174.51 645.026 176.27C644.953 176.637 644.879 177.15 644.806 177.81C646.309 177.333 647.923 176.948 649.646 176.655C651.369 176.362 652.964 176.142 654.431 175.995C655.898 175.848 656.979 175.775 657.676 175.775C658.409 175.775 659.179 175.903 659.986 176.16C660.829 176.38 661.544 176.728 662.131 177.205C662.754 177.645 663.066 178.213 663.066 178.91C663.066 179.57 662.809 180.175 662.296 180.725C661.783 181.238 660.738 181.733 659.161 182.21C658.831 182.32 658.079 182.467 656.906 182.65C655.769 182.833 654.413 183.072 652.836 183.365C651.296 183.622 649.719 183.915 648.106 184.245C646.529 184.575 645.136 184.923 643.926 185.29C643.669 187.27 643.431 189.25 643.211 191.23C642.991 193.21 642.808 194.933 642.661 196.4C642.514 197.83 642.404 198.728 642.331 199.095C642.111 200.452 641.579 201.515 640.736 202.285C639.893 203.055 638.921 203.44 637.821 203.44ZM685.987 169.505C684.227 169.505 682.925 169.34 682.082 169.01C681.275 168.643 680.744 168.222 680.487 167.745C680.267 167.232 680.157 166.773 680.157 166.37C680.157 165.857 680.45 165.27 681.037 164.61C681.624 163.913 682.76 163.4 684.447 163.07C686.134 162.703 688.132 162.373 690.442 162.08C692.752 161.75 695.209 161.475 697.812 161.255C700.415 160.998 703.055 160.778 705.732 160.595C708.409 160.412 710.957 160.283 713.377 160.21C715.797 160.1 717.942 160.045 719.812 160.045C721.755 160.045 723.259 160.155 724.322 160.375C725.385 160.595 726.137 160.87 726.577 161.2C727.054 161.53 727.329 161.878 727.402 162.245C727.512 162.612 727.567 162.96 727.567 163.29C727.567 163.363 727.567 163.418 727.567 163.455C727.567 163.895 727.457 164.372 727.237 164.885C727.054 165.398 726.632 165.838 725.972 166.205C725.312 166.535 724.322 166.7 723.002 166.7C722.525 166.7 721.462 166.773 719.812 166.92C718.162 167.067 716.145 167.25 713.762 167.47C711.379 167.69 708.849 167.91 706.172 168.13C705.769 169.78 705.31 171.705 704.797 173.905C704.32 176.105 703.825 178.415 703.312 180.835C702.835 183.255 702.377 185.638 701.937 187.985C701.497 190.295 701.13 192.44 700.837 194.42C700.544 196.363 700.342 197.958 700.232 199.205C700.085 200.892 699.59 202.083 698.747 202.78C697.94 203.44 697.134 203.77 696.327 203.77C695.74 203.77 695.154 203.642 694.567 203.385C693.98 203.165 693.504 202.67 693.137 201.9C692.77 201.093 692.587 199.902 692.587 198.325C692.587 196.712 692.734 194.732 693.027 192.385C693.32 190.002 693.705 187.453 694.182 184.74C694.695 182.027 695.264 179.295 695.887 176.545C696.547 173.795 697.225 171.228 697.922 168.845C695.465 169.028 693.192 169.193 691.102 169.34C689.012 169.45 687.307 169.505 685.987 169.505Z" fill="white"/>
</g>
<defs>
<filter id="filter0_d_60_904" x="563.64" y="70.9349" width="180.928" height="152.695" filterUnits="userSpaceOnUse" color-interpolation-filters="sRGB">
<feFlood flood-opacity="0" result="BackgroundImageFix"/>
<feColorMatrix in="SourceAlpha" type="matrix" values="0 0 0 0 0 0 0 0 0 0 0 0 0 0 0 0 0 0 127 0" result="hardAlpha"/>
<feOffset dx="2" dy="2"/>
<feGaussianBlur stdDeviation="7.5"/>
<feComposite in2="hardAlpha" operator="out"/>
<feColorMatrix type="matrix" values="0 0 0 0 0 0 0 0 0 0 0 0 0 0 0 0 0 0 0.75 0"/>
<feBlend mode="normal" in2="BackgroundImageFix" result="effect1_dropShadow_60_904"/>
<feBlend mode="normal" in="SourceGraphic" in2="effect1_dropShadow_60_904" result="shape"/>
</filter>
<linearGradient id="paint0_linear_60_904" x1="130" y1="102.5" x2="644" y2="616.5" gradientUnits="userSpaceOnUse">
<stop stop-color="white" stop-opacity="0.9"/>
<stop offset="1" stop-color="white" stop-opacity="0.75"/>
</linearGradient>
</defs>
</svg>
