<svg width="768" height="746" viewBox="0 0 768 746" fill="none" xmlns="http://www.w3.org/2000/svg">
<circle cx="373" cy="373" r="363" fill="url(#paint0_linear_60_981)" fill-opacity="0.5" stroke="white" stroke-width="20"/>
<circle cx="648.5" cy="144.5" r="117" fill="white" fill-opacity="0.95" stroke="white" stroke-width="5"/>
<path d="M233.667 561.588V607M445.333 561.588V607M445.333 379.941C457.024 379.941 466.5 369.776 466.5 357.235C466.5 344.695 457.024 334.529 445.333 334.529C433.643 334.529 424.167 344.695 424.167 357.235C424.167 369.776 433.643 379.941 445.333 379.941ZM445.333 379.941V448.059M445.333 357.235H445.545M286.583 391.294H286.795M360.667 391.294C360.667 435.185 327.498 470.765 286.583 470.765C245.668 470.765 212.5 435.185 212.5 391.294C212.5 347.404 245.668 311.824 286.583 311.824C327.498 311.824 360.667 347.404 360.667 391.294ZM250.6 561.588H428.4C463.964 561.588 481.744 561.588 495.329 554.163C507.278 547.633 516.991 537.213 523.078 524.396C530 509.823 530 490.75 530 452.6V329.988C530 291.839 530 272.764 523.078 258.193C516.991 245.376 507.278 234.955 495.329 228.424C481.744 221 463.964 221 428.4 221H250.6C215.037 221 197.255 221 183.672 228.424C171.723 234.955 162.009 245.376 155.921 258.193C149 272.764 149 291.839 149 329.988V452.6C149 490.75 149 509.823 155.921 524.396C162.009 537.213 171.723 547.633 183.672 554.163C197.255 561.588 215.037 561.588 250.6 561.588Z" stroke="white" stroke-width="20" stroke-linecap="round" stroke-linejoin="round"/>
<g filter="url(#filter0_d_60_981)">
<path d="M629.464 131.29C628.181 131.29 627.246 130.85 626.659 129.97C626.109 129.127 625.834 128.027 625.834 126.67C625.834 125.203 625.944 123.902 626.164 122.765C626.421 121.628 626.714 120.473 627.044 119.3C625.247 119.447 623.432 119.593 621.599 119.74C619.766 119.85 617.932 119.942 616.099 120.015C615.439 120.528 614.742 120.932 614.009 121.225C613.276 121.518 612.432 121.665 611.479 121.665C610.086 121.665 608.986 121.372 608.179 120.785C607.372 120.198 606.969 119.263 606.969 117.98C606.969 116.513 607.409 115.432 608.289 114.735C609.206 114.002 610.361 113.488 611.754 113.195C613.587 110.958 615.586 108.722 617.749 106.485C619.912 104.248 622.057 102.03 624.184 99.83C626.311 97.63 628.217 95.4667 629.904 93.34C631.627 91.1767 632.929 89.0683 633.809 87.015C634.249 85.9883 634.854 85.2733 635.624 84.87C636.431 84.43 637.292 84.21 638.209 84.21C639.492 84.21 640.354 84.705 640.794 85.695C641.271 86.685 641.509 87.8767 641.509 89.27C641.509 89.6 641.381 90.4433 641.124 91.8C640.867 93.12 640.501 94.825 640.024 96.915C639.584 98.9683 639.071 101.26 638.484 103.79C637.934 106.283 637.366 108.868 636.779 111.545C639.199 111.288 641.289 111.087 643.049 110.94C644.809 110.757 645.927 110.665 646.404 110.665C647.467 110.665 648.329 110.775 648.989 110.995C649.649 111.215 649.979 111.765 649.979 112.645C649.979 113.452 649.466 114.13 648.439 114.68C647.449 115.193 646.367 115.652 645.194 116.055C644.021 116.458 642.609 116.862 640.959 117.265C639.309 117.668 637.384 118.035 635.184 118.365C634.817 119.868 634.451 121.298 634.084 122.655C633.717 124.012 633.369 125.57 633.039 127.33C632.782 128.503 632.397 129.457 631.884 130.19C631.407 130.923 630.601 131.29 629.464 131.29ZM631.444 100.985C629.647 103.185 627.777 105.385 625.834 107.585C623.927 109.748 622.094 111.71 620.334 113.47C621.691 113.287 623.066 113.122 624.459 112.975C625.889 112.828 627.319 112.682 628.749 112.535L631.444 100.985ZM660.653 130.96C659.92 130.96 659.26 130.703 658.673 130.19C658.123 129.713 657.848 128.98 657.848 127.99C657.848 127.183 658.197 126.01 658.893 124.47C659.59 122.893 660.543 121.06 661.753 118.97C663 116.843 664.393 114.533 665.933 112.04C667.51 109.51 669.178 106.888 670.938 104.175C672.405 101.902 673.908 99.61 675.448 97.3C677.025 94.9533 678.547 92.6617 680.013 90.425C677.41 90.865 674.88 91.305 672.423 91.745C670.003 92.185 667.913 92.57 666.153 92.9C664.393 93.1933 663.183 93.34 662.523 93.34C660.837 93.34 659.737 92.9917 659.223 92.295C658.71 91.5983 658.453 90.81 658.453 89.93C658.453 89.49 658.967 89.0317 659.993 88.555C661.02 88.0417 662.377 87.5283 664.063 87.015C665.75 86.5017 667.583 86.025 669.563 85.585C671.543 85.145 673.487 84.7417 675.393 84.375C677.337 84.0083 679.06 83.7333 680.563 83.55C682.103 83.33 683.24 83.22 683.973 83.22C684.89 83.22 685.77 83.4583 686.613 83.935C687.457 84.375 688.153 84.9617 688.703 85.695C689.253 86.3917 689.528 87.1433 689.528 87.95C689.528 88.2067 689.235 88.8667 688.648 89.93C688.098 90.9567 687.328 92.295 686.338 93.945C685.348 95.595 684.212 97.465 682.928 99.555C681.645 101.645 680.307 103.845 678.913 106.155C677.117 109.125 675.265 112.113 673.358 115.12C671.488 118.09 669.71 120.822 668.023 123.315C666.337 125.772 664.87 127.733 663.623 129.2C663.22 129.677 662.762 130.08 662.248 130.41C661.772 130.777 661.24 130.96 660.653 130.96ZM604.579 206.63C603.809 206.63 603.094 206.447 602.434 206.08C601.774 205.713 601.243 205.072 600.839 204.155C600.473 203.238 600.363 201.955 600.509 200.305C599.226 195.978 598.053 191.67 596.989 187.38C595.963 183.09 594.991 178.672 594.074 174.125C592.754 177.132 591.563 180.212 590.499 183.365C589.436 186.482 588.483 189.433 587.639 192.22C586.796 194.97 586.026 197.28 585.329 199.15C584.779 200.8 584.229 202.028 583.679 202.835C583.129 203.605 582.579 204.1 582.029 204.32C581.516 204.577 581.003 204.705 580.489 204.705C579.243 204.705 578.289 204.412 577.629 203.825C576.969 203.238 576.639 202.175 576.639 200.635C576.639 199.828 576.859 198.6 577.299 196.95C577.739 195.263 578.326 193.338 579.059 191.175C579.829 188.975 580.709 186.683 581.699 184.3C582.689 181.88 583.734 179.533 584.834 177.26C585.934 174.987 587.034 172.933 588.134 171.1C589.234 169.23 590.298 167.745 591.324 166.645C592.351 165.545 593.268 164.995 594.074 164.995C594.771 164.995 595.413 165.068 595.999 165.215C596.586 165.325 597.154 165.655 597.704 166.205C598.254 166.718 598.823 167.58 599.409 168.79C599.886 169.707 600.363 171.027 600.839 172.75C601.316 174.437 601.774 176.38 602.214 178.58C602.654 180.743 603.094 183.017 603.534 185.4C604.011 187.783 604.488 190.112 604.964 192.385C606.358 186.042 607.476 180.468 608.319 175.665C609.199 170.825 609.841 167.03 610.244 164.28C610.648 161.53 610.868 160.082 610.904 159.935C611.161 158.872 611.436 158.138 611.729 157.735C612.023 157.295 612.353 157.038 612.719 156.965C613.086 156.855 613.508 156.8 613.984 156.8C614.021 156.8 614.039 156.8 614.039 156.8C614.993 156.8 615.928 157.185 616.844 157.955C617.798 158.725 618.274 159.77 618.274 161.09C618.274 161.53 618.183 162.52 617.999 164.06C617.816 165.563 617.541 167.47 617.174 169.78C616.844 172.053 616.404 174.583 615.854 177.37C615.304 180.12 614.663 182.998 613.929 186.005C613.233 188.975 612.444 191.927 611.564 194.86C610.684 197.793 609.713 200.543 608.649 203.11C608.063 204.577 607.366 205.53 606.559 205.97C605.789 206.41 605.129 206.63 604.579 206.63ZM637.821 203.44C636.868 203.44 636.171 202.982 635.731 202.065C635.291 201.148 635.071 199.517 635.071 197.17C635.071 193.87 635.273 190.387 635.676 186.72C636.116 183.017 636.684 179.02 637.381 174.73C638.004 171.32 639.489 168.698 641.836 166.865C644.219 165.032 647.409 163.528 651.406 162.355C653.899 161.622 656.484 160.943 659.161 160.32C661.838 159.697 664.349 159.202 666.696 158.835C669.079 158.432 671.041 158.23 672.581 158.23C673.754 158.23 674.671 158.413 675.331 158.78C675.991 159.147 676.449 159.605 676.706 160.155C676.999 160.668 677.146 161.145 677.146 161.585C677.146 162.282 676.981 162.905 676.651 163.455C676.321 164.005 675.606 164.427 674.506 164.72C674.029 164.867 673.021 165.123 671.481 165.49C669.978 165.82 668.126 166.223 665.926 166.7C663.763 167.177 661.471 167.69 659.051 168.24C656.631 168.753 654.284 169.285 652.011 169.835C649.774 170.495 648.124 171.302 647.061 172.255C646.034 173.172 645.356 174.51 645.026 176.27C644.953 176.637 644.879 177.15 644.806 177.81C646.309 177.333 647.923 176.948 649.646 176.655C651.369 176.362 652.964 176.142 654.431 175.995C655.898 175.848 656.979 175.775 657.676 175.775C658.409 175.775 659.179 175.903 659.986 176.16C660.829 176.38 661.544 176.728 662.131 177.205C662.754 177.645 663.066 178.213 663.066 178.91C663.066 179.57 662.809 180.175 662.296 180.725C661.783 181.238 660.738 181.733 659.161 182.21C658.831 182.32 658.079 182.467 656.906 182.65C655.769 182.833 654.413 183.072 652.836 183.365C651.296 183.622 649.719 183.915 648.106 184.245C646.529 184.575 645.136 184.923 643.926 185.29C643.669 187.27 643.431 189.25 643.211 191.23C642.991 193.21 642.808 194.933 642.661 196.4C642.514 197.83 642.404 198.728 642.331 199.095C642.111 200.452 641.579 201.515 640.736 202.285C639.893 203.055 638.921 203.44 637.821 203.44ZM685.987 169.505C684.227 169.505 682.925 169.34 682.082 169.01C681.275 168.643 680.744 168.222 680.487 167.745C680.267 167.232 680.157 166.773 680.157 166.37C680.157 165.857 680.45 165.27 681.037 164.61C681.624 163.913 682.76 163.4 684.447 163.07C686.134 162.703 688.132 162.373 690.442 162.08C692.752 161.75 695.209 161.475 697.812 161.255C700.415 160.998 703.055 160.778 705.732 160.595C708.409 160.412 710.957 160.283 713.377 160.21C715.797 160.1 717.942 160.045 719.812 160.045C721.755 160.045 723.259 160.155 724.322 160.375C725.385 160.595 726.137 160.87 726.577 161.2C727.054 161.53 727.329 161.878 727.402 162.245C727.512 162.612 727.567 162.96 727.567 163.29C727.567 163.363 727.567 163.418 727.567 163.455C727.567 163.895 727.457 164.372 727.237 164.885C727.054 165.398 726.632 165.838 725.972 166.205C725.312 166.535 724.322 166.7 723.002 166.7C722.525 166.7 721.462 166.773 719.812 166.92C718.162 167.067 716.145 167.25 713.762 167.47C711.379 167.69 708.849 167.91 706.172 168.13C705.769 169.78 705.31 171.705 704.797 173.905C704.32 176.105 703.825 178.415 703.312 180.835C702.835 183.255 702.377 185.638 701.937 187.985C701.497 190.295 701.13 192.44 700.837 194.42C700.544 196.363 700.342 197.958 700.232 199.205C700.085 200.892 699.59 202.083 698.747 202.78C697.94 203.44 697.134 203.77 696.327 203.77C695.74 203.77 695.154 203.642 694.567 203.385C693.98 203.165 693.504 202.67 693.137 201.9C692.77 201.093 692.587 199.902 692.587 198.325C692.587 196.712 692.734 194.732 693.027 192.385C693.32 190.002 693.705 187.453 694.182 184.74C694.695 182.027 695.264 179.295 695.887 176.545C696.547 173.795 697.225 171.228 697.922 168.845C695.465 169.028 693.192 169.193 691.102 169.34C689.012 169.45 687.307 169.505 685.987 169.505Z" fill="white"/>
</g>
<defs>
<filter id="filter0_d_60_981" x="563.64" y="70.2197" width="180.928" height="153.41" filterUnits="userSpaceOnUse" color-interpolation-filters="sRGB">
<feFlood flood-opacity="0" result="BackgroundImageFix"/>
<feColorMatrix in="SourceAlpha" type="matrix" values="0 0 0 0 0 0 0 0 0 0 0 0 0 0 0 0 0 0 127 0" result="hardAlpha"/>
<feOffset dx="2" dy="2"/>
<feGaussianBlur stdDeviation="7.5"/>
<feComposite in2="hardAlpha" operator="out"/>
<feColorMatrix type="matrix" values="0 0 0 0 0 0 0 0 0 0 0 0 0 0 0 0 0 0 0.75 0"/>
<feBlend mode="normal" in2="BackgroundImageFix" result="effect1_dropShadow_60_981"/>
<feBlend mode="normal" in="SourceGraphic" in2="effect1_dropShadow_60_981" result="shape"/>
</filter>
<linearGradient id="paint0_linear_60_981" x1="130" y1="102.5" x2="644" y2="616.5" gradientUnits="userSpaceOnUse">
<stop stop-color="white" stop-opacity="0.9"/>
<stop offset="1" stop-color="white" stop-opacity="0.75"/>
</linearGradient>
</defs>
</svg>
