<svg width="768" height="746" viewBox="0 0 768 746" fill="none" xmlns="http://www.w3.org/2000/svg">
<circle cx="373" cy="373" r="363" fill="url(#paint0_linear_60_1036)" fill-opacity="0.5" stroke="white" stroke-width="20"/>
<circle cx="648.5" cy="144.5" r="117" fill="white" fill-opacity="0.95" stroke="white" stroke-width="5"/>
<path d="M233.667 561.588V607M445.333 561.588V607M445.333 379.941C457.024 379.941 466.5 369.776 466.5 357.235C466.5 344.695 457.024 334.529 445.333 334.529C433.643 334.529 424.167 344.695 424.167 357.235C424.167 369.776 433.643 379.941 445.333 379.941ZM445.333 379.941V448.059M445.333 357.235H445.545M286.583 391.294H286.795M360.667 391.294C360.667 435.185 327.498 470.765 286.583 470.765C245.668 470.765 212.5 435.185 212.5 391.294C212.5 347.404 245.668 311.824 286.583 311.824C327.498 311.824 360.667 347.404 360.667 391.294ZM250.6 561.588H428.4C463.964 561.588 481.744 561.588 495.329 554.163C507.278 547.633 516.991 537.213 523.078 524.396C530 509.823 530 490.75 530 452.6V329.988C530 291.839 530 272.764 523.078 258.193C516.991 245.376 507.278 234.955 495.329 228.424C481.744 221 463.964 221 428.4 221H250.6C215.037 221 197.255 221 183.672 228.424C171.723 234.955 162.009 245.376 155.921 258.193C149 272.764 149 291.839 149 329.988V452.6C149 490.75 149 509.823 155.921 524.396C162.009 537.213 171.723 547.633 183.672 554.163C197.255 561.588 215.037 561.588 250.6 561.588Z" stroke="white" stroke-width="20" stroke-linecap="round" stroke-linejoin="round"/>
<g filter="url(#filter0_d_60_1036)">
<path d="M599.999 131.235C599.376 131.235 598.808 131.143 598.294 130.96C597.818 130.813 597.414 130.502 597.084 130.025C595.581 130.282 594.096 130.483 592.629 130.63C591.163 130.777 589.788 130.85 588.504 130.85C587.404 130.85 586.543 130.575 585.919 130.025C585.296 129.512 584.984 128.778 584.984 127.825C584.984 127.275 585.296 126.652 585.919 125.955C586.543 125.258 587.698 124.598 589.384 123.975C591.071 123.315 593.528 122.802 596.754 122.435C597.011 120.712 597.396 118.677 597.909 116.33C598.423 113.947 599.046 111.417 599.779 108.74C600.513 106.027 601.374 103.35 602.364 100.71C601.008 102.14 599.578 103.35 598.074 104.34C596.608 105.33 595.196 106.082 593.839 106.595C592.519 107.108 591.383 107.365 590.429 107.365C589.659 107.365 589.018 107.237 588.504 106.98C588.028 106.723 587.789 106.247 587.789 105.55C587.789 104.67 588.211 103.863 589.054 103.13C589.898 102.36 590.814 101.608 591.804 100.875C593.308 99.7383 594.921 98.3817 596.644 96.805C598.404 95.2283 600.036 93.5417 601.539 91.745C603.079 89.9483 604.271 88.1883 605.114 86.465C605.518 85.695 605.958 85.09 606.434 84.65C606.911 84.1733 607.681 83.935 608.744 83.935C609.808 83.935 610.578 84.4117 611.054 85.365C611.531 86.2817 611.769 87.3817 611.769 88.665C611.769 89.1783 611.623 90.2417 611.329 91.855C611.036 93.4317 610.633 95.375 610.119 97.685C609.606 99.9583 609.038 102.47 608.414 105.22C607.791 107.933 607.149 110.72 606.489 113.58C605.829 116.44 605.206 119.208 604.619 121.885C605.829 121.848 607.076 121.83 608.359 121.83C609.899 121.83 611.238 121.958 612.374 122.215C613.511 122.472 614.079 123.022 614.079 123.865C614.079 124.745 613.694 125.405 612.924 125.845C612.191 126.248 611.293 126.615 610.229 126.945C609.239 127.238 608.121 127.55 606.874 127.88C605.628 128.247 604.308 128.577 602.914 128.87C602.548 129.713 602.108 130.318 601.594 130.685C601.081 131.052 600.549 131.235 599.999 131.235ZM643.042 127.935C640.622 127.935 638.367 127.33 636.277 126.12C634.187 124.873 632.5 123.04 631.217 120.62C629.933 118.2 629.292 115.193 629.292 111.6C629.292 109.18 629.713 106.87 630.557 104.67C631.4 102.433 632.353 100.453 633.417 98.73C633.233 98.2533 633.142 97.7033 633.142 97.08C633.142 95.65 633.545 94.2383 634.352 92.845C635.195 91.415 636.295 90.1133 637.652 88.94C639.045 87.7667 640.603 86.8317 642.327 86.135C644.05 85.4383 645.81 85.09 647.607 85.09C650.393 85.09 652.85 85.7867 654.977 87.18C657.103 88.5733 658.772 90.5167 659.982 93.01C661.192 95.4667 661.797 98.3083 661.797 101.535C661.797 105.422 661.283 108.978 660.257 112.205C659.267 115.432 657.892 118.218 656.132 120.565C654.408 122.912 652.41 124.727 650.137 126.01C647.9 127.293 645.535 127.935 643.042 127.935ZM643.372 93.725C643.445 93.945 643.482 94.2017 643.482 94.495C643.482 95.045 643.372 95.5033 643.152 95.87C642.932 96.2367 642.638 96.64 642.272 97.08C641.795 97.63 641.245 98.4733 640.622 99.61C640.035 100.71 639.467 101.993 638.917 103.46C638.367 104.927 637.908 106.448 637.542 108.025C637.212 109.565 637.047 111.032 637.047 112.425C637.047 114.882 637.505 116.807 638.422 118.2C639.338 119.593 640.695 120.29 642.492 120.29C643.995 120.29 645.443 119.795 646.837 118.805C648.267 117.815 649.532 116.477 650.632 114.79C651.732 113.067 652.593 111.105 653.217 108.905C653.877 106.705 654.207 104.377 654.207 101.92C654.207 100.16 653.968 98.565 653.492 97.135C653.015 95.705 652.337 94.5683 651.457 93.725C650.577 92.8817 649.532 92.46 648.322 92.46C647.332 92.46 646.415 92.5883 645.572 92.845C644.765 93.065 644.032 93.3583 643.372 93.725ZM688.9 127.11C686.663 127.11 684.647 126.358 682.85 124.855C681.09 123.315 679.697 121.152 678.67 118.365C677.643 115.542 677.13 112.205 677.13 108.355C677.13 106.008 677.442 103.863 678.065 101.92C678.725 99.9767 679.495 98.345 680.375 97.025C681.255 95.6683 682.098 94.6967 682.905 94.11C682.868 93.89 682.85 93.6333 682.85 93.34C682.85 91.9833 683.345 90.6267 684.335 89.27C685.325 87.9133 686.645 86.795 688.295 85.915C689.945 84.9983 691.76 84.54 693.74 84.54C695.977 84.54 697.993 85.2917 699.79 86.795C701.587 88.2617 703.017 90.3517 704.08 93.065C705.143 95.7783 705.675 98.95 705.675 102.58C705.675 106.32 705.217 109.693 704.3 112.7C703.42 115.707 702.192 118.292 700.615 120.455C699.075 122.582 697.297 124.232 695.28 125.405C693.263 126.542 691.137 127.11 688.9 127.11ZM686.535 96.255C686.535 96.255 686.535 96.2733 686.535 96.31C686.535 96.8233 686.388 97.685 686.095 98.895C685.802 100.068 685.508 101.498 685.215 103.185C684.922 104.872 684.775 106.76 684.775 108.85C684.775 110.61 684.903 112.278 685.16 113.855C685.417 115.395 685.857 116.66 686.48 117.65C687.103 118.64 687.965 119.135 689.065 119.135C690.972 119.135 692.585 118.31 693.905 116.66C695.262 115.01 696.307 112.792 697.04 110.005C697.773 107.218 698.14 104.138 698.14 100.765C698.14 98.2717 697.847 96.1817 697.26 94.495C696.673 92.8083 695.757 91.965 694.51 91.965C693.227 91.965 692.09 92.2583 691.1 92.845C690.147 93.4317 689.303 94.0733 688.57 94.77C687.837 95.4667 687.158 95.9617 686.535 96.255ZM604.579 206.63C603.809 206.63 603.094 206.447 602.434 206.08C601.774 205.713 601.243 205.072 600.839 204.155C600.473 203.238 600.363 201.955 600.509 200.305C599.226 195.978 598.053 191.67 596.989 187.38C595.963 183.09 594.991 178.672 594.074 174.125C592.754 177.132 591.563 180.212 590.499 183.365C589.436 186.482 588.483 189.433 587.639 192.22C586.796 194.97 586.026 197.28 585.329 199.15C584.779 200.8 584.229 202.028 583.679 202.835C583.129 203.605 582.579 204.1 582.029 204.32C581.516 204.577 581.003 204.705 580.489 204.705C579.243 204.705 578.289 204.412 577.629 203.825C576.969 203.238 576.639 202.175 576.639 200.635C576.639 199.828 576.859 198.6 577.299 196.95C577.739 195.263 578.326 193.338 579.059 191.175C579.829 188.975 580.709 186.683 581.699 184.3C582.689 181.88 583.734 179.533 584.834 177.26C585.934 174.987 587.034 172.933 588.134 171.1C589.234 169.23 590.298 167.745 591.324 166.645C592.351 165.545 593.268 164.995 594.074 164.995C594.771 164.995 595.413 165.068 595.999 165.215C596.586 165.325 597.154 165.655 597.704 166.205C598.254 166.718 598.823 167.58 599.409 168.79C599.886 169.707 600.363 171.027 600.839 172.75C601.316 174.437 601.774 176.38 602.214 178.58C602.654 180.743 603.094 183.017 603.534 185.4C604.011 187.783 604.488 190.112 604.964 192.385C606.358 186.042 607.476 180.468 608.319 175.665C609.199 170.825 609.841 167.03 610.244 164.28C610.648 161.53 610.868 160.082 610.904 159.935C611.161 158.872 611.436 158.138 611.729 157.735C612.023 157.295 612.353 157.038 612.719 156.965C613.086 156.855 613.508 156.8 613.984 156.8C614.021 156.8 614.039 156.8 614.039 156.8C614.993 156.8 615.928 157.185 616.844 157.955C617.798 158.725 618.274 159.77 618.274 161.09C618.274 161.53 618.183 162.52 617.999 164.06C617.816 165.563 617.541 167.47 617.174 169.78C616.844 172.053 616.404 174.583 615.854 177.37C615.304 180.12 614.663 182.998 613.929 186.005C613.233 188.975 612.444 191.927 611.564 194.86C610.684 197.793 609.713 200.543 608.649 203.11C608.063 204.577 607.366 205.53 606.559 205.97C605.789 206.41 605.129 206.63 604.579 206.63ZM637.821 203.44C636.868 203.44 636.171 202.982 635.731 202.065C635.291 201.148 635.071 199.517 635.071 197.17C635.071 193.87 635.273 190.387 635.676 186.72C636.116 183.017 636.684 179.02 637.381 174.73C638.004 171.32 639.489 168.698 641.836 166.865C644.219 165.032 647.409 163.528 651.406 162.355C653.899 161.622 656.484 160.943 659.161 160.32C661.838 159.697 664.349 159.202 666.696 158.835C669.079 158.432 671.041 158.23 672.581 158.23C673.754 158.23 674.671 158.413 675.331 158.78C675.991 159.147 676.449 159.605 676.706 160.155C676.999 160.668 677.146 161.145 677.146 161.585C677.146 162.282 676.981 162.905 676.651 163.455C676.321 164.005 675.606 164.427 674.506 164.72C674.029 164.867 673.021 165.123 671.481 165.49C669.978 165.82 668.126 166.223 665.926 166.7C663.763 167.177 661.471 167.69 659.051 168.24C656.631 168.753 654.284 169.285 652.011 169.835C649.774 170.495 648.124 171.302 647.061 172.255C646.034 173.172 645.356 174.51 645.026 176.27C644.953 176.637 644.879 177.15 644.806 177.81C646.309 177.333 647.923 176.948 649.646 176.655C651.369 176.362 652.964 176.142 654.431 175.995C655.898 175.848 656.979 175.775 657.676 175.775C658.409 175.775 659.179 175.903 659.986 176.16C660.829 176.38 661.544 176.728 662.131 177.205C662.754 177.645 663.066 178.213 663.066 178.91C663.066 179.57 662.809 180.175 662.296 180.725C661.783 181.238 660.738 181.733 659.161 182.21C658.831 182.32 658.079 182.467 656.906 182.65C655.769 182.833 654.413 183.072 652.836 183.365C651.296 183.622 649.719 183.915 648.106 184.245C646.529 184.575 645.136 184.923 643.926 185.29C643.669 187.27 643.431 189.25 643.211 191.23C642.991 193.21 642.808 194.933 642.661 196.4C642.514 197.83 642.404 198.728 642.331 199.095C642.111 200.452 641.579 201.515 640.736 202.285C639.893 203.055 638.921 203.44 637.821 203.44ZM685.987 169.505C684.227 169.505 682.925 169.34 682.082 169.01C681.275 168.643 680.744 168.222 680.487 167.745C680.267 167.232 680.157 166.773 680.157 166.37C680.157 165.857 680.45 165.27 681.037 164.61C681.624 163.913 682.76 163.4 684.447 163.07C686.134 162.703 688.132 162.373 690.442 162.08C692.752 161.75 695.209 161.475 697.812 161.255C700.415 160.998 703.055 160.778 705.732 160.595C708.409 160.412 710.957 160.283 713.377 160.21C715.797 160.1 717.942 160.045 719.812 160.045C721.755 160.045 723.259 160.155 724.322 160.375C725.385 160.595 726.137 160.87 726.577 161.2C727.054 161.53 727.329 161.878 727.402 162.245C727.512 162.612 727.567 162.96 727.567 163.29C727.567 163.363 727.567 163.418 727.567 163.455C727.567 163.895 727.457 164.372 727.237 164.885C727.054 165.398 726.632 165.838 725.972 166.205C725.312 166.535 724.322 166.7 723.002 166.7C722.525 166.7 721.462 166.773 719.812 166.92C718.162 167.067 716.145 167.25 713.762 167.47C711.379 167.69 708.849 167.91 706.172 168.13C705.769 169.78 705.31 171.705 704.797 173.905C704.32 176.105 703.825 178.415 703.312 180.835C702.835 183.255 702.377 185.638 701.937 187.985C701.497 190.295 701.13 192.44 700.837 194.42C700.544 196.363 700.342 197.958 700.232 199.205C700.085 200.892 699.59 202.083 698.747 202.78C697.94 203.44 697.134 203.77 696.327 203.77C695.74 203.77 695.154 203.642 694.567 203.385C693.98 203.165 693.504 202.67 693.137 201.9C692.77 201.093 692.587 199.902 692.587 198.325C692.587 196.712 692.734 194.732 693.027 192.385C693.32 190.002 693.705 187.453 694.182 184.74C694.695 182.027 695.264 179.295 695.887 176.545C696.547 173.795 697.225 171.228 697.922 168.845C695.465 169.028 693.192 169.193 691.102 169.34C689.012 169.45 687.307 169.505 685.987 169.505Z" fill="white"/>
</g>
<defs>
<filter id="filter0_d_60_1036" x="563.64" y="70.9346" width="180.928" height="152.695" filterUnits="userSpaceOnUse" color-interpolation-filters="sRGB">
<feFlood flood-opacity="0" result="BackgroundImageFix"/>
<feColorMatrix in="SourceAlpha" type="matrix" values="0 0 0 0 0 0 0 0 0 0 0 0 0 0 0 0 0 0 127 0" result="hardAlpha"/>
<feOffset dx="2" dy="2"/>
<feGaussianBlur stdDeviation="7.5"/>
<feComposite in2="hardAlpha" operator="out"/>
<feColorMatrix type="matrix" values="0 0 0 0 0 0 0 0 0 0 0 0 0 0 0 0 0 0 0.75 0"/>
<feBlend mode="normal" in2="BackgroundImageFix" result="effect1_dropShadow_60_1036"/>
<feBlend mode="normal" in="SourceGraphic" in2="effect1_dropShadow_60_1036" result="shape"/>
</filter>
<linearGradient id="paint0_linear_60_1036" x1="130" y1="102.5" x2="644" y2="616.5" gradientUnits="userSpaceOnUse">
<stop stop-color="white" stop-opacity="0.9"/>
<stop offset="1" stop-color="white" stop-opacity="0.75"/>
</linearGradient>
</defs>
</svg>
