<svg width="768" height="746" viewBox="0 0 768 746" fill="none" xmlns="http://www.w3.org/2000/svg">
<circle cx="373" cy="373" r="363" fill="url(#paint0_linear_60_942)" fill-opacity="0.5" stroke="#12499E" stroke-width="20"/>
<circle cx="648.5" cy="144.5" r="117" fill="#12499E" fill-opacity="0.95" stroke="#12499E" stroke-width="5"/>
<path d="M233.667 561.588V607M445.333 561.588V607M445.333 379.941C457.024 379.941 466.5 369.776 466.5 357.235C466.5 344.695 457.024 334.529 445.333 334.529C433.643 334.529 424.167 344.695 424.167 357.235C424.167 369.776 433.643 379.941 445.333 379.941ZM445.333 379.941V448.059M445.333 357.235H445.545M286.583 391.294H286.795M360.667 391.294C360.667 435.185 327.498 470.765 286.583 470.765C245.668 470.765 212.5 435.185 212.5 391.294C212.5 347.404 245.668 311.824 286.583 311.824C327.498 311.824 360.667 347.404 360.667 391.294ZM250.6 561.588H428.4C463.964 561.588 481.744 561.588 495.329 554.163C507.278 547.633 516.991 537.213 523.078 524.396C530 509.823 530 490.75 530 452.6V329.988C530 291.839 530 272.764 523.078 258.193C516.991 245.376 507.278 234.955 495.329 228.424C481.744 221 463.964 221 428.4 221H250.6C215.037 221 197.255 221 183.672 228.424C171.723 234.955 162.009 245.376 155.921 258.193C149 272.764 149 291.839 149 329.988V452.6C149 490.75 149 509.823 155.921 524.396C162.009 537.213 171.723 547.633 183.672 554.163C197.255 561.588 215.037 561.588 250.6 561.588Z" stroke="#12499E" stroke-width="20" stroke-linecap="round" stroke-linejoin="round"/>
<g filter="url(#filter0_d_60_942)">
<path d="M613.739 129.365C611.905 129.365 610.604 128.925 609.834 128.045C609.1 127.202 608.734 126.322 608.734 125.405C608.734 124.598 608.917 123.847 609.284 123.15C609.687 122.417 610.384 121.83 611.374 121.39C612.364 120.95 613.775 120.767 615.609 120.84C617.442 119.887 619.294 118.713 621.164 117.32C623.07 115.927 624.885 114.387 626.609 112.7C628.369 111.013 629.927 109.29 631.284 107.53C632.677 105.733 633.759 103.973 634.529 102.25C635.335 100.49 635.739 98.84 635.739 97.3C635.739 95.65 635.225 94.4033 634.199 93.56C633.209 92.7167 631.815 92.295 630.019 92.295C628.479 92.295 627.067 92.4783 625.784 92.845C624.5 93.175 623.364 93.5783 622.374 94.055C621.384 94.5317 620.54 94.9533 619.844 95.32C619.184 95.65 618.652 95.815 618.249 95.815C617.552 95.815 616.929 95.5217 616.379 94.935C615.829 94.3117 615.664 93.505 615.884 92.515C616.03 91.855 616.47 91.0667 617.204 90.15C617.937 89.2333 618.945 88.3167 620.229 87.4C621.512 86.4833 623.034 85.7317 624.794 85.145C626.59 84.5217 628.607 84.21 630.844 84.21C634.437 84.21 637.352 85.31 639.589 87.51C641.862 89.71 642.999 93.065 642.999 97.575C642.999 100.545 642.21 103.46 640.634 106.32C639.094 109.18 637.04 111.893 634.474 114.46C631.907 117.027 629.102 119.373 626.059 121.5C628.809 121.39 630.954 121.225 632.494 121.005C634.034 120.748 635.262 120.528 636.179 120.345C637.132 120.162 638.049 120.07 638.929 120.07C640.175 120.07 641.147 120.327 641.844 120.84C642.54 121.353 642.889 122.087 642.889 123.04C642.889 123.737 642.705 124.415 642.339 125.075C642.009 125.735 641.349 126.34 640.359 126.89C639.369 127.403 637.939 127.807 636.069 128.1C634.199 128.43 631.742 128.595 628.699 128.595C626.902 128.595 625.05 128.577 623.144 128.54C621.274 128.503 619.459 128.448 617.699 128.375C616.672 128.742 615.865 128.998 615.279 129.145C614.729 129.292 614.215 129.365 613.739 129.365ZM670.307 131.235C669.684 131.235 669.115 131.143 668.602 130.96C668.125 130.813 667.722 130.502 667.392 130.025C665.889 130.282 664.404 130.483 662.937 130.63C661.47 130.777 660.095 130.85 658.812 130.85C657.712 130.85 656.85 130.575 656.227 130.025C655.604 129.512 655.292 128.778 655.292 127.825C655.292 127.275 655.604 126.652 656.227 125.955C656.85 125.258 658.005 124.598 659.692 123.975C661.379 123.315 663.835 122.802 667.062 122.435C667.319 120.712 667.704 118.677 668.217 116.33C668.73 113.947 669.354 111.417 670.087 108.74C670.82 106.027 671.682 103.35 672.672 100.71C671.315 102.14 669.885 103.35 668.382 104.34C666.915 105.33 665.504 106.082 664.147 106.595C662.827 107.108 661.69 107.365 660.737 107.365C659.967 107.365 659.325 107.237 658.812 106.98C658.335 106.723 658.097 106.247 658.097 105.55C658.097 104.67 658.519 103.863 659.362 103.13C660.205 102.36 661.122 101.608 662.112 100.875C663.615 99.7383 665.229 98.3817 666.952 96.805C668.712 95.2283 670.344 93.5417 671.847 91.745C673.387 89.9483 674.579 88.1883 675.422 86.465C675.825 85.695 676.265 85.09 676.742 84.65C677.219 84.1733 677.989 83.935 679.052 83.935C680.115 83.935 680.885 84.4117 681.362 85.365C681.839 86.2817 682.077 87.3817 682.077 88.665C682.077 89.1783 681.93 90.2417 681.637 91.855C681.344 93.4317 680.94 95.375 680.427 97.685C679.914 99.9583 679.345 102.47 678.722 105.22C678.099 107.933 677.457 110.72 676.797 113.58C676.137 116.44 675.514 119.208 674.927 121.885C676.137 121.848 677.384 121.83 678.667 121.83C680.207 121.83 681.545 121.958 682.682 122.215C683.819 122.472 684.387 123.022 684.387 123.865C684.387 124.745 684.002 125.405 683.232 125.845C682.499 126.248 681.6 126.615 680.537 126.945C679.547 127.238 678.429 127.55 677.182 127.88C675.935 128.247 674.615 128.577 673.222 128.87C672.855 129.713 672.415 130.318 671.902 130.685C671.389 131.052 670.857 131.235 670.307 131.235ZM604.579 206.63C603.809 206.63 603.094 206.447 602.434 206.08C601.774 205.713 601.243 205.072 600.839 204.155C600.473 203.238 600.363 201.955 600.509 200.305C599.226 195.978 598.053 191.67 596.989 187.38C595.963 183.09 594.991 178.672 594.074 174.125C592.754 177.132 591.563 180.212 590.499 183.365C589.436 186.482 588.483 189.433 587.639 192.22C586.796 194.97 586.026 197.28 585.329 199.15C584.779 200.8 584.229 202.028 583.679 202.835C583.129 203.605 582.579 204.1 582.029 204.32C581.516 204.577 581.003 204.705 580.489 204.705C579.243 204.705 578.289 204.412 577.629 203.825C576.969 203.238 576.639 202.175 576.639 200.635C576.639 199.828 576.859 198.6 577.299 196.95C577.739 195.263 578.326 193.338 579.059 191.175C579.829 188.975 580.709 186.683 581.699 184.3C582.689 181.88 583.734 179.533 584.834 177.26C585.934 174.987 587.034 172.933 588.134 171.1C589.234 169.23 590.298 167.745 591.324 166.645C592.351 165.545 593.268 164.995 594.074 164.995C594.771 164.995 595.413 165.068 595.999 165.215C596.586 165.325 597.154 165.655 597.704 166.205C598.254 166.718 598.823 167.58 599.409 168.79C599.886 169.707 600.363 171.027 600.839 172.75C601.316 174.437 601.774 176.38 602.214 178.58C602.654 180.743 603.094 183.017 603.534 185.4C604.011 187.783 604.488 190.112 604.964 192.385C606.358 186.042 607.476 180.468 608.319 175.665C609.199 170.825 609.841 167.03 610.244 164.28C610.648 161.53 610.868 160.082 610.904 159.935C611.161 158.872 611.436 158.138 611.729 157.735C612.023 157.295 612.353 157.038 612.719 156.965C613.086 156.855 613.508 156.8 613.984 156.8C614.021 156.8 614.039 156.8 614.039 156.8C614.993 156.8 615.928 157.185 616.844 157.955C617.798 158.725 618.274 159.77 618.274 161.09C618.274 161.53 618.183 162.52 617.999 164.06C617.816 165.563 617.541 167.47 617.174 169.78C616.844 172.053 616.404 174.583 615.854 177.37C615.304 180.12 614.663 182.998 613.929 186.005C613.233 188.975 612.444 191.927 611.564 194.86C610.684 197.793 609.713 200.543 608.649 203.11C608.063 204.577 607.366 205.53 606.559 205.97C605.789 206.41 605.129 206.63 604.579 206.63ZM637.821 203.44C636.868 203.44 636.171 202.982 635.731 202.065C635.291 201.148 635.071 199.517 635.071 197.17C635.071 193.87 635.273 190.387 635.676 186.72C636.116 183.017 636.684 179.02 637.381 174.73C638.004 171.32 639.489 168.698 641.836 166.865C644.219 165.032 647.409 163.528 651.406 162.355C653.899 161.622 656.484 160.943 659.161 160.32C661.838 159.697 664.349 159.202 666.696 158.835C669.079 158.432 671.041 158.23 672.581 158.23C673.754 158.23 674.671 158.413 675.331 158.78C675.991 159.147 676.449 159.605 676.706 160.155C676.999 160.668 677.146 161.145 677.146 161.585C677.146 162.282 676.981 162.905 676.651 163.455C676.321 164.005 675.606 164.427 674.506 164.72C674.029 164.867 673.021 165.123 671.481 165.49C669.978 165.82 668.126 166.223 665.926 166.7C663.763 167.177 661.471 167.69 659.051 168.24C656.631 168.753 654.284 169.285 652.011 169.835C649.774 170.495 648.124 171.302 647.061 172.255C646.034 173.172 645.356 174.51 645.026 176.27C644.953 176.637 644.879 177.15 644.806 177.81C646.309 177.333 647.923 176.948 649.646 176.655C651.369 176.362 652.964 176.142 654.431 175.995C655.898 175.848 656.979 175.775 657.676 175.775C658.409 175.775 659.179 175.903 659.986 176.16C660.829 176.38 661.544 176.728 662.131 177.205C662.754 177.645 663.066 178.213 663.066 178.91C663.066 179.57 662.809 180.175 662.296 180.725C661.783 181.238 660.738 181.733 659.161 182.21C658.831 182.32 658.079 182.467 656.906 182.65C655.769 182.833 654.413 183.072 652.836 183.365C651.296 183.622 649.719 183.915 648.106 184.245C646.529 184.575 645.136 184.923 643.926 185.29C643.669 187.27 643.431 189.25 643.211 191.23C642.991 193.21 642.808 194.933 642.661 196.4C642.514 197.83 642.404 198.728 642.331 199.095C642.111 200.452 641.579 201.515 640.736 202.285C639.893 203.055 638.921 203.44 637.821 203.44ZM685.987 169.505C684.227 169.505 682.925 169.34 682.082 169.01C681.275 168.643 680.744 168.222 680.487 167.745C680.267 167.232 680.157 166.773 680.157 166.37C680.157 165.857 680.45 165.27 681.037 164.61C681.624 163.913 682.76 163.4 684.447 163.07C686.134 162.703 688.132 162.373 690.442 162.08C692.752 161.75 695.209 161.475 697.812 161.255C700.415 160.998 703.055 160.778 705.732 160.595C708.409 160.412 710.957 160.283 713.377 160.21C715.797 160.1 717.942 160.045 719.812 160.045C721.755 160.045 723.259 160.155 724.322 160.375C725.385 160.595 726.137 160.87 726.577 161.2C727.054 161.53 727.329 161.878 727.402 162.245C727.512 162.612 727.567 162.96 727.567 163.29C727.567 163.363 727.567 163.418 727.567 163.455C727.567 163.895 727.457 164.372 727.237 164.885C727.054 165.398 726.632 165.838 725.972 166.205C725.312 166.535 724.322 166.7 723.002 166.7C722.525 166.7 721.462 166.773 719.812 166.92C718.162 167.067 716.145 167.25 713.762 167.47C711.379 167.69 708.849 167.91 706.172 168.13C705.769 169.78 705.31 171.705 704.797 173.905C704.32 176.105 703.825 178.415 703.312 180.835C702.835 183.255 702.377 185.638 701.937 187.985C701.497 190.295 701.13 192.44 700.837 194.42C700.544 196.363 700.342 197.958 700.232 199.205C700.085 200.892 699.59 202.083 698.747 202.78C697.94 203.44 697.134 203.77 696.327 203.77C695.74 203.77 695.154 203.642 694.567 203.385C693.98 203.165 693.504 202.67 693.137 201.9C692.77 201.093 692.587 199.902 692.587 198.325C692.587 196.712 692.734 194.732 693.027 192.385C693.32 190.002 693.705 187.453 694.182 184.74C694.695 182.027 695.264 179.295 695.887 176.545C696.547 173.795 697.225 171.228 697.922 168.845C695.465 169.028 693.192 169.193 691.102 169.34C689.012 169.45 687.307 169.505 685.987 169.505Z" fill="white"/>
</g>
<defs>
<filter id="filter0_d_60_942" x="563.64" y="70.9351" width="180.928" height="152.695" filterUnits="userSpaceOnUse" color-interpolation-filters="sRGB">
<feFlood flood-opacity="0" result="BackgroundImageFix"/>
<feColorMatrix in="SourceAlpha" type="matrix" values="0 0 0 0 0 0 0 0 0 0 0 0 0 0 0 0 0 0 127 0" result="hardAlpha"/>
<feOffset dx="2" dy="2"/>
<feGaussianBlur stdDeviation="7.5"/>
<feComposite in2="hardAlpha" operator="out"/>
<feColorMatrix type="matrix" values="0 0 0 0 0 0 0 0 0 0 0 0 0 0 0 0 0 0 0.75 0"/>
<feBlend mode="normal" in2="BackgroundImageFix" result="effect1_dropShadow_60_942"/>
<feBlend mode="normal" in="SourceGraphic" in2="effect1_dropShadow_60_942" result="shape"/>
</filter>
<linearGradient id="paint0_linear_60_942" x1="130" y1="102.5" x2="644" y2="616.5" gradientUnits="userSpaceOnUse">
<stop stop-color="#12499E" stop-opacity="0.9"/>
<stop offset="1" stop-color="#12499E" stop-opacity="0.75"/>
</linearGradient>
</defs>
</svg>
