<svg width="803" height="746" viewBox="0 0 803 746" fill="none" xmlns="http://www.w3.org/2000/svg">
<circle cx="408" cy="373" r="363" fill="url(#paint0_linear_52_179)" fill-opacity="0.5" stroke="white" stroke-width="20"/>
<circle cx="683.5" cy="144.5" r="117" fill="white" fill-opacity="0.95" stroke="white" stroke-width="5"/>
<path d="M453.368 371.982C489.415 394.653 584.797 383.455 564.187 321.563C560.628 310.89 550.928 298.616 541.158 292.745C539.593 291.811 528.203 289.275 528.203 288.426C528.203 286.457 590.182 194.635 500.857 184.699C454.967 179.599 419.194 221.398 407.309 261.052C406.868 262.525 395.76 304.275 397.232 304.275C424.444 304.275 386.691 178.126 364.136 158.77C344.012 141.504 322.561 134.28 296.488 134.28C212.901 134.28 270.735 233.382 261.947 250.967C260.186 254.502 127.016 288.879 155.444 364.779C170.769 405.679 223.981 444.965 267.706 426.727C272.256 424.828 339.066 397.314 333.91 392.152C324.387 382.62 249 447.054 249 469.95C249 522.946 304.484 495.234 323.835 514.611C334.92 525.703 323.785 568.252 361.256 582.316C408.221 599.952 436.79 515.561 440.412 482.91C442.755 461.798 429.319 442.223 426.022 422.408" stroke="white" stroke-width="20" stroke-linecap="round" stroke-linejoin="round"/>
<path d="M584 626C541.857 500.522 466.88 402.197 362 337" stroke="white" stroke-width="20" stroke-linecap="round" stroke-linejoin="round"/>
<path d="M452.791 319.525C465.921 317.943 348.167 351.079 362.089 336.994C364.842 334.212 367.827 354.292 367.85 354.464C369.357 368.162 371.955 381.997 364.968 393.769" stroke="white" stroke-width="20" stroke-linecap="round" stroke-linejoin="round"/>
<g filter="url(#filter0_d_52_179)">
<path d="M600.344 165.984C598.36 165.984 596.76 165.184 595.544 163.584C594.328 161.984 593.72 160.16 593.72 158.112C593.72 156.384 593.816 154.56 594.008 152.64C594.264 150.656 594.584 148.64 594.968 146.592C592.088 146.784 589.24 146.88 586.424 146.88C584.376 146.88 582.456 146.432 580.664 145.536C578.936 144.64 578.072 143.296 578.072 141.504C578.072 139.84 578.776 138.592 580.184 137.76C581.656 136.864 583.288 136.384 585.08 136.32C586.808 136.192 588.792 135.968 591.032 135.648C593.272 135.328 595.576 134.976 597.944 134.592C598.968 131.328 600.024 128.32 601.112 125.568C602.264 122.816 603.352 120.608 604.376 118.944C605.4 117.28 606.296 116.448 607.064 116.448C608.792 116.448 610.104 116.864 611 117.696C611.896 118.464 612.344 120.16 612.344 122.784C612.344 123.552 612.216 124.832 611.96 126.624C611.704 128.416 611.352 130.464 610.904 132.768C612.568 132.64 613.944 132.576 615.032 132.576C618.424 132.576 620.888 133.12 622.424 134.208C624.024 135.296 624.824 136.768 624.824 138.624C624.824 139.712 623.32 140.832 620.312 141.984C617.304 143.136 613.432 144.128 608.696 144.96C608.12 148.096 607.544 151.104 606.968 153.984C606.392 156.864 605.944 159.264 605.624 161.184C605.368 162.528 604.728 163.68 603.704 164.64C602.744 165.536 601.624 165.984 600.344 165.984ZM655.792 187.392C654.704 187.392 653.712 187.232 652.816 186.912C651.984 186.656 651.28 186.112 650.704 185.28C648.08 185.728 645.488 186.08 642.928 186.336C640.368 186.592 637.968 186.72 635.728 186.72C633.808 186.72 632.304 186.24 631.216 185.28C630.128 184.384 629.584 183.104 629.584 181.44C629.584 180.48 630.128 179.392 631.216 178.176C632.304 176.96 634.32 175.808 637.264 174.72C640.208 173.568 644.496 172.672 650.128 172.032C650.576 169.024 651.248 165.472 652.144 161.376C653.04 157.216 654.128 152.8 655.408 148.128C656.688 143.392 658.192 138.72 659.92 134.112C657.552 136.608 655.056 138.72 652.432 140.448C649.872 142.176 647.408 143.488 645.04 144.384C642.736 145.28 640.752 145.728 639.088 145.728C637.744 145.728 636.624 145.504 635.728 145.056C634.896 144.608 634.48 143.776 634.48 142.56C634.48 141.024 635.216 139.616 636.688 138.336C638.16 136.992 639.76 135.68 641.488 134.4C644.112 132.416 646.928 130.048 649.936 127.296C653.008 124.544 655.856 121.6 658.48 118.464C661.168 115.328 663.248 112.256 664.72 109.248C665.424 107.904 666.192 106.848 667.024 106.08C667.856 105.248 669.2 104.832 671.056 104.832C672.912 104.832 674.256 105.664 675.088 107.328C675.92 108.928 676.336 110.848 676.336 113.088C676.336 113.984 676.08 115.84 675.568 118.656C675.056 121.408 674.352 124.8 673.456 128.832C672.56 132.8 671.568 137.184 670.48 141.984C669.392 146.72 668.272 151.584 667.12 156.576C665.968 161.568 664.88 166.4 663.856 171.072C665.968 171.008 668.144 170.976 670.384 170.976C673.072 170.976 675.408 171.2 677.392 171.648C679.376 172.096 680.368 173.056 680.368 174.528C680.368 176.064 679.696 177.216 678.352 177.984C677.072 178.688 675.504 179.328 673.648 179.904C671.92 180.416 669.968 180.96 667.792 181.536C665.616 182.176 663.312 182.752 660.88 183.264C660.24 184.736 659.472 185.792 658.576 186.432C657.68 187.072 656.752 187.392 655.792 187.392ZM703.899 140.64C703.899 138.528 704.187 136.672 704.763 135.072C705.403 133.408 706.139 132.096 706.971 131.136C705.947 129.984 705.179 128.832 704.667 127.68C704.155 126.464 703.899 125.376 703.899 124.416C703.899 121.408 704.763 118.592 706.491 115.968C708.283 113.344 710.651 111.2 713.595 109.536C716.603 107.872 719.899 107.04 723.483 107.04C727.771 107.04 731.291 108.608 734.043 111.744C736.859 114.88 738.331 120 738.459 127.104C742.235 125.696 745.563 123.936 748.443 121.824C751.323 119.712 753.819 117.536 755.931 115.296C758.107 113.056 759.963 111.008 761.499 109.152C762.779 107.616 764.059 106.08 765.339 104.544C766.683 102.944 768.347 102.144 770.331 102.144C771.739 102.144 772.827 102.752 773.595 103.968C774.427 105.12 774.843 106.432 774.843 107.904C774.843 109.44 773.979 111.648 772.251 114.528C770.523 117.408 768.187 120.768 765.243 124.608C762.363 128.448 759.067 132.576 755.355 136.992C751.707 141.408 747.899 145.952 743.931 150.624C739.963 155.232 736.091 159.808 732.315 164.352C728.539 168.896 725.115 173.152 722.043 177.12C722.939 178.272 723.611 179.776 724.059 181.632C723.291 182.72 722.043 183.84 720.315 184.992C718.587 186.144 716.859 187.104 715.131 187.872C713.403 188.704 712.091 189.12 711.195 189.12C708.379 189.12 706.971 187.584 706.971 184.512C706.971 183.232 707.579 181.472 708.795 179.232C710.011 176.992 711.451 174.688 713.115 172.32C715.355 169.12 718.427 165.184 722.331 160.512C726.235 155.84 730.587 150.752 735.387 145.248C740.251 139.744 745.243 134.144 750.363 128.448C748.379 129.792 746.299 131.04 744.123 132.192C741.947 133.344 739.643 134.336 737.211 135.168C736.123 138.56 734.427 141.792 732.123 144.864C729.819 147.936 727.227 150.432 724.347 152.352C721.531 154.208 718.683 155.136 715.803 155.136C712.219 155.136 709.339 153.76 707.163 151.008C704.987 148.192 703.899 144.736 703.899 140.64ZM761.979 185.664C759.931 185.664 757.979 184.864 756.123 183.264C754.267 181.664 752.731 179.328 751.515 176.256C750.363 173.12 749.787 169.344 749.787 164.928C749.787 161.088 750.075 157.952 750.651 155.52C751.291 153.088 752.187 151.072 753.339 149.472C753.147 148.448 753.051 147.232 753.051 145.824C753.051 143.776 753.755 141.824 755.163 139.968C756.571 138.112 758.459 136.608 760.827 135.456C763.259 134.304 765.979 133.728 768.987 133.728C771.931 133.728 774.523 134.4 776.763 135.744C779.067 137.024 780.859 139.136 782.139 142.08C783.483 145.024 784.155 148.928 784.155 153.792C784.155 157.504 783.483 161.248 782.139 165.024C780.859 168.736 779.131 172.16 776.955 175.296C774.779 178.432 772.379 180.928 769.755 182.784C767.131 184.704 764.539 185.664 761.979 185.664ZM762.075 148.032C762.459 148.672 762.651 149.536 762.651 150.624C762.651 152.16 762.395 154.016 761.883 156.192C761.371 158.368 760.827 160.672 760.251 163.104C759.739 165.536 759.483 167.904 759.483 170.208C759.483 171.04 759.611 171.744 759.867 172.32C760.123 172.832 760.603 173.088 761.307 173.088C762.651 173.088 763.995 172.416 765.339 171.072C766.683 169.728 767.931 167.936 769.083 165.696C770.235 163.392 771.131 160.832 771.771 158.016C772.475 155.2 772.827 152.288 772.827 149.28C772.827 147.808 772.635 146.72 772.251 146.016C771.867 145.312 771.035 144.96 769.755 144.96C767.899 144.96 766.331 145.28 765.051 145.92C763.835 146.496 762.843 147.2 762.075 148.032ZM727.419 129.6C727.803 127.616 727.995 125.6 727.995 123.552C727.995 122.016 727.707 120.864 727.131 120.096C726.555 119.264 725.371 118.848 723.579 118.848C721.339 118.848 719.419 119.328 717.819 120.288C716.283 121.248 715.515 122.624 715.515 124.416C715.515 126.272 716.251 127.648 717.723 128.544C719.195 129.376 720.827 129.792 722.619 129.792C724.283 129.792 725.883 129.728 727.419 129.6ZM724.827 137.568C724.251 137.568 723.675 137.568 723.099 137.568C721.435 137.568 719.867 137.44 718.395 137.184C716.987 136.928 715.675 136.576 714.459 136.128C714.331 136.896 714.171 137.696 713.979 138.528C713.851 139.296 713.787 140.096 713.787 140.928C713.787 141.888 713.979 142.752 714.363 143.52C714.747 144.224 715.483 144.576 716.571 144.576C718.107 144.576 719.579 143.936 720.987 142.656C722.459 141.376 723.739 139.68 724.827 137.568Z" fill="white"/>
</g>
<defs>
<filter id="filter0_d_52_179" x="565.072" y="89.144" width="236.083" height="116.976" filterUnits="userSpaceOnUse" color-interpolation-filters="sRGB">
<feFlood flood-opacity="0" result="BackgroundImageFix"/>
<feColorMatrix in="SourceAlpha" type="matrix" values="0 0 0 0 0 0 0 0 0 0 0 0 0 0 0 0 0 0 127 0" result="hardAlpha"/>
<feOffset dx="2" dy="2"/>
<feGaussianBlur stdDeviation="7.5"/>
<feComposite in2="hardAlpha" operator="out"/>
<feColorMatrix type="matrix" values="0 0 0 0 0 0 0 0 0 0 0 0 0 0 0 0 0 0 0.75 0"/>
<feBlend mode="normal" in2="BackgroundImageFix" result="effect1_dropShadow_52_179"/>
<feBlend mode="normal" in="SourceGraphic" in2="effect1_dropShadow_52_179" result="shape"/>
</filter>
<linearGradient id="paint0_linear_52_179" x1="165" y1="102.5" x2="679" y2="616.5" gradientUnits="userSpaceOnUse">
<stop stop-color="white" stop-opacity="0.9"/>
<stop offset="1" stop-color="white" stop-opacity="0.75"/>
</linearGradient>
</defs>
</svg>
