<svg width="805" height="746" viewBox="0 0 805 746" fill="none" xmlns="http://www.w3.org/2000/svg">
<circle cx="408" cy="373" r="363" fill="url(#paint0_linear_57_448)" fill-opacity="0.5" stroke="white" stroke-width="20"/>
<circle cx="683.5" cy="144.5" r="117" fill="white" fill-opacity="0.95" stroke="white" stroke-width="5"/>
<path d="M453.368 371.982C489.415 394.653 584.797 383.455 564.187 321.564C560.628 310.89 550.928 298.617 541.158 292.746C539.593 291.811 528.203 289.275 528.203 288.426C528.203 286.457 590.182 194.635 500.857 184.699C454.967 179.6 419.194 221.398 407.309 261.052C406.868 262.525 395.76 304.275 397.232 304.275C424.444 304.275 386.691 178.126 364.136 158.771C344.012 141.504 322.561 134.28 296.488 134.28C212.901 134.28 270.735 233.383 261.947 250.968C260.186 254.502 127.016 288.879 155.444 364.779C170.769 405.679 223.981 444.965 267.706 426.727C272.256 424.829 339.066 397.314 333.91 392.152C324.387 382.62 249 447.054 249 469.95C249 522.946 304.484 495.234 323.835 514.612C334.92 525.703 323.785 568.253 361.256 582.317C408.221 599.952 436.79 515.561 440.412 482.91C442.755 461.799 429.319 442.223 426.022 422.408" stroke="white" stroke-width="20" stroke-linecap="round" stroke-linejoin="round"/>
<path d="M584 626C541.857 500.522 466.88 402.197 362 337" stroke="white" stroke-width="20" stroke-linecap="round" stroke-linejoin="round"/>
<path d="M452.791 319.525C465.921 317.943 348.167 351.079 362.089 336.994C364.842 334.212 367.827 354.292 367.85 354.464C369.357 368.162 371.955 381.997 364.968 393.769" stroke="white" stroke-width="20" stroke-linecap="round" stroke-linejoin="round"/>
<g filter="url(#filter0_d_57_448)">
<path d="M590.896 158.656C589.573 158.656 588.507 158.123 587.696 157.056C586.885 155.989 586.48 154.773 586.48 153.408C586.48 152.256 586.544 151.04 586.672 149.76C586.843 148.437 587.056 147.093 587.312 145.728C585.392 145.856 583.493 145.92 581.616 145.92C580.251 145.92 578.971 145.621 577.776 145.024C576.624 144.427 576.048 143.531 576.048 142.336C576.048 141.227 576.517 140.395 577.456 139.84C578.437 139.243 579.525 138.923 580.72 138.88C581.872 138.795 583.195 138.645 584.688 138.432C586.181 138.219 587.717 137.984 589.296 137.728C589.979 135.552 590.683 133.547 591.408 131.712C592.176 129.877 592.901 128.405 593.584 127.296C594.267 126.187 594.864 125.632 595.376 125.632C596.528 125.632 597.403 125.909 598 126.464C598.597 126.976 598.896 128.107 598.896 129.856C598.896 130.368 598.811 131.221 598.64 132.416C598.469 133.611 598.235 134.976 597.936 136.512C599.045 136.427 599.963 136.384 600.688 136.384C602.949 136.384 604.592 136.747 605.616 137.472C606.683 138.197 607.216 139.179 607.216 140.416C607.216 141.141 606.213 141.888 604.208 142.656C602.203 143.424 599.621 144.085 596.464 144.64C596.08 146.731 595.696 148.736 595.312 150.656C594.928 152.576 594.629 154.176 594.416 155.456C594.245 156.352 593.819 157.12 593.136 157.76C592.496 158.357 591.749 158.656 590.896 158.656ZM644.058 150.336C644.058 151.957 643.418 153.664 642.138 155.456C640.858 157.205 639.194 158.933 637.146 160.64C635.098 162.347 632.858 163.968 630.426 165.504C628.037 166.997 625.669 168.32 623.322 169.472C621.018 170.667 618.97 171.584 617.178 172.224C615.386 172.907 614.085 173.248 613.274 173.248C611.738 173.248 610.479 172.971 609.498 172.416C608.517 171.861 608.026 170.88 608.026 169.472C608.026 168.405 608.282 167.573 608.794 166.976C609.306 166.379 610.031 165.867 610.97 165.44C613.231 164.416 615.557 163.328 617.946 162.176C620.335 161.024 622.618 159.851 624.794 158.656C627.013 157.461 628.975 156.288 630.682 155.136C632.431 153.984 633.818 152.896 634.842 151.872C635.866 150.805 636.378 149.867 636.378 149.056C636.378 148.117 636.015 147.435 635.29 147.008C634.607 146.581 633.69 146.304 632.538 146.176C631.386 146.005 630.106 145.92 628.698 145.92C626.778 145.92 625.178 146.005 623.898 146.176C622.618 146.347 621.509 146.517 620.57 146.688C619.674 146.816 618.842 146.88 618.074 146.88C616.794 146.88 615.877 146.603 615.322 146.048C614.767 145.451 614.49 144.661 614.49 143.68C614.49 142.869 614.789 142.037 615.386 141.184C615.983 140.331 616.943 139.691 618.266 139.264C621.039 138.368 623.493 137.387 625.626 136.32C627.802 135.211 629.487 133.995 630.682 132.672C631.919 131.349 632.538 129.92 632.538 128.384C632.538 127.915 632.303 127.595 631.834 127.424C631.407 127.253 630.511 127.168 629.146 127.168C627.909 127.168 626.522 127.317 624.986 127.616C623.493 127.915 622.021 128.277 620.57 128.704C619.162 129.088 617.946 129.429 616.922 129.728C615.941 130.027 615.322 130.176 615.066 130.176C613.189 130.176 612.25 129.237 612.25 127.36C612.25 126.933 612.57 126.251 613.21 125.312C613.85 124.373 614.81 123.413 616.09 122.432C617.37 121.408 618.949 120.533 620.826 119.808C622.746 119.083 624.965 118.72 627.482 118.72C629.957 118.72 632.111 119.211 633.946 120.192C635.823 121.173 637.274 122.517 638.298 124.224C639.365 125.888 639.898 127.787 639.898 129.92C639.898 131.541 639.386 133.163 638.362 134.784C637.381 136.363 636.143 137.771 634.65 139.008C637.509 139.861 639.791 141.333 641.498 143.424C643.205 145.472 644.058 147.776 644.058 150.336ZM648.888 189.44C645.048 190.464 643.128 189.803 643.128 187.456C643.128 186.219 643.853 185.195 645.304 184.384C647.437 183.061 649.165 181.12 650.488 178.56C651.768 176 652.771 173.099 653.496 169.856C654.264 166.613 654.861 163.328 655.288 160C655.501 158.635 655.907 157.739 656.504 157.312C657.101 156.843 657.741 156.608 658.424 156.608C659.747 156.608 660.984 157.141 662.136 158.208C663.288 159.232 663.864 160.939 663.864 163.328C663.864 166.571 663.373 169.664 662.392 172.608C661.453 175.552 660.216 178.197 658.68 180.544C657.187 182.933 655.565 184.896 653.816 186.432C652.067 187.968 650.424 188.971 648.888 189.44ZM681.98 172.992C680.358 172.992 678.908 172.544 677.628 171.648C676.39 170.795 675.772 169.515 675.772 167.808C675.772 166.229 676.241 165.099 677.18 164.416C678.118 163.691 679.377 163.328 680.956 163.328C681.596 163.328 682.236 163.413 682.876 163.584C683.516 163.712 684.71 163.883 686.46 164.096C689.404 162.603 692.006 161.152 694.268 159.744C696.529 158.293 698.3 156.864 699.58 155.456C700.86 154.005 701.5 152.533 701.5 151.04C701.5 149.632 700.945 148.8 699.836 148.544C698.769 148.245 697.468 148.075 695.932 148.032C695.761 148.032 695.569 148.032 695.356 148.032C695.185 147.989 694.993 147.968 694.78 147.968C692.604 147.84 690.556 147.584 688.635 147.2C686.758 146.773 685.222 146.027 684.028 144.96C682.833 143.851 682.236 142.208 682.236 140.032C682.236 137.6 682.556 135.211 683.196 132.864C683.836 130.475 684.646 128.277 685.628 126.272C685.244 125.931 685.009 125.525 684.924 125.056C684.881 124.544 684.86 124.032 684.86 123.52C684.86 123.008 685.244 122.496 686.012 121.984C686.78 121.472 687.825 120.96 689.148 120.448C690.257 118.955 691.324 117.781 692.348 116.928C693.372 116.032 694.182 115.584 694.78 115.584C695.505 115.584 696.145 115.819 696.7 116.288C697.297 116.757 697.745 117.355 698.044 118.08C700.604 117.568 703.27 117.163 706.044 116.864C708.86 116.565 711.59 116.416 714.236 116.416C715.772 116.416 717.158 116.544 718.396 116.8C719.676 117.013 720.678 117.461 721.404 118.144C722.172 118.784 722.556 119.787 722.556 121.152C722.556 122.304 722.172 123.157 721.404 123.712C720.678 124.224 719.697 124.501 718.46 124.544C715.985 124.587 713.34 124.779 710.524 125.12C707.708 125.461 704.934 125.845 702.204 126.272C699.516 126.656 697.105 126.955 694.972 127.168C694.289 128.405 693.628 129.685 692.988 131.008C692.39 132.288 691.878 133.483 691.452 134.592C691.068 135.701 690.876 136.597 690.876 137.28C690.876 138.475 691.388 139.2 692.412 139.456C693.436 139.712 694.652 139.883 696.06 139.968C697.724 140.096 699.388 140.309 701.052 140.608C702.716 140.864 704.23 141.333 705.596 142.016C707.004 142.699 708.134 143.723 708.988 145.088C709.841 146.411 710.268 148.181 710.268 150.4C710.268 152.491 709.67 154.603 708.476 156.736C707.324 158.869 705.745 160.917 703.74 162.88C701.777 164.8 699.558 166.507 697.084 168C694.652 169.536 692.113 170.752 689.468 171.648C686.865 172.544 684.369 172.992 681.98 172.992ZM734.375 141.76C734.375 140.352 734.567 139.115 734.951 138.048C735.378 136.939 735.868 136.064 736.423 135.424C735.74 134.656 735.228 133.888 734.887 133.12C734.546 132.309 734.375 131.584 734.375 130.944C734.375 128.939 734.951 127.061 736.103 125.312C737.298 123.563 738.876 122.133 740.839 121.024C742.844 119.915 745.042 119.36 747.431 119.36C750.29 119.36 752.636 120.405 754.471 122.496C756.348 124.587 757.33 128 757.415 132.736C759.932 131.797 762.151 130.624 764.071 129.216C765.991 127.808 767.655 126.357 769.063 124.864C770.514 123.371 771.751 122.005 772.775 120.768C773.628 119.744 774.482 118.72 775.335 117.696C776.231 116.629 777.34 116.096 778.663 116.096C779.602 116.096 780.327 116.501 780.839 117.312C781.394 118.08 781.671 118.955 781.671 119.936C781.671 120.96 781.095 122.432 779.943 124.352C778.791 126.272 777.234 128.512 775.271 131.072C773.351 133.632 771.154 136.384 768.679 139.328C766.247 142.272 763.708 145.301 761.063 148.416C758.418 151.488 755.836 154.539 753.319 157.568C750.802 160.597 748.519 163.435 746.471 166.08C747.068 166.848 747.516 167.851 747.815 169.088C747.303 169.813 746.471 170.56 745.319 171.328C744.167 172.096 743.015 172.736 741.863 173.248C740.711 173.803 739.836 174.08 739.239 174.08C737.362 174.08 736.423 173.056 736.423 171.008C736.423 170.155 736.828 168.981 737.639 167.488C738.45 165.995 739.41 164.459 740.519 162.88C742.012 160.747 744.06 158.123 746.663 155.008C749.266 151.893 752.167 148.501 755.367 144.832C758.61 141.163 761.938 137.429 765.351 133.632C764.028 134.528 762.642 135.36 761.191 136.128C759.74 136.896 758.204 137.557 756.583 138.112C755.858 140.373 754.727 142.528 753.191 144.576C751.655 146.624 749.927 148.288 748.007 149.568C746.13 150.805 744.231 151.424 742.311 151.424C739.922 151.424 738.002 150.507 736.551 148.672C735.1 146.795 734.375 144.491 734.375 141.76ZM773.095 171.776C771.73 171.776 770.428 171.243 769.191 170.176C767.954 169.109 766.93 167.552 766.119 165.504C765.351 163.413 764.967 160.896 764.967 157.952C764.967 155.392 765.159 153.301 765.543 151.68C765.97 150.059 766.567 148.715 767.335 147.648C767.207 146.965 767.143 146.155 767.143 145.216C767.143 143.851 767.612 142.549 768.551 141.312C769.49 140.075 770.748 139.072 772.327 138.304C773.948 137.536 775.762 137.152 777.767 137.152C779.73 137.152 781.458 137.6 782.951 138.496C784.487 139.349 785.682 140.757 786.535 142.72C787.431 144.683 787.879 147.285 787.879 150.528C787.879 153.003 787.431 155.499 786.535 158.016C785.682 160.491 784.53 162.773 783.079 164.864C781.628 166.955 780.028 168.619 778.279 169.856C776.53 171.136 774.802 171.776 773.095 171.776ZM773.159 146.688C773.415 147.115 773.543 147.691 773.543 148.416C773.543 149.44 773.372 150.677 773.031 152.128C772.69 153.579 772.327 155.115 771.943 156.736C771.602 158.357 771.431 159.936 771.431 161.472C771.431 162.027 771.516 162.496 771.687 162.88C771.858 163.221 772.178 163.392 772.647 163.392C773.543 163.392 774.439 162.944 775.335 162.048C776.231 161.152 777.063 159.957 777.831 158.464C778.599 156.928 779.196 155.221 779.623 153.344C780.092 151.467 780.327 149.525 780.327 147.52C780.327 146.539 780.199 145.813 779.943 145.344C779.687 144.875 779.132 144.64 778.279 144.64C777.042 144.64 775.996 144.853 775.143 145.28C774.332 145.664 773.671 146.133 773.159 146.688ZM750.055 134.4C750.311 133.077 750.439 131.733 750.439 130.368C750.439 129.344 750.247 128.576 749.863 128.064C749.479 127.509 748.69 127.232 747.495 127.232C746.002 127.232 744.722 127.552 743.655 128.192C742.631 128.832 742.119 129.749 742.119 130.944C742.119 132.181 742.61 133.099 743.591 133.696C744.572 134.251 745.66 134.528 746.855 134.528C747.964 134.528 749.031 134.485 750.055 134.4ZM748.327 139.712C747.943 139.712 747.559 139.712 747.175 139.712C746.066 139.712 745.02 139.627 744.039 139.456C743.1 139.285 742.226 139.051 741.415 138.752C741.33 139.264 741.223 139.797 741.095 140.352C741.01 140.864 740.967 141.397 740.967 141.952C740.967 142.592 741.095 143.168 741.351 143.68C741.607 144.149 742.098 144.384 742.823 144.384C743.847 144.384 744.828 143.957 745.767 143.104C746.748 142.251 747.602 141.12 748.327 139.712Z" fill="white"/>
</g>
<defs>
<filter id="filter0_d_57_448" x="563.048" y="102.584" width="241.831" height="105.392" filterUnits="userSpaceOnUse" color-interpolation-filters="sRGB">
<feFlood flood-opacity="0" result="BackgroundImageFix"/>
<feColorMatrix in="SourceAlpha" type="matrix" values="0 0 0 0 0 0 0 0 0 0 0 0 0 0 0 0 0 0 127 0" result="hardAlpha"/>
<feOffset dx="2" dy="2"/>
<feGaussianBlur stdDeviation="7.5"/>
<feComposite in2="hardAlpha" operator="out"/>
<feColorMatrix type="matrix" values="0 0 0 0 0 0 0 0 0 0 0 0 0 0 0 0 0 0 0.75 0"/>
<feBlend mode="normal" in2="BackgroundImageFix" result="effect1_dropShadow_57_448"/>
<feBlend mode="normal" in="SourceGraphic" in2="effect1_dropShadow_57_448" result="shape"/>
</filter>
<linearGradient id="paint0_linear_57_448" x1="165" y1="102.5" x2="679" y2="616.5" gradientUnits="userSpaceOnUse">
<stop stop-color="white" stop-opacity="0.9"/>
<stop offset="1" stop-color="white" stop-opacity="0.75"/>
</linearGradient>
</defs>
</svg>
