<svg width="816" height="746" viewBox="0 0 816 746" fill="none" xmlns="http://www.w3.org/2000/svg">
<circle cx="408" cy="373" r="363" fill="url(#paint0_linear_57_564)" fill-opacity="0.5" stroke="#228B22" stroke-width="20"/>
<circle cx="683.5" cy="144.5" r="117" fill="#228B22" fill-opacity="0.95" stroke="#228B22" stroke-width="5"/>
<path d="M453.369 371.982C489.415 394.653 584.798 383.455 564.187 321.564C560.629 310.89 550.929 298.617 541.158 292.746C539.593 291.811 528.204 289.275 528.204 288.426C528.204 286.457 590.182 194.635 500.857 184.699C454.967 179.6 419.194 221.398 407.309 261.052C406.869 262.525 395.761 304.275 397.232 304.275C424.444 304.275 386.691 178.126 364.136 158.771C344.013 141.504 322.561 134.28 296.489 134.28C212.901 134.28 270.735 233.383 261.947 250.968C260.186 254.502 127.016 288.879 155.444 364.779C170.769 405.679 223.981 444.965 267.706 426.727C272.257 424.829 339.067 397.314 333.91 392.152C324.387 382.62 249 447.054 249 469.95C249 522.946 304.484 495.234 323.835 514.612C334.921 525.703 323.785 568.253 361.256 582.317C408.221 599.952 436.791 515.561 440.413 482.91C442.755 461.799 429.319 442.223 426.022 422.408" stroke="#228B22" stroke-width="20" stroke-linecap="round" stroke-linejoin="round"/>
<path d="M584 626C541.857 500.522 466.88 402.197 362 337" stroke="#228B22" stroke-width="20" stroke-linecap="round" stroke-linejoin="round"/>
<path d="M452.791 319.525C465.921 317.943 348.167 351.079 362.089 336.994C364.842 334.212 367.827 354.292 367.85 354.464C369.357 368.162 371.955 381.997 364.968 393.769" stroke="#228B22" stroke-width="20" stroke-linecap="round" stroke-linejoin="round"/>
<g filter="url(#filter0_d_57_564)">
<path d="M600.344 165.984C598.36 165.984 596.76 165.184 595.544 163.584C594.328 161.984 593.72 160.16 593.72 158.112C593.72 156.384 593.816 154.56 594.008 152.64C594.264 150.656 594.584 148.64 594.968 146.592C592.088 146.784 589.24 146.88 586.424 146.88C584.376 146.88 582.456 146.432 580.664 145.536C578.936 144.64 578.072 143.296 578.072 141.504C578.072 139.84 578.776 138.592 580.184 137.76C581.656 136.864 583.288 136.384 585.08 136.32C586.808 136.192 588.792 135.968 591.032 135.648C593.272 135.328 595.576 134.976 597.944 134.592C598.968 131.328 600.024 128.32 601.112 125.568C602.264 122.816 603.352 120.608 604.376 118.944C605.4 117.28 606.296 116.448 607.064 116.448C608.792 116.448 610.104 116.864 611 117.696C611.896 118.464 612.344 120.16 612.344 122.784C612.344 123.552 612.216 124.832 611.96 126.624C611.704 128.416 611.352 130.464 610.904 132.768C612.568 132.64 613.944 132.576 615.032 132.576C618.424 132.576 620.888 133.12 622.424 134.208C624.024 135.296 624.824 136.768 624.824 138.624C624.824 139.712 623.32 140.832 620.312 141.984C617.304 143.136 613.432 144.128 608.696 144.96C608.12 148.096 607.544 151.104 606.968 153.984C606.392 156.864 605.944 159.264 605.624 161.184C605.368 162.528 604.728 163.68 603.704 164.64C602.744 165.536 601.624 165.984 600.344 165.984ZM644.545 184.992C641.985 184.992 639.361 184.672 636.673 184.032C634.049 183.456 631.649 182.656 629.473 181.632C627.297 180.672 625.537 179.648 624.193 178.56C622.849 177.408 622.177 176.32 622.177 175.296C622.177 174.144 622.561 173.12 623.329 172.224C624.097 171.328 625.537 170.88 627.649 170.88C628.417 170.88 629.537 171.008 631.009 171.264C632.545 171.456 634.145 171.68 635.809 171.936C637.537 172.192 638.977 172.32 640.129 172.32C646.529 172.32 652.161 171.328 657.025 169.344C661.953 167.296 666.049 164.608 669.313 161.28C672.641 157.888 675.169 154.24 676.897 150.336C674.273 152.384 671.329 154.112 668.065 155.52C664.865 156.928 661.697 157.632 658.561 157.632C653.825 157.632 650.081 156.288 647.329 153.6C644.641 150.848 643.297 146.944 643.297 141.888C643.297 138.624 643.841 135.36 644.929 132.096C646.017 128.768 647.489 125.6 649.345 122.592C651.265 119.584 653.409 116.928 655.777 114.624C658.209 112.256 660.737 110.4 663.361 109.056C666.049 107.712 668.673 107.04 671.233 107.04C674.753 107.04 678.081 108.288 681.217 110.784C684.353 113.216 686.881 116.992 688.801 122.112C690.785 127.168 691.777 133.632 691.777 141.504C691.777 145.216 691.073 149.12 689.665 153.216C688.257 157.248 686.209 161.152 683.521 164.928C680.833 168.704 677.569 172.096 673.729 175.104C669.889 178.112 665.505 180.512 660.577 182.304C655.713 184.096 650.369 184.992 644.545 184.992ZM679.681 136.896C679.617 131.84 678.945 127.744 677.665 124.608C676.449 121.472 674.241 119.904 671.041 119.904C669.377 119.904 667.617 120.672 665.761 122.208C663.969 123.744 662.273 125.76 660.673 128.256C659.137 130.688 657.857 133.28 656.833 136.032C655.873 138.784 655.393 141.376 655.393 143.808C655.393 144.832 655.777 145.344 656.545 145.344C659.617 145.344 662.593 144.832 665.473 143.808C668.417 142.72 671.105 141.504 673.537 140.16C676.033 138.816 678.081 137.728 679.681 136.896ZM718.336 140.64C718.336 138.528 718.624 136.672 719.2 135.072C719.84 133.408 720.576 132.096 721.408 131.136C720.384 129.984 719.616 128.832 719.104 127.68C718.592 126.464 718.336 125.376 718.336 124.416C718.336 121.408 719.2 118.592 720.928 115.968C722.72 113.344 725.088 111.2 728.032 109.536C731.04 107.872 734.336 107.04 737.92 107.04C742.208 107.04 745.728 108.608 748.48 111.744C751.296 114.88 752.768 120 752.896 127.104C756.672 125.696 760 123.936 762.88 121.824C765.76 119.712 768.256 117.536 770.368 115.296C772.544 113.056 774.4 111.008 775.936 109.152C777.216 107.616 778.496 106.08 779.776 104.544C781.12 102.944 782.784 102.144 784.768 102.144C786.176 102.144 787.264 102.752 788.032 103.968C788.864 105.12 789.28 106.432 789.28 107.904C789.28 109.44 788.416 111.648 786.688 114.528C784.96 117.408 782.624 120.768 779.68 124.608C776.8 128.448 773.504 132.576 769.792 136.992C766.144 141.408 762.336 145.952 758.368 150.624C754.4 155.232 750.528 159.808 746.752 164.352C742.976 168.896 739.552 173.152 736.48 177.12C737.376 178.272 738.048 179.776 738.496 181.632C737.728 182.72 736.48 183.84 734.752 184.992C733.024 186.144 731.296 187.104 729.568 187.872C727.84 188.704 726.528 189.12 725.632 189.12C722.816 189.12 721.408 187.584 721.408 184.512C721.408 183.232 722.016 181.472 723.232 179.232C724.448 176.992 725.888 174.688 727.552 172.32C729.792 169.12 732.864 165.184 736.768 160.512C740.672 155.84 745.024 150.752 749.824 145.248C754.688 139.744 759.68 134.144 764.8 128.448C762.816 129.792 760.736 131.04 758.56 132.192C756.384 133.344 754.08 134.336 751.648 135.168C750.56 138.56 748.864 141.792 746.56 144.864C744.256 147.936 741.664 150.432 738.784 152.352C735.968 154.208 733.12 155.136 730.24 155.136C726.656 155.136 723.776 153.76 721.6 151.008C719.424 148.192 718.336 144.736 718.336 140.64ZM776.416 185.664C774.368 185.664 772.416 184.864 770.56 183.264C768.704 181.664 767.168 179.328 765.952 176.256C764.8 173.12 764.224 169.344 764.224 164.928C764.224 161.088 764.512 157.952 765.088 155.52C765.728 153.088 766.624 151.072 767.776 149.472C767.584 148.448 767.488 147.232 767.488 145.824C767.488 143.776 768.192 141.824 769.6 139.968C771.008 138.112 772.896 136.608 775.264 135.456C777.696 134.304 780.416 133.728 783.424 133.728C786.368 133.728 788.96 134.4 791.2 135.744C793.504 137.024 795.296 139.136 796.576 142.08C797.92 145.024 798.592 148.928 798.592 153.792C798.592 157.504 797.92 161.248 796.576 165.024C795.296 168.736 793.568 172.16 791.392 175.296C789.216 178.432 786.816 180.928 784.192 182.784C781.568 184.704 778.976 185.664 776.416 185.664ZM776.512 148.032C776.896 148.672 777.088 149.536 777.088 150.624C777.088 152.16 776.832 154.016 776.32 156.192C775.808 158.368 775.264 160.672 774.688 163.104C774.176 165.536 773.92 167.904 773.92 170.208C773.92 171.04 774.048 171.744 774.304 172.32C774.56 172.832 775.04 173.088 775.744 173.088C777.088 173.088 778.432 172.416 779.776 171.072C781.12 169.728 782.368 167.936 783.52 165.696C784.672 163.392 785.568 160.832 786.208 158.016C786.912 155.2 787.264 152.288 787.264 149.28C787.264 147.808 787.072 146.72 786.688 146.016C786.304 145.312 785.472 144.96 784.192 144.96C782.336 144.96 780.768 145.28 779.488 145.92C778.272 146.496 777.28 147.2 776.512 148.032ZM741.856 129.6C742.24 127.616 742.432 125.6 742.432 123.552C742.432 122.016 742.144 120.864 741.568 120.096C740.992 119.264 739.808 118.848 738.016 118.848C735.776 118.848 733.856 119.328 732.256 120.288C730.72 121.248 729.952 122.624 729.952 124.416C729.952 126.272 730.688 127.648 732.16 128.544C733.632 129.376 735.264 129.792 737.056 129.792C738.72 129.792 740.32 129.728 741.856 129.6ZM739.264 137.568C738.688 137.568 738.112 137.568 737.536 137.568C735.872 137.568 734.304 137.44 732.832 137.184C731.424 136.928 730.112 136.576 728.896 136.128C728.768 136.896 728.608 137.696 728.416 138.528C728.288 139.296 728.224 140.096 728.224 140.928C728.224 141.888 728.416 142.752 728.8 143.52C729.184 144.224 729.92 144.576 731.008 144.576C732.544 144.576 734.016 143.936 735.424 142.656C736.896 141.376 738.176 139.68 739.264 137.568Z" fill="white"/>
</g>
<defs>
<filter id="filter0_d_57_564" x="565.072" y="89.1436" width="250.521" height="116.977" filterUnits="userSpaceOnUse" color-interpolation-filters="sRGB">
<feFlood flood-opacity="0" result="BackgroundImageFix"/>
<feColorMatrix in="SourceAlpha" type="matrix" values="0 0 0 0 0 0 0 0 0 0 0 0 0 0 0 0 0 0 127 0" result="hardAlpha"/>
<feOffset dx="2" dy="2"/>
<feGaussianBlur stdDeviation="7.5"/>
<feComposite in2="hardAlpha" operator="out"/>
<feColorMatrix type="matrix" values="0 0 0 0 0 0 0 0 0 0 0 0 0 0 0 0 0 0 0.75 0"/>
<feBlend mode="normal" in2="BackgroundImageFix" result="effect1_dropShadow_57_564"/>
<feBlend mode="normal" in="SourceGraphic" in2="effect1_dropShadow_57_564" result="shape"/>
</filter>
<linearGradient id="paint0_linear_57_564" x1="165" y1="102.5" x2="679" y2="616.5" gradientUnits="userSpaceOnUse">
<stop stop-color="#228B22" stop-opacity="0.9"/>
<stop offset="1" stop-color="#228B22" stop-opacity="0.75"/>
</linearGradient>
</defs>
</svg>
