<svg width="803" height="746" viewBox="0 0 803 746" fill="none" xmlns="http://www.w3.org/2000/svg">
<circle cx="408" cy="373" r="363" fill="url(#paint0_linear_57_593)" fill-opacity="0.5" stroke="white" stroke-width="20"/>
<circle cx="683.5" cy="144.5" r="117" fill="white" fill-opacity="0.95" stroke="white" stroke-width="5"/>
<path d="M453.368 371.982C489.415 394.653 584.797 383.455 564.187 321.564C560.628 310.89 550.928 298.617 541.158 292.746C539.593 291.811 528.203 289.275 528.203 288.426C528.203 286.457 590.182 194.635 500.857 184.699C454.967 179.6 419.194 221.398 407.309 261.052C406.868 262.525 395.76 304.275 397.232 304.275C424.444 304.275 386.691 178.126 364.136 158.771C344.012 141.504 322.561 134.28 296.488 134.28C212.901 134.28 270.735 233.383 261.947 250.968C260.186 254.502 127.016 288.879 155.444 364.779C170.769 405.679 223.981 444.965 267.706 426.727C272.256 424.829 339.066 397.314 333.91 392.152C324.387 382.62 249 447.054 249 469.95C249 522.946 304.484 495.234 323.835 514.612C334.92 525.703 323.785 568.253 361.256 582.317C408.221 599.952 436.79 515.561 440.412 482.91C442.755 461.799 429.319 442.223 426.022 422.408" stroke="white" stroke-width="20" stroke-linecap="round" stroke-linejoin="round"/>
<path d="M584 626C541.857 500.522 466.88 402.197 362 337" stroke="white" stroke-width="20" stroke-linecap="round" stroke-linejoin="round"/>
<path d="M452.791 319.525C465.921 317.943 348.167 351.079 362.089 336.994C364.842 334.212 367.827 354.292 367.85 354.464C369.357 368.162 371.955 381.997 364.968 393.769" stroke="white" stroke-width="20" stroke-linecap="round" stroke-linejoin="round"/>
<g filter="url(#filter0_d_57_593)">
<path d="M591.896 158.656C590.573 158.656 589.507 158.123 588.696 157.056C587.885 155.989 587.48 154.773 587.48 153.408C587.48 152.256 587.544 151.04 587.672 149.76C587.843 148.437 588.056 147.093 588.312 145.728C586.392 145.856 584.493 145.92 582.616 145.92C581.251 145.92 579.971 145.621 578.776 145.024C577.624 144.427 577.048 143.531 577.048 142.336C577.048 141.227 577.517 140.395 578.456 139.84C579.437 139.243 580.525 138.923 581.72 138.88C582.872 138.795 584.195 138.645 585.688 138.432C587.181 138.219 588.717 137.984 590.296 137.728C590.979 135.552 591.683 133.547 592.408 131.712C593.176 129.877 593.901 128.405 594.584 127.296C595.267 126.187 595.864 125.632 596.376 125.632C597.528 125.632 598.403 125.909 599 126.464C599.597 126.976 599.896 128.107 599.896 129.856C599.896 130.368 599.811 131.221 599.64 132.416C599.469 133.611 599.235 134.976 598.936 136.512C600.045 136.427 600.963 136.384 601.688 136.384C603.949 136.384 605.592 136.747 606.616 137.472C607.683 138.197 608.216 139.179 608.216 140.416C608.216 141.141 607.213 141.888 605.208 142.656C603.203 143.424 600.621 144.085 597.464 144.64C597.08 146.731 596.696 148.736 596.312 150.656C595.928 152.576 595.629 154.176 595.416 155.456C595.245 156.352 594.819 157.12 594.136 157.76C593.496 158.357 592.749 158.656 591.896 158.656ZM635.236 172.928C634.511 172.928 633.849 172.821 633.252 172.608C632.697 172.437 632.228 172.075 631.844 171.52C630.095 171.819 628.367 172.053 626.66 172.224C624.953 172.395 623.353 172.48 621.86 172.48C620.58 172.48 619.577 172.16 618.852 171.52C618.127 170.923 617.764 170.069 617.764 168.96C617.764 168.32 618.127 167.595 618.852 166.784C619.577 165.973 620.921 165.205 622.884 164.48C624.847 163.712 627.705 163.115 631.46 162.688C631.759 160.683 632.207 158.315 632.804 155.584C633.401 152.811 634.127 149.867 634.98 146.752C635.833 143.595 636.836 140.48 637.988 137.408C636.409 139.072 634.745 140.48 632.996 141.632C631.289 142.784 629.647 143.659 628.068 144.256C626.532 144.853 625.209 145.152 624.1 145.152C623.204 145.152 622.457 145.003 621.86 144.704C621.305 144.405 621.028 143.851 621.028 143.04C621.028 142.016 621.519 141.077 622.5 140.224C623.481 139.328 624.548 138.453 625.7 137.6C627.449 136.277 629.327 134.699 631.332 132.864C633.38 131.029 635.279 129.067 637.028 126.976C638.82 124.885 640.207 122.837 641.188 120.832C641.657 119.936 642.169 119.232 642.724 118.72C643.279 118.165 644.175 117.888 645.412 117.888C646.649 117.888 647.545 118.443 648.1 119.552C648.655 120.619 648.932 121.899 648.932 123.392C648.932 123.989 648.761 125.227 648.42 127.104C648.079 128.939 647.609 131.2 647.012 133.888C646.415 136.533 645.753 139.456 645.028 142.656C644.303 145.813 643.556 149.056 642.788 152.384C642.02 155.712 641.295 158.933 640.612 162.048C642.02 162.005 643.471 161.984 644.964 161.984C646.756 161.984 648.313 162.133 649.636 162.432C650.959 162.731 651.62 163.371 651.62 164.352C651.62 165.376 651.172 166.144 650.276 166.656C649.423 167.125 648.377 167.552 647.14 167.936C645.988 168.277 644.687 168.64 643.236 169.024C641.785 169.451 640.249 169.835 638.628 170.176C638.201 171.157 637.689 171.861 637.092 172.288C636.495 172.715 635.876 172.928 635.236 172.928ZM673.912 172.992C672.291 172.992 670.84 172.544 669.56 171.648C668.323 170.795 667.704 169.515 667.704 167.808C667.704 166.229 668.173 165.099 669.112 164.416C670.051 163.691 671.309 163.328 672.888 163.328C673.528 163.328 674.168 163.413 674.808 163.584C675.448 163.712 676.643 163.883 678.392 164.096C681.336 162.603 683.939 161.152 686.2 159.744C688.461 158.293 690.232 156.864 691.512 155.456C692.792 154.005 693.432 152.533 693.432 151.04C693.432 149.632 692.877 148.8 691.768 148.544C690.701 148.245 689.4 148.075 687.864 148.032C687.693 148.032 687.501 148.032 687.288 148.032C687.117 147.989 686.925 147.968 686.712 147.968C684.536 147.84 682.488 147.584 680.568 147.2C678.691 146.773 677.155 146.027 675.96 144.96C674.765 143.851 674.168 142.208 674.168 140.032C674.168 137.6 674.488 135.211 675.128 132.864C675.768 130.475 676.579 128.277 677.56 126.272C677.176 125.931 676.941 125.525 676.856 125.056C676.813 124.544 676.792 124.032 676.792 123.52C676.792 123.008 677.176 122.496 677.944 121.984C678.712 121.472 679.757 120.96 681.08 120.448C682.189 118.955 683.256 117.781 684.28 116.928C685.304 116.032 686.115 115.584 686.712 115.584C687.437 115.584 688.077 115.819 688.632 116.288C689.229 116.757 689.677 117.355 689.976 118.08C692.536 117.568 695.203 117.163 697.976 116.864C700.792 116.565 703.523 116.416 706.168 116.416C707.704 116.416 709.091 116.544 710.328 116.8C711.608 117.013 712.611 117.461 713.336 118.144C714.104 118.784 714.488 119.787 714.488 121.152C714.488 122.304 714.104 123.157 713.336 123.712C712.611 124.224 711.629 124.501 710.392 124.544C707.917 124.587 705.272 124.779 702.456 125.12C699.64 125.461 696.867 125.845 694.136 126.272C691.448 126.656 689.037 126.955 686.904 127.168C686.221 128.405 685.56 129.685 684.92 131.008C684.323 132.288 683.811 133.483 683.384 134.592C683 135.701 682.808 136.597 682.808 137.28C682.808 138.475 683.32 139.2 684.344 139.456C685.368 139.712 686.584 139.883 687.992 139.968C689.656 140.096 691.32 140.309 692.984 140.608C694.648 140.864 696.163 141.333 697.528 142.016C698.936 142.699 700.067 143.723 700.92 145.088C701.773 146.411 702.2 148.181 702.2 150.4C702.2 152.491 701.603 154.603 700.408 156.736C699.256 158.869 697.677 160.917 695.672 162.88C693.709 164.8 691.491 166.507 689.016 168C686.584 169.536 684.045 170.752 681.4 171.648C678.797 172.544 676.301 172.992 673.912 172.992ZM728.867 141.76C728.867 140.352 729.059 139.115 729.443 138.048C729.87 136.939 730.361 136.064 730.915 135.424C730.233 134.656 729.721 133.888 729.379 133.12C729.038 132.309 728.867 131.584 728.867 130.944C728.867 128.939 729.443 127.061 730.595 125.312C731.79 123.563 733.369 122.133 735.331 121.024C737.337 119.915 739.534 119.36 741.923 119.36C744.782 119.36 747.129 120.405 748.963 122.496C750.841 124.587 751.822 128 751.907 132.736C754.425 131.797 756.643 130.624 758.563 129.216C760.483 127.808 762.147 126.357 763.555 124.864C765.006 123.371 766.243 122.005 767.267 120.768C768.121 119.744 768.974 118.72 769.827 117.696C770.723 116.629 771.833 116.096 773.155 116.096C774.094 116.096 774.819 116.501 775.331 117.312C775.886 118.08 776.163 118.955 776.163 119.936C776.163 120.96 775.587 122.432 774.435 124.352C773.283 126.272 771.726 128.512 769.763 131.072C767.843 133.632 765.646 136.384 763.171 139.328C760.739 142.272 758.201 145.301 755.555 148.416C752.91 151.488 750.329 154.539 747.811 157.568C745.294 160.597 743.011 163.435 740.963 166.08C741.561 166.848 742.009 167.851 742.307 169.088C741.795 169.813 740.963 170.56 739.811 171.328C738.659 172.096 737.507 172.736 736.355 173.248C735.203 173.803 734.329 174.08 733.731 174.08C731.854 174.08 730.915 173.056 730.915 171.008C730.915 170.155 731.321 168.981 732.131 167.488C732.942 165.995 733.902 164.459 735.011 162.88C736.505 160.747 738.553 158.123 741.155 155.008C743.758 151.893 746.659 148.501 749.859 144.832C753.102 141.163 756.43 137.429 759.843 133.632C758.521 134.528 757.134 135.36 755.683 136.128C754.233 136.896 752.697 137.557 751.075 138.112C750.35 140.373 749.219 142.528 747.683 144.576C746.147 146.624 744.419 148.288 742.499 149.568C740.622 150.805 738.723 151.424 736.803 151.424C734.414 151.424 732.494 150.507 731.043 148.672C729.593 146.795 728.867 144.491 728.867 141.76ZM767.587 171.776C766.222 171.776 764.921 171.243 763.683 170.176C762.446 169.109 761.422 167.552 760.611 165.504C759.843 163.413 759.459 160.896 759.459 157.952C759.459 155.392 759.651 153.301 760.035 151.68C760.462 150.059 761.059 148.715 761.827 147.648C761.699 146.965 761.635 146.155 761.635 145.216C761.635 143.851 762.105 142.549 763.043 141.312C763.982 140.075 765.241 139.072 766.819 138.304C768.441 137.536 770.254 137.152 772.259 137.152C774.222 137.152 775.95 137.6 777.443 138.496C778.979 139.349 780.174 140.757 781.027 142.72C781.923 144.683 782.371 147.285 782.371 150.528C782.371 153.003 781.923 155.499 781.027 158.016C780.174 160.491 779.022 162.773 777.571 164.864C776.121 166.955 774.521 168.619 772.771 169.856C771.022 171.136 769.294 171.776 767.587 171.776ZM767.651 146.688C767.907 147.115 768.035 147.691 768.035 148.416C768.035 149.44 767.865 150.677 767.523 152.128C767.182 153.579 766.819 155.115 766.435 156.736C766.094 158.357 765.923 159.936 765.923 161.472C765.923 162.027 766.009 162.496 766.179 162.88C766.35 163.221 766.67 163.392 767.139 163.392C768.035 163.392 768.931 162.944 769.827 162.048C770.723 161.152 771.555 159.957 772.323 158.464C773.091 156.928 773.689 155.221 774.115 153.344C774.585 151.467 774.819 149.525 774.819 147.52C774.819 146.539 774.691 145.813 774.435 145.344C774.179 144.875 773.625 144.64 772.771 144.64C771.534 144.64 770.489 144.853 769.635 145.28C768.825 145.664 768.163 146.133 767.651 146.688ZM744.547 134.4C744.803 133.077 744.931 131.733 744.931 130.368C744.931 129.344 744.739 128.576 744.355 128.064C743.971 127.509 743.182 127.232 741.987 127.232C740.494 127.232 739.214 127.552 738.147 128.192C737.123 128.832 736.611 129.749 736.611 130.944C736.611 132.181 737.102 133.099 738.083 133.696C739.065 134.251 740.153 134.528 741.347 134.528C742.457 134.528 743.523 134.485 744.547 134.4ZM742.819 139.712C742.435 139.712 742.051 139.712 741.667 139.712C740.558 139.712 739.513 139.627 738.531 139.456C737.593 139.285 736.718 139.051 735.907 138.752C735.822 139.264 735.715 139.797 735.587 140.352C735.502 140.864 735.459 141.397 735.459 141.952C735.459 142.592 735.587 143.168 735.843 143.68C736.099 144.149 736.59 144.384 737.315 144.384C738.339 144.384 739.321 143.957 740.259 143.104C741.241 142.251 742.094 141.12 742.819 139.712Z" fill="white"/>
</g>
<defs>
<filter id="filter0_d_57_593" x="564.048" y="102.584" width="235.323" height="88.4961" filterUnits="userSpaceOnUse" color-interpolation-filters="sRGB">
<feFlood flood-opacity="0" result="BackgroundImageFix"/>
<feColorMatrix in="SourceAlpha" type="matrix" values="0 0 0 0 0 0 0 0 0 0 0 0 0 0 0 0 0 0 127 0" result="hardAlpha"/>
<feOffset dx="2" dy="2"/>
<feGaussianBlur stdDeviation="7.5"/>
<feComposite in2="hardAlpha" operator="out"/>
<feColorMatrix type="matrix" values="0 0 0 0 0 0 0 0 0 0 0 0 0 0 0 0 0 0 0.75 0"/>
<feBlend mode="normal" in2="BackgroundImageFix" result="effect1_dropShadow_57_593"/>
<feBlend mode="normal" in="SourceGraphic" in2="effect1_dropShadow_57_593" result="shape"/>
</filter>
<linearGradient id="paint0_linear_57_593" x1="165" y1="102.5" x2="679" y2="616.5" gradientUnits="userSpaceOnUse">
<stop stop-color="white" stop-opacity="0.9"/>
<stop offset="1" stop-color="white" stop-opacity="0.75"/>
</linearGradient>
</defs>
</svg>
