<svg width="816" height="746" viewBox="0 0 816 746" fill="none" xmlns="http://www.w3.org/2000/svg">
<circle cx="408" cy="373" r="363" fill="url(#paint0_linear_57_470)" fill-opacity="0.5" stroke="white" stroke-width="20"/>
<circle cx="683.5" cy="144.5" r="117" fill="white" fill-opacity="0.95" stroke="white" stroke-width="5"/>
<path d="M453.368 371.982C489.415 394.653 584.797 383.455 564.187 321.564C560.628 310.89 550.928 298.617 541.158 292.746C539.593 291.811 528.203 289.275 528.203 288.426C528.203 286.457 590.182 194.635 500.857 184.699C454.967 179.6 419.194 221.398 407.309 261.052C406.868 262.525 395.76 304.275 397.232 304.275C424.444 304.275 386.691 178.126 364.136 158.771C344.012 141.504 322.561 134.28 296.488 134.28C212.901 134.28 270.735 233.383 261.947 250.968C260.186 254.502 127.016 288.879 155.444 364.779C170.769 405.679 223.981 444.965 267.706 426.727C272.256 424.829 339.066 397.314 333.91 392.152C324.387 382.62 249 447.054 249 469.95C249 522.946 304.484 495.234 323.835 514.612C334.92 525.703 323.785 568.253 361.256 582.317C408.221 599.952 436.79 515.561 440.412 482.91C442.755 461.799 429.319 442.223 426.022 422.408" stroke="white" stroke-width="20" stroke-linecap="round" stroke-linejoin="round"/>
<path d="M584 626C541.857 500.522 466.88 402.197 362 337" stroke="white" stroke-width="20" stroke-linecap="round" stroke-linejoin="round"/>
<path d="M452.791 319.525C465.921 317.943 348.167 351.079 362.089 336.994C364.842 334.212 367.827 354.292 367.85 354.464C369.357 368.162 371.955 381.997 364.968 393.769" stroke="white" stroke-width="20" stroke-linecap="round" stroke-linejoin="round"/>
<g filter="url(#filter0_d_57_470)">
<path d="M600.344 165.984C598.36 165.984 596.76 165.184 595.544 163.584C594.328 161.984 593.72 160.16 593.72 158.112C593.72 156.384 593.816 154.56 594.008 152.64C594.264 150.656 594.584 148.64 594.968 146.592C592.088 146.784 589.24 146.88 586.424 146.88C584.376 146.88 582.456 146.432 580.664 145.536C578.936 144.64 578.072 143.296 578.072 141.504C578.072 139.84 578.776 138.592 580.184 137.76C581.656 136.864 583.288 136.384 585.08 136.32C586.808 136.192 588.792 135.968 591.032 135.648C593.272 135.328 595.576 134.976 597.944 134.592C598.968 131.328 600.024 128.32 601.112 125.568C602.264 122.816 603.352 120.608 604.376 118.944C605.4 117.28 606.296 116.448 607.064 116.448C608.792 116.448 610.104 116.864 611 117.696C611.896 118.464 612.344 120.16 612.344 122.784C612.344 123.552 612.216 124.832 611.96 126.624C611.704 128.416 611.352 130.464 610.904 132.768C612.568 132.64 613.944 132.576 615.032 132.576C618.424 132.576 620.888 133.12 622.424 134.208C624.024 135.296 624.824 136.768 624.824 138.624C624.824 139.712 623.32 140.832 620.312 141.984C617.304 143.136 613.432 144.128 608.696 144.96C608.12 148.096 607.544 151.104 606.968 153.984C606.392 156.864 605.944 159.264 605.624 161.184C605.368 162.528 604.728 163.68 603.704 164.64C602.744 165.536 601.624 165.984 600.344 165.984ZM666.721 187.488C664.481 187.488 662.849 186.72 661.825 185.184C660.865 183.712 660.385 181.792 660.385 179.424C660.385 176.864 660.577 174.592 660.961 172.608C661.409 170.624 661.921 168.608 662.497 166.56C659.361 166.816 656.193 167.072 652.993 167.328C649.793 167.52 646.593 167.68 643.393 167.808C642.241 168.704 641.025 169.408 639.745 169.92C638.465 170.432 636.993 170.688 635.329 170.688C632.897 170.688 630.977 170.176 629.569 169.152C628.161 168.128 627.457 166.496 627.457 164.256C627.457 161.696 628.225 159.808 629.761 158.592C631.361 157.312 633.377 156.416 635.809 155.904C639.009 152 642.497 148.096 646.273 144.192C650.049 140.288 653.793 136.416 657.505 132.576C661.217 128.736 664.545 124.96 667.489 121.248C670.497 117.472 672.769 113.792 674.305 110.208C675.073 108.416 676.129 107.168 677.473 106.464C678.881 105.696 680.385 105.312 681.985 105.312C684.225 105.312 685.729 106.176 686.497 107.904C687.329 109.632 687.745 111.712 687.745 114.144C687.745 114.72 687.521 116.192 687.073 118.56C686.625 120.864 685.985 123.84 685.153 127.488C684.385 131.072 683.489 135.072 682.465 139.488C681.505 143.84 680.513 148.352 679.489 153.024C683.713 152.576 687.361 152.224 690.433 151.968C693.505 151.648 695.457 151.488 696.289 151.488C698.145 151.488 699.649 151.68 700.801 152.064C701.953 152.448 702.529 153.408 702.529 154.944C702.529 156.352 701.633 157.536 699.841 158.496C698.113 159.392 696.225 160.192 694.177 160.896C692.129 161.6 689.665 162.304 686.785 163.008C683.905 163.712 680.545 164.352 676.705 164.928C676.065 167.552 675.425 170.048 674.785 172.416C674.145 174.784 673.537 177.504 672.961 180.576C672.513 182.624 671.841 184.288 670.945 185.568C670.113 186.848 668.705 187.488 666.721 187.488ZM670.177 134.592C667.041 138.432 663.777 142.272 660.385 146.112C657.057 149.888 653.857 153.312 650.785 156.384C653.153 156.064 655.553 155.776 657.985 155.52C660.481 155.264 662.977 155.008 665.473 154.752L670.177 134.592ZM718.711 140.64C718.711 138.528 718.999 136.672 719.575 135.072C720.215 133.408 720.951 132.096 721.783 131.136C720.759 129.984 719.991 128.832 719.479 127.68C718.967 126.464 718.711 125.376 718.711 124.416C718.711 121.408 719.575 118.592 721.303 115.968C723.095 113.344 725.463 111.2 728.407 109.536C731.415 107.872 734.711 107.04 738.295 107.04C742.583 107.04 746.103 108.608 748.855 111.744C751.671 114.88 753.143 120 753.271 127.104C757.047 125.696 760.375 123.936 763.255 121.824C766.135 119.712 768.631 117.536 770.743 115.296C772.919 113.056 774.775 111.008 776.311 109.152C777.591 107.616 778.871 106.08 780.151 104.544C781.495 102.944 783.159 102.144 785.143 102.144C786.551 102.144 787.639 102.752 788.407 103.968C789.239 105.12 789.655 106.432 789.655 107.904C789.655 109.44 788.791 111.648 787.063 114.528C785.335 117.408 782.999 120.768 780.055 124.608C777.175 128.448 773.879 132.576 770.167 136.992C766.519 141.408 762.711 145.952 758.743 150.624C754.775 155.232 750.903 159.808 747.127 164.352C743.351 168.896 739.927 173.152 736.855 177.12C737.751 178.272 738.423 179.776 738.871 181.632C738.103 182.72 736.855 183.84 735.127 184.992C733.399 186.144 731.671 187.104 729.943 187.872C728.215 188.704 726.903 189.12 726.007 189.12C723.191 189.12 721.783 187.584 721.783 184.512C721.783 183.232 722.391 181.472 723.607 179.232C724.823 176.992 726.263 174.688 727.927 172.32C730.167 169.12 733.239 165.184 737.143 160.512C741.047 155.84 745.399 150.752 750.199 145.248C755.063 139.744 760.055 134.144 765.175 128.448C763.191 129.792 761.111 131.04 758.935 132.192C756.759 133.344 754.455 134.336 752.023 135.168C750.935 138.56 749.239 141.792 746.935 144.864C744.631 147.936 742.039 150.432 739.159 152.352C736.343 154.208 733.495 155.136 730.615 155.136C727.031 155.136 724.151 153.76 721.975 151.008C719.799 148.192 718.711 144.736 718.711 140.64ZM776.791 185.664C774.743 185.664 772.791 184.864 770.935 183.264C769.079 181.664 767.543 179.328 766.327 176.256C765.175 173.12 764.599 169.344 764.599 164.928C764.599 161.088 764.887 157.952 765.463 155.52C766.103 153.088 766.999 151.072 768.151 149.472C767.959 148.448 767.863 147.232 767.863 145.824C767.863 143.776 768.567 141.824 769.975 139.968C771.383 138.112 773.271 136.608 775.639 135.456C778.071 134.304 780.791 133.728 783.799 133.728C786.743 133.728 789.335 134.4 791.575 135.744C793.879 137.024 795.671 139.136 796.951 142.08C798.295 145.024 798.967 148.928 798.967 153.792C798.967 157.504 798.295 161.248 796.951 165.024C795.671 168.736 793.943 172.16 791.767 175.296C789.591 178.432 787.191 180.928 784.567 182.784C781.943 184.704 779.351 185.664 776.791 185.664ZM776.887 148.032C777.271 148.672 777.463 149.536 777.463 150.624C777.463 152.16 777.207 154.016 776.695 156.192C776.183 158.368 775.639 160.672 775.063 163.104C774.551 165.536 774.295 167.904 774.295 170.208C774.295 171.04 774.423 171.744 774.679 172.32C774.935 172.832 775.415 173.088 776.119 173.088C777.463 173.088 778.807 172.416 780.151 171.072C781.495 169.728 782.743 167.936 783.895 165.696C785.047 163.392 785.943 160.832 786.583 158.016C787.287 155.2 787.639 152.288 787.639 149.28C787.639 147.808 787.447 146.72 787.063 146.016C786.679 145.312 785.847 144.96 784.567 144.96C782.711 144.96 781.143 145.28 779.863 145.92C778.647 146.496 777.655 147.2 776.887 148.032ZM742.231 129.6C742.615 127.616 742.807 125.6 742.807 123.552C742.807 122.016 742.519 120.864 741.943 120.096C741.367 119.264 740.183 118.848 738.391 118.848C736.151 118.848 734.231 119.328 732.631 120.288C731.095 121.248 730.327 122.624 730.327 124.416C730.327 126.272 731.063 127.648 732.535 128.544C734.007 129.376 735.639 129.792 737.431 129.792C739.095 129.792 740.695 129.728 742.231 129.6ZM739.639 137.568C739.063 137.568 738.487 137.568 737.911 137.568C736.247 137.568 734.679 137.44 733.207 137.184C731.799 136.928 730.487 136.576 729.271 136.128C729.143 136.896 728.983 137.696 728.791 138.528C728.663 139.296 728.599 140.096 728.599 140.928C728.599 141.888 728.791 142.752 729.175 143.52C729.559 144.224 730.295 144.576 731.383 144.576C732.919 144.576 734.391 143.936 735.799 142.656C737.271 141.376 738.551 139.68 739.639 137.568Z" fill="white"/>
</g>
<defs>
<filter id="filter0_d_57_470" x="565.072" y="89.144" width="250.895" height="116.976" filterUnits="userSpaceOnUse" color-interpolation-filters="sRGB">
<feFlood flood-opacity="0" result="BackgroundImageFix"/>
<feColorMatrix in="SourceAlpha" type="matrix" values="0 0 0 0 0 0 0 0 0 0 0 0 0 0 0 0 0 0 127 0" result="hardAlpha"/>
<feOffset dx="2" dy="2"/>
<feGaussianBlur stdDeviation="7.5"/>
<feComposite in2="hardAlpha" operator="out"/>
<feColorMatrix type="matrix" values="0 0 0 0 0 0 0 0 0 0 0 0 0 0 0 0 0 0 0.75 0"/>
<feBlend mode="normal" in2="BackgroundImageFix" result="effect1_dropShadow_57_470"/>
<feBlend mode="normal" in="SourceGraphic" in2="effect1_dropShadow_57_470" result="shape"/>
</filter>
<linearGradient id="paint0_linear_57_470" x1="165" y1="102.5" x2="679" y2="616.5" gradientUnits="userSpaceOnUse">
<stop stop-color="white" stop-opacity="0.9"/>
<stop offset="1" stop-color="white" stop-opacity="0.75"/>
</linearGradient>
</defs>
</svg>
