<svg width="808" height="746" viewBox="0 0 808 746" fill="none" xmlns="http://www.w3.org/2000/svg">
<circle cx="408" cy="373" r="363" fill="url(#paint0_linear_57_620)" fill-opacity="0.5" stroke="white" stroke-width="20"/>
<circle cx="683.5" cy="144.5" r="117" fill="white" fill-opacity="0.95" stroke="white" stroke-width="5"/>
<path d="M453.368 371.982C489.415 394.653 584.797 383.455 564.187 321.564C560.628 310.89 550.928 298.617 541.158 292.746C539.593 291.811 528.203 289.275 528.203 288.426C528.203 286.457 590.182 194.635 500.857 184.699C454.967 179.6 419.194 221.398 407.309 261.052C406.868 262.525 395.76 304.275 397.232 304.275C424.444 304.275 386.691 178.126 364.136 158.771C344.012 141.504 322.561 134.28 296.488 134.28C212.901 134.28 270.735 233.383 261.947 250.968C260.186 254.502 127.016 288.879 155.444 364.779C170.769 405.679 223.981 444.965 267.706 426.727C272.256 424.829 339.066 397.314 333.91 392.152C324.387 382.62 249 447.054 249 469.95C249 522.946 304.484 495.234 323.835 514.612C334.92 525.703 323.785 568.253 361.256 582.317C408.221 599.952 436.79 515.561 440.412 482.91C442.755 461.799 429.319 442.223 426.022 422.408" stroke="white" stroke-width="20" stroke-linecap="round" stroke-linejoin="round"/>
<path d="M584 626C541.857 500.522 466.88 402.197 362 337" stroke="white" stroke-width="20" stroke-linecap="round" stroke-linejoin="round"/>
<path d="M452.791 319.525C465.921 317.943 348.167 351.079 362.089 336.994C364.842 334.212 367.827 354.292 367.85 354.464C369.357 368.162 371.955 381.997 364.968 393.769" stroke="white" stroke-width="20" stroke-linecap="round" stroke-linejoin="round"/>
<g filter="url(#filter0_d_57_620)">
<path d="M591.896 158.656C590.573 158.656 589.507 158.123 588.696 157.056C587.885 155.989 587.48 154.773 587.48 153.408C587.48 152.256 587.544 151.04 587.672 149.76C587.843 148.437 588.056 147.093 588.312 145.728C586.392 145.856 584.493 145.92 582.616 145.92C581.251 145.92 579.971 145.621 578.776 145.024C577.624 144.427 577.048 143.531 577.048 142.336C577.048 141.227 577.517 140.395 578.456 139.84C579.437 139.243 580.525 138.923 581.72 138.88C582.872 138.795 584.195 138.645 585.688 138.432C587.181 138.219 588.717 137.984 590.296 137.728C590.979 135.552 591.683 133.547 592.408 131.712C593.176 129.877 593.901 128.405 594.584 127.296C595.267 126.187 595.864 125.632 596.376 125.632C597.528 125.632 598.403 125.909 599 126.464C599.597 126.976 599.896 128.107 599.896 129.856C599.896 130.368 599.811 131.221 599.64 132.416C599.469 133.611 599.235 134.976 598.936 136.512C600.045 136.427 600.963 136.384 601.688 136.384C603.949 136.384 605.592 136.747 606.616 137.472C607.683 138.197 608.216 139.179 608.216 140.416C608.216 141.141 607.213 141.888 605.208 142.656C603.203 143.424 600.621 144.085 597.464 144.64C597.08 146.731 596.696 148.736 596.312 150.656C595.928 152.576 595.629 154.176 595.416 155.456C595.245 156.352 594.819 157.12 594.136 157.76C593.496 158.357 592.749 158.656 591.896 158.656ZM619.536 170.752C617.403 170.752 615.888 170.24 614.992 169.216C614.139 168.235 613.712 167.211 613.712 166.144C613.712 165.205 613.925 164.331 614.352 163.52C614.821 162.667 615.632 161.984 616.784 161.472C617.936 160.96 619.579 160.747 621.712 160.832C623.845 159.723 626 158.357 628.176 156.736C630.395 155.115 632.507 153.323 634.512 151.36C636.56 149.397 638.373 147.392 639.952 145.344C641.573 143.253 642.832 141.205 643.728 139.2C644.667 137.152 645.136 135.232 645.136 133.44C645.136 131.52 644.539 130.069 643.344 129.088C642.192 128.107 640.571 127.616 638.48 127.616C636.688 127.616 635.045 127.829 633.552 128.256C632.059 128.64 630.736 129.109 629.584 129.664C628.432 130.219 627.451 130.709 626.64 131.136C625.872 131.52 625.253 131.712 624.784 131.712C623.973 131.712 623.248 131.371 622.608 130.688C621.968 129.963 621.776 129.024 622.032 127.872C622.203 127.104 622.715 126.187 623.568 125.12C624.421 124.053 625.595 122.987 627.088 121.92C628.581 120.853 630.352 119.979 632.4 119.296C634.491 118.571 636.837 118.208 639.44 118.208C643.621 118.208 647.013 119.488 649.616 122.048C652.261 124.608 653.584 128.512 653.584 133.76C653.584 137.216 652.667 140.608 650.832 143.936C649.04 147.264 646.651 150.421 643.664 153.408C640.677 156.395 637.413 159.125 633.872 161.6C637.072 161.472 639.568 161.28 641.36 161.024C643.152 160.725 644.581 160.469 645.648 160.256C646.757 160.043 647.824 159.936 648.848 159.936C650.299 159.936 651.429 160.235 652.24 160.832C653.051 161.429 653.456 162.283 653.456 163.392C653.456 164.203 653.243 164.992 652.816 165.76C652.432 166.528 651.664 167.232 650.512 167.872C649.36 168.469 647.696 168.939 645.52 169.28C643.344 169.664 640.485 169.856 636.944 169.856C634.853 169.856 632.699 169.835 630.48 169.792C628.304 169.749 626.192 169.685 624.144 169.6C622.949 170.027 622.011 170.325 621.328 170.496C620.688 170.667 620.091 170.752 619.536 170.752ZM690.632 169.088C687.816 169.088 685.192 168.384 682.76 166.976C680.328 165.525 678.365 163.392 676.872 160.576C675.378 157.76 674.632 154.261 674.632 150.08C674.632 147.264 675.122 144.576 676.104 142.016C677.085 139.413 678.194 137.109 679.432 135.104C679.218 134.549 679.112 133.909 679.112 133.184C679.112 131.52 679.581 129.877 680.52 128.256C681.501 126.592 682.781 125.077 684.36 123.712C685.981 122.347 687.794 121.259 689.8 120.448C691.805 119.637 693.853 119.232 695.944 119.232C699.186 119.232 702.045 120.043 704.52 121.664C706.994 123.285 708.936 125.547 710.344 128.448C711.752 131.307 712.456 134.613 712.456 138.368C712.456 142.891 711.858 147.029 710.664 150.784C709.512 154.539 707.912 157.781 705.864 160.512C703.858 163.243 701.533 165.355 698.888 166.848C696.285 168.341 693.533 169.088 690.632 169.088ZM691.016 129.28C691.101 129.536 691.144 129.835 691.144 130.176C691.144 130.816 691.016 131.349 690.76 131.776C690.504 132.203 690.162 132.672 689.736 133.184C689.181 133.824 688.541 134.805 687.816 136.128C687.133 137.408 686.472 138.901 685.832 140.608C685.192 142.315 684.658 144.085 684.232 145.92C683.848 147.712 683.656 149.419 683.656 151.04C683.656 153.899 684.189 156.139 685.256 157.76C686.322 159.381 687.901 160.192 689.992 160.192C691.741 160.192 693.426 159.616 695.048 158.464C696.712 157.312 698.184 155.755 699.464 153.792C700.744 151.787 701.746 149.504 702.472 146.944C703.24 144.384 703.624 141.675 703.624 138.816C703.624 136.768 703.346 134.912 702.792 133.248C702.237 131.584 701.448 130.261 700.424 129.28C699.4 128.299 698.184 127.808 696.776 127.808C695.624 127.808 694.557 127.957 693.576 128.256C692.637 128.512 691.784 128.853 691.016 129.28ZM736.555 141.76C736.555 140.352 736.747 139.115 737.131 138.048C737.558 136.939 738.048 136.064 738.603 135.424C737.92 134.656 737.408 133.888 737.067 133.12C736.726 132.309 736.555 131.584 736.555 130.944C736.555 128.939 737.131 127.061 738.283 125.312C739.478 123.563 741.056 122.133 743.019 121.024C745.024 119.915 747.222 119.36 749.611 119.36C752.47 119.36 754.816 120.405 756.651 122.496C758.528 124.587 759.51 128 759.595 132.736C762.112 131.797 764.331 130.624 766.251 129.216C768.171 127.808 769.835 126.357 771.243 124.864C772.694 123.371 773.931 122.005 774.955 120.768C775.808 119.744 776.662 118.72 777.515 117.696C778.411 116.629 779.52 116.096 780.843 116.096C781.782 116.096 782.507 116.501 783.019 117.312C783.574 118.08 783.851 118.955 783.851 119.936C783.851 120.96 783.275 122.432 782.123 124.352C780.971 126.272 779.414 128.512 777.451 131.072C775.531 133.632 773.334 136.384 770.859 139.328C768.427 142.272 765.888 145.301 763.243 148.416C760.598 151.488 758.016 154.539 755.499 157.568C752.982 160.597 750.699 163.435 748.651 166.08C749.248 166.848 749.696 167.851 749.995 169.088C749.483 169.813 748.651 170.56 747.499 171.328C746.347 172.096 745.195 172.736 744.043 173.248C742.891 173.803 742.016 174.08 741.419 174.08C739.542 174.08 738.603 173.056 738.603 171.008C738.603 170.155 739.008 168.981 739.819 167.488C740.63 165.995 741.59 164.459 742.699 162.88C744.192 160.747 746.24 158.123 748.843 155.008C751.446 151.893 754.347 148.501 757.547 144.832C760.79 141.163 764.118 137.429 767.531 133.632C766.208 134.528 764.822 135.36 763.371 136.128C761.92 136.896 760.384 137.557 758.763 138.112C758.038 140.373 756.907 142.528 755.371 144.576C753.835 146.624 752.107 148.288 750.187 149.568C748.31 150.805 746.411 151.424 744.491 151.424C742.102 151.424 740.182 150.507 738.731 148.672C737.28 146.795 736.555 144.491 736.555 141.76ZM775.275 171.776C773.91 171.776 772.608 171.243 771.371 170.176C770.134 169.109 769.11 167.552 768.299 165.504C767.531 163.413 767.147 160.896 767.147 157.952C767.147 155.392 767.339 153.301 767.723 151.68C768.15 150.059 768.747 148.715 769.515 147.648C769.387 146.965 769.323 146.155 769.323 145.216C769.323 143.851 769.792 142.549 770.731 141.312C771.67 140.075 772.928 139.072 774.507 138.304C776.128 137.536 777.942 137.152 779.947 137.152C781.91 137.152 783.638 137.6 785.131 138.496C786.667 139.349 787.862 140.757 788.715 142.72C789.611 144.683 790.059 147.285 790.059 150.528C790.059 153.003 789.611 155.499 788.715 158.016C787.862 160.491 786.71 162.773 785.259 164.864C783.808 166.955 782.208 168.619 780.459 169.856C778.71 171.136 776.982 171.776 775.275 171.776ZM775.339 146.688C775.595 147.115 775.723 147.691 775.723 148.416C775.723 149.44 775.552 150.677 775.211 152.128C774.87 153.579 774.507 155.115 774.123 156.736C773.782 158.357 773.611 159.936 773.611 161.472C773.611 162.027 773.696 162.496 773.867 162.88C774.038 163.221 774.358 163.392 774.827 163.392C775.723 163.392 776.619 162.944 777.515 162.048C778.411 161.152 779.243 159.957 780.011 158.464C780.779 156.928 781.376 155.221 781.803 153.344C782.272 151.467 782.507 149.525 782.507 147.52C782.507 146.539 782.379 145.813 782.123 145.344C781.867 144.875 781.312 144.64 780.459 144.64C779.222 144.64 778.176 144.853 777.323 145.28C776.512 145.664 775.851 146.133 775.339 146.688ZM752.235 134.4C752.491 133.077 752.619 131.733 752.619 130.368C752.619 129.344 752.427 128.576 752.043 128.064C751.659 127.509 750.87 127.232 749.675 127.232C748.182 127.232 746.902 127.552 745.835 128.192C744.811 128.832 744.299 129.749 744.299 130.944C744.299 132.181 744.79 133.099 745.771 133.696C746.752 134.251 747.84 134.528 749.035 134.528C750.144 134.528 751.211 134.485 752.235 134.4ZM750.507 139.712C750.123 139.712 749.739 139.712 749.355 139.712C748.246 139.712 747.2 139.627 746.219 139.456C745.28 139.285 744.406 139.051 743.595 138.752C743.51 139.264 743.403 139.797 743.275 140.352C743.19 140.864 743.147 141.397 743.147 141.952C743.147 142.592 743.275 143.168 743.531 143.68C743.787 144.149 744.278 144.384 745.003 144.384C746.027 144.384 747.008 143.957 747.947 143.104C748.928 142.251 749.782 141.12 750.507 139.712Z" fill="white"/>
</g>
<defs>
<filter id="filter0_d_57_620" x="564.048" y="103.096" width="243.011" height="87.9844" filterUnits="userSpaceOnUse" color-interpolation-filters="sRGB">
<feFlood flood-opacity="0" result="BackgroundImageFix"/>
<feColorMatrix in="SourceAlpha" type="matrix" values="0 0 0 0 0 0 0 0 0 0 0 0 0 0 0 0 0 0 127 0" result="hardAlpha"/>
<feOffset dx="2" dy="2"/>
<feGaussianBlur stdDeviation="7.5"/>
<feComposite in2="hardAlpha" operator="out"/>
<feColorMatrix type="matrix" values="0 0 0 0 0 0 0 0 0 0 0 0 0 0 0 0 0 0 0.75 0"/>
<feBlend mode="normal" in2="BackgroundImageFix" result="effect1_dropShadow_57_620"/>
<feBlend mode="normal" in="SourceGraphic" in2="effect1_dropShadow_57_620" result="shape"/>
</filter>
<linearGradient id="paint0_linear_57_620" x1="165" y1="102.5" x2="679" y2="616.5" gradientUnits="userSpaceOnUse">
<stop stop-color="white" stop-opacity="0.9"/>
<stop offset="1" stop-color="white" stop-opacity="0.75"/>
</linearGradient>
</defs>
</svg>
