<svg width="808" height="746" viewBox="0 0 808 746" fill="none" xmlns="http://www.w3.org/2000/svg">
<circle cx="408" cy="373" r="363" fill="url(#paint0_linear_55_380)" fill-opacity="0.5" stroke="#228B22" stroke-width="20"/>
<circle cx="683.5" cy="144.5" r="117" fill="#228B22" fill-opacity="0.95" stroke="#228B22" stroke-width="5"/>
<path d="M453.369 371.982C489.415 394.653 584.798 383.455 564.187 321.563C560.629 310.89 550.929 298.616 541.158 292.745C539.593 291.811 528.204 289.275 528.204 288.426C528.204 286.457 590.182 194.635 500.857 184.699C454.967 179.599 419.194 221.398 407.309 261.052C406.869 262.525 395.761 304.275 397.232 304.275C424.444 304.275 386.691 178.126 364.136 158.77C344.013 141.504 322.561 134.28 296.489 134.28C212.901 134.28 270.735 233.382 261.947 250.967C260.186 254.502 127.016 288.879 155.444 364.779C170.769 405.679 223.981 444.965 267.706 426.727C272.257 424.828 339.067 397.314 333.91 392.152C324.387 382.62 249 447.054 249 469.95C249 522.946 304.484 495.234 323.835 514.611C334.921 525.703 323.785 568.252 361.256 582.316C408.221 599.952 436.791 515.561 440.413 482.91C442.755 461.798 429.319 442.223 426.022 422.408" stroke="#228B22" stroke-width="20" stroke-linecap="round" stroke-linejoin="round"/>
<path d="M584 626C541.857 500.522 466.88 402.197 362 337" stroke="#228B22" stroke-width="20" stroke-linecap="round" stroke-linejoin="round"/>
<path d="M452.791 319.525C465.921 317.943 348.167 351.079 362.089 336.994C364.842 334.212 367.827 354.292 367.85 354.464C369.357 368.162 371.955 381.997 364.968 393.769" stroke="#228B22" stroke-width="20" stroke-linecap="round" stroke-linejoin="round"/>
<g filter="url(#filter0_d_55_380)">
<path d="M600.344 165.984C598.36 165.984 596.76 165.184 595.544 163.584C594.328 161.984 593.72 160.16 593.72 158.112C593.72 156.384 593.816 154.56 594.008 152.64C594.264 150.656 594.584 148.64 594.968 146.592C592.088 146.784 589.24 146.88 586.424 146.88C584.376 146.88 582.456 146.432 580.664 145.536C578.936 144.64 578.072 143.296 578.072 141.504C578.072 139.84 578.776 138.592 580.184 137.76C581.656 136.864 583.288 136.384 585.08 136.32C586.808 136.192 588.792 135.968 591.032 135.648C593.272 135.328 595.576 134.976 597.944 134.592C598.968 131.328 600.024 128.32 601.112 125.568C602.264 122.816 603.352 120.608 604.376 118.944C605.4 117.28 606.296 116.448 607.064 116.448C608.792 116.448 610.104 116.864 611 117.696C611.896 118.464 612.344 120.16 612.344 122.784C612.344 123.552 612.216 124.832 611.96 126.624C611.704 128.416 611.352 130.464 610.904 132.768C612.568 132.64 613.944 132.576 615.032 132.576C618.424 132.576 620.888 133.12 622.424 134.208C624.024 135.296 624.824 136.768 624.824 138.624C624.824 139.712 623.32 140.832 620.312 141.984C617.304 143.136 613.432 144.128 608.696 144.96C608.12 148.096 607.544 151.104 606.968 153.984C606.392 156.864 605.944 159.264 605.624 161.184C605.368 162.528 604.728 163.68 603.704 164.64C602.744 165.536 601.624 165.984 600.344 165.984ZM632.242 184.128C629.042 184.128 626.77 183.36 625.426 181.824C624.146 180.352 623.506 178.816 623.506 177.216C623.506 175.808 623.826 174.496 624.466 173.28C625.17 172 626.386 170.976 628.114 170.208C629.842 169.44 632.306 169.12 635.506 169.248C638.706 167.584 641.938 165.536 645.202 163.104C648.53 160.672 651.698 157.984 654.706 155.04C657.778 152.096 660.498 149.088 662.866 146.016C665.298 142.88 667.186 139.808 668.53 136.8C669.938 133.728 670.642 130.848 670.642 128.16C670.642 125.28 669.746 123.104 667.954 121.632C666.226 120.16 663.794 119.424 660.658 119.424C657.97 119.424 655.506 119.744 653.266 120.384C651.026 120.96 649.042 121.664 647.314 122.496C645.586 123.328 644.114 124.064 642.898 124.704C641.746 125.28 640.818 125.568 640.114 125.568C638.898 125.568 637.81 125.056 636.85 124.032C635.89 122.944 635.602 121.536 635.986 119.808C636.242 118.656 637.01 117.28 638.29 115.68C639.57 114.08 641.33 112.48 643.57 110.88C645.81 109.28 648.466 107.968 651.538 106.944C654.674 105.856 658.194 105.312 662.098 105.312C668.37 105.312 673.458 107.232 677.362 111.072C681.33 114.912 683.314 120.768 683.314 128.64C683.314 133.824 681.938 138.912 679.186 143.904C676.498 148.896 672.914 153.632 668.434 158.112C663.954 162.592 659.058 166.688 653.746 170.4C658.546 170.208 662.29 169.92 664.978 169.536C667.666 169.088 669.81 168.704 671.41 168.384C673.074 168.064 674.674 167.904 676.21 167.904C678.386 167.904 680.082 168.352 681.298 169.248C682.514 170.144 683.122 171.424 683.122 173.088C683.122 174.304 682.802 175.488 682.162 176.64C681.586 177.792 680.434 178.848 678.706 179.808C676.978 180.704 674.482 181.408 671.218 181.92C667.954 182.496 663.666 182.784 658.354 182.784C655.218 182.784 651.986 182.752 648.658 182.688C645.394 182.624 642.226 182.528 639.154 182.4C637.362 183.04 635.954 183.488 634.93 183.744C633.97 184 633.074 184.128 632.242 184.128ZM709.993 140.64C709.993 138.528 710.281 136.672 710.857 135.072C711.497 133.408 712.233 132.096 713.065 131.136C712.041 129.984 711.273 128.832 710.761 127.68C710.249 126.464 709.993 125.376 709.993 124.416C709.993 121.408 710.857 118.592 712.585 115.968C714.377 113.344 716.745 111.2 719.689 109.536C722.697 107.872 725.993 107.04 729.577 107.04C733.865 107.04 737.385 108.608 740.137 111.744C742.953 114.88 744.425 120 744.553 127.104C748.329 125.696 751.657 123.936 754.537 121.824C757.417 119.712 759.913 117.536 762.025 115.296C764.201 113.056 766.057 111.008 767.593 109.152C768.873 107.616 770.153 106.08 771.433 104.544C772.777 102.944 774.441 102.144 776.425 102.144C777.833 102.144 778.921 102.752 779.689 103.968C780.521 105.12 780.937 106.432 780.937 107.904C780.937 109.44 780.073 111.648 778.345 114.528C776.617 117.408 774.281 120.768 771.337 124.608C768.457 128.448 765.161 132.576 761.449 136.992C757.801 141.408 753.993 145.952 750.025 150.624C746.057 155.232 742.185 159.808 738.409 164.352C734.633 168.896 731.209 173.152 728.137 177.12C729.033 178.272 729.705 179.776 730.153 181.632C729.385 182.72 728.137 183.84 726.409 184.992C724.681 186.144 722.953 187.104 721.225 187.872C719.497 188.704 718.185 189.12 717.289 189.12C714.473 189.12 713.065 187.584 713.065 184.512C713.065 183.232 713.673 181.472 714.889 179.232C716.105 176.992 717.545 174.688 719.209 172.32C721.449 169.12 724.521 165.184 728.425 160.512C732.329 155.84 736.681 150.752 741.481 145.248C746.345 139.744 751.337 134.144 756.457 128.448C754.473 129.792 752.393 131.04 750.217 132.192C748.041 133.344 745.737 134.336 743.305 135.168C742.217 138.56 740.521 141.792 738.217 144.864C735.913 147.936 733.321 150.432 730.441 152.352C727.625 154.208 724.777 155.136 721.897 155.136C718.313 155.136 715.433 153.76 713.257 151.008C711.081 148.192 709.993 144.736 709.993 140.64ZM768.073 185.664C766.025 185.664 764.073 184.864 762.217 183.264C760.361 181.664 758.825 179.328 757.609 176.256C756.457 173.12 755.881 169.344 755.881 164.928C755.881 161.088 756.169 157.952 756.745 155.52C757.385 153.088 758.281 151.072 759.433 149.472C759.241 148.448 759.145 147.232 759.145 145.824C759.145 143.776 759.849 141.824 761.257 139.968C762.665 138.112 764.553 136.608 766.921 135.456C769.353 134.304 772.073 133.728 775.081 133.728C778.025 133.728 780.617 134.4 782.857 135.744C785.161 137.024 786.953 139.136 788.233 142.08C789.577 145.024 790.249 148.928 790.249 153.792C790.249 157.504 789.577 161.248 788.233 165.024C786.953 168.736 785.225 172.16 783.049 175.296C780.873 178.432 778.473 180.928 775.849 182.784C773.225 184.704 770.633 185.664 768.073 185.664ZM768.169 148.032C768.553 148.672 768.745 149.536 768.745 150.624C768.745 152.16 768.489 154.016 767.977 156.192C767.465 158.368 766.921 160.672 766.345 163.104C765.833 165.536 765.577 167.904 765.577 170.208C765.577 171.04 765.705 171.744 765.961 172.32C766.217 172.832 766.697 173.088 767.401 173.088C768.745 173.088 770.089 172.416 771.433 171.072C772.777 169.728 774.025 167.936 775.177 165.696C776.329 163.392 777.225 160.832 777.865 158.016C778.569 155.2 778.921 152.288 778.921 149.28C778.921 147.808 778.729 146.72 778.345 146.016C777.961 145.312 777.129 144.96 775.849 144.96C773.993 144.96 772.425 145.28 771.145 145.92C769.929 146.496 768.937 147.2 768.169 148.032ZM733.513 129.6C733.897 127.616 734.089 125.6 734.089 123.552C734.089 122.016 733.801 120.864 733.225 120.096C732.649 119.264 731.465 118.848 729.673 118.848C727.433 118.848 725.513 119.328 723.913 120.288C722.377 121.248 721.609 122.624 721.609 124.416C721.609 126.272 722.345 127.648 723.817 128.544C725.289 129.376 726.921 129.792 728.713 129.792C730.377 129.792 731.977 129.728 733.513 129.6ZM730.921 137.568C730.345 137.568 729.769 137.568 729.193 137.568C727.529 137.568 725.961 137.44 724.489 137.184C723.081 136.928 721.769 136.576 720.553 136.128C720.425 136.896 720.265 137.696 720.073 138.528C719.945 139.296 719.881 140.096 719.881 140.928C719.881 141.888 720.073 142.752 720.457 143.52C720.841 144.224 721.577 144.576 722.665 144.576C724.201 144.576 725.673 143.936 727.081 142.656C728.553 141.376 729.833 139.68 730.921 137.568Z" fill="white"/>
</g>
<defs>
<filter id="filter0_d_55_380" x="565.072" y="89.144" width="242.177" height="116.976" filterUnits="userSpaceOnUse" color-interpolation-filters="sRGB">
<feFlood flood-opacity="0" result="BackgroundImageFix"/>
<feColorMatrix in="SourceAlpha" type="matrix" values="0 0 0 0 0 0 0 0 0 0 0 0 0 0 0 0 0 0 127 0" result="hardAlpha"/>
<feOffset dx="2" dy="2"/>
<feGaussianBlur stdDeviation="7.5"/>
<feComposite in2="hardAlpha" operator="out"/>
<feColorMatrix type="matrix" values="0 0 0 0 0 0 0 0 0 0 0 0 0 0 0 0 0 0 0.75 0"/>
<feBlend mode="normal" in2="BackgroundImageFix" result="effect1_dropShadow_55_380"/>
<feBlend mode="normal" in="SourceGraphic" in2="effect1_dropShadow_55_380" result="shape"/>
</filter>
<linearGradient id="paint0_linear_55_380" x1="165" y1="102.5" x2="679" y2="616.5" gradientUnits="userSpaceOnUse">
<stop stop-color="#228B22" stop-opacity="0.9"/>
<stop offset="1" stop-color="#228B22" stop-opacity="0.75"/>
</linearGradient>
</defs>
</svg>
