<svg width="810" height="746" viewBox="0 0 810 746" fill="none" xmlns="http://www.w3.org/2000/svg">
<circle cx="408" cy="373" r="363" fill="url(#paint0_linear_57_492)" fill-opacity="0.5" stroke="#228B22" stroke-width="20"/>
<circle cx="683.5" cy="144.5" r="117" fill="#228B22" fill-opacity="0.95" stroke="#228B22" stroke-width="5"/>
<path d="M453.369 371.982C489.415 394.653 584.798 383.455 564.187 321.564C560.629 310.89 550.929 298.617 541.158 292.746C539.593 291.811 528.204 289.275 528.204 288.426C528.204 286.457 590.182 194.635 500.857 184.699C454.967 179.6 419.194 221.398 407.309 261.052C406.869 262.525 395.761 304.275 397.232 304.275C424.444 304.275 386.691 178.126 364.136 158.771C344.013 141.504 322.561 134.28 296.489 134.28C212.901 134.28 270.735 233.383 261.947 250.968C260.186 254.502 127.016 288.879 155.444 364.779C170.769 405.679 223.981 444.965 267.706 426.727C272.257 424.829 339.067 397.314 333.91 392.152C324.387 382.62 249 447.054 249 469.95C249 522.946 304.484 495.234 323.835 514.612C334.921 525.703 323.785 568.253 361.256 582.317C408.221 599.952 436.791 515.561 440.413 482.91C442.755 461.799 429.319 442.223 426.022 422.408" stroke="#228B22" stroke-width="20" stroke-linecap="round" stroke-linejoin="round"/>
<path d="M584 626C541.857 500.522 466.88 402.197 362 337" stroke="#228B22" stroke-width="20" stroke-linecap="round" stroke-linejoin="round"/>
<path d="M452.791 319.525C465.921 317.943 348.167 351.079 362.089 336.994C364.842 334.212 367.827 354.292 367.85 354.464C369.357 368.162 371.955 381.997 364.968 393.769" stroke="#228B22" stroke-width="20" stroke-linecap="round" stroke-linejoin="round"/>
<g filter="url(#filter0_d_57_492)">
<path d="M600.344 165.984C598.36 165.984 596.76 165.184 595.544 163.584C594.328 161.984 593.72 160.16 593.72 158.112C593.72 156.384 593.816 154.56 594.008 152.64C594.264 150.656 594.584 148.64 594.968 146.592C592.088 146.784 589.24 146.88 586.424 146.88C584.376 146.88 582.456 146.432 580.664 145.536C578.936 144.64 578.072 143.296 578.072 141.504C578.072 139.84 578.776 138.592 580.184 137.76C581.656 136.864 583.288 136.384 585.08 136.32C586.808 136.192 588.792 135.968 591.032 135.648C593.272 135.328 595.576 134.976 597.944 134.592C598.968 131.328 600.024 128.32 601.112 125.568C602.264 122.816 603.352 120.608 604.376 118.944C605.4 117.28 606.296 116.448 607.064 116.448C608.792 116.448 610.104 116.864 611 117.696C611.896 118.464 612.344 120.16 612.344 122.784C612.344 123.552 612.216 124.832 611.96 126.624C611.704 128.416 611.352 130.464 610.904 132.768C612.568 132.64 613.944 132.576 615.032 132.576C618.424 132.576 620.888 133.12 622.424 134.208C624.024 135.296 624.824 136.768 624.824 138.624C624.824 139.712 623.32 140.832 620.312 141.984C617.304 143.136 613.432 144.128 608.696 144.96C608.12 148.096 607.544 151.104 606.968 153.984C606.392 156.864 605.944 159.264 605.624 161.184C605.368 162.528 604.728 163.68 603.704 164.64C602.744 165.536 601.624 165.984 600.344 165.984ZM639.372 187.488C636.94 187.488 634.764 186.816 632.844 185.472C630.988 184.192 630.06 182.272 630.06 179.712C630.06 177.344 630.764 175.648 632.172 174.624C633.58 173.536 635.468 172.992 637.836 172.992C638.796 172.992 639.756 173.12 640.716 173.376C641.676 173.568 643.468 173.824 646.092 174.144C650.508 171.904 654.412 169.728 657.804 167.616C661.196 165.44 663.852 163.296 665.772 161.184C667.692 159.008 668.652 156.8 668.652 154.56C668.652 152.448 667.82 151.2 666.156 150.816C664.556 150.368 662.604 150.112 660.3 150.048C660.044 150.048 659.756 150.048 659.436 150.048C659.18 149.984 658.892 149.952 658.572 149.952C655.308 149.76 652.236 149.376 649.356 148.8C646.54 148.16 644.236 147.04 642.444 145.44C640.652 143.776 639.756 141.312 639.756 138.048C639.756 134.4 640.236 130.816 641.196 127.296C642.156 123.712 643.372 120.416 644.844 117.408C644.268 116.896 643.916 116.288 643.788 115.584C643.724 114.816 643.692 114.048 643.692 113.28C643.692 112.512 644.268 111.744 645.42 110.976C646.572 110.208 648.14 109.44 650.124 108.672C651.788 106.432 653.388 104.672 654.924 103.392C656.46 102.048 657.676 101.376 658.572 101.376C659.66 101.376 660.62 101.728 661.452 102.432C662.348 103.136 663.02 104.032 663.468 105.12C667.308 104.352 671.308 103.744 675.468 103.296C679.692 102.848 683.788 102.624 687.756 102.624C690.06 102.624 692.14 102.816 693.996 103.2C695.916 103.52 697.42 104.192 698.508 105.216C699.66 106.176 700.236 107.68 700.236 109.728C700.236 111.456 699.66 112.736 698.508 113.568C697.42 114.336 695.948 114.752 694.092 114.816C690.38 114.88 686.412 115.168 682.188 115.68C677.964 116.192 673.804 116.768 669.708 117.408C665.676 117.984 662.06 118.432 658.86 118.752C657.836 120.608 656.844 122.528 655.884 124.512C654.988 126.432 654.22 128.224 653.58 129.888C653.004 131.552 652.716 132.896 652.716 133.92C652.716 135.712 653.484 136.8 655.02 137.184C656.556 137.568 658.38 137.824 660.492 137.952C662.988 138.144 665.484 138.464 667.98 138.912C670.476 139.296 672.748 140 674.796 141.024C676.908 142.048 678.604 143.584 679.884 145.632C681.164 147.616 681.804 150.272 681.804 153.6C681.804 156.736 680.908 159.904 679.116 163.104C677.388 166.304 675.02 169.376 672.012 172.32C669.068 175.2 665.74 177.76 662.028 180C658.38 182.304 654.572 184.128 650.604 185.472C646.7 186.816 642.956 187.488 639.372 187.488ZM712.243 140.64C712.243 138.528 712.531 136.672 713.107 135.072C713.747 133.408 714.483 132.096 715.315 131.136C714.291 129.984 713.523 128.832 713.011 127.68C712.499 126.464 712.243 125.376 712.243 124.416C712.243 121.408 713.107 118.592 714.835 115.968C716.627 113.344 718.995 111.2 721.939 109.536C724.947 107.872 728.243 107.04 731.827 107.04C736.115 107.04 739.635 108.608 742.387 111.744C745.203 114.88 746.675 120 746.803 127.104C750.579 125.696 753.907 123.936 756.787 121.824C759.667 119.712 762.163 117.536 764.275 115.296C766.451 113.056 768.307 111.008 769.843 109.152C771.123 107.616 772.403 106.08 773.683 104.544C775.027 102.944 776.691 102.144 778.675 102.144C780.083 102.144 781.171 102.752 781.939 103.968C782.771 105.12 783.187 106.432 783.187 107.904C783.187 109.44 782.323 111.648 780.595 114.528C778.867 117.408 776.531 120.768 773.587 124.608C770.707 128.448 767.411 132.576 763.699 136.992C760.051 141.408 756.243 145.952 752.275 150.624C748.307 155.232 744.435 159.808 740.659 164.352C736.883 168.896 733.459 173.152 730.387 177.12C731.283 178.272 731.955 179.776 732.403 181.632C731.635 182.72 730.387 183.84 728.659 184.992C726.931 186.144 725.203 187.104 723.475 187.872C721.747 188.704 720.435 189.12 719.539 189.12C716.723 189.12 715.315 187.584 715.315 184.512C715.315 183.232 715.923 181.472 717.139 179.232C718.355 176.992 719.795 174.688 721.459 172.32C723.699 169.12 726.771 165.184 730.675 160.512C734.579 155.84 738.931 150.752 743.731 145.248C748.595 139.744 753.587 134.144 758.707 128.448C756.723 129.792 754.643 131.04 752.467 132.192C750.291 133.344 747.987 134.336 745.555 135.168C744.467 138.56 742.771 141.792 740.467 144.864C738.163 147.936 735.571 150.432 732.691 152.352C729.875 154.208 727.027 155.136 724.147 155.136C720.563 155.136 717.683 153.76 715.507 151.008C713.331 148.192 712.243 144.736 712.243 140.64ZM770.323 185.664C768.275 185.664 766.323 184.864 764.467 183.264C762.611 181.664 761.075 179.328 759.859 176.256C758.707 173.12 758.131 169.344 758.131 164.928C758.131 161.088 758.419 157.952 758.995 155.52C759.635 153.088 760.531 151.072 761.683 149.472C761.491 148.448 761.395 147.232 761.395 145.824C761.395 143.776 762.099 141.824 763.507 139.968C764.915 138.112 766.803 136.608 769.171 135.456C771.603 134.304 774.323 133.728 777.331 133.728C780.275 133.728 782.867 134.4 785.107 135.744C787.411 137.024 789.203 139.136 790.483 142.08C791.827 145.024 792.499 148.928 792.499 153.792C792.499 157.504 791.827 161.248 790.483 165.024C789.203 168.736 787.475 172.16 785.299 175.296C783.123 178.432 780.723 180.928 778.099 182.784C775.475 184.704 772.883 185.664 770.323 185.664ZM770.419 148.032C770.803 148.672 770.995 149.536 770.995 150.624C770.995 152.16 770.739 154.016 770.227 156.192C769.715 158.368 769.171 160.672 768.595 163.104C768.083 165.536 767.827 167.904 767.827 170.208C767.827 171.04 767.955 171.744 768.211 172.32C768.467 172.832 768.947 173.088 769.651 173.088C770.995 173.088 772.339 172.416 773.683 171.072C775.027 169.728 776.275 167.936 777.427 165.696C778.579 163.392 779.475 160.832 780.115 158.016C780.819 155.2 781.171 152.288 781.171 149.28C781.171 147.808 780.979 146.72 780.595 146.016C780.211 145.312 779.379 144.96 778.099 144.96C776.243 144.96 774.675 145.28 773.395 145.92C772.179 146.496 771.187 147.2 770.419 148.032ZM735.763 129.6C736.147 127.616 736.339 125.6 736.339 123.552C736.339 122.016 736.051 120.864 735.475 120.096C734.899 119.264 733.715 118.848 731.923 118.848C729.683 118.848 727.763 119.328 726.163 120.288C724.627 121.248 723.859 122.624 723.859 124.416C723.859 126.272 724.595 127.648 726.067 128.544C727.539 129.376 729.171 129.792 730.963 129.792C732.627 129.792 734.227 129.728 735.763 129.6ZM733.171 137.568C732.595 137.568 732.019 137.568 731.443 137.568C729.779 137.568 728.211 137.44 726.739 137.184C725.331 136.928 724.019 136.576 722.803 136.128C722.675 136.896 722.515 137.696 722.323 138.528C722.195 139.296 722.131 140.096 722.131 140.928C722.131 141.888 722.323 142.752 722.707 143.52C723.091 144.224 723.827 144.576 724.915 144.576C726.451 144.576 727.923 143.936 729.331 142.656C730.803 141.376 732.083 139.68 733.171 137.568Z" fill="white"/>
</g>
<defs>
<filter id="filter0_d_57_492" x="565.072" y="88.376" width="244.427" height="117.744" filterUnits="userSpaceOnUse" color-interpolation-filters="sRGB">
<feFlood flood-opacity="0" result="BackgroundImageFix"/>
<feColorMatrix in="SourceAlpha" type="matrix" values="0 0 0 0 0 0 0 0 0 0 0 0 0 0 0 0 0 0 127 0" result="hardAlpha"/>
<feOffset dx="2" dy="2"/>
<feGaussianBlur stdDeviation="7.5"/>
<feComposite in2="hardAlpha" operator="out"/>
<feColorMatrix type="matrix" values="0 0 0 0 0 0 0 0 0 0 0 0 0 0 0 0 0 0 0.75 0"/>
<feBlend mode="normal" in2="BackgroundImageFix" result="effect1_dropShadow_57_492"/>
<feBlend mode="normal" in="SourceGraphic" in2="effect1_dropShadow_57_492" result="shape"/>
</filter>
<linearGradient id="paint0_linear_57_492" x1="165" y1="102.5" x2="679" y2="616.5" gradientUnits="userSpaceOnUse">
<stop stop-color="#228B22" stop-opacity="0.9"/>
<stop offset="1" stop-color="#228B22" stop-opacity="0.75"/>
</linearGradient>
</defs>
</svg>
