<svg width="805" height="746" viewBox="0 0 805 746" fill="none" xmlns="http://www.w3.org/2000/svg">
<circle cx="408" cy="373" r="363" fill="url(#paint0_linear_57_573)" fill-opacity="0.5" stroke="#228B22" stroke-width="20"/>
<circle cx="683.5" cy="144.5" r="117" fill="#228B22" fill-opacity="0.95" stroke="#228B22" stroke-width="5"/>
<path d="M453.369 371.982C489.415 394.653 584.798 383.455 564.187 321.564C560.629 310.89 550.929 298.617 541.158 292.746C539.593 291.811 528.204 289.275 528.204 288.426C528.204 286.457 590.182 194.635 500.857 184.699C454.967 179.6 419.194 221.398 407.309 261.052C406.869 262.525 395.761 304.275 397.232 304.275C424.444 304.275 386.691 178.126 364.136 158.771C344.013 141.504 322.561 134.28 296.489 134.28C212.901 134.28 270.735 233.383 261.947 250.968C260.186 254.502 127.016 288.879 155.444 364.779C170.769 405.679 223.981 444.965 267.706 426.727C272.257 424.829 339.067 397.314 333.91 392.152C324.387 382.62 249 447.054 249 469.95C249 522.946 304.484 495.234 323.835 514.612C334.921 525.703 323.785 568.253 361.256 582.317C408.221 599.952 436.791 515.561 440.413 482.91C442.755 461.799 429.319 442.223 426.022 422.408" stroke="#228B22" stroke-width="20" stroke-linecap="round" stroke-linejoin="round"/>
<path d="M584 626C541.857 500.522 466.88 402.197 362 337" stroke="#228B22" stroke-width="20" stroke-linecap="round" stroke-linejoin="round"/>
<path d="M452.791 319.525C465.921 317.943 348.167 351.079 362.089 336.994C364.842 334.212 367.827 354.292 367.85 354.464C369.357 368.162 371.955 381.997 364.968 393.769" stroke="#228B22" stroke-width="20" stroke-linecap="round" stroke-linejoin="round"/>
<g filter="url(#filter0_d_57_573)">
<path d="M591.896 158.656C590.573 158.656 589.507 158.123 588.696 157.056C587.885 155.989 587.48 154.773 587.48 153.408C587.48 152.256 587.544 151.04 587.672 149.76C587.843 148.437 588.056 147.093 588.312 145.728C586.392 145.856 584.493 145.92 582.616 145.92C581.251 145.92 579.971 145.621 578.776 145.024C577.624 144.427 577.048 143.531 577.048 142.336C577.048 141.227 577.517 140.395 578.456 139.84C579.437 139.243 580.525 138.923 581.72 138.88C582.872 138.795 584.195 138.645 585.688 138.432C587.181 138.219 588.717 137.984 590.296 137.728C590.979 135.552 591.683 133.547 592.408 131.712C593.176 129.877 593.901 128.405 594.584 127.296C595.267 126.187 595.864 125.632 596.376 125.632C597.528 125.632 598.403 125.909 599 126.464C599.597 126.976 599.896 128.107 599.896 129.856C599.896 130.368 599.811 131.221 599.64 132.416C599.469 133.611 599.235 134.976 598.936 136.512C600.045 136.427 600.963 136.384 601.688 136.384C603.949 136.384 605.592 136.747 606.616 137.472C607.683 138.197 608.216 139.179 608.216 140.416C608.216 141.141 607.213 141.888 605.208 142.656C603.203 143.424 600.621 144.085 597.464 144.64C597.08 146.731 596.696 148.736 596.312 150.656C595.928 152.576 595.629 154.176 595.416 155.456C595.245 156.352 594.819 157.12 594.136 157.76C593.496 158.357 592.749 158.656 591.896 158.656ZM635.236 172.928C634.511 172.928 633.849 172.821 633.252 172.608C632.697 172.437 632.228 172.075 631.844 171.52C630.095 171.819 628.367 172.053 626.66 172.224C624.953 172.395 623.353 172.48 621.86 172.48C620.58 172.48 619.577 172.16 618.852 171.52C618.127 170.923 617.764 170.069 617.764 168.96C617.764 168.32 618.127 167.595 618.852 166.784C619.577 165.973 620.921 165.205 622.884 164.48C624.847 163.712 627.705 163.115 631.46 162.688C631.759 160.683 632.207 158.315 632.804 155.584C633.401 152.811 634.127 149.867 634.98 146.752C635.833 143.595 636.836 140.48 637.988 137.408C636.409 139.072 634.745 140.48 632.996 141.632C631.289 142.784 629.647 143.659 628.068 144.256C626.532 144.853 625.209 145.152 624.1 145.152C623.204 145.152 622.457 145.003 621.86 144.704C621.305 144.405 621.028 143.851 621.028 143.04C621.028 142.016 621.519 141.077 622.5 140.224C623.481 139.328 624.548 138.453 625.7 137.6C627.449 136.277 629.327 134.699 631.332 132.864C633.38 131.029 635.279 129.067 637.028 126.976C638.82 124.885 640.207 122.837 641.188 120.832C641.657 119.936 642.169 119.232 642.724 118.72C643.279 118.165 644.175 117.888 645.412 117.888C646.649 117.888 647.545 118.443 648.1 119.552C648.655 120.619 648.932 121.899 648.932 123.392C648.932 123.989 648.761 125.227 648.42 127.104C648.079 128.939 647.609 131.2 647.012 133.888C646.415 136.533 645.753 139.456 645.028 142.656C644.303 145.813 643.556 149.056 642.788 152.384C642.02 155.712 641.295 158.933 640.612 162.048C642.02 162.005 643.471 161.984 644.964 161.984C646.756 161.984 648.313 162.133 649.636 162.432C650.959 162.731 651.62 163.371 651.62 164.352C651.62 165.376 651.172 166.144 650.276 166.656C649.423 167.125 648.377 167.552 647.14 167.936C645.988 168.277 644.687 168.64 643.236 169.024C641.785 169.451 640.249 169.835 638.628 170.176C638.201 171.157 637.689 171.861 637.092 172.288C636.495 172.715 635.876 172.928 635.236 172.928ZM687.882 169.088C685.066 169.088 682.442 168.384 680.01 166.976C677.578 165.525 675.615 163.392 674.122 160.576C672.628 157.76 671.882 154.261 671.882 150.08C671.882 147.264 672.372 144.576 673.354 142.016C674.335 139.413 675.444 137.109 676.682 135.104C676.468 134.549 676.362 133.909 676.362 133.184C676.362 131.52 676.831 129.877 677.77 128.256C678.751 126.592 680.031 125.077 681.61 123.712C683.231 122.347 685.044 121.259 687.05 120.448C689.055 119.637 691.103 119.232 693.194 119.232C696.436 119.232 699.295 120.043 701.77 121.664C704.244 123.285 706.186 125.547 707.594 128.448C709.002 131.307 709.706 134.613 709.706 138.368C709.706 142.891 709.108 147.029 707.914 150.784C706.762 154.539 705.162 157.781 703.114 160.512C701.108 163.243 698.783 165.355 696.138 166.848C693.535 168.341 690.783 169.088 687.882 169.088ZM688.266 129.28C688.351 129.536 688.394 129.835 688.394 130.176C688.394 130.816 688.266 131.349 688.01 131.776C687.754 132.203 687.412 132.672 686.986 133.184C686.431 133.824 685.791 134.805 685.066 136.128C684.383 137.408 683.722 138.901 683.082 140.608C682.442 142.315 681.908 144.085 681.482 145.92C681.098 147.712 680.906 149.419 680.906 151.04C680.906 153.899 681.439 156.139 682.506 157.76C683.572 159.381 685.151 160.192 687.242 160.192C688.991 160.192 690.676 159.616 692.298 158.464C693.962 157.312 695.434 155.755 696.714 153.792C697.994 151.787 698.996 149.504 699.722 146.944C700.49 144.384 700.874 141.675 700.874 138.816C700.874 136.768 700.596 134.912 700.042 133.248C699.487 131.584 698.698 130.261 697.674 129.28C696.65 128.299 695.434 127.808 694.026 127.808C692.874 127.808 691.807 127.957 690.826 128.256C689.887 128.512 689.034 128.853 688.266 129.28ZM733.805 141.76C733.805 140.352 733.997 139.115 734.381 138.048C734.808 136.939 735.298 136.064 735.853 135.424C735.17 134.656 734.658 133.888 734.317 133.12C733.976 132.309 733.805 131.584 733.805 130.944C733.805 128.939 734.381 127.061 735.533 125.312C736.728 123.563 738.306 122.133 740.269 121.024C742.274 119.915 744.472 119.36 746.861 119.36C749.72 119.36 752.066 120.405 753.901 122.496C755.778 124.587 756.76 128 756.845 132.736C759.362 131.797 761.581 130.624 763.501 129.216C765.421 127.808 767.085 126.357 768.493 124.864C769.944 123.371 771.181 122.005 772.205 120.768C773.058 119.744 773.912 118.72 774.765 117.696C775.661 116.629 776.77 116.096 778.093 116.096C779.032 116.096 779.757 116.501 780.269 117.312C780.824 118.08 781.101 118.955 781.101 119.936C781.101 120.96 780.525 122.432 779.373 124.352C778.221 126.272 776.664 128.512 774.701 131.072C772.781 133.632 770.584 136.384 768.109 139.328C765.677 142.272 763.138 145.301 760.493 148.416C757.848 151.488 755.266 154.539 752.749 157.568C750.232 160.597 747.949 163.435 745.901 166.08C746.498 166.848 746.946 167.851 747.245 169.088C746.733 169.813 745.901 170.56 744.749 171.328C743.597 172.096 742.445 172.736 741.293 173.248C740.141 173.803 739.266 174.08 738.669 174.08C736.792 174.08 735.853 173.056 735.853 171.008C735.853 170.155 736.258 168.981 737.069 167.488C737.88 165.995 738.84 164.459 739.949 162.88C741.442 160.747 743.49 158.123 746.093 155.008C748.696 151.893 751.597 148.501 754.797 144.832C758.04 141.163 761.368 137.429 764.781 133.632C763.458 134.528 762.072 135.36 760.621 136.128C759.17 136.896 757.634 137.557 756.013 138.112C755.288 140.373 754.157 142.528 752.621 144.576C751.085 146.624 749.357 148.288 747.437 149.568C745.56 150.805 743.661 151.424 741.741 151.424C739.352 151.424 737.432 150.507 735.981 148.672C734.53 146.795 733.805 144.491 733.805 141.76ZM772.525 171.776C771.16 171.776 769.858 171.243 768.621 170.176C767.384 169.109 766.36 167.552 765.549 165.504C764.781 163.413 764.397 160.896 764.397 157.952C764.397 155.392 764.589 153.301 764.973 151.68C765.4 150.059 765.997 148.715 766.765 147.648C766.637 146.965 766.573 146.155 766.573 145.216C766.573 143.851 767.042 142.549 767.981 141.312C768.92 140.075 770.178 139.072 771.757 138.304C773.378 137.536 775.192 137.152 777.197 137.152C779.16 137.152 780.888 137.6 782.381 138.496C783.917 139.349 785.112 140.757 785.965 142.72C786.861 144.683 787.309 147.285 787.309 150.528C787.309 153.003 786.861 155.499 785.965 158.016C785.112 160.491 783.96 162.773 782.509 164.864C781.058 166.955 779.458 168.619 777.709 169.856C775.96 171.136 774.232 171.776 772.525 171.776ZM772.589 146.688C772.845 147.115 772.973 147.691 772.973 148.416C772.973 149.44 772.802 150.677 772.461 152.128C772.12 153.579 771.757 155.115 771.373 156.736C771.032 158.357 770.861 159.936 770.861 161.472C770.861 162.027 770.946 162.496 771.117 162.88C771.288 163.221 771.608 163.392 772.077 163.392C772.973 163.392 773.869 162.944 774.765 162.048C775.661 161.152 776.493 159.957 777.261 158.464C778.029 156.928 778.626 155.221 779.053 153.344C779.522 151.467 779.757 149.525 779.757 147.52C779.757 146.539 779.629 145.813 779.373 145.344C779.117 144.875 778.562 144.64 777.709 144.64C776.472 144.64 775.426 144.853 774.573 145.28C773.762 145.664 773.101 146.133 772.589 146.688ZM749.485 134.4C749.741 133.077 749.869 131.733 749.869 130.368C749.869 129.344 749.677 128.576 749.293 128.064C748.909 127.509 748.12 127.232 746.925 127.232C745.432 127.232 744.152 127.552 743.085 128.192C742.061 128.832 741.549 129.749 741.549 130.944C741.549 132.181 742.04 133.099 743.021 133.696C744.002 134.251 745.09 134.528 746.285 134.528C747.394 134.528 748.461 134.485 749.485 134.4ZM747.757 139.712C747.373 139.712 746.989 139.712 746.605 139.712C745.496 139.712 744.45 139.627 743.469 139.456C742.53 139.285 741.656 139.051 740.845 138.752C740.76 139.264 740.653 139.797 740.525 140.352C740.44 140.864 740.397 141.397 740.397 141.952C740.397 142.592 740.525 143.168 740.781 143.68C741.037 144.149 741.528 144.384 742.253 144.384C743.277 144.384 744.258 143.957 745.197 143.104C746.178 142.251 747.032 141.12 747.757 139.712Z" fill="white"/>
</g>
<defs>
<filter id="filter0_d_57_573" x="564.048" y="103.096" width="240.261" height="87.9844" filterUnits="userSpaceOnUse" color-interpolation-filters="sRGB">
<feFlood flood-opacity="0" result="BackgroundImageFix"/>
<feColorMatrix in="SourceAlpha" type="matrix" values="0 0 0 0 0 0 0 0 0 0 0 0 0 0 0 0 0 0 127 0" result="hardAlpha"/>
<feOffset dx="2" dy="2"/>
<feGaussianBlur stdDeviation="7.5"/>
<feComposite in2="hardAlpha" operator="out"/>
<feColorMatrix type="matrix" values="0 0 0 0 0 0 0 0 0 0 0 0 0 0 0 0 0 0 0.75 0"/>
<feBlend mode="normal" in2="BackgroundImageFix" result="effect1_dropShadow_57_573"/>
<feBlend mode="normal" in="SourceGraphic" in2="effect1_dropShadow_57_573" result="shape"/>
</filter>
<linearGradient id="paint0_linear_57_573" x1="165" y1="102.5" x2="679" y2="616.5" gradientUnits="userSpaceOnUse">
<stop stop-color="#228B22" stop-opacity="0.9"/>
<stop offset="1" stop-color="#228B22" stop-opacity="0.75"/>
</linearGradient>
</defs>
</svg>
