<svg width="812" height="746" viewBox="0 0 812 746" fill="none" xmlns="http://www.w3.org/2000/svg">
<circle cx="408" cy="373" r="363" fill="url(#paint0_linear_57_501)" fill-opacity="0.5" stroke="#228B22" stroke-width="20"/>
<circle cx="683.5" cy="144.5" r="117" fill="#228B22" fill-opacity="0.95" stroke="#228B22" stroke-width="5"/>
<path d="M453.369 371.982C489.415 394.653 584.798 383.455 564.187 321.564C560.629 310.89 550.929 298.617 541.158 292.746C539.593 291.811 528.204 289.275 528.204 288.426C528.204 286.457 590.182 194.635 500.857 184.699C454.967 179.6 419.194 221.398 407.309 261.052C406.869 262.525 395.761 304.275 397.232 304.275C424.444 304.275 386.691 178.126 364.136 158.771C344.013 141.504 322.561 134.28 296.489 134.28C212.901 134.28 270.735 233.383 261.947 250.968C260.186 254.502 127.016 288.879 155.444 364.779C170.769 405.679 223.981 444.965 267.706 426.727C272.257 424.829 339.067 397.314 333.91 392.152C324.387 382.62 249 447.054 249 469.95C249 522.946 304.484 495.234 323.835 514.612C334.921 525.703 323.785 568.253 361.256 582.317C408.221 599.952 436.791 515.561 440.413 482.91C442.755 461.799 429.319 442.223 426.022 422.408" stroke="#228B22" stroke-width="20" stroke-linecap="round" stroke-linejoin="round"/>
<path d="M584 626C541.857 500.522 466.88 402.197 362 337" stroke="#228B22" stroke-width="20" stroke-linecap="round" stroke-linejoin="round"/>
<path d="M452.791 319.525C465.921 317.943 348.167 351.079 362.089 336.994C364.842 334.212 367.827 354.292 367.85 354.464C369.357 368.162 371.955 381.997 364.968 393.769" stroke="#228B22" stroke-width="20" stroke-linecap="round" stroke-linejoin="round"/>
<g filter="url(#filter0_d_57_501)">
<path d="M600.344 165.984C598.36 165.984 596.76 165.184 595.544 163.584C594.328 161.984 593.72 160.16 593.72 158.112C593.72 156.384 593.816 154.56 594.008 152.64C594.264 150.656 594.584 148.64 594.968 146.592C592.088 146.784 589.24 146.88 586.424 146.88C584.376 146.88 582.456 146.432 580.664 145.536C578.936 144.64 578.072 143.296 578.072 141.504C578.072 139.84 578.776 138.592 580.184 137.76C581.656 136.864 583.288 136.384 585.08 136.32C586.808 136.192 588.792 135.968 591.032 135.648C593.272 135.328 595.576 134.976 597.944 134.592C598.968 131.328 600.024 128.32 601.112 125.568C602.264 122.816 603.352 120.608 604.376 118.944C605.4 117.28 606.296 116.448 607.064 116.448C608.792 116.448 610.104 116.864 611 117.696C611.896 118.464 612.344 120.16 612.344 122.784C612.344 123.552 612.216 124.832 611.96 126.624C611.704 128.416 611.352 130.464 610.904 132.768C612.568 132.64 613.944 132.576 615.032 132.576C618.424 132.576 620.888 133.12 622.424 134.208C624.024 135.296 624.824 136.768 624.824 138.624C624.824 139.712 623.32 140.832 620.312 141.984C617.304 143.136 613.432 144.128 608.696 144.96C608.12 148.096 607.544 151.104 606.968 153.984C606.392 156.864 605.944 159.264 605.624 161.184C605.368 162.528 604.728 163.68 603.704 164.64C602.744 165.536 601.624 165.984 600.344 165.984ZM656.667 186.432C653.723 186.432 650.939 185.632 648.315 184.032C645.755 182.496 643.547 180.32 641.691 177.504C639.835 174.688 638.523 171.36 637.755 167.52C637.115 167.84 636.603 168 636.219 168C636.091 168 635.899 168 635.643 168C635.067 168.064 634.523 168.032 634.011 167.904C633.499 167.776 633.051 167.36 632.667 166.656C632.347 165.888 632.187 164.576 632.187 162.72C632.187 160.864 632.699 158.944 633.723 156.96C634.811 154.976 636.283 153.056 638.139 151.2C639.355 146.72 641.339 142.4 644.091 138.24C646.843 134.016 650.043 130.08 653.691 126.432C657.339 122.72 661.147 119.36 665.115 116.352C669.147 113.344 673.051 110.784 676.827 108.672C680.603 106.496 683.963 104.832 686.907 103.68C689.851 102.464 692.091 101.856 693.627 101.856C697.147 101.856 698.907 103.552 698.907 106.944C698.907 107.584 697.915 108.512 695.931 109.728C693.947 110.88 691.323 112.384 688.059 114.24C684.859 116.096 681.371 118.304 677.595 120.864C673.883 123.424 670.235 126.368 666.651 129.696C663.067 133.024 659.931 136.736 657.243 140.832C659.419 140.256 661.659 139.808 663.963 139.488C666.331 139.168 668.763 139.008 671.259 139.008C675.611 139.008 679.067 140.352 681.627 143.04C684.187 145.664 685.467 149.536 685.467 154.656C685.467 158.688 684.603 162.592 682.875 166.368C681.147 170.144 678.843 173.568 675.963 176.64C673.147 179.648 670.043 182.016 666.651 183.744C663.259 185.536 659.931 186.432 656.667 186.432ZM650.907 157.536C650.651 159.328 650.523 161.12 650.523 162.912C650.523 165.472 651.131 167.68 652.347 169.536C653.563 171.392 655.131 172.32 657.051 172.32C659.163 172.32 661.211 171.776 663.195 170.688C665.243 169.6 667.099 168.16 668.763 166.368C670.427 164.512 671.739 162.464 672.699 160.224C673.659 157.984 674.139 155.712 674.139 153.408C674.139 152.576 674.011 151.872 673.755 151.296C673.499 150.72 672.955 150.432 672.123 150.432C667.899 150.432 663.995 151.136 660.411 152.544C656.891 153.952 653.723 155.616 650.907 157.536ZM714.399 140.64C714.399 138.528 714.687 136.672 715.263 135.072C715.903 133.408 716.639 132.096 717.471 131.136C716.447 129.984 715.679 128.832 715.167 127.68C714.655 126.464 714.399 125.376 714.399 124.416C714.399 121.408 715.263 118.592 716.991 115.968C718.783 113.344 721.151 111.2 724.095 109.536C727.103 107.872 730.399 107.04 733.983 107.04C738.271 107.04 741.791 108.608 744.543 111.744C747.359 114.88 748.831 120 748.959 127.104C752.735 125.696 756.063 123.936 758.943 121.824C761.823 119.712 764.319 117.536 766.431 115.296C768.607 113.056 770.463 111.008 771.999 109.152C773.279 107.616 774.559 106.08 775.839 104.544C777.183 102.944 778.847 102.144 780.831 102.144C782.239 102.144 783.327 102.752 784.095 103.968C784.927 105.12 785.343 106.432 785.343 107.904C785.343 109.44 784.479 111.648 782.751 114.528C781.023 117.408 778.687 120.768 775.743 124.608C772.863 128.448 769.567 132.576 765.855 136.992C762.207 141.408 758.399 145.952 754.431 150.624C750.463 155.232 746.591 159.808 742.815 164.352C739.039 168.896 735.615 173.152 732.543 177.12C733.439 178.272 734.111 179.776 734.559 181.632C733.791 182.72 732.543 183.84 730.815 184.992C729.087 186.144 727.359 187.104 725.631 187.872C723.903 188.704 722.591 189.12 721.695 189.12C718.879 189.12 717.471 187.584 717.471 184.512C717.471 183.232 718.079 181.472 719.295 179.232C720.511 176.992 721.951 174.688 723.615 172.32C725.855 169.12 728.927 165.184 732.831 160.512C736.735 155.84 741.087 150.752 745.887 145.248C750.751 139.744 755.743 134.144 760.863 128.448C758.879 129.792 756.799 131.04 754.623 132.192C752.447 133.344 750.143 134.336 747.711 135.168C746.623 138.56 744.927 141.792 742.623 144.864C740.319 147.936 737.727 150.432 734.847 152.352C732.031 154.208 729.183 155.136 726.303 155.136C722.719 155.136 719.839 153.76 717.663 151.008C715.487 148.192 714.399 144.736 714.399 140.64ZM772.479 185.664C770.431 185.664 768.479 184.864 766.623 183.264C764.767 181.664 763.231 179.328 762.015 176.256C760.863 173.12 760.287 169.344 760.287 164.928C760.287 161.088 760.575 157.952 761.151 155.52C761.791 153.088 762.687 151.072 763.839 149.472C763.647 148.448 763.551 147.232 763.551 145.824C763.551 143.776 764.255 141.824 765.663 139.968C767.071 138.112 768.959 136.608 771.327 135.456C773.759 134.304 776.479 133.728 779.487 133.728C782.431 133.728 785.023 134.4 787.263 135.744C789.567 137.024 791.359 139.136 792.639 142.08C793.983 145.024 794.655 148.928 794.655 153.792C794.655 157.504 793.983 161.248 792.639 165.024C791.359 168.736 789.631 172.16 787.455 175.296C785.279 178.432 782.879 180.928 780.255 182.784C777.631 184.704 775.039 185.664 772.479 185.664ZM772.575 148.032C772.959 148.672 773.151 149.536 773.151 150.624C773.151 152.16 772.895 154.016 772.383 156.192C771.871 158.368 771.327 160.672 770.751 163.104C770.239 165.536 769.983 167.904 769.983 170.208C769.983 171.04 770.111 171.744 770.367 172.32C770.623 172.832 771.103 173.088 771.807 173.088C773.151 173.088 774.495 172.416 775.839 171.072C777.183 169.728 778.431 167.936 779.583 165.696C780.735 163.392 781.631 160.832 782.271 158.016C782.975 155.2 783.327 152.288 783.327 149.28C783.327 147.808 783.135 146.72 782.751 146.016C782.367 145.312 781.535 144.96 780.255 144.96C778.399 144.96 776.831 145.28 775.551 145.92C774.335 146.496 773.343 147.2 772.575 148.032ZM737.919 129.6C738.303 127.616 738.495 125.6 738.495 123.552C738.495 122.016 738.207 120.864 737.631 120.096C737.055 119.264 735.871 118.848 734.079 118.848C731.839 118.848 729.919 119.328 728.319 120.288C726.783 121.248 726.015 122.624 726.015 124.416C726.015 126.272 726.751 127.648 728.223 128.544C729.695 129.376 731.327 129.792 733.119 129.792C734.783 129.792 736.383 129.728 737.919 129.6ZM735.327 137.568C734.751 137.568 734.175 137.568 733.599 137.568C731.935 137.568 730.367 137.44 728.895 137.184C727.487 136.928 726.175 136.576 724.959 136.128C724.831 136.896 724.671 137.696 724.479 138.528C724.351 139.296 724.287 140.096 724.287 140.928C724.287 141.888 724.479 142.752 724.863 143.52C725.247 144.224 725.983 144.576 727.071 144.576C728.607 144.576 730.079 143.936 731.487 142.656C732.959 141.376 734.239 139.68 735.327 137.568Z" fill="white"/>
</g>
<defs>
<filter id="filter0_d_57_501" x="565.072" y="88.856" width="246.583" height="117.264" filterUnits="userSpaceOnUse" color-interpolation-filters="sRGB">
<feFlood flood-opacity="0" result="BackgroundImageFix"/>
<feColorMatrix in="SourceAlpha" type="matrix" values="0 0 0 0 0 0 0 0 0 0 0 0 0 0 0 0 0 0 127 0" result="hardAlpha"/>
<feOffset dx="2" dy="2"/>
<feGaussianBlur stdDeviation="7.5"/>
<feComposite in2="hardAlpha" operator="out"/>
<feColorMatrix type="matrix" values="0 0 0 0 0 0 0 0 0 0 0 0 0 0 0 0 0 0 0.75 0"/>
<feBlend mode="normal" in2="BackgroundImageFix" result="effect1_dropShadow_57_501"/>
<feBlend mode="normal" in="SourceGraphic" in2="effect1_dropShadow_57_501" result="shape"/>
</filter>
<linearGradient id="paint0_linear_57_501" x1="165" y1="102.5" x2="679" y2="616.5" gradientUnits="userSpaceOnUse">
<stop stop-color="#228B22" stop-opacity="0.9"/>
<stop offset="1" stop-color="#228B22" stop-opacity="0.75"/>
</linearGradient>
</defs>
</svg>
