<svg width="807" height="746" viewBox="0 0 807 746" fill="none" xmlns="http://www.w3.org/2000/svg">
<circle cx="408" cy="373" r="363" fill="url(#paint0_linear_55_395)" fill-opacity="0.5" stroke="#228B22" stroke-width="20"/>
<circle cx="683.5" cy="144.5" r="117" fill="#228B22" fill-opacity="0.95" stroke="#228B22" stroke-width="5"/>
<path d="M453.369 371.982C489.415 394.653 584.798 383.455 564.187 321.563C560.629 310.89 550.929 298.616 541.158 292.745C539.593 291.811 528.204 289.275 528.204 288.426C528.204 286.457 590.182 194.635 500.857 184.699C454.967 179.599 419.194 221.398 407.309 261.052C406.869 262.525 395.761 304.275 397.232 304.275C424.444 304.275 386.691 178.126 364.136 158.77C344.013 141.504 322.561 134.28 296.489 134.28C212.901 134.28 270.735 233.382 261.947 250.967C260.186 254.502 127.016 288.879 155.444 364.779C170.769 405.679 223.981 444.965 267.706 426.727C272.257 424.828 339.067 397.314 333.91 392.152C324.387 382.62 249 447.054 249 469.95C249 522.946 304.484 495.234 323.835 514.611C334.921 525.703 323.785 568.252 361.256 582.316C408.221 599.952 436.791 515.561 440.413 482.91C442.755 461.798 429.319 442.223 426.022 422.408" stroke="#228B22" stroke-width="20" stroke-linecap="round" stroke-linejoin="round"/>
<path d="M584 626C541.857 500.522 466.88 402.197 362 337" stroke="#228B22" stroke-width="20" stroke-linecap="round" stroke-linejoin="round"/>
<path d="M452.791 319.525C465.921 317.943 348.167 351.079 362.089 336.994C364.842 334.212 367.827 354.292 367.85 354.464C369.357 368.162 371.955 381.997 364.968 393.769" stroke="#228B22" stroke-width="20" stroke-linecap="round" stroke-linejoin="round"/>
<g filter="url(#filter0_d_55_395)">
<path d="M590.896 158.656C589.573 158.656 588.507 158.123 587.696 157.056C586.885 155.989 586.48 154.773 586.48 153.408C586.48 152.256 586.544 151.04 586.672 149.76C586.843 148.437 587.056 147.093 587.312 145.728C585.392 145.856 583.493 145.92 581.616 145.92C580.251 145.92 578.971 145.621 577.776 145.024C576.624 144.427 576.048 143.531 576.048 142.336C576.048 141.227 576.517 140.395 577.456 139.84C578.437 139.243 579.525 138.923 580.72 138.88C581.872 138.795 583.195 138.645 584.688 138.432C586.181 138.219 587.717 137.984 589.296 137.728C589.979 135.552 590.683 133.547 591.408 131.712C592.176 129.877 592.901 128.405 593.584 127.296C594.267 126.187 594.864 125.632 595.376 125.632C596.528 125.632 597.403 125.909 598 126.464C598.597 126.976 598.896 128.107 598.896 129.856C598.896 130.368 598.811 131.221 598.64 132.416C598.469 133.611 598.235 134.976 597.936 136.512C599.045 136.427 599.963 136.384 600.688 136.384C602.949 136.384 604.592 136.747 605.616 137.472C606.683 138.197 607.216 139.179 607.216 140.416C607.216 141.141 606.213 141.888 604.208 142.656C602.203 143.424 599.621 144.085 596.464 144.64C596.08 146.731 595.696 148.736 595.312 150.656C594.928 152.576 594.629 154.176 594.416 155.456C594.245 156.352 593.819 157.12 593.136 157.76C592.496 158.357 591.749 158.656 590.896 158.656ZM609.601 170.752C607.468 170.752 605.953 170.24 605.057 169.216C604.204 168.235 603.777 167.211 603.777 166.144C603.777 165.205 603.99 164.331 604.417 163.52C604.886 162.667 605.697 161.984 606.849 161.472C608.001 160.96 609.644 160.747 611.777 160.832C613.91 159.723 616.065 158.357 618.241 156.736C620.46 155.115 622.572 153.323 624.577 151.36C626.625 149.397 628.438 147.392 630.017 145.344C631.638 143.253 632.897 141.205 633.793 139.2C634.732 137.152 635.201 135.232 635.201 133.44C635.201 131.52 634.604 130.069 633.409 129.088C632.257 128.107 630.636 127.616 628.545 127.616C626.753 127.616 625.11 127.829 623.617 128.256C622.124 128.64 620.801 129.109 619.649 129.664C618.497 130.219 617.516 130.709 616.705 131.136C615.937 131.52 615.318 131.712 614.849 131.712C614.038 131.712 613.313 131.371 612.673 130.688C612.033 129.963 611.841 129.024 612.097 127.872C612.268 127.104 612.78 126.187 613.633 125.12C614.486 124.053 615.66 122.987 617.153 121.92C618.646 120.853 620.417 119.979 622.465 119.296C624.556 118.571 626.902 118.208 629.505 118.208C633.686 118.208 637.078 119.488 639.681 122.048C642.326 124.608 643.649 128.512 643.649 133.76C643.649 137.216 642.732 140.608 640.897 143.936C639.105 147.264 636.716 150.421 633.729 153.408C630.742 156.395 627.478 159.125 623.937 161.6C627.137 161.472 629.633 161.28 631.425 161.024C633.217 160.725 634.646 160.469 635.713 160.256C636.822 160.043 637.889 159.936 638.913 159.936C640.364 159.936 641.494 160.235 642.305 160.832C643.116 161.429 643.521 162.283 643.521 163.392C643.521 164.203 643.308 164.992 642.881 165.76C642.497 166.528 641.729 167.232 640.577 167.872C639.425 168.469 637.761 168.939 635.585 169.28C633.409 169.664 630.55 169.856 627.009 169.856C624.918 169.856 622.764 169.835 620.545 169.792C618.369 169.749 616.257 169.685 614.209 169.6C613.014 170.027 612.076 170.325 611.393 170.496C610.753 170.667 610.156 170.752 609.601 170.752ZM650.638 189.44C646.798 190.464 644.878 189.803 644.878 187.456C644.878 186.219 645.603 185.195 647.054 184.384C649.187 183.061 650.915 181.12 652.238 178.56C653.518 176 654.521 173.099 655.246 169.856C656.014 166.613 656.611 163.328 657.038 160C657.251 158.635 657.657 157.739 658.254 157.312C658.851 156.843 659.491 156.608 660.174 156.608C661.497 156.608 662.734 157.141 663.886 158.208C665.038 159.232 665.614 160.939 665.614 163.328C665.614 166.571 665.123 169.664 664.142 172.608C663.203 175.552 661.966 178.197 660.43 180.544C658.937 182.933 657.315 184.896 655.566 186.432C653.817 187.968 652.174 188.971 650.638 189.44ZM683.73 172.992C682.108 172.992 680.658 172.544 679.378 171.648C678.14 170.795 677.522 169.515 677.522 167.808C677.522 166.229 677.991 165.099 678.93 164.416C679.868 163.691 681.127 163.328 682.706 163.328C683.346 163.328 683.986 163.413 684.626 163.584C685.266 163.712 686.46 163.883 688.21 164.096C691.154 162.603 693.756 161.152 696.018 159.744C698.279 158.293 700.05 156.864 701.33 155.456C702.61 154.005 703.25 152.533 703.25 151.04C703.25 149.632 702.695 148.8 701.586 148.544C700.519 148.245 699.218 148.075 697.682 148.032C697.511 148.032 697.319 148.032 697.106 148.032C696.935 147.989 696.743 147.968 696.53 147.968C694.354 147.84 692.306 147.584 690.385 147.2C688.508 146.773 686.972 146.027 685.778 144.96C684.583 143.851 683.986 142.208 683.986 140.032C683.986 137.6 684.306 135.211 684.946 132.864C685.586 130.475 686.396 128.277 687.378 126.272C686.994 125.931 686.759 125.525 686.674 125.056C686.631 124.544 686.61 124.032 686.61 123.52C686.61 123.008 686.994 122.496 687.762 121.984C688.53 121.472 689.575 120.96 690.898 120.448C692.007 118.955 693.074 117.781 694.098 116.928C695.122 116.032 695.932 115.584 696.53 115.584C697.255 115.584 697.895 115.819 698.45 116.288C699.047 116.757 699.495 117.355 699.794 118.08C702.354 117.568 705.02 117.163 707.794 116.864C710.61 116.565 713.34 116.416 715.986 116.416C717.522 116.416 718.908 116.544 720.146 116.8C721.426 117.013 722.428 117.461 723.154 118.144C723.922 118.784 724.306 119.787 724.306 121.152C724.306 122.304 723.922 123.157 723.154 123.712C722.428 124.224 721.447 124.501 720.21 124.544C717.735 124.587 715.09 124.779 712.274 125.12C709.458 125.461 706.684 125.845 703.954 126.272C701.266 126.656 698.855 126.955 696.722 127.168C696.039 128.405 695.378 129.685 694.738 131.008C694.14 132.288 693.628 133.483 693.202 134.592C692.818 135.701 692.626 136.597 692.626 137.28C692.626 138.475 693.138 139.2 694.162 139.456C695.186 139.712 696.402 139.883 697.81 139.968C699.474 140.096 701.138 140.309 702.802 140.608C704.466 140.864 705.98 141.333 707.346 142.016C708.754 142.699 709.884 143.723 710.738 145.088C711.591 146.411 712.018 148.181 712.018 150.4C712.018 152.491 711.42 154.603 710.226 156.736C709.074 158.869 707.495 160.917 705.49 162.88C703.527 164.8 701.308 166.507 698.834 168C696.402 169.536 693.863 170.752 691.218 171.648C688.615 172.544 686.119 172.992 683.73 172.992ZM736.125 141.76C736.125 140.352 736.317 139.115 736.701 138.048C737.128 136.939 737.618 136.064 738.173 135.424C737.49 134.656 736.978 133.888 736.637 133.12C736.296 132.309 736.125 131.584 736.125 130.944C736.125 128.939 736.701 127.061 737.853 125.312C739.048 123.563 740.626 122.133 742.589 121.024C744.594 119.915 746.792 119.36 749.181 119.36C752.04 119.36 754.386 120.405 756.221 122.496C758.098 124.587 759.08 128 759.165 132.736C761.682 131.797 763.901 130.624 765.821 129.216C767.741 127.808 769.405 126.357 770.813 124.864C772.264 123.371 773.501 122.005 774.525 120.768C775.378 119.744 776.232 118.72 777.085 117.696C777.981 116.629 779.09 116.096 780.413 116.096C781.352 116.096 782.077 116.501 782.589 117.312C783.144 118.08 783.421 118.955 783.421 119.936C783.421 120.96 782.845 122.432 781.693 124.352C780.541 126.272 778.984 128.512 777.021 131.072C775.101 133.632 772.904 136.384 770.429 139.328C767.997 142.272 765.458 145.301 762.813 148.416C760.168 151.488 757.586 154.539 755.069 157.568C752.552 160.597 750.269 163.435 748.221 166.08C748.818 166.848 749.266 167.851 749.565 169.088C749.053 169.813 748.221 170.56 747.069 171.328C745.917 172.096 744.765 172.736 743.613 173.248C742.461 173.803 741.586 174.08 740.989 174.08C739.112 174.08 738.173 173.056 738.173 171.008C738.173 170.155 738.578 168.981 739.389 167.488C740.2 165.995 741.16 164.459 742.269 162.88C743.762 160.747 745.81 158.123 748.413 155.008C751.016 151.893 753.917 148.501 757.117 144.832C760.36 141.163 763.688 137.429 767.101 133.632C765.778 134.528 764.392 135.36 762.941 136.128C761.49 136.896 759.954 137.557 758.333 138.112C757.608 140.373 756.477 142.528 754.941 144.576C753.405 146.624 751.677 148.288 749.757 149.568C747.88 150.805 745.981 151.424 744.061 151.424C741.672 151.424 739.752 150.507 738.301 148.672C736.85 146.795 736.125 144.491 736.125 141.76ZM774.845 171.776C773.48 171.776 772.178 171.243 770.941 170.176C769.704 169.109 768.68 167.552 767.869 165.504C767.101 163.413 766.717 160.896 766.717 157.952C766.717 155.392 766.909 153.301 767.293 151.68C767.72 150.059 768.317 148.715 769.085 147.648C768.957 146.965 768.893 146.155 768.893 145.216C768.893 143.851 769.362 142.549 770.301 141.312C771.24 140.075 772.498 139.072 774.077 138.304C775.698 137.536 777.512 137.152 779.517 137.152C781.48 137.152 783.208 137.6 784.701 138.496C786.237 139.349 787.432 140.757 788.285 142.72C789.181 144.683 789.629 147.285 789.629 150.528C789.629 153.003 789.181 155.499 788.285 158.016C787.432 160.491 786.28 162.773 784.829 164.864C783.378 166.955 781.778 168.619 780.029 169.856C778.28 171.136 776.552 171.776 774.845 171.776ZM774.909 146.688C775.165 147.115 775.293 147.691 775.293 148.416C775.293 149.44 775.122 150.677 774.781 152.128C774.44 153.579 774.077 155.115 773.693 156.736C773.352 158.357 773.181 159.936 773.181 161.472C773.181 162.027 773.266 162.496 773.437 162.88C773.608 163.221 773.928 163.392 774.397 163.392C775.293 163.392 776.189 162.944 777.085 162.048C777.981 161.152 778.813 159.957 779.581 158.464C780.349 156.928 780.946 155.221 781.373 153.344C781.842 151.467 782.077 149.525 782.077 147.52C782.077 146.539 781.949 145.813 781.693 145.344C781.437 144.875 780.882 144.64 780.029 144.64C778.792 144.64 777.746 144.853 776.893 145.28C776.082 145.664 775.421 146.133 774.909 146.688ZM751.805 134.4C752.061 133.077 752.189 131.733 752.189 130.368C752.189 129.344 751.997 128.576 751.613 128.064C751.229 127.509 750.44 127.232 749.245 127.232C747.752 127.232 746.472 127.552 745.405 128.192C744.381 128.832 743.869 129.749 743.869 130.944C743.869 132.181 744.36 133.099 745.341 133.696C746.322 134.251 747.41 134.528 748.605 134.528C749.714 134.528 750.781 134.485 751.805 134.4ZM750.077 139.712C749.693 139.712 749.309 139.712 748.925 139.712C747.816 139.712 746.77 139.627 745.789 139.456C744.85 139.285 743.976 139.051 743.165 138.752C743.08 139.264 742.973 139.797 742.845 140.352C742.76 140.864 742.717 141.397 742.717 141.952C742.717 142.592 742.845 143.168 743.101 143.68C743.357 144.149 743.848 144.384 744.573 144.384C745.597 144.384 746.578 143.957 747.517 143.104C748.498 142.251 749.352 141.12 750.077 139.712Z" fill="white"/>
</g>
<defs>
<filter id="filter0_d_55_395" x="563.048" y="102.584" width="243.581" height="105.392" filterUnits="userSpaceOnUse" color-interpolation-filters="sRGB">
<feFlood flood-opacity="0" result="BackgroundImageFix"/>
<feColorMatrix in="SourceAlpha" type="matrix" values="0 0 0 0 0 0 0 0 0 0 0 0 0 0 0 0 0 0 127 0" result="hardAlpha"/>
<feOffset dx="2" dy="2"/>
<feGaussianBlur stdDeviation="7.5"/>
<feComposite in2="hardAlpha" operator="out"/>
<feColorMatrix type="matrix" values="0 0 0 0 0 0 0 0 0 0 0 0 0 0 0 0 0 0 0.75 0"/>
<feBlend mode="normal" in2="BackgroundImageFix" result="effect1_dropShadow_55_395"/>
<feBlend mode="normal" in="SourceGraphic" in2="effect1_dropShadow_55_395" result="shape"/>
</filter>
<linearGradient id="paint0_linear_55_395" x1="165" y1="102.5" x2="679" y2="616.5" gradientUnits="userSpaceOnUse">
<stop stop-color="#228B22" stop-opacity="0.9"/>
<stop offset="1" stop-color="#228B22" stop-opacity="0.75"/>
</linearGradient>
</defs>
</svg>
