<svg width="807" height="746" viewBox="0 0 807 746" fill="none" xmlns="http://www.w3.org/2000/svg">
<circle cx="408" cy="373" r="363" fill="url(#paint0_linear_57_417)" fill-opacity="0.5" stroke="white" stroke-width="20"/>
<circle cx="683.5" cy="144.5" r="117" fill="white" fill-opacity="0.95" stroke="white" stroke-width="5"/>
<path d="M453.368 371.982C489.415 394.653 584.797 383.455 564.187 321.563C560.628 310.89 550.928 298.616 541.158 292.745C539.593 291.811 528.203 289.275 528.203 288.426C528.203 286.457 590.182 194.635 500.857 184.699C454.967 179.599 419.194 221.398 407.309 261.052C406.868 262.525 395.76 304.275 397.232 304.275C424.444 304.275 386.691 178.126 364.136 158.77C344.012 141.504 322.561 134.28 296.488 134.28C212.901 134.28 270.735 233.382 261.947 250.967C260.186 254.502 127.016 288.879 155.444 364.779C170.769 405.679 223.981 444.965 267.706 426.727C272.256 424.828 339.066 397.314 333.91 392.152C324.387 382.62 249 447.054 249 469.95C249 522.946 304.484 495.234 323.835 514.611C334.92 525.703 323.785 568.252 361.256 582.316C408.221 599.952 436.79 515.561 440.412 482.91C442.755 461.798 429.319 442.223 426.022 422.408" stroke="white" stroke-width="20" stroke-linecap="round" stroke-linejoin="round"/>
<path d="M584 626C541.857 500.522 466.88 402.197 362 337" stroke="white" stroke-width="20" stroke-linecap="round" stroke-linejoin="round"/>
<path d="M452.791 319.525C465.921 317.943 348.167 351.079 362.089 336.994C364.842 334.212 367.827 354.292 367.85 354.464C369.357 368.162 371.955 381.997 364.968 393.769" stroke="white" stroke-width="20" stroke-linecap="round" stroke-linejoin="round"/>
<g filter="url(#filter0_d_57_417)">
<path d="M600.344 165.984C598.36 165.984 596.76 165.184 595.544 163.584C594.328 161.984 593.72 160.16 593.72 158.112C593.72 156.384 593.816 154.56 594.008 152.64C594.264 150.656 594.584 148.64 594.968 146.592C592.088 146.784 589.24 146.88 586.424 146.88C584.376 146.88 582.456 146.432 580.664 145.536C578.936 144.64 578.072 143.296 578.072 141.504C578.072 139.84 578.776 138.592 580.184 137.76C581.656 136.864 583.288 136.384 585.08 136.32C586.808 136.192 588.792 135.968 591.032 135.648C593.272 135.328 595.576 134.976 597.944 134.592C598.968 131.328 600.024 128.32 601.112 125.568C602.264 122.816 603.352 120.608 604.376 118.944C605.4 117.28 606.296 116.448 607.064 116.448C608.792 116.448 610.104 116.864 611 117.696C611.896 118.464 612.344 120.16 612.344 122.784C612.344 123.552 612.216 124.832 611.96 126.624C611.704 128.416 611.352 130.464 610.904 132.768C612.568 132.64 613.944 132.576 615.032 132.576C618.424 132.576 620.888 133.12 622.424 134.208C624.024 135.296 624.824 136.768 624.824 138.624C624.824 139.712 623.32 140.832 620.312 141.984C617.304 143.136 613.432 144.128 608.696 144.96C608.12 148.096 607.544 151.104 606.968 153.984C606.392 156.864 605.944 159.264 605.624 161.184C605.368 162.528 604.728 163.68 603.704 164.64C602.744 165.536 601.624 165.984 600.344 165.984ZM683.927 153.504C683.927 155.936 682.967 158.496 681.047 161.184C679.127 163.808 676.631 166.4 673.559 168.96C670.487 171.52 667.127 173.952 663.479 176.256C659.895 178.496 656.343 180.48 652.823 182.208C649.367 184 646.295 185.376 643.607 186.336C640.919 187.36 638.967 187.872 637.751 187.872C635.447 187.872 633.559 187.456 632.087 186.624C630.615 185.792 629.879 184.32 629.879 182.208C629.879 180.608 630.263 179.36 631.031 178.464C631.799 177.568 632.887 176.8 634.295 176.16C637.687 174.624 641.175 172.992 644.759 171.264C648.343 169.536 651.767 167.776 655.031 165.984C658.359 164.192 661.303 162.432 663.863 160.704C666.487 158.976 668.567 157.344 670.103 155.808C671.639 154.208 672.407 152.8 672.407 151.584C672.407 150.176 671.863 149.152 670.775 148.512C669.751 147.872 668.375 147.456 666.647 147.264C664.919 147.008 662.999 146.88 660.887 146.88C658.007 146.88 655.607 147.008 653.687 147.264C651.767 147.52 650.103 147.776 648.695 148.032C647.351 148.224 646.103 148.32 644.951 148.32C643.031 148.32 641.655 147.904 640.823 147.072C639.991 146.176 639.575 144.992 639.575 143.52C639.575 142.304 640.023 141.056 640.919 139.776C641.815 138.496 643.255 137.536 645.239 136.896C649.399 135.552 653.079 134.08 656.279 132.48C659.543 130.816 662.071 128.992 663.863 127.008C665.719 125.024 666.647 122.88 666.647 120.576C666.647 119.872 666.295 119.392 665.591 119.136C664.951 118.88 663.607 118.752 661.559 118.752C659.703 118.752 657.623 118.976 655.319 119.424C653.079 119.872 650.871 120.416 648.695 121.056C646.583 121.632 644.759 122.144 643.223 122.592C641.751 123.04 640.823 123.264 640.439 123.264C637.623 123.264 636.215 121.856 636.215 119.04C636.215 118.4 636.695 117.376 637.655 115.968C638.615 114.56 640.055 113.12 641.975 111.648C643.895 110.112 646.263 108.8 649.079 107.712C651.959 106.624 655.287 106.08 659.063 106.08C662.775 106.08 666.007 106.816 668.759 108.288C671.575 109.76 673.751 111.776 675.287 114.336C676.887 116.832 677.687 119.68 677.687 122.88C677.687 125.312 676.919 127.744 675.383 130.176C673.911 132.544 672.055 134.656 669.815 136.512C674.103 137.792 677.527 140 680.087 143.136C682.647 146.208 683.927 149.664 683.927 153.504ZM709.243 140.64C709.243 138.528 709.531 136.672 710.107 135.072C710.747 133.408 711.483 132.096 712.315 131.136C711.291 129.984 710.523 128.832 710.011 127.68C709.499 126.464 709.243 125.376 709.243 124.416C709.243 121.408 710.107 118.592 711.835 115.968C713.627 113.344 715.995 111.2 718.939 109.536C721.947 107.872 725.243 107.04 728.827 107.04C733.115 107.04 736.635 108.608 739.387 111.744C742.203 114.88 743.675 120 743.803 127.104C747.579 125.696 750.907 123.936 753.787 121.824C756.667 119.712 759.163 117.536 761.275 115.296C763.451 113.056 765.307 111.008 766.843 109.152C768.123 107.616 769.403 106.08 770.683 104.544C772.027 102.944 773.691 102.144 775.675 102.144C777.083 102.144 778.171 102.752 778.939 103.968C779.771 105.12 780.187 106.432 780.187 107.904C780.187 109.44 779.323 111.648 777.595 114.528C775.867 117.408 773.531 120.768 770.587 124.608C767.707 128.448 764.411 132.576 760.699 136.992C757.051 141.408 753.243 145.952 749.275 150.624C745.307 155.232 741.435 159.808 737.659 164.352C733.883 168.896 730.459 173.152 727.387 177.12C728.283 178.272 728.955 179.776 729.403 181.632C728.635 182.72 727.387 183.84 725.659 184.992C723.931 186.144 722.203 187.104 720.475 187.872C718.747 188.704 717.435 189.12 716.539 189.12C713.723 189.12 712.315 187.584 712.315 184.512C712.315 183.232 712.923 181.472 714.139 179.232C715.355 176.992 716.795 174.688 718.459 172.32C720.699 169.12 723.771 165.184 727.675 160.512C731.579 155.84 735.931 150.752 740.731 145.248C745.595 139.744 750.587 134.144 755.707 128.448C753.723 129.792 751.643 131.04 749.467 132.192C747.291 133.344 744.987 134.336 742.555 135.168C741.467 138.56 739.771 141.792 737.467 144.864C735.163 147.936 732.571 150.432 729.691 152.352C726.875 154.208 724.027 155.136 721.147 155.136C717.563 155.136 714.683 153.76 712.507 151.008C710.331 148.192 709.243 144.736 709.243 140.64ZM767.323 185.664C765.275 185.664 763.323 184.864 761.467 183.264C759.611 181.664 758.075 179.328 756.859 176.256C755.707 173.12 755.131 169.344 755.131 164.928C755.131 161.088 755.419 157.952 755.995 155.52C756.635 153.088 757.531 151.072 758.683 149.472C758.491 148.448 758.395 147.232 758.395 145.824C758.395 143.776 759.099 141.824 760.507 139.968C761.915 138.112 763.803 136.608 766.171 135.456C768.603 134.304 771.323 133.728 774.331 133.728C777.275 133.728 779.867 134.4 782.107 135.744C784.411 137.024 786.203 139.136 787.483 142.08C788.827 145.024 789.499 148.928 789.499 153.792C789.499 157.504 788.827 161.248 787.483 165.024C786.203 168.736 784.475 172.16 782.299 175.296C780.123 178.432 777.723 180.928 775.099 182.784C772.475 184.704 769.883 185.664 767.323 185.664ZM767.419 148.032C767.803 148.672 767.995 149.536 767.995 150.624C767.995 152.16 767.739 154.016 767.227 156.192C766.715 158.368 766.171 160.672 765.595 163.104C765.083 165.536 764.827 167.904 764.827 170.208C764.827 171.04 764.955 171.744 765.211 172.32C765.467 172.832 765.947 173.088 766.651 173.088C767.995 173.088 769.339 172.416 770.683 171.072C772.027 169.728 773.275 167.936 774.427 165.696C775.579 163.392 776.475 160.832 777.115 158.016C777.819 155.2 778.171 152.288 778.171 149.28C778.171 147.808 777.979 146.72 777.595 146.016C777.211 145.312 776.379 144.96 775.099 144.96C773.243 144.96 771.675 145.28 770.395 145.92C769.179 146.496 768.187 147.2 767.419 148.032ZM732.763 129.6C733.147 127.616 733.339 125.6 733.339 123.552C733.339 122.016 733.051 120.864 732.475 120.096C731.899 119.264 730.715 118.848 728.923 118.848C726.683 118.848 724.763 119.328 723.163 120.288C721.627 121.248 720.859 122.624 720.859 124.416C720.859 126.272 721.595 127.648 723.067 128.544C724.539 129.376 726.171 129.792 727.963 129.792C729.627 129.792 731.227 129.728 732.763 129.6ZM730.171 137.568C729.595 137.568 729.019 137.568 728.443 137.568C726.779 137.568 725.211 137.44 723.739 137.184C722.331 136.928 721.019 136.576 719.803 136.128C719.675 136.896 719.515 137.696 719.323 138.528C719.195 139.296 719.131 140.096 719.131 140.928C719.131 141.888 719.323 142.752 719.707 143.52C720.091 144.224 720.827 144.576 721.915 144.576C723.451 144.576 724.923 143.936 726.331 142.656C727.803 141.376 729.083 139.68 730.171 137.568Z" fill="white"/>
</g>
<defs>
<filter id="filter0_d_57_417" x="565.072" y="89.144" width="241.427" height="116.976" filterUnits="userSpaceOnUse" color-interpolation-filters="sRGB">
<feFlood flood-opacity="0" result="BackgroundImageFix"/>
<feColorMatrix in="SourceAlpha" type="matrix" values="0 0 0 0 0 0 0 0 0 0 0 0 0 0 0 0 0 0 127 0" result="hardAlpha"/>
<feOffset dx="2" dy="2"/>
<feGaussianBlur stdDeviation="7.5"/>
<feComposite in2="hardAlpha" operator="out"/>
<feColorMatrix type="matrix" values="0 0 0 0 0 0 0 0 0 0 0 0 0 0 0 0 0 0 0.75 0"/>
<feBlend mode="normal" in2="BackgroundImageFix" result="effect1_dropShadow_57_417"/>
<feBlend mode="normal" in="SourceGraphic" in2="effect1_dropShadow_57_417" result="shape"/>
</filter>
<linearGradient id="paint0_linear_57_417" x1="165" y1="102.5" x2="679" y2="616.5" gradientUnits="userSpaceOnUse">
<stop stop-color="white" stop-opacity="0.9"/>
<stop offset="1" stop-color="white" stop-opacity="0.75"/>
</linearGradient>
</defs>
</svg>
