<svg width="805" height="746" viewBox="0 0 805 746" fill="none" xmlns="http://www.w3.org/2000/svg">
<circle cx="408" cy="373" r="363" fill="url(#paint0_linear_55_351)" fill-opacity="0.5" stroke="#228B22" stroke-width="20"/>
<circle cx="683.5" cy="144.5" r="117" fill="#228B22" fill-opacity="0.95" stroke="#228B22" stroke-width="5"/>
<path d="M453.369 371.982C489.415 394.653 584.798 383.455 564.187 321.563C560.629 310.89 550.929 298.616 541.158 292.745C539.593 291.811 528.204 289.275 528.204 288.426C528.204 286.457 590.182 194.635 500.857 184.699C454.967 179.599 419.194 221.398 407.309 261.052C406.869 262.525 395.761 304.275 397.232 304.275C424.444 304.275 386.691 178.126 364.136 158.77C344.013 141.504 322.561 134.28 296.489 134.28C212.901 134.28 270.735 233.382 261.947 250.967C260.186 254.502 127.016 288.879 155.444 364.779C170.769 405.679 223.981 444.965 267.706 426.727C272.257 424.828 339.067 397.314 333.91 392.152C324.387 382.62 249 447.054 249 469.95C249 522.946 304.484 495.234 323.835 514.611C334.921 525.703 323.785 568.252 361.256 582.316C408.221 599.952 436.791 515.561 440.413 482.91C442.755 461.798 429.319 442.223 426.022 422.408" stroke="#228B22" stroke-width="20" stroke-linecap="round" stroke-linejoin="round"/>
<path d="M584 626C541.857 500.522 466.88 402.197 362 337" stroke="#228B22" stroke-width="20" stroke-linecap="round" stroke-linejoin="round"/>
<path d="M452.791 319.525C465.921 317.943 348.167 351.079 362.089 336.994C364.842 334.212 367.827 354.292 367.85 354.464C369.357 368.162 371.955 381.997 364.968 393.769" stroke="#228B22" stroke-width="20" stroke-linecap="round" stroke-linejoin="round"/>
<g filter="url(#filter0_d_55_351)">
<path d="M590.896 158.656C589.573 158.656 588.507 158.123 587.696 157.056C586.885 155.989 586.48 154.773 586.48 153.408C586.48 152.256 586.544 151.04 586.672 149.76C586.843 148.437 587.056 147.093 587.312 145.728C585.392 145.856 583.493 145.92 581.616 145.92C580.251 145.92 578.971 145.621 577.776 145.024C576.624 144.427 576.048 143.531 576.048 142.336C576.048 141.227 576.517 140.395 577.456 139.84C578.437 139.243 579.525 138.923 580.72 138.88C581.872 138.795 583.195 138.645 584.688 138.432C586.181 138.219 587.717 137.984 589.296 137.728C589.979 135.552 590.683 133.547 591.408 131.712C592.176 129.877 592.901 128.405 593.584 127.296C594.267 126.187 594.864 125.632 595.376 125.632C596.528 125.632 597.403 125.909 598 126.464C598.597 126.976 598.896 128.107 598.896 129.856C598.896 130.368 598.811 131.221 598.64 132.416C598.469 133.611 598.235 134.976 597.936 136.512C599.045 136.427 599.963 136.384 600.688 136.384C602.949 136.384 604.592 136.747 605.616 137.472C606.683 138.197 607.216 139.179 607.216 140.416C607.216 141.141 606.213 141.888 604.208 142.656C602.203 143.424 599.621 144.085 596.464 144.64C596.08 146.731 595.696 148.736 595.312 150.656C594.928 152.576 594.629 154.176 594.416 155.456C594.245 156.352 593.819 157.12 593.136 157.76C592.496 158.357 591.749 158.656 590.896 158.656ZM625.301 172.928C624.576 172.928 623.914 172.821 623.317 172.608C622.762 172.437 622.293 172.075 621.909 171.52C620.16 171.819 618.432 172.053 616.725 172.224C615.018 172.395 613.418 172.48 611.925 172.48C610.645 172.48 609.642 172.16 608.917 171.52C608.192 170.923 607.829 170.069 607.829 168.96C607.829 168.32 608.192 167.595 608.917 166.784C609.642 165.973 610.986 165.205 612.949 164.48C614.912 163.712 617.77 163.115 621.525 162.688C621.824 160.683 622.272 158.315 622.869 155.584C623.466 152.811 624.192 149.867 625.045 146.752C625.898 143.595 626.901 140.48 628.053 137.408C626.474 139.072 624.81 140.48 623.061 141.632C621.354 142.784 619.712 143.659 618.133 144.256C616.597 144.853 615.274 145.152 614.165 145.152C613.269 145.152 612.522 145.003 611.925 144.704C611.37 144.405 611.093 143.851 611.093 143.04C611.093 142.016 611.584 141.077 612.565 140.224C613.546 139.328 614.613 138.453 615.765 137.6C617.514 136.277 619.392 134.699 621.397 132.864C623.445 131.029 625.344 129.067 627.093 126.976C628.885 124.885 630.272 122.837 631.253 120.832C631.722 119.936 632.234 119.232 632.789 118.72C633.344 118.165 634.24 117.888 635.477 117.888C636.714 117.888 637.61 118.443 638.165 119.552C638.72 120.619 638.997 121.899 638.997 123.392C638.997 123.989 638.826 125.227 638.485 127.104C638.144 128.939 637.674 131.2 637.077 133.888C636.48 136.533 635.818 139.456 635.093 142.656C634.368 145.813 633.621 149.056 632.853 152.384C632.085 155.712 631.36 158.933 630.677 162.048C632.085 162.005 633.536 161.984 635.029 161.984C636.821 161.984 638.378 162.133 639.701 162.432C641.024 162.731 641.685 163.371 641.685 164.352C641.685 165.376 641.237 166.144 640.341 166.656C639.488 167.125 638.442 167.552 637.205 167.936C636.053 168.277 634.752 168.64 633.301 169.024C631.85 169.451 630.314 169.835 628.693 170.176C628.266 171.157 627.754 171.861 627.157 172.288C626.56 172.715 625.941 172.928 625.301 172.928ZM648.576 189.44C644.735 190.464 642.815 189.803 642.815 187.456C642.815 186.219 643.541 185.195 644.991 184.384C647.125 183.061 648.853 181.12 650.175 178.56C651.456 176 652.458 173.099 653.184 169.856C653.952 166.613 654.549 163.328 654.976 160C655.189 158.635 655.594 157.739 656.192 157.312C656.789 156.843 657.429 156.608 658.112 156.608C659.434 156.608 660.672 157.141 661.824 158.208C662.976 159.232 663.552 160.939 663.552 163.328C663.552 166.571 663.061 169.664 662.08 172.608C661.141 175.552 659.904 178.197 658.368 180.544C656.874 182.933 655.253 184.896 653.504 186.432C651.754 187.968 650.112 188.971 648.576 189.44ZM681.667 172.992C680.046 172.992 678.595 172.544 677.315 171.648C676.078 170.795 675.459 169.515 675.459 167.808C675.459 166.229 675.928 165.099 676.867 164.416C677.806 163.691 679.064 163.328 680.643 163.328C681.283 163.328 681.923 163.413 682.563 163.584C683.203 163.712 684.398 163.883 686.147 164.096C689.091 162.603 691.694 161.152 693.955 159.744C696.216 158.293 697.987 156.864 699.267 155.456C700.547 154.005 701.187 152.533 701.187 151.04C701.187 149.632 700.632 148.8 699.523 148.544C698.456 148.245 697.155 148.075 695.619 148.032C695.448 148.032 695.256 148.032 695.043 148.032C694.872 147.989 694.68 147.968 694.467 147.968C692.291 147.84 690.243 147.584 688.323 147.2C686.446 146.773 684.91 146.027 683.715 144.96C682.52 143.851 681.923 142.208 681.923 140.032C681.923 137.6 682.243 135.211 682.883 132.864C683.523 130.475 684.334 128.277 685.315 126.272C684.931 125.931 684.696 125.525 684.611 125.056C684.568 124.544 684.547 124.032 684.547 123.52C684.547 123.008 684.931 122.496 685.699 121.984C686.467 121.472 687.512 120.96 688.835 120.448C689.944 118.955 691.011 117.781 692.035 116.928C693.059 116.032 693.87 115.584 694.467 115.584C695.192 115.584 695.832 115.819 696.387 116.288C696.984 116.757 697.432 117.355 697.731 118.08C700.291 117.568 702.958 117.163 705.731 116.864C708.547 116.565 711.278 116.416 713.923 116.416C715.459 116.416 716.846 116.544 718.083 116.8C719.363 117.013 720.366 117.461 721.091 118.144C721.859 118.784 722.243 119.787 722.243 121.152C722.243 122.304 721.859 123.157 721.091 123.712C720.366 124.224 719.384 124.501 718.147 124.544C715.672 124.587 713.027 124.779 710.211 125.12C707.395 125.461 704.622 125.845 701.891 126.272C699.203 126.656 696.792 126.955 694.659 127.168C693.976 128.405 693.315 129.685 692.675 131.008C692.078 132.288 691.566 133.483 691.139 134.592C690.755 135.701 690.563 136.597 690.563 137.28C690.563 138.475 691.075 139.2 692.099 139.456C693.123 139.712 694.339 139.883 695.747 139.968C697.411 140.096 699.075 140.309 700.739 140.608C702.403 140.864 703.918 141.333 705.283 142.016C706.691 142.699 707.822 143.723 708.675 145.088C709.528 146.411 709.955 148.181 709.955 150.4C709.955 152.491 709.358 154.603 708.163 156.736C707.011 158.869 705.432 160.917 703.427 162.88C701.464 164.8 699.246 166.507 696.771 168C694.339 169.536 691.8 170.752 689.155 171.648C686.552 172.544 684.056 172.992 681.667 172.992ZM734.062 141.76C734.062 140.352 734.255 139.115 734.639 138.048C735.065 136.939 735.556 136.064 736.111 135.424C735.428 134.656 734.916 133.888 734.575 133.12C734.233 132.309 734.062 131.584 734.062 130.944C734.062 128.939 734.639 127.061 735.791 125.312C736.985 123.563 738.564 122.133 740.527 121.024C742.532 119.915 744.729 119.36 747.119 119.36C749.977 119.36 752.324 120.405 754.159 122.496C756.036 124.587 757.017 128 757.103 132.736C759.62 131.797 761.839 130.624 763.759 129.216C765.679 127.808 767.343 126.357 768.751 124.864C770.201 123.371 771.439 122.005 772.463 120.768C773.316 119.744 774.169 118.72 775.023 117.696C775.919 116.629 777.028 116.096 778.351 116.096C779.289 116.096 780.015 116.501 780.527 117.312C781.081 118.08 781.359 118.955 781.359 119.936C781.359 120.96 780.783 122.432 779.631 124.352C778.479 126.272 776.921 128.512 774.959 131.072C773.039 133.632 770.841 136.384 768.367 139.328C765.935 142.272 763.396 145.301 760.751 148.416C758.105 151.488 755.524 154.539 753.007 157.568C750.489 160.597 748.207 163.435 746.159 166.08C746.756 166.848 747.204 167.851 747.503 169.088C746.991 169.813 746.159 170.56 745.007 171.328C743.855 172.096 742.703 172.736 741.551 173.248C740.399 173.803 739.524 174.08 738.927 174.08C737.049 174.08 736.111 173.056 736.111 171.008C736.111 170.155 736.516 168.981 737.327 167.488C738.137 165.995 739.097 164.459 740.207 162.88C741.7 160.747 743.748 158.123 746.351 155.008C748.953 151.893 751.855 148.501 755.055 144.832C758.297 141.163 761.625 137.429 765.039 133.632C763.716 134.528 762.329 135.36 760.879 136.128C759.428 136.896 757.892 137.557 756.271 138.112C755.545 140.373 754.415 142.528 752.879 144.576C751.343 146.624 749.615 148.288 747.695 149.568C745.817 150.805 743.919 151.424 741.999 151.424C739.609 151.424 737.689 150.507 736.239 148.672C734.788 146.795 734.062 144.491 734.062 141.76ZM772.783 171.776C771.417 171.776 770.116 171.243 768.879 170.176C767.641 169.109 766.617 167.552 765.807 165.504C765.039 163.413 764.655 160.896 764.655 157.952C764.655 155.392 764.847 153.301 765.231 151.68C765.657 150.059 766.255 148.715 767.023 147.648C766.895 146.965 766.831 146.155 766.831 145.216C766.831 143.851 767.3 142.549 768.239 141.312C769.177 140.075 770.436 139.072 772.015 138.304C773.636 137.536 775.449 137.152 777.455 137.152C779.417 137.152 781.145 137.6 782.639 138.496C784.175 139.349 785.369 140.757 786.223 142.72C787.119 144.683 787.567 147.285 787.567 150.528C787.567 153.003 787.119 155.499 786.223 158.016C785.369 160.491 784.217 162.773 782.767 164.864C781.316 166.955 779.716 168.619 777.967 169.856C776.217 171.136 774.489 171.776 772.783 171.776ZM772.847 146.688C773.103 147.115 773.231 147.691 773.231 148.416C773.231 149.44 773.06 150.677 772.719 152.128C772.377 153.579 772.015 155.115 771.631 156.736C771.289 158.357 771.119 159.936 771.119 161.472C771.119 162.027 771.204 162.496 771.375 162.88C771.545 163.221 771.865 163.392 772.335 163.392C773.231 163.392 774.127 162.944 775.023 162.048C775.919 161.152 776.751 159.957 777.519 158.464C778.287 156.928 778.884 155.221 779.311 153.344C779.78 151.467 780.015 149.525 780.015 147.52C780.015 146.539 779.887 145.813 779.631 145.344C779.375 144.875 778.82 144.64 777.967 144.64C776.729 144.64 775.684 144.853 774.831 145.28C774.02 145.664 773.359 146.133 772.847 146.688ZM749.743 134.4C749.999 133.077 750.127 131.733 750.127 130.368C750.127 129.344 749.935 128.576 749.551 128.064C749.167 127.509 748.377 127.232 747.183 127.232C745.689 127.232 744.409 127.552 743.343 128.192C742.319 128.832 741.807 129.749 741.807 130.944C741.807 132.181 742.297 133.099 743.279 133.696C744.26 134.251 745.348 134.528 746.543 134.528C747.652 134.528 748.719 134.485 749.743 134.4ZM748.015 139.712C747.631 139.712 747.247 139.712 746.863 139.712C745.753 139.712 744.708 139.627 743.727 139.456C742.788 139.285 741.913 139.051 741.103 138.752C741.017 139.264 740.911 139.797 740.783 140.352C740.697 140.864 740.655 141.397 740.655 141.952C740.655 142.592 740.783 143.168 741.039 143.68C741.295 144.149 741.785 144.384 742.51 144.384C743.535 144.384 744.516 143.957 745.455 143.104C746.436 142.251 747.289 141.12 748.015 139.712Z" fill="white"/>
</g>
<defs>
<filter id="filter0_d_55_351" x="563.048" y="102.584" width="241.519" height="105.392" filterUnits="userSpaceOnUse" color-interpolation-filters="sRGB">
<feFlood flood-opacity="0" result="BackgroundImageFix"/>
<feColorMatrix in="SourceAlpha" type="matrix" values="0 0 0 0 0 0 0 0 0 0 0 0 0 0 0 0 0 0 127 0" result="hardAlpha"/>
<feOffset dx="2" dy="2"/>
<feGaussianBlur stdDeviation="7.5"/>
<feComposite in2="hardAlpha" operator="out"/>
<feColorMatrix type="matrix" values="0 0 0 0 0 0 0 0 0 0 0 0 0 0 0 0 0 0 0.75 0"/>
<feBlend mode="normal" in2="BackgroundImageFix" result="effect1_dropShadow_55_351"/>
<feBlend mode="normal" in="SourceGraphic" in2="effect1_dropShadow_55_351" result="shape"/>
</filter>
<linearGradient id="paint0_linear_55_351" x1="165" y1="102.5" x2="679" y2="616.5" gradientUnits="userSpaceOnUse">
<stop stop-color="#228B22" stop-opacity="0.9"/>
<stop offset="1" stop-color="#228B22" stop-opacity="0.75"/>
</linearGradient>
</defs>
</svg>
