<svg width="820" height="746" viewBox="0 0 820 746" fill="none" xmlns="http://www.w3.org/2000/svg">
<circle cx="408" cy="373" r="363" fill="url(#paint0_linear_57_546)" fill-opacity="0.5" stroke="white" stroke-width="20"/>
<circle cx="683.5" cy="144.5" r="117" fill="white" fill-opacity="0.95" stroke="white" stroke-width="5"/>
<path d="M453.368 371.982C489.415 394.653 584.797 383.455 564.187 321.564C560.628 310.89 550.928 298.617 541.158 292.746C539.593 291.811 528.203 289.275 528.203 288.426C528.203 286.457 590.182 194.635 500.857 184.699C454.967 179.6 419.194 221.398 407.309 261.052C406.868 262.525 395.76 304.275 397.232 304.275C424.444 304.275 386.691 178.126 364.136 158.771C344.012 141.504 322.561 134.28 296.488 134.28C212.901 134.28 270.735 233.383 261.947 250.968C260.186 254.502 127.016 288.879 155.444 364.779C170.769 405.679 223.981 444.965 267.706 426.727C272.256 424.829 339.066 397.314 333.91 392.152C324.387 382.62 249 447.054 249 469.95C249 522.946 304.484 495.234 323.835 514.612C334.92 525.703 323.785 568.253 361.256 582.317C408.221 599.952 436.79 515.561 440.412 482.91C442.755 461.799 429.319 442.223 426.022 422.408" stroke="white" stroke-width="20" stroke-linecap="round" stroke-linejoin="round"/>
<path d="M584 626C541.857 500.522 466.88 402.197 362 337" stroke="white" stroke-width="20" stroke-linecap="round" stroke-linejoin="round"/>
<path d="M452.791 319.525C465.921 317.943 348.167 351.079 362.089 336.994C364.842 334.212 367.827 354.292 367.85 354.464C369.357 368.162 371.955 381.997 364.968 393.769" stroke="white" stroke-width="20" stroke-linecap="round" stroke-linejoin="round"/>
<g filter="url(#filter0_d_57_546)">
<path d="M600.344 165.984C598.36 165.984 596.76 165.184 595.544 163.584C594.328 161.984 593.72 160.16 593.72 158.112C593.72 156.384 593.816 154.56 594.008 152.64C594.264 150.656 594.584 148.64 594.968 146.592C592.088 146.784 589.24 146.88 586.424 146.88C584.376 146.88 582.456 146.432 580.664 145.536C578.936 144.64 578.072 143.296 578.072 141.504C578.072 139.84 578.776 138.592 580.184 137.76C581.656 136.864 583.288 136.384 585.08 136.32C586.808 136.192 588.792 135.968 591.032 135.648C593.272 135.328 595.576 134.976 597.944 134.592C598.968 131.328 600.024 128.32 601.112 125.568C602.264 122.816 603.352 120.608 604.376 118.944C605.4 117.28 606.296 116.448 607.064 116.448C608.792 116.448 610.104 116.864 611 117.696C611.896 118.464 612.344 120.16 612.344 122.784C612.344 123.552 612.216 124.832 611.96 126.624C611.704 128.416 611.352 130.464 610.904 132.768C612.568 132.64 613.944 132.576 615.032 132.576C618.424 132.576 620.888 133.12 622.424 134.208C624.024 135.296 624.824 136.768 624.824 138.624C624.824 139.712 623.32 140.832 620.312 141.984C617.304 143.136 613.432 144.128 608.696 144.96C608.12 148.096 607.544 151.104 606.968 153.984C606.392 156.864 605.944 159.264 605.624 161.184C605.368 162.528 604.728 163.68 603.704 164.64C602.744 165.536 601.624 165.984 600.344 165.984ZM652.27 183.84C647.342 183.84 643.438 183.2 640.558 181.92C637.678 180.704 635.598 178.976 634.318 176.736C633.102 174.496 632.494 171.904 632.494 168.96C632.494 166.592 633.39 164.064 635.182 161.376C637.038 158.624 639.534 155.744 642.67 152.736C645.806 149.664 649.294 146.528 653.134 143.328C648.462 141.472 645.262 139.584 643.534 137.664C641.87 135.68 641.038 133.408 641.038 130.848C641.038 129.248 641.838 127.328 643.438 125.088C645.102 122.784 647.246 120.448 649.87 118.08C652.558 115.648 655.406 113.408 658.414 111.36C661.486 109.248 664.462 107.552 667.342 106.272C670.286 104.928 672.781 104.256 674.83 104.256C676.942 104.256 678.702 104.736 680.11 105.696C681.518 106.592 682.222 108.064 682.222 110.112C682.222 110.944 681.998 111.904 681.55 112.992C681.102 114.08 680.27 115.008 679.054 115.776C677.902 116.544 676.142 116.928 673.774 116.928C673.07 116.928 672.27 116.832 671.374 116.64C668.622 118.048 665.998 119.584 663.502 121.248C661.006 122.912 658.862 124.64 657.07 126.432C655.278 128.224 654.062 129.984 653.422 131.712C654.83 132.288 656.302 132.864 657.838 133.44C659.438 134.016 661.134 134.592 662.926 135.168C664.206 134.144 665.486 133.12 666.766 132.096C668.11 131.008 669.422 129.92 670.702 128.832C675.694 124.672 680.27 120.992 684.43 117.792C688.654 114.592 692.238 112.064 695.182 110.208C698.19 108.352 700.334 107.424 701.614 107.424C702.702 107.424 703.598 107.84 704.302 108.672C705.006 109.504 705.358 110.464 705.358 111.552C705.358 112.384 704.974 113.344 704.206 114.432C703.502 115.52 702.158 117.024 700.174 118.944C698.19 120.8 695.342 123.264 691.63 126.336C687.982 129.344 683.246 133.216 677.422 137.952C676.718 138.528 675.982 139.104 675.214 139.68C679.374 141.6 682.574 143.84 684.814 146.4C687.054 148.896 688.174 152.096 688.174 156C688.174 160.8 686.798 165.344 684.046 169.632C681.358 173.856 677.358 177.28 672.046 179.904C666.734 182.528 660.142 183.84 652.27 183.84ZM665.614 147.264C662.094 150.016 658.83 152.608 655.822 155.04C652.878 157.472 650.51 159.712 648.718 161.76C646.926 163.744 646.03 165.44 646.03 166.848C646.03 168.64 646.734 170.016 648.142 170.976C649.55 171.872 651.918 172.32 655.246 172.32C657.55 172.32 659.886 171.872 662.254 170.976C664.622 170.08 666.766 168.832 668.686 167.232C670.67 165.632 672.27 163.84 673.486 161.856C674.702 159.808 675.31 157.632 675.31 155.328C675.31 153.408 674.382 151.808 672.526 150.528C670.734 149.248 668.43 148.16 665.614 147.264ZM722.367 140.64C722.367 138.528 722.655 136.672 723.231 135.072C723.871 133.408 724.607 132.096 725.439 131.136C724.415 129.984 723.647 128.832 723.135 127.68C722.623 126.464 722.367 125.376 722.367 124.416C722.367 121.408 723.231 118.592 724.959 115.968C726.751 113.344 729.119 111.2 732.063 109.536C735.071 107.872 738.367 107.04 741.951 107.04C746.239 107.04 749.759 108.608 752.511 111.744C755.327 114.88 756.799 120 756.927 127.104C760.703 125.696 764.031 123.936 766.911 121.824C769.791 119.712 772.287 117.536 774.399 115.296C776.575 113.056 778.431 111.008 779.967 109.152C781.247 107.616 782.527 106.08 783.807 104.544C785.151 102.944 786.815 102.144 788.799 102.144C790.207 102.144 791.295 102.752 792.063 103.968C792.895 105.12 793.311 106.432 793.311 107.904C793.311 109.44 792.447 111.648 790.719 114.528C788.991 117.408 786.655 120.768 783.711 124.608C780.831 128.448 777.535 132.576 773.823 136.992C770.175 141.408 766.367 145.952 762.399 150.624C758.431 155.232 754.559 159.808 750.783 164.352C747.007 168.896 743.583 173.152 740.511 177.12C741.407 178.272 742.079 179.776 742.527 181.632C741.759 182.72 740.511 183.84 738.783 184.992C737.055 186.144 735.327 187.104 733.599 187.872C731.871 188.704 730.559 189.12 729.663 189.12C726.847 189.12 725.439 187.584 725.439 184.512C725.439 183.232 726.047 181.472 727.263 179.232C728.479 176.992 729.919 174.688 731.583 172.32C733.823 169.12 736.895 165.184 740.799 160.512C744.703 155.84 749.055 150.752 753.855 145.248C758.719 139.744 763.711 134.144 768.831 128.448C766.847 129.792 764.767 131.04 762.591 132.192C760.415 133.344 758.111 134.336 755.679 135.168C754.591 138.56 752.895 141.792 750.591 144.864C748.287 147.936 745.695 150.432 742.815 152.352C739.999 154.208 737.151 155.136 734.271 155.136C730.687 155.136 727.807 153.76 725.631 151.008C723.455 148.192 722.367 144.736 722.367 140.64ZM780.447 185.664C778.399 185.664 776.447 184.864 774.591 183.264C772.735 181.664 771.199 179.328 769.983 176.256C768.831 173.12 768.255 169.344 768.255 164.928C768.255 161.088 768.543 157.952 769.119 155.52C769.759 153.088 770.655 151.072 771.807 149.472C771.615 148.448 771.519 147.232 771.519 145.824C771.519 143.776 772.223 141.824 773.631 139.968C775.039 138.112 776.927 136.608 779.295 135.456C781.727 134.304 784.447 133.728 787.455 133.728C790.399 133.728 792.991 134.4 795.231 135.744C797.535 137.024 799.327 139.136 800.607 142.08C801.951 145.024 802.623 148.928 802.623 153.792C802.623 157.504 801.951 161.248 800.607 165.024C799.327 168.736 797.599 172.16 795.423 175.296C793.247 178.432 790.847 180.928 788.223 182.784C785.599 184.704 783.007 185.664 780.447 185.664ZM780.543 148.032C780.927 148.672 781.119 149.536 781.119 150.624C781.119 152.16 780.863 154.016 780.351 156.192C779.839 158.368 779.295 160.672 778.719 163.104C778.207 165.536 777.951 167.904 777.951 170.208C777.951 171.04 778.079 171.744 778.335 172.32C778.591 172.832 779.071 173.088 779.775 173.088C781.119 173.088 782.463 172.416 783.807 171.072C785.151 169.728 786.399 167.936 787.551 165.696C788.703 163.392 789.599 160.832 790.239 158.016C790.943 155.2 791.295 152.288 791.295 149.28C791.295 147.808 791.103 146.72 790.719 146.016C790.335 145.312 789.503 144.96 788.223 144.96C786.367 144.96 784.799 145.28 783.519 145.92C782.303 146.496 781.311 147.2 780.543 148.032ZM745.887 129.6C746.271 127.616 746.463 125.6 746.463 123.552C746.463 122.016 746.175 120.864 745.599 120.096C745.023 119.264 743.839 118.848 742.047 118.848C739.807 118.848 737.887 119.328 736.287 120.288C734.751 121.248 733.983 122.624 733.983 124.416C733.983 126.272 734.719 127.648 736.191 128.544C737.663 129.376 739.295 129.792 741.087 129.792C742.751 129.792 744.351 129.728 745.887 129.6ZM743.295 137.568C742.719 137.568 742.143 137.568 741.567 137.568C739.903 137.568 738.335 137.44 736.863 137.184C735.455 136.928 734.143 136.576 732.927 136.128C732.799 136.896 732.639 137.696 732.447 138.528C732.319 139.296 732.255 140.096 732.255 140.928C732.255 141.888 732.447 142.752 732.831 143.52C733.215 144.224 733.951 144.576 735.039 144.576C736.575 144.576 738.047 143.936 739.455 142.656C740.927 141.376 742.207 139.68 743.295 137.568Z" fill="white"/>
</g>
<defs>
<filter id="filter0_d_57_546" x="565.072" y="89.1436" width="254.552" height="116.977" filterUnits="userSpaceOnUse" color-interpolation-filters="sRGB">
<feFlood flood-opacity="0" result="BackgroundImageFix"/>
<feColorMatrix in="SourceAlpha" type="matrix" values="0 0 0 0 0 0 0 0 0 0 0 0 0 0 0 0 0 0 127 0" result="hardAlpha"/>
<feOffset dx="2" dy="2"/>
<feGaussianBlur stdDeviation="7.5"/>
<feComposite in2="hardAlpha" operator="out"/>
<feColorMatrix type="matrix" values="0 0 0 0 0 0 0 0 0 0 0 0 0 0 0 0 0 0 0.75 0"/>
<feBlend mode="normal" in2="BackgroundImageFix" result="effect1_dropShadow_57_546"/>
<feBlend mode="normal" in="SourceGraphic" in2="effect1_dropShadow_57_546" result="shape"/>
</filter>
<linearGradient id="paint0_linear_57_546" x1="165" y1="102.5" x2="679" y2="616.5" gradientUnits="userSpaceOnUse">
<stop stop-color="white" stop-opacity="0.9"/>
<stop offset="1" stop-color="white" stop-opacity="0.75"/>
</linearGradient>
</defs>
</svg>
