<svg width="803" height="746" viewBox="0 0 803 746" fill="none" xmlns="http://www.w3.org/2000/svg">
<circle cx="408" cy="373" r="363" fill="url(#paint0_linear_57_528)" fill-opacity="0.5" stroke="#228B22" stroke-width="20"/>
<circle cx="683.5" cy="144.5" r="117" fill="#228B22" fill-opacity="0.95" stroke="#228B22" stroke-width="5"/>
<path d="M453.369 371.982C489.415 394.653 584.798 383.455 564.187 321.564C560.629 310.89 550.929 298.617 541.158 292.746C539.593 291.811 528.204 289.275 528.204 288.426C528.204 286.457 590.182 194.635 500.857 184.699C454.967 179.6 419.194 221.398 407.309 261.052C406.869 262.525 395.761 304.275 397.232 304.275C424.444 304.275 386.691 178.126 364.136 158.771C344.013 141.504 322.561 134.28 296.489 134.28C212.901 134.28 270.735 233.383 261.947 250.968C260.186 254.502 127.016 288.879 155.444 364.779C170.769 405.679 223.981 444.965 267.706 426.727C272.257 424.829 339.067 397.314 333.91 392.152C324.387 382.62 249 447.054 249 469.95C249 522.946 304.484 495.234 323.835 514.612C334.921 525.703 323.785 568.253 361.256 582.317C408.221 599.952 436.791 515.561 440.413 482.91C442.755 461.799 429.319 442.223 426.022 422.408" stroke="#228B22" stroke-width="20" stroke-linecap="round" stroke-linejoin="round"/>
<path d="M584 626C541.857 500.522 466.88 402.197 362 337" stroke="#228B22" stroke-width="20" stroke-linecap="round" stroke-linejoin="round"/>
<path d="M452.791 319.525C465.921 317.943 348.167 351.079 362.089 336.994C364.842 334.212 367.827 354.292 367.85 354.464C369.357 368.162 371.955 381.997 364.968 393.769" stroke="#228B22" stroke-width="20" stroke-linecap="round" stroke-linejoin="round"/>
<g filter="url(#filter0_d_57_528)">
<path d="M600.344 165.984C598.36 165.984 596.76 165.184 595.544 163.584C594.328 161.984 593.72 160.16 593.72 158.112C593.72 156.384 593.816 154.56 594.008 152.64C594.264 150.656 594.584 148.64 594.968 146.592C592.088 146.784 589.24 146.88 586.424 146.88C584.376 146.88 582.456 146.432 580.664 145.536C578.936 144.64 578.072 143.296 578.072 141.504C578.072 139.84 578.776 138.592 580.184 137.76C581.656 136.864 583.288 136.384 585.08 136.32C586.808 136.192 588.792 135.968 591.032 135.648C593.272 135.328 595.576 134.976 597.944 134.592C598.968 131.328 600.024 128.32 601.112 125.568C602.264 122.816 603.352 120.608 604.376 118.944C605.4 117.28 606.296 116.448 607.064 116.448C608.792 116.448 610.104 116.864 611 117.696C611.896 118.464 612.344 120.16 612.344 122.784C612.344 123.552 612.216 124.832 611.96 126.624C611.704 128.416 611.352 130.464 610.904 132.768C612.568 132.64 613.944 132.576 615.032 132.576C618.424 132.576 620.888 133.12 622.424 134.208C624.024 135.296 624.824 136.768 624.824 138.624C624.824 139.712 623.32 140.832 620.312 141.984C617.304 143.136 613.432 144.128 608.696 144.96C608.12 148.096 607.544 151.104 606.968 153.984C606.392 156.864 605.944 159.264 605.624 161.184C605.368 162.528 604.728 163.68 603.704 164.64C602.744 165.536 601.624 165.984 600.344 165.984ZM635.285 186.912C634.005 186.912 632.853 186.464 631.829 185.568C630.869 184.736 630.389 183.456 630.389 181.728C630.389 180.32 630.997 178.272 632.213 175.584C633.429 172.832 635.093 169.632 637.205 165.984C639.381 162.272 641.813 158.24 644.501 153.888C647.253 149.472 650.165 144.896 653.237 140.16C655.797 136.192 658.421 132.192 661.109 128.16C663.861 124.064 666.517 120.064 669.077 116.16C664.533 116.928 660.117 117.696 655.829 118.464C651.605 119.232 647.957 119.904 644.885 120.48C641.813 120.992 639.701 121.248 638.549 121.248C635.605 121.248 633.685 120.64 632.789 119.424C631.893 118.208 631.445 116.832 631.445 115.296C631.445 114.528 632.341 113.728 634.133 112.896C635.925 112 638.293 111.104 641.237 110.208C644.181 109.312 647.381 108.48 650.837 107.712C654.293 106.944 657.685 106.24 661.013 105.6C664.405 104.96 667.413 104.48 670.037 104.16C672.725 103.776 674.709 103.584 675.989 103.584C677.589 103.584 679.125 104 680.597 104.832C682.069 105.6 683.285 106.624 684.245 107.904C685.205 109.12 685.685 110.432 685.685 111.84C685.685 112.288 685.173 113.44 684.149 115.296C683.189 117.088 681.845 119.424 680.117 122.304C678.389 125.184 676.405 128.448 674.165 132.096C671.925 135.744 669.589 139.584 667.157 143.616C664.021 148.8 660.789 154.016 657.461 159.264C654.197 164.448 651.093 169.216 648.149 173.568C645.205 177.856 642.645 181.28 640.469 183.84C639.765 184.672 638.965 185.376 638.069 185.952C637.237 186.592 636.309 186.912 635.285 186.912ZM705.399 140.64C705.399 138.528 705.687 136.672 706.263 135.072C706.903 133.408 707.639 132.096 708.471 131.136C707.447 129.984 706.679 128.832 706.167 127.68C705.655 126.464 705.399 125.376 705.399 124.416C705.399 121.408 706.263 118.592 707.991 115.968C709.783 113.344 712.151 111.2 715.095 109.536C718.103 107.872 721.399 107.04 724.983 107.04C729.271 107.04 732.791 108.608 735.543 111.744C738.359 114.88 739.831 120 739.959 127.104C743.735 125.696 747.063 123.936 749.943 121.824C752.823 119.712 755.319 117.536 757.431 115.296C759.607 113.056 761.463 111.008 762.999 109.152C764.279 107.616 765.559 106.08 766.839 104.544C768.183 102.944 769.847 102.144 771.831 102.144C773.239 102.144 774.327 102.752 775.095 103.968C775.927 105.12 776.343 106.432 776.343 107.904C776.343 109.44 775.479 111.648 773.751 114.528C772.023 117.408 769.687 120.768 766.743 124.608C763.863 128.448 760.567 132.576 756.855 136.992C753.207 141.408 749.399 145.952 745.431 150.624C741.463 155.232 737.591 159.808 733.815 164.352C730.039 168.896 726.615 173.152 723.543 177.12C724.439 178.272 725.111 179.776 725.559 181.632C724.791 182.72 723.543 183.84 721.815 184.992C720.087 186.144 718.359 187.104 716.631 187.872C714.903 188.704 713.591 189.12 712.695 189.12C709.879 189.12 708.471 187.584 708.471 184.512C708.471 183.232 709.079 181.472 710.295 179.232C711.511 176.992 712.951 174.688 714.615 172.32C716.855 169.12 719.927 165.184 723.831 160.512C727.735 155.84 732.087 150.752 736.887 145.248C741.751 139.744 746.743 134.144 751.863 128.448C749.879 129.792 747.799 131.04 745.623 132.192C743.447 133.344 741.143 134.336 738.711 135.168C737.623 138.56 735.927 141.792 733.623 144.864C731.319 147.936 728.727 150.432 725.847 152.352C723.031 154.208 720.183 155.136 717.303 155.136C713.719 155.136 710.839 153.76 708.663 151.008C706.487 148.192 705.399 144.736 705.399 140.64ZM763.479 185.664C761.431 185.664 759.479 184.864 757.623 183.264C755.767 181.664 754.231 179.328 753.015 176.256C751.863 173.12 751.287 169.344 751.287 164.928C751.287 161.088 751.575 157.952 752.151 155.52C752.791 153.088 753.687 151.072 754.839 149.472C754.647 148.448 754.551 147.232 754.551 145.824C754.551 143.776 755.255 141.824 756.663 139.968C758.071 138.112 759.959 136.608 762.327 135.456C764.759 134.304 767.479 133.728 770.487 133.728C773.431 133.728 776.023 134.4 778.263 135.744C780.567 137.024 782.359 139.136 783.639 142.08C784.983 145.024 785.655 148.928 785.655 153.792C785.655 157.504 784.983 161.248 783.639 165.024C782.359 168.736 780.631 172.16 778.455 175.296C776.279 178.432 773.879 180.928 771.255 182.784C768.631 184.704 766.039 185.664 763.479 185.664ZM763.575 148.032C763.959 148.672 764.151 149.536 764.151 150.624C764.151 152.16 763.895 154.016 763.383 156.192C762.871 158.368 762.327 160.672 761.751 163.104C761.239 165.536 760.983 167.904 760.983 170.208C760.983 171.04 761.111 171.744 761.367 172.32C761.623 172.832 762.103 173.088 762.807 173.088C764.151 173.088 765.495 172.416 766.839 171.072C768.183 169.728 769.431 167.936 770.583 165.696C771.735 163.392 772.631 160.832 773.271 158.016C773.975 155.2 774.327 152.288 774.327 149.28C774.327 147.808 774.135 146.72 773.751 146.016C773.367 145.312 772.535 144.96 771.255 144.96C769.399 144.96 767.831 145.28 766.551 145.92C765.335 146.496 764.343 147.2 763.575 148.032ZM728.919 129.6C729.303 127.616 729.495 125.6 729.495 123.552C729.495 122.016 729.207 120.864 728.631 120.096C728.055 119.264 726.871 118.848 725.079 118.848C722.839 118.848 720.919 119.328 719.319 120.288C717.783 121.248 717.015 122.624 717.015 124.416C717.015 126.272 717.751 127.648 719.223 128.544C720.695 129.376 722.327 129.792 724.119 129.792C725.783 129.792 727.383 129.728 728.919 129.6ZM726.327 137.568C725.751 137.568 725.175 137.568 724.599 137.568C722.935 137.568 721.367 137.44 719.895 137.184C718.487 136.928 717.175 136.576 715.959 136.128C715.831 136.896 715.671 137.696 715.479 138.528C715.351 139.296 715.287 140.096 715.287 140.928C715.287 141.888 715.479 142.752 715.863 143.52C716.247 144.224 716.983 144.576 718.071 144.576C719.607 144.576 721.079 143.936 722.487 142.656C723.959 141.376 725.239 139.68 726.327 137.568Z" fill="white"/>
</g>
<defs>
<filter id="filter0_d_57_528" x="565.072" y="89.1436" width="237.583" height="116.977" filterUnits="userSpaceOnUse" color-interpolation-filters="sRGB">
<feFlood flood-opacity="0" result="BackgroundImageFix"/>
<feColorMatrix in="SourceAlpha" type="matrix" values="0 0 0 0 0 0 0 0 0 0 0 0 0 0 0 0 0 0 127 0" result="hardAlpha"/>
<feOffset dx="2" dy="2"/>
<feGaussianBlur stdDeviation="7.5"/>
<feComposite in2="hardAlpha" operator="out"/>
<feColorMatrix type="matrix" values="0 0 0 0 0 0 0 0 0 0 0 0 0 0 0 0 0 0 0.75 0"/>
<feBlend mode="normal" in2="BackgroundImageFix" result="effect1_dropShadow_57_528"/>
<feBlend mode="normal" in="SourceGraphic" in2="effect1_dropShadow_57_528" result="shape"/>
</filter>
<linearGradient id="paint0_linear_57_528" x1="165" y1="102.5" x2="679" y2="616.5" gradientUnits="userSpaceOnUse">
<stop stop-color="#228B22" stop-opacity="0.9"/>
<stop offset="1" stop-color="#228B22" stop-opacity="0.75"/>
</linearGradient>
</defs>
</svg>
